M48
METRIC,LZ,000.000
;FILE_FORMAT=3:3
;TYPE=PLATED
;Layer: PTH_Through
;EasyEDA v6.5.38, 2023-11-28 08:19:45
;5b7e501a1e2443daa6a4fc3441366d2c,52c161dc85b4440087471843f8ea1cfe,10
;Gerber Generator version 0.2
;Holesize 1 = 0.306 mm
T01C0.306
;Holesize 2 = 0.310 mm
T02C0.310
;Holesize 3 = 0.889 mm
T03C0.889
;Holesize 4 = 1.101 mm
T04C1.101
;Holesize 5 = 1.200 mm
T05C1.200
;Holesize 6 = 1.400 mm
T06C1.400
%
G05
G90
T01
X083317Y091093
X090940Y094064
X083116Y095933
X086682Y095785
X106790Y098622
X095682Y107425
X084324Y096410
X082681Y101593
X092783Y096905
X088619Y101444
X096444Y112404
X089569Y118693
X099221Y115687
X099221Y108100
X089975Y100524
X091245Y100705
X094535Y092698
X094293Y096290
X087424Y127410
X098635Y116200
X086495Y105021
X087260Y128350
X085126Y112540
X098807Y095040
X098345Y093840
X093265Y093337
X095845Y096373
X074750Y097601
X081881Y091802
X069600Y090790
X078488Y102952
X075446Y085012
X078325Y100608
X095805Y093823
X095697Y095102
X075637Y097780
X080606Y092596
X086557Y102211
X097100Y096283
X097075Y094066
X087583Y098103
X107914Y099276
X104837Y097972
T02
X090600Y128850
X100025Y125576
X096000Y134509
X083400Y104550
X079800Y109200
T03
X079950Y121940
X079950Y119400
X079950Y116860
T04
X106000Y107460
X106000Y110000
X106000Y112540
X106000Y115080
X106000Y117620
X106000Y120160
X106000Y122700
X106000Y125240
X106000Y127780
X106000Y130320
X106000Y132860
X106000Y135400
X106000Y137940
X083000Y107460
X083000Y110000
X083000Y112540
X083000Y115080
X083000Y117620
X083000Y120160
X083000Y122700
X083000Y125240
X083000Y127780
X083000Y130320
X083000Y132860
X083000Y135400
X083000Y137940
T05
X090750Y107500
X090750Y110040
X090750Y112580
X090750Y115120
X090750Y117660
X090750Y120200
T06
X072300Y137310
X072300Y133500
X072300Y129690
X072300Y121960
X072300Y118150
X072300Y114340
X072300Y106610
X072300Y102800
X072300Y098990
X072300Y091260
X072300Y087450
X072300Y083640
X116550Y083640
X116550Y087450
X116550Y091260
X116550Y098940
X116550Y102750
X116550Y106560
X116550Y114240
X116550Y118050
X116550Y121860
X116550Y129540
X116550Y133350
X116550Y137160
X104445Y084450
X108255Y084450
M30
