G04 Layer: BottomSilkscreenLayer*
G04 EasyEDA v6.5.38, 2023-11-28 08:19:45*
G04 5b7e501a1e2443daa6a4fc3441366d2c,52c161dc85b4440087471843f8ea1cfe,10*
G04 Gerber Generator version 0.2*
G04 Scale: 100 percent, Rotated: No, Reflected: No *
G04 Dimensions in millimeters *
G04 leading zeros omitted , absolute positions ,4 integer and 5 decimal *
%FSLAX45Y45*%
%MOMM*%

%ADD10C,0.1524*%
%ADD11C,0.2540*%

%LPD*%
D10*
X10839500Y12342619D02*
G01*
X10849914Y12332205D01*
X10854994Y12316711D01*
X10854994Y12295883D01*
X10849914Y12280389D01*
X10839500Y12269975D01*
X10829086Y12269975D01*
X10818672Y12275055D01*
X10813338Y12280389D01*
X10808258Y12290803D01*
X10797844Y12322045D01*
X10792764Y12332205D01*
X10787430Y12337539D01*
X10777016Y12342619D01*
X10761522Y12342619D01*
X10751108Y12332205D01*
X10746028Y12316711D01*
X10746028Y12295883D01*
X10751108Y12280389D01*
X10761522Y12269975D01*
X10854994Y12376909D02*
G01*
X10746028Y12376909D01*
X10854994Y12449807D02*
G01*
X10746028Y12449807D01*
X10803178Y12376909D02*
G01*
X10803178Y12449807D01*
X10834166Y12484097D02*
G01*
X10839500Y12494511D01*
X10854994Y12510005D01*
X10746028Y12510005D01*
X8539505Y12342619D02*
G01*
X8549919Y12332205D01*
X8554999Y12316711D01*
X8554999Y12295883D01*
X8549919Y12280389D01*
X8539505Y12269975D01*
X8529091Y12269975D01*
X8518677Y12275055D01*
X8513343Y12280389D01*
X8508263Y12290803D01*
X8497849Y12322045D01*
X8492769Y12332205D01*
X8487435Y12337539D01*
X8477021Y12342619D01*
X8461527Y12342619D01*
X8451113Y12332205D01*
X8446033Y12316711D01*
X8446033Y12295883D01*
X8451113Y12280389D01*
X8461527Y12269975D01*
X8554999Y12376909D02*
G01*
X8446033Y12376909D01*
X8554999Y12449807D02*
G01*
X8446033Y12449807D01*
X8503183Y12376909D02*
G01*
X8503183Y12449807D01*
X8529091Y12489177D02*
G01*
X8534171Y12489177D01*
X8544585Y12494511D01*
X8549919Y12499591D01*
X8554999Y12510005D01*
X8554999Y12530833D01*
X8549919Y12541247D01*
X8544585Y12546327D01*
X8534171Y12551661D01*
X8523757Y12551661D01*
X8513343Y12546327D01*
X8497849Y12535913D01*
X8446033Y12484097D01*
X8446033Y12556741D01*
D11*
X10729975Y10599976D02*
G01*
X10729975Y13949982D01*
X10479963Y13949982D01*
X10479963Y10599976D01*
X10729975Y10599976D01*
X10729975Y10599976D02*
G01*
X10729975Y10869978D01*
X10479963Y10869978D01*
X10479963Y10599976D01*
X10729975Y10599976D01*
X8429980Y10599976D02*
G01*
X8429980Y13949982D01*
X8179968Y13949982D01*
X8179968Y10599976D01*
X8429980Y10599976D01*
X8429980Y10599976D02*
G01*
X8429980Y10869978D01*
X8179968Y10869978D01*
X8179968Y10599976D01*
X8429980Y10599976D01*
M02*
