G04 Layer: TopSilkscreenLayer*
G04 EasyEDA v6.5.38, 2023-11-28 08:19:45*
G04 5b7e501a1e2443daa6a4fc3441366d2c,52c161dc85b4440087471843f8ea1cfe,10*
G04 Gerber Generator version 0.2*
G04 Scale: 100 percent, Rotated: No, Reflected: No *
G04 Dimensions in millimeters *
G04 leading zeros omitted , absolute positions ,4 integer and 5 decimal *
%FSLAX45Y45*%
%MOMM*%

%ADD10C,0.2032*%
%ADD11C,0.1524*%
%ADD12C,0.1500*%
%ADD13C,0.2030*%
%ADD14C,0.2540*%
%ADD15C,0.3000*%
%ADD16C,0.0193*%

%LPD*%
G36*
X10403890Y9030665D02*
G01*
X10398048Y9030309D01*
X10392562Y9029242D01*
X10387533Y9027566D01*
X10382758Y9025331D01*
X10378287Y9022537D01*
X10374071Y9019286D01*
X10370007Y9015628D01*
X10366044Y9011615D01*
X10374426Y9003233D01*
X10380472Y9009380D01*
X10387126Y9014307D01*
X10394340Y9017558D01*
X10402112Y9018727D01*
X10408056Y9018219D01*
X10413187Y9016695D01*
X10417454Y9014307D01*
X10420959Y9011107D01*
X10423601Y9007195D01*
X10425531Y9002674D01*
X10426649Y8997594D01*
X10427004Y8992057D01*
X10426801Y8987790D01*
X10426141Y8983370D01*
X10425023Y8978900D01*
X10423448Y8974277D01*
X10421416Y8969552D01*
X10418927Y8964676D01*
X10415981Y8959697D01*
X10412526Y8954516D01*
X10408615Y8949232D01*
X10404144Y8943695D01*
X10393781Y8932214D01*
X10387838Y8926118D01*
X10374325Y8913418D01*
X10366806Y8906713D01*
X10366806Y8898077D01*
X10447324Y8898077D01*
X10447324Y8910523D01*
X10404856Y8910472D01*
X10393934Y8909964D01*
X10388650Y8909507D01*
X10400030Y8920530D01*
X10410240Y8931300D01*
X10419232Y8941866D01*
X10423245Y8947099D01*
X10426852Y8952280D01*
X10430103Y8957411D01*
X10432948Y8962491D01*
X10435437Y8967571D01*
X10437469Y8972600D01*
X10439095Y8977630D01*
X10440263Y8982608D01*
X10440974Y8987586D01*
X10441228Y8992565D01*
X10440924Y8998153D01*
X10440060Y9003436D01*
X10438638Y9008262D01*
X10436707Y9012732D01*
X10434218Y9016746D01*
X10431221Y9020302D01*
X10427766Y9023350D01*
X10423855Y9025940D01*
X10419486Y9027972D01*
X10414660Y9029446D01*
X10409478Y9030360D01*
G37*
G36*
X10309656Y9028125D02*
G01*
X10304221Y9025331D01*
X10298074Y9022892D01*
X10291114Y9020911D01*
X10283240Y9019235D01*
X10283240Y9009837D01*
X10306100Y9009837D01*
X10306100Y8910269D01*
X10277144Y8910269D01*
X10277144Y8898077D01*
X10346994Y8898077D01*
X10346994Y8910269D01*
X10320578Y8910269D01*
X10320578Y9028125D01*
G37*
G36*
X10456722Y9028125D02*
G01*
X10498632Y8898077D01*
X10515396Y8898077D01*
X10557052Y9028125D01*
X10542066Y9028125D01*
X10509351Y8918905D01*
X10507522Y8913317D01*
X10507014Y8913317D01*
X10503509Y8924290D01*
X10495737Y8950807D01*
X10472216Y9028125D01*
G37*
G36*
X10206532Y9008059D02*
G01*
X10206532Y8968943D01*
X10170464Y8968943D01*
X10170464Y8958021D01*
X10206532Y8958021D01*
X10206532Y8918905D01*
X10218470Y8918905D01*
X10218470Y8958021D01*
X10254538Y8958021D01*
X10254538Y8968943D01*
X10218470Y8968943D01*
X10218470Y9008059D01*
G37*
G36*
X10717326Y9031833D02*
G01*
X10711027Y9031528D01*
X10704931Y9030614D01*
X10699140Y9029192D01*
X10693603Y9027160D01*
X10688421Y9024569D01*
X10683544Y9021470D01*
X10679023Y9017863D01*
X10674858Y9013748D01*
X10671149Y9009126D01*
X10667847Y9004046D01*
X10664952Y8998508D01*
X10662564Y8992463D01*
X10660684Y8986062D01*
X10659262Y8979204D01*
X10658449Y8971889D01*
X10658144Y8964269D01*
X10658398Y8956548D01*
X10659262Y8949232D01*
X10660583Y8942374D01*
X10662462Y8935923D01*
X10664748Y8929928D01*
X10667542Y8924442D01*
X10670794Y8919362D01*
X10674451Y8914790D01*
X10678464Y8910675D01*
X10682884Y8907119D01*
X10687659Y8904071D01*
X10692739Y8901531D01*
X10698175Y8899550D01*
X10703864Y8898077D01*
X10709859Y8897213D01*
X10716056Y8896959D01*
X10722457Y8897213D01*
X10728502Y8898026D01*
X10734141Y8899347D01*
X10739424Y8901074D01*
X10744250Y8903258D01*
X10748619Y8905849D01*
X10752531Y8908745D01*
X10755934Y8911945D01*
X10755934Y8965793D01*
X10714024Y8965793D01*
X10714024Y8953601D01*
X10742218Y8953601D01*
X10742218Y8918041D01*
X10737494Y8914587D01*
X10731601Y8912047D01*
X10724845Y8910421D01*
X10717580Y8909913D01*
X10710773Y8910320D01*
X10704525Y8911590D01*
X10698784Y8913723D01*
X10693603Y8916619D01*
X10688980Y8920276D01*
X10684916Y8924645D01*
X10681462Y8929725D01*
X10678566Y8935516D01*
X10676331Y8941917D01*
X10674705Y8948978D01*
X10673689Y8956598D01*
X10673384Y8964777D01*
X10673740Y8972804D01*
X10674807Y8980271D01*
X10676483Y8987231D01*
X10678871Y8993479D01*
X10681817Y8999169D01*
X10685373Y9004147D01*
X10689488Y9008465D01*
X10694162Y9012021D01*
X10699292Y9014866D01*
X10704931Y9016949D01*
X10711027Y9018168D01*
X10717580Y9018625D01*
X10726826Y9017660D01*
X10734497Y9015069D01*
X10740898Y9011107D01*
X10746282Y9006179D01*
X10754410Y9015831D01*
X10751413Y9018676D01*
X10748010Y9021521D01*
X10744098Y9024213D01*
X10739780Y9026652D01*
X10734903Y9028734D01*
X10729569Y9030360D01*
X10723727Y9031427D01*
G37*
G36*
X10787430Y9029293D02*
G01*
X10787430Y8899245D01*
X10801400Y8899245D01*
X10801350Y8975648D01*
X10800537Y8995562D01*
X10799622Y9010243D01*
X10800384Y9010243D01*
X10814608Y8983573D01*
X10863630Y8899245D01*
X10878870Y8899245D01*
X10878870Y9029293D01*
X10864900Y9029293D01*
X10864951Y8953906D01*
X10865764Y8933535D01*
X10866678Y8918549D01*
X10865916Y8918549D01*
X10851946Y8945219D01*
X10802670Y9029293D01*
G37*
G36*
X10915192Y9029293D02*
G01*
X10915192Y9017355D01*
X10945926Y9017355D01*
X10951616Y9017101D01*
X10957001Y9016441D01*
X10961928Y9015323D01*
X10966551Y9013799D01*
X10970768Y9011818D01*
X10974628Y9009481D01*
X10978134Y9006687D01*
X10981232Y9003538D01*
X10983976Y8999982D01*
X10986363Y8996019D01*
X10988344Y8991701D01*
X10990021Y8987028D01*
X10991291Y8981948D01*
X10992205Y8976563D01*
X10992713Y8970822D01*
X10992916Y8964777D01*
X10992713Y8958681D01*
X10992205Y8952890D01*
X10991291Y8947454D01*
X10990021Y8942374D01*
X10988344Y8937650D01*
X10986363Y8933230D01*
X10983976Y8929217D01*
X10981232Y8925610D01*
X10978134Y8922359D01*
X10974628Y8919514D01*
X10970768Y8917076D01*
X10966551Y8915095D01*
X10961928Y8913469D01*
X10957001Y8912352D01*
X10951616Y8911640D01*
X10945926Y8911437D01*
X10929924Y8911437D01*
X10929924Y9017355D01*
X10915192Y9017355D01*
X10915192Y8899245D01*
X10947704Y8899245D01*
X10954867Y8899499D01*
X10961573Y8900363D01*
X10967872Y8901785D01*
X10973714Y8903716D01*
X10979099Y8906205D01*
X10984026Y8909151D01*
X10988548Y8912656D01*
X10992561Y8916670D01*
X10996117Y8921140D01*
X10999216Y8926068D01*
X11001857Y8931452D01*
X11004042Y8937244D01*
X11005718Y8943543D01*
X11006937Y8950198D01*
X11007648Y8957259D01*
X11007902Y8964777D01*
X11007648Y8972194D01*
X11006937Y8979255D01*
X11005718Y8985910D01*
X11004042Y8992108D01*
X11001857Y8997848D01*
X10999216Y9003131D01*
X10996066Y9007957D01*
X10992510Y9012326D01*
X10988446Y9016238D01*
X10983925Y9019641D01*
X10978946Y9022537D01*
X10973511Y9024924D01*
X10967618Y9026804D01*
X10961268Y9028176D01*
X10954461Y9028988D01*
X10947196Y9029293D01*
G37*
G36*
X9249359Y12064034D02*
G01*
X9246565Y12020854D01*
X9252153Y12017298D01*
X9255963Y12019686D01*
X9259620Y12021413D01*
X9263481Y12022480D01*
X9267901Y12022886D01*
X9276130Y12021413D01*
X9282379Y12017095D01*
X9286341Y12010237D01*
X9287713Y12001042D01*
X9286087Y11991441D01*
X9281718Y11984278D01*
X9275267Y11979757D01*
X9267393Y11978182D01*
X9259824Y11978995D01*
X9253626Y11981281D01*
X9248546Y11984583D01*
X9244279Y11988596D01*
X9238945Y11981738D01*
X9244177Y11977217D01*
X9250629Y11973204D01*
X9258604Y11970359D01*
X9268409Y11969292D01*
X9274048Y11969800D01*
X9279534Y11971426D01*
X9284563Y11974017D01*
X9289084Y11977624D01*
X9292894Y11982145D01*
X9295841Y11987631D01*
X9297720Y11993930D01*
X9298381Y12001042D01*
X9297822Y12008205D01*
X9296146Y12014403D01*
X9293555Y12019534D01*
X9290100Y12023750D01*
X9285986Y12026950D01*
X9281210Y12029236D01*
X9276029Y12030557D01*
X9270441Y12031014D01*
X9266326Y12030710D01*
X9262618Y12029948D01*
X9259214Y12028627D01*
X9255963Y12026950D01*
X9258503Y12055144D01*
X9293809Y12055144D01*
X9293809Y12064034D01*
G37*
G36*
X9305493Y12064034D02*
G01*
X9335211Y11971070D01*
X9347149Y11971070D01*
X9376867Y12064034D01*
X9366199Y12064034D01*
X9341561Y11981992D01*
X9341053Y11981992D01*
X9336430Y11997232D01*
X9332163Y12012726D01*
X9316415Y12064034D01*
G37*
G36*
X9238945Y10789005D02*
G01*
X9238945Y10780369D01*
X9261043Y10780369D01*
X9266428Y10780115D01*
X9271355Y10779252D01*
X9275775Y10777880D01*
X9279737Y10775950D01*
X9283192Y10773511D01*
X9286138Y10770565D01*
X9288678Y10767110D01*
X9290710Y10763148D01*
X9292285Y10758728D01*
X9293402Y10753852D01*
X9294114Y10748568D01*
X9294317Y10742777D01*
X9294114Y10737088D01*
X9293402Y10731754D01*
X9292285Y10726877D01*
X9290710Y10722406D01*
X9288678Y10718393D01*
X9286138Y10714888D01*
X9283192Y10711840D01*
X9279737Y10709300D01*
X9275775Y10707319D01*
X9271355Y10705896D01*
X9266428Y10704982D01*
X9261043Y10704677D01*
X9249613Y10704677D01*
X9249613Y10780369D01*
X9238945Y10780369D01*
X9238945Y10696041D01*
X9262313Y10696041D01*
X9269018Y10696397D01*
X9275216Y10697514D01*
X9280804Y10699292D01*
X9285884Y10701731D01*
X9290354Y10704830D01*
X9294266Y10708589D01*
X9297568Y10712907D01*
X9300311Y10717784D01*
X9302445Y10723270D01*
X9304020Y10729264D01*
X9304934Y10735767D01*
X9305239Y10742777D01*
X9304934Y10749838D01*
X9304020Y10756341D01*
X9302445Y10762335D01*
X9300311Y10767771D01*
X9297568Y10772597D01*
X9294215Y10776864D01*
X9290253Y10780522D01*
X9285732Y10783519D01*
X9280601Y10785906D01*
X9274911Y10787634D01*
X9268663Y10788650D01*
X9261805Y10789005D01*
G37*
G36*
X9313367Y10789005D02*
G01*
X9313367Y10780115D01*
X9341815Y10780115D01*
X9341815Y10696041D01*
X9352483Y10696041D01*
X9352483Y10780115D01*
X9380931Y10780115D01*
X9380931Y10789005D01*
G37*
G36*
X9397949Y10789005D02*
G01*
X9397949Y10780369D01*
X9424619Y10780369D01*
X9434576Y10779455D01*
X9441789Y10776508D01*
X9446209Y10771174D01*
X9447733Y10763097D01*
X9446209Y10755122D01*
X9441789Y10749381D01*
X9434576Y10745978D01*
X9424619Y10744809D01*
X9408363Y10744809D01*
X9408363Y10780369D01*
X9397949Y10780369D01*
X9397949Y10696041D01*
X9408363Y10696041D01*
X9408363Y10736173D01*
X9425635Y10736173D01*
X9449003Y10696041D01*
X9460687Y10696041D01*
X9436811Y10737189D01*
X9441535Y10738612D01*
X9445752Y10740491D01*
X9449460Y10742930D01*
X9452559Y10745876D01*
X9455048Y10749330D01*
X9456877Y10753394D01*
X9457994Y10757966D01*
X9458401Y10763097D01*
X9457791Y10769701D01*
X9456064Y10775188D01*
X9453219Y10779658D01*
X9449460Y10783214D01*
X9444786Y10785856D01*
X9439351Y10787634D01*
X9433153Y10788700D01*
X9426397Y10789005D01*
G37*
G36*
X8674354Y8855506D02*
G01*
X8674354Y8803690D01*
X8683244Y8803690D01*
X8683244Y8844838D01*
X8767318Y8844838D01*
X8767318Y8855506D01*
G37*
G36*
X8686546Y8797340D02*
G01*
X8680704Y8790736D01*
X8676335Y8783116D01*
X8673541Y8774582D01*
X8672576Y8765082D01*
X8673084Y8758224D01*
X8674608Y8752078D01*
X8677046Y8746744D01*
X8680246Y8742222D01*
X8684107Y8738666D01*
X8688527Y8736025D01*
X8693454Y8734399D01*
X8698738Y8733840D01*
X8707882Y8735364D01*
X8714689Y8739530D01*
X8719769Y8745626D01*
X8723630Y8753144D01*
X8729218Y8766606D01*
X8731707Y8772042D01*
X8734958Y8777020D01*
X8739378Y8780678D01*
X8745474Y8782100D01*
X8751316Y8780830D01*
X8755837Y8777122D01*
X8758682Y8771432D01*
X8759698Y8764066D01*
X8759037Y8757767D01*
X8757259Y8752128D01*
X8754465Y8747099D01*
X8750808Y8742476D01*
X8757666Y8736888D01*
X8762187Y8742273D01*
X8765743Y8748674D01*
X8768029Y8756040D01*
X8768842Y8764066D01*
X8768384Y8770061D01*
X8767013Y8775547D01*
X8764879Y8780424D01*
X8762034Y8784640D01*
X8758478Y8788044D01*
X8754364Y8790635D01*
X8749741Y8792260D01*
X8744712Y8792768D01*
X8735872Y8791041D01*
X8729268Y8786520D01*
X8724493Y8780373D01*
X8721090Y8773718D01*
X8715248Y8760256D01*
X8712200Y8754059D01*
X8708796Y8749080D01*
X8704275Y8745728D01*
X8697976Y8744508D01*
X8691422Y8745931D01*
X8686342Y8749944D01*
X8683091Y8756294D01*
X8681974Y8764828D01*
X8682786Y8772144D01*
X8685123Y8779052D01*
X8688832Y8785402D01*
X8693658Y8790990D01*
G37*
G36*
X8674354Y8715298D02*
G01*
X8674354Y8704630D01*
X8758936Y8704630D01*
X8758936Y8689898D01*
X8758072Y8679942D01*
X8755380Y8672779D01*
X8750554Y8668512D01*
X8743442Y8667038D01*
X8736736Y8668359D01*
X8731707Y8672474D01*
X8728557Y8679688D01*
X8727440Y8690406D01*
X8727440Y8704630D01*
X8719312Y8704630D01*
X8719312Y8687866D01*
X8719058Y8681923D01*
X8718245Y8676690D01*
X8716924Y8672169D01*
X8715044Y8668410D01*
X8712657Y8665413D01*
X8709660Y8663228D01*
X8706154Y8661908D01*
X8702040Y8661450D01*
X8697417Y8661908D01*
X8693454Y8663279D01*
X8690102Y8665464D01*
X8687409Y8668512D01*
X8685377Y8672271D01*
X8683904Y8676792D01*
X8683040Y8682024D01*
X8682736Y8687866D01*
X8682736Y8704630D01*
X8674354Y8704630D01*
X8674354Y8686342D01*
X8674760Y8678875D01*
X8676081Y8672068D01*
X8678214Y8666022D01*
X8681161Y8660892D01*
X8685022Y8656726D01*
X8689695Y8653627D01*
X8695182Y8651697D01*
X8701532Y8651036D01*
X8710066Y8652459D01*
X8716619Y8656421D01*
X8721191Y8662517D01*
X8723884Y8670340D01*
X8724392Y8670340D01*
X8727541Y8664448D01*
X8732113Y8660180D01*
X8737904Y8657539D01*
X8744458Y8656624D01*
X8750096Y8657234D01*
X8754872Y8658910D01*
X8758834Y8661654D01*
X8761984Y8665362D01*
X8764371Y8669985D01*
X8766048Y8675420D01*
X8767013Y8681567D01*
X8767318Y8688374D01*
X8767318Y8715298D01*
G37*
G36*
X10026396Y8851341D02*
G01*
X10026396Y8841689D01*
X10079990Y8841689D01*
X10086492Y8841841D01*
X10107168Y8842959D01*
X10107168Y8842705D01*
X10035794Y8817051D01*
X10035794Y8809685D01*
X10085832Y8791651D01*
X10107168Y8784285D01*
X10107168Y8783523D01*
X10093553Y8784437D01*
X10079990Y8784793D01*
X10026396Y8784793D01*
X10026396Y8775141D01*
X10119360Y8775141D01*
X10119360Y8788095D01*
X10068560Y8806383D01*
X10048748Y8812733D01*
X10048748Y8813241D01*
X10068560Y8820099D01*
X10119360Y8838387D01*
X10119360Y8851341D01*
G37*
G36*
X10038588Y8756091D02*
G01*
X10032746Y8749487D01*
X10028377Y8741867D01*
X10025583Y8733282D01*
X10024618Y8723833D01*
X10025126Y8716924D01*
X10026650Y8710777D01*
X10029088Y8705443D01*
X10032238Y8700973D01*
X10036149Y8697366D01*
X10040569Y8694775D01*
X10045496Y8693150D01*
X10050780Y8692591D01*
X10059924Y8694115D01*
X10066731Y8698230D01*
X10071811Y8704376D01*
X10075672Y8711895D01*
X10081260Y8725357D01*
X10083749Y8730792D01*
X10087000Y8735771D01*
X10091420Y8739428D01*
X10097516Y8740851D01*
X10103358Y8739530D01*
X10107879Y8735822D01*
X10110724Y8730132D01*
X10111740Y8722817D01*
X10111079Y8716518D01*
X10109301Y8710879D01*
X10106456Y8705799D01*
X10102850Y8701227D01*
X10109708Y8695639D01*
X10114229Y8700973D01*
X10117785Y8707424D01*
X10120071Y8714740D01*
X10120884Y8722817D01*
X10120426Y8728760D01*
X10119055Y8734247D01*
X10116921Y8739124D01*
X10114026Y8743340D01*
X10110520Y8746794D01*
X10106406Y8749334D01*
X10101783Y8750960D01*
X10096754Y8751519D01*
X10087914Y8749741D01*
X10081310Y8745220D01*
X10076535Y8739073D01*
X10073132Y8732469D01*
X10067290Y8719007D01*
X10064242Y8712809D01*
X10060838Y8707780D01*
X10056317Y8704478D01*
X10050018Y8703259D01*
X10043414Y8704630D01*
X10038384Y8708644D01*
X10035133Y8715044D01*
X10034016Y8723579D01*
X10034828Y8730894D01*
X10037165Y8737803D01*
X10040874Y8744153D01*
X10045700Y8749741D01*
G37*
G36*
X10026396Y8674049D02*
G01*
X10026396Y8663381D01*
X10110978Y8663381D01*
X10110978Y8648649D01*
X10110114Y8638641D01*
X10107422Y8631478D01*
X10102596Y8627211D01*
X10095484Y8625789D01*
X10088778Y8627059D01*
X10083749Y8631174D01*
X10080599Y8638438D01*
X10079482Y8649157D01*
X10079482Y8663381D01*
X10071354Y8663381D01*
X10071354Y8646617D01*
X10071100Y8640673D01*
X10070287Y8635390D01*
X10068966Y8630869D01*
X10067086Y8627110D01*
X10064699Y8624112D01*
X10061702Y8621979D01*
X10058146Y8620658D01*
X10054082Y8620201D01*
X10049459Y8620658D01*
X10045496Y8621979D01*
X10042144Y8624214D01*
X10039451Y8627211D01*
X10037419Y8631021D01*
X10035946Y8635542D01*
X10035082Y8640724D01*
X10034778Y8646617D01*
X10034778Y8663381D01*
X10026396Y8663381D01*
X10026396Y8645093D01*
X10026802Y8637574D01*
X10028123Y8630767D01*
X10030256Y8624773D01*
X10033203Y8619642D01*
X10037064Y8615476D01*
X10041686Y8612378D01*
X10047224Y8610447D01*
X10053574Y8609787D01*
X10062108Y8611209D01*
X10068661Y8615172D01*
X10073233Y8621268D01*
X10075926Y8629091D01*
X10076434Y8629091D01*
X10079583Y8623198D01*
X10084155Y8618880D01*
X10089946Y8616238D01*
X10096500Y8615375D01*
X10102138Y8615934D01*
X10106914Y8617661D01*
X10110876Y8620404D01*
X10114026Y8624112D01*
X10116413Y8628684D01*
X10118090Y8634120D01*
X10119055Y8640267D01*
X10119360Y8647125D01*
X10119360Y8674049D01*
G37*
G36*
X8720328Y9025382D02*
G01*
X8712606Y9025128D01*
X8705545Y9024467D01*
X8699144Y9023350D01*
X8693404Y9021826D01*
X8688374Y9019895D01*
X8683955Y9017609D01*
X8680246Y9014917D01*
X8677198Y9011920D01*
X8674862Y9008567D01*
X8673185Y9004858D01*
X8672169Y9000896D01*
X8671814Y8996680D01*
X8680196Y8996680D01*
X8680805Y9000693D01*
X8682583Y9004300D01*
X8685682Y9007449D01*
X8689949Y9010142D01*
X8695588Y9012275D01*
X8702497Y9013901D01*
X8710726Y9014866D01*
X8720328Y9015222D01*
X8729827Y9014866D01*
X8737955Y9013901D01*
X8744712Y9012275D01*
X8750198Y9010142D01*
X8754414Y9007449D01*
X8757361Y9004300D01*
X8759139Y9000693D01*
X8759698Y8996680D01*
X8759139Y8992768D01*
X8757361Y8989212D01*
X8754414Y8986062D01*
X8750198Y8983421D01*
X8744712Y8981287D01*
X8737955Y8979712D01*
X8729827Y8978696D01*
X8720328Y8978392D01*
X8710726Y8978696D01*
X8702497Y8979712D01*
X8695588Y8981287D01*
X8689949Y8983421D01*
X8685682Y8986062D01*
X8682583Y8989212D01*
X8680805Y8992768D01*
X8680196Y8996680D01*
X8671814Y8996680D01*
X8672169Y8992463D01*
X8673185Y8988602D01*
X8674862Y8984996D01*
X8677198Y8981694D01*
X8680246Y8978696D01*
X8683955Y8976106D01*
X8688374Y8973820D01*
X8693404Y8971940D01*
X8699144Y8970467D01*
X8705545Y8969349D01*
X8712606Y8968689D01*
X8720328Y8968486D01*
X8728049Y8968689D01*
X8735060Y8969349D01*
X8741410Y8970467D01*
X8747048Y8971940D01*
X8752027Y8973820D01*
X8756294Y8976106D01*
X8759901Y8978696D01*
X8762847Y8981694D01*
X8765133Y8984996D01*
X8766759Y8988602D01*
X8767775Y8992463D01*
X8768080Y8996680D01*
X8767775Y9000896D01*
X8766759Y9004858D01*
X8765133Y9008567D01*
X8762847Y9011920D01*
X8759901Y9014917D01*
X8756294Y9017609D01*
X8752027Y9019895D01*
X8747048Y9021826D01*
X8741410Y9023350D01*
X8735060Y9024467D01*
X8728049Y9025128D01*
G37*
G36*
X8671763Y8529320D02*
G01*
X8671763Y8479282D01*
X8680399Y8479282D01*
X8680399Y8498078D01*
X8764727Y8498078D01*
X8764727Y8505952D01*
X8762746Y8509762D01*
X8761069Y8514080D01*
X8759596Y8519058D01*
X8758377Y8524748D01*
X8751519Y8524748D01*
X8751519Y8508238D01*
X8680399Y8508238D01*
X8680399Y8529320D01*
G37*
G36*
X9314027Y8264652D02*
G01*
X9307931Y8264347D01*
X9302191Y8263381D01*
X9296806Y8261858D01*
X9291726Y8259775D01*
X9287002Y8257133D01*
X9282531Y8253933D01*
X9278315Y8250275D01*
X9274403Y8246109D01*
X9282785Y8236712D01*
X9289338Y8243112D01*
X9296552Y8247837D01*
X9304528Y8250732D01*
X9313519Y8251698D01*
X9319717Y8251240D01*
X9325508Y8249970D01*
X9330842Y8247888D01*
X9335719Y8244992D01*
X9340088Y8241334D01*
X9343948Y8236915D01*
X9347301Y8231835D01*
X9350095Y8226094D01*
X9352280Y8219643D01*
X9353854Y8212632D01*
X9354820Y8205012D01*
X9355175Y8196834D01*
X9354820Y8188807D01*
X9353804Y8181289D01*
X9352178Y8174380D01*
X9349892Y8168081D01*
X9347047Y8162442D01*
X9343593Y8157413D01*
X9339681Y8153146D01*
X9335211Y8149539D01*
X9330334Y8146745D01*
X9324949Y8144662D01*
X9319158Y8143392D01*
X9313011Y8142986D01*
X9304883Y8143849D01*
X9297720Y8146338D01*
X9291370Y8150250D01*
X9285833Y8155431D01*
X9277705Y8145780D01*
X9280702Y8142782D01*
X9284106Y8139836D01*
X9287967Y8137144D01*
X9292234Y8134756D01*
X9296857Y8132673D01*
X9301886Y8131149D01*
X9307271Y8130133D01*
X9313011Y8129778D01*
X9319107Y8130082D01*
X9324949Y8130946D01*
X9330537Y8132419D01*
X9335871Y8134451D01*
X9340900Y8136991D01*
X9345625Y8140090D01*
X9349943Y8143697D01*
X9353956Y8147862D01*
X9357563Y8152434D01*
X9360763Y8157565D01*
X9363557Y8163102D01*
X9365894Y8169097D01*
X9367723Y8175548D01*
X9369044Y8182406D01*
X9369856Y8189671D01*
X9370161Y8197342D01*
X9369856Y8205063D01*
X9369044Y8212328D01*
X9367723Y8219186D01*
X9365945Y8225637D01*
X9363659Y8231631D01*
X9360916Y8237169D01*
X9357766Y8242249D01*
X9354210Y8246821D01*
X9350248Y8250885D01*
X9345980Y8254492D01*
X9341358Y8257540D01*
X9336379Y8260080D01*
X9331198Y8262061D01*
X9325711Y8263483D01*
X9319971Y8264347D01*
G37*
G36*
X9707219Y8262366D02*
G01*
X9700006Y8262061D01*
X9693249Y8261248D01*
X9686899Y8259825D01*
X9681057Y8257895D01*
X9675622Y8255406D01*
X9670694Y8252409D01*
X9666173Y8248903D01*
X9662109Y8244941D01*
X9658553Y8240471D01*
X9655454Y8235543D01*
X9652812Y8230158D01*
X9650628Y8224316D01*
X9648952Y8218068D01*
X9647732Y8211413D01*
X9647021Y8204301D01*
X9646767Y8196834D01*
X9662007Y8196834D01*
X9662160Y8202930D01*
X9662718Y8208670D01*
X9663633Y8214106D01*
X9664852Y8219186D01*
X9666478Y8223961D01*
X9668510Y8228330D01*
X9670846Y8232343D01*
X9673539Y8236000D01*
X9676638Y8239201D01*
X9680092Y8242046D01*
X9683953Y8244484D01*
X9688169Y8246516D01*
X9692741Y8248091D01*
X9697669Y8249259D01*
X9703003Y8249920D01*
X9708743Y8250174D01*
X9724745Y8250174D01*
X9724745Y8144256D01*
X9708743Y8144256D01*
X9703003Y8144459D01*
X9697669Y8145170D01*
X9692741Y8146237D01*
X9688169Y8147812D01*
X9683953Y8149742D01*
X9680092Y8152130D01*
X9676638Y8154873D01*
X9673539Y8158073D01*
X9670846Y8161629D01*
X9668510Y8165592D01*
X9666478Y8169909D01*
X9664852Y8174583D01*
X9663633Y8179612D01*
X9662718Y8184997D01*
X9662160Y8190738D01*
X9662007Y8196834D01*
X9646767Y8196834D01*
X9647021Y8189366D01*
X9647732Y8182305D01*
X9648952Y8175701D01*
X9650628Y8169503D01*
X9652812Y8163763D01*
X9655454Y8158429D01*
X9658604Y8153603D01*
X9662210Y8149234D01*
X9666274Y8145373D01*
X9670796Y8141970D01*
X9675825Y8139023D01*
X9681260Y8136636D01*
X9687204Y8134756D01*
X9693605Y8133435D01*
X9700412Y8132572D01*
X9707727Y8132318D01*
X9739731Y8132318D01*
X9739731Y8262366D01*
G37*
G36*
X9542119Y8262366D02*
G01*
X9542119Y8249920D01*
X9603333Y8249920D01*
X9603333Y8199881D01*
X9553549Y8199881D01*
X9553549Y8187436D01*
X9603333Y8187436D01*
X9603333Y8144764D01*
X9544151Y8144764D01*
X9544151Y8132318D01*
X9618319Y8132318D01*
X9618319Y8262366D01*
G37*
G36*
X9473539Y8262366D02*
G01*
X9431883Y8132318D01*
X9446869Y8132318D01*
X9479584Y8241538D01*
X9481413Y8247125D01*
X9481921Y8247125D01*
X9485426Y8236153D01*
X9493199Y8209635D01*
X9516719Y8132318D01*
X9532213Y8132318D01*
X9490303Y8262366D01*
G37*
G36*
X9398863Y8262366D02*
G01*
X9398863Y8132318D01*
X9413595Y8132318D01*
X9413595Y8262366D01*
G37*
G36*
X9173819Y8262366D02*
G01*
X9173819Y8249920D01*
X9235033Y8249920D01*
X9235033Y8199881D01*
X9184995Y8199881D01*
X9184995Y8187436D01*
X9235033Y8187436D01*
X9235033Y8144764D01*
X9175597Y8144764D01*
X9175597Y8132318D01*
X9249765Y8132318D01*
X9249765Y8262366D01*
G37*
G36*
X9091523Y8262366D02*
G01*
X9091523Y8132318D01*
X9106255Y8132318D01*
X9106255Y8262366D01*
G37*
G36*
X9022689Y8262366D02*
G01*
X9015526Y8262061D01*
X9008770Y8261248D01*
X9002522Y8259825D01*
X8996680Y8257895D01*
X8991295Y8255406D01*
X8986316Y8252409D01*
X8981846Y8248903D01*
X8977833Y8244941D01*
X8974277Y8240471D01*
X8971127Y8235543D01*
X8968536Y8230158D01*
X8966352Y8224316D01*
X8964676Y8218068D01*
X8963456Y8211413D01*
X8962745Y8204301D01*
X8962491Y8196834D01*
X8977477Y8196834D01*
X8977630Y8202930D01*
X8978188Y8208670D01*
X8979103Y8214106D01*
X8980373Y8219186D01*
X8982049Y8223961D01*
X8984030Y8228330D01*
X8986418Y8232343D01*
X8989161Y8236000D01*
X8992260Y8239201D01*
X8995765Y8242046D01*
X8999626Y8244484D01*
X9003842Y8246516D01*
X9008414Y8248091D01*
X9013393Y8249259D01*
X9018727Y8249920D01*
X9024467Y8250174D01*
X9040469Y8250174D01*
X9040469Y8144256D01*
X9024467Y8144256D01*
X9018727Y8144459D01*
X9013393Y8145170D01*
X9008414Y8146237D01*
X9003842Y8147812D01*
X8999626Y8149742D01*
X8995765Y8152130D01*
X8992260Y8154873D01*
X8989161Y8158073D01*
X8986418Y8161629D01*
X8984030Y8165592D01*
X8982049Y8169909D01*
X8980373Y8174583D01*
X8979103Y8179612D01*
X8978188Y8184997D01*
X8977630Y8190738D01*
X8977477Y8196834D01*
X8962491Y8196834D01*
X8962745Y8189366D01*
X8963456Y8182305D01*
X8964676Y8175701D01*
X8966352Y8169503D01*
X8968536Y8163763D01*
X8971178Y8158429D01*
X8974277Y8153603D01*
X8977884Y8149234D01*
X8981948Y8145373D01*
X8986469Y8141970D01*
X8991447Y8139023D01*
X8996883Y8136636D01*
X9002776Y8134756D01*
X9009126Y8133435D01*
X9015933Y8132572D01*
X9023197Y8132318D01*
X9055201Y8132318D01*
X9055201Y8262366D01*
G37*
G36*
X9412681Y11045647D02*
G01*
X9406737Y11045190D01*
X9401251Y11043818D01*
X9396374Y11041684D01*
X9392158Y11038840D01*
X9388703Y11035284D01*
X9386163Y11031169D01*
X9384538Y11026546D01*
X9383979Y11021517D01*
X9385757Y11012678D01*
X9390278Y11006074D01*
X9396425Y11001298D01*
X9403029Y10997895D01*
X9416491Y10992053D01*
X9422688Y10989056D01*
X9427718Y10985601D01*
X9431020Y10981080D01*
X9432239Y10974781D01*
X9430867Y10968228D01*
X9426854Y10963148D01*
X9420453Y10959896D01*
X9411919Y10958779D01*
X9404604Y10959592D01*
X9397695Y10961928D01*
X9391345Y10965637D01*
X9385757Y10970463D01*
X9379407Y10963351D01*
X9386011Y10957509D01*
X9393631Y10953140D01*
X9402216Y10950346D01*
X9411665Y10949381D01*
X9418574Y10949889D01*
X9424720Y10951413D01*
X9430054Y10953851D01*
X9434525Y10957052D01*
X9438132Y10960912D01*
X9440722Y10965332D01*
X9442348Y10970260D01*
X9442907Y10975543D01*
X9441383Y10984687D01*
X9437268Y10991494D01*
X9431121Y10996574D01*
X9423603Y11000435D01*
X9410141Y11006023D01*
X9404705Y11008512D01*
X9399727Y11011763D01*
X9396069Y11016183D01*
X9394647Y11022279D01*
X9395968Y11028121D01*
X9399676Y11032642D01*
X9405366Y11035487D01*
X9412681Y11036503D01*
X9418980Y11035842D01*
X9424619Y11034064D01*
X9429699Y11031270D01*
X9434271Y11027613D01*
X9439859Y11034471D01*
X9434525Y11038992D01*
X9428073Y11042548D01*
X9420758Y11044834D01*
G37*
G36*
X9238945Y11044123D02*
G01*
X9238945Y11035487D01*
X9265615Y11035487D01*
X9275572Y11034572D01*
X9282938Y11031626D01*
X9287459Y11026292D01*
X9288983Y11018215D01*
X9287459Y11010188D01*
X9282938Y11004499D01*
X9275572Y11001095D01*
X9265615Y10999927D01*
X9249613Y10999927D01*
X9249613Y11035487D01*
X9238945Y11035487D01*
X9238945Y10951159D01*
X9249613Y10951159D01*
X9249613Y10991291D01*
X9266885Y10991291D01*
X9289999Y10951159D01*
X9301937Y10951159D01*
X9278061Y10992307D01*
X9282734Y10993678D01*
X9286900Y10995609D01*
X9290608Y10998047D01*
X9293707Y11000994D01*
X9296247Y11004448D01*
X9298127Y11008512D01*
X9299244Y11013084D01*
X9299651Y11018215D01*
X9299041Y11024819D01*
X9297314Y11030305D01*
X9294469Y11034776D01*
X9290659Y11038332D01*
X9285986Y11040973D01*
X9280499Y11042751D01*
X9274251Y11043767D01*
X9267393Y11044123D01*
G37*
G36*
X9307779Y11044123D02*
G01*
X9307779Y11035233D01*
X9336227Y11035233D01*
X9336227Y10951159D01*
X9346895Y10951159D01*
X9346895Y11035233D01*
X9375343Y11035233D01*
X9375343Y11044123D01*
G37*
G36*
X9280855Y11808917D02*
G01*
X9274911Y11808561D01*
X9269272Y11807444D01*
X9264040Y11805615D01*
X9259163Y11803126D01*
X9254744Y11799976D01*
X9250781Y11796166D01*
X9247327Y11791696D01*
X9244380Y11786666D01*
X9242094Y11781078D01*
X9240367Y11774881D01*
X9239300Y11768175D01*
X9238945Y11760911D01*
X9239300Y11753596D01*
X9240316Y11746839D01*
X9241993Y11740642D01*
X9244279Y11734952D01*
X9247124Y11729923D01*
X9250527Y11725452D01*
X9254388Y11721642D01*
X9258757Y11718442D01*
X9263583Y11715953D01*
X9268815Y11714124D01*
X9274403Y11713006D01*
X9280347Y11712651D01*
X9289084Y11713464D01*
X9296857Y11715750D01*
X9303512Y11719204D01*
X9308795Y11723573D01*
X9308795Y11761927D01*
X9278569Y11761927D01*
X9278569Y11753291D01*
X9298889Y11753291D01*
X9298889Y11727891D01*
X9295536Y11725503D01*
X9291269Y11723624D01*
X9286443Y11722455D01*
X9281363Y11722049D01*
X9274149Y11722760D01*
X9267850Y11724792D01*
X9262414Y11728043D01*
X9257893Y11732564D01*
X9254286Y11738203D01*
X9251746Y11744858D01*
X9250172Y11752580D01*
X9249613Y11761165D01*
X9250172Y11769699D01*
X9251848Y11777268D01*
X9254490Y11783872D01*
X9258147Y11789410D01*
X9262719Y11793880D01*
X9268155Y11797080D01*
X9274403Y11799112D01*
X9281363Y11799773D01*
X9287967Y11799062D01*
X9293453Y11797131D01*
X9297924Y11794286D01*
X9301683Y11790883D01*
X9307525Y11797741D01*
X9302953Y11801754D01*
X9297060Y11805310D01*
X9289745Y11807901D01*
G37*
G36*
X9331147Y11807393D02*
G01*
X9331147Y11714429D01*
X9341053Y11714429D01*
X9340951Y11772696D01*
X9339783Y11793677D01*
X9340545Y11793677D01*
X9350451Y11774627D01*
X9385503Y11714429D01*
X9396425Y11714429D01*
X9396425Y11807393D01*
X9386519Y11807393D01*
X9386519Y11757101D01*
X9386976Y11742521D01*
X9387789Y11728145D01*
X9387281Y11728145D01*
X9377121Y11747195D01*
X9342069Y11807393D01*
G37*
G36*
X9422333Y11807393D02*
G01*
X9422333Y11798757D01*
X9444431Y11798757D01*
X9449816Y11798452D01*
X9454743Y11797639D01*
X9459163Y11796268D01*
X9463125Y11794337D01*
X9466580Y11791848D01*
X9469526Y11788902D01*
X9472066Y11785447D01*
X9474098Y11781536D01*
X9475673Y11777116D01*
X9476790Y11772239D01*
X9477502Y11766905D01*
X9477705Y11761165D01*
X9477502Y11755475D01*
X9476790Y11750141D01*
X9475673Y11745264D01*
X9474098Y11740794D01*
X9472066Y11736781D01*
X9469526Y11733276D01*
X9466580Y11730228D01*
X9463125Y11727688D01*
X9459163Y11725706D01*
X9454743Y11724233D01*
X9449816Y11723370D01*
X9444431Y11723065D01*
X9433001Y11723065D01*
X9433001Y11798757D01*
X9422333Y11798757D01*
X9422333Y11714429D01*
X9445701Y11714429D01*
X9452457Y11714784D01*
X9458655Y11715902D01*
X9464294Y11717680D01*
X9469374Y11720118D01*
X9473844Y11723217D01*
X9477756Y11726926D01*
X9481058Y11731294D01*
X9483750Y11736171D01*
X9485884Y11741658D01*
X9487408Y11747652D01*
X9488322Y11754154D01*
X9488627Y11761165D01*
X9488322Y11768226D01*
X9487408Y11774728D01*
X9485884Y11780723D01*
X9483750Y11786158D01*
X9481007Y11790984D01*
X9477654Y11795252D01*
X9473742Y11798858D01*
X9469221Y11801906D01*
X9464090Y11804294D01*
X9458401Y11806021D01*
X9452102Y11807037D01*
X9445193Y11807393D01*
G37*
G36*
X9238945Y11552275D02*
G01*
X9238945Y11543385D01*
X9267139Y11543385D01*
X9267139Y11459311D01*
X9277807Y11459311D01*
X9277807Y11543385D01*
X9306255Y11543385D01*
X9306255Y11552275D01*
G37*
G36*
X9311589Y11552275D02*
G01*
X9336989Y11507317D01*
X9309811Y11459311D01*
X9320733Y11459311D01*
X9336735Y11488724D01*
X9342577Y11500205D01*
X9343085Y11500205D01*
X9365437Y11459311D01*
X9376867Y11459311D01*
X9349689Y11506809D01*
X9375089Y11552275D01*
X9364167Y11552275D01*
X9349333Y11524589D01*
X9344355Y11514175D01*
X9343847Y11514175D01*
X9323273Y11552275D01*
G37*
G36*
X9392107Y11552275D02*
G01*
X9392107Y11543639D01*
X9413951Y11543639D01*
X9419336Y11543385D01*
X9424263Y11542522D01*
X9428734Y11541150D01*
X9432696Y11539220D01*
X9436150Y11536781D01*
X9439198Y11533835D01*
X9441738Y11530380D01*
X9443821Y11526418D01*
X9445396Y11521998D01*
X9446564Y11517122D01*
X9447225Y11511838D01*
X9447479Y11506047D01*
X9447225Y11500358D01*
X9446564Y11495024D01*
X9445396Y11490147D01*
X9443821Y11485676D01*
X9441738Y11481663D01*
X9439198Y11478158D01*
X9436150Y11475110D01*
X9432696Y11472570D01*
X9428734Y11470589D01*
X9424263Y11469166D01*
X9419336Y11468252D01*
X9413951Y11467947D01*
X9402521Y11467947D01*
X9402521Y11543639D01*
X9392107Y11543639D01*
X9392107Y11459311D01*
X9415221Y11459311D01*
X9421977Y11459718D01*
X9428226Y11460784D01*
X9433864Y11462562D01*
X9438944Y11465001D01*
X9443466Y11468100D01*
X9447377Y11471859D01*
X9450730Y11476177D01*
X9453473Y11481054D01*
X9455607Y11486540D01*
X9457131Y11492534D01*
X9458096Y11499088D01*
X9458401Y11506047D01*
X9458096Y11513108D01*
X9457131Y11519611D01*
X9455607Y11525605D01*
X9453473Y11531041D01*
X9450679Y11535867D01*
X9447326Y11540134D01*
X9443415Y11543792D01*
X9438843Y11546789D01*
X9433763Y11549176D01*
X9428073Y11550904D01*
X9421774Y11551920D01*
X9414967Y11552275D01*
G37*
G36*
X9238945Y11298986D02*
G01*
X9238945Y11290350D01*
X9265615Y11290350D01*
X9275572Y11289436D01*
X9282938Y11286439D01*
X9287459Y11281105D01*
X9288983Y11273078D01*
X9287459Y11265052D01*
X9282938Y11259362D01*
X9275572Y11255908D01*
X9265615Y11254790D01*
X9249613Y11254790D01*
X9249613Y11290350D01*
X9238945Y11290350D01*
X9238945Y11206022D01*
X9249613Y11206022D01*
X9249613Y11246154D01*
X9266885Y11246154D01*
X9289999Y11206022D01*
X9301937Y11206022D01*
X9278061Y11247170D01*
X9282734Y11248542D01*
X9286900Y11250472D01*
X9290608Y11252860D01*
X9293707Y11255806D01*
X9296247Y11259312D01*
X9298127Y11263325D01*
X9299244Y11267897D01*
X9299651Y11273078D01*
X9299041Y11279632D01*
X9297314Y11285169D01*
X9294469Y11289639D01*
X9290659Y11293144D01*
X9285986Y11295786D01*
X9280499Y11297615D01*
X9274251Y11298631D01*
X9267393Y11298986D01*
G37*
G36*
X9309049Y11298986D02*
G01*
X9334449Y11254028D01*
X9307271Y11206022D01*
X9318447Y11206022D01*
X9334195Y11235385D01*
X9340037Y11246916D01*
X9340545Y11246916D01*
X9362897Y11206022D01*
X9374327Y11206022D01*
X9347149Y11253520D01*
X9372549Y11298986D01*
X9361627Y11298986D01*
X9346793Y11271250D01*
X9341815Y11260886D01*
X9341307Y11260886D01*
X9337548Y11268100D01*
X9333941Y11274348D01*
X9320733Y11298986D01*
G37*
G36*
X9389567Y11298986D02*
G01*
X9389567Y11290350D01*
X9411411Y11290350D01*
X9416846Y11290046D01*
X9421774Y11289233D01*
X9426194Y11287810D01*
X9430156Y11285880D01*
X9433661Y11283442D01*
X9436658Y11280495D01*
X9439198Y11277041D01*
X9441281Y11273078D01*
X9442907Y11268710D01*
X9444024Y11263833D01*
X9444736Y11258499D01*
X9444939Y11252758D01*
X9444736Y11247018D01*
X9444024Y11241735D01*
X9442907Y11236807D01*
X9441281Y11232388D01*
X9439198Y11228374D01*
X9436658Y11224818D01*
X9433661Y11221821D01*
X9430156Y11219281D01*
X9426194Y11217249D01*
X9421774Y11215827D01*
X9416846Y11214963D01*
X9411411Y11214658D01*
X9399981Y11214658D01*
X9399981Y11290350D01*
X9389567Y11290350D01*
X9389567Y11206022D01*
X9412681Y11206022D01*
X9419437Y11206378D01*
X9425686Y11207445D01*
X9431324Y11209223D01*
X9436404Y11211712D01*
X9440926Y11214811D01*
X9444837Y11218519D01*
X9448190Y11222837D01*
X9450933Y11227765D01*
X9453067Y11233200D01*
X9454642Y11239246D01*
X9455556Y11245748D01*
X9455861Y11252758D01*
X9455556Y11259769D01*
X9454642Y11266322D01*
X9453067Y11272266D01*
X9450933Y11277701D01*
X9448190Y11282578D01*
X9444837Y11286794D01*
X9440875Y11290452D01*
X9436354Y11293500D01*
X9431223Y11295837D01*
X9425533Y11297564D01*
X9419285Y11298631D01*
X9412427Y11298986D01*
G37*
G36*
X7676591Y13034619D02*
G01*
X7668006Y13034010D01*
X7660436Y13032181D01*
X7653832Y13029234D01*
X7648346Y13025323D01*
X7644028Y13020497D01*
X7640828Y13014807D01*
X7638897Y13008406D01*
X7638237Y13001345D01*
X7638897Y12994335D01*
X7640624Y12988137D01*
X7643266Y12982905D01*
X7646619Y12978739D01*
X7677607Y12978739D01*
X7677607Y13002615D01*
X7670495Y13002615D01*
X7670495Y12986613D01*
X7650175Y12986613D01*
X7648295Y12989306D01*
X7646822Y12992658D01*
X7645908Y12996468D01*
X7645603Y13000583D01*
X7646162Y13006374D01*
X7647787Y13011404D01*
X7650378Y13015772D01*
X7653985Y13019379D01*
X7658506Y13022224D01*
X7663840Y13024307D01*
X7669987Y13025577D01*
X7676845Y13025983D01*
X7683652Y13025526D01*
X7689748Y13024205D01*
X7695031Y13022021D01*
X7699502Y13019125D01*
X7703058Y13015417D01*
X7705699Y13011099D01*
X7707274Y13006120D01*
X7707833Y13000583D01*
X7707274Y12995351D01*
X7705699Y12991033D01*
X7703464Y12987426D01*
X7700721Y12984327D01*
X7706055Y12979501D01*
X7709306Y12983260D01*
X7712252Y12987985D01*
X7714386Y12993827D01*
X7715199Y13000837D01*
X7714894Y13005612D01*
X7713980Y13010134D01*
X7712506Y13014401D01*
X7710525Y13018312D01*
X7707934Y13021868D01*
X7704836Y13025069D01*
X7701280Y13027863D01*
X7697216Y13030200D01*
X7692694Y13032079D01*
X7687767Y13033502D01*
X7682382Y13034314D01*
G37*
G36*
X7639507Y12960705D02*
G01*
X7639507Y12952831D01*
X7685989Y12952933D01*
X7702753Y12953847D01*
X7702753Y12953339D01*
X7687513Y12945211D01*
X7639507Y12917271D01*
X7639507Y12908381D01*
X7713929Y12908381D01*
X7713929Y12916509D01*
X7667752Y12916408D01*
X7650429Y12915493D01*
X7650429Y12916001D01*
X7665669Y12923875D01*
X7713929Y12952069D01*
X7713929Y12960705D01*
G37*
G36*
X7639507Y12887807D02*
G01*
X7639507Y12879425D01*
X7706817Y12879425D01*
X7706817Y12870281D01*
X7706309Y12863880D01*
X7704836Y12858394D01*
X7702346Y12853720D01*
X7698994Y12849961D01*
X7694726Y12847066D01*
X7689545Y12844983D01*
X7683601Y12843764D01*
X7676845Y12843357D01*
X7670139Y12843764D01*
X7664145Y12844983D01*
X7658963Y12847066D01*
X7654544Y12849961D01*
X7651038Y12853720D01*
X7648498Y12858394D01*
X7646924Y12863880D01*
X7646365Y12870281D01*
X7646365Y12879425D01*
X7639507Y12879425D01*
X7639507Y12869265D01*
X7639812Y12863830D01*
X7640675Y12858851D01*
X7642047Y12854330D01*
X7643977Y12850266D01*
X7646466Y12846659D01*
X7649413Y12843510D01*
X7652867Y12840868D01*
X7656779Y12838684D01*
X7661148Y12836956D01*
X7665974Y12835737D01*
X7671206Y12834975D01*
X7676845Y12834721D01*
X7682484Y12834975D01*
X7687716Y12835737D01*
X7692491Y12836956D01*
X7696860Y12838684D01*
X7700721Y12840868D01*
X7704175Y12843560D01*
X7707071Y12846710D01*
X7709509Y12850368D01*
X7711440Y12854432D01*
X7712811Y12859004D01*
X7713675Y12864033D01*
X7713929Y12869519D01*
X7713929Y12887807D01*
G37*
G36*
X7673086Y13896594D02*
G01*
X7673086Y13875766D01*
X7650734Y13875766D01*
X7650734Y13869162D01*
X7673086Y13869162D01*
X7673086Y13848334D01*
X7679436Y13848334D01*
X7679436Y13869162D01*
X7701534Y13869162D01*
X7701534Y13875766D01*
X7679436Y13875766D01*
X7679436Y13896594D01*
G37*
G36*
X7638796Y13835634D02*
G01*
X7638796Y13795501D01*
X7645653Y13795501D01*
X7645653Y13810742D01*
X7713218Y13810742D01*
X7713218Y13816838D01*
X7711592Y13819987D01*
X7710220Y13823492D01*
X7709052Y13827506D01*
X7708138Y13832078D01*
X7702803Y13832078D01*
X7702803Y13818869D01*
X7645653Y13818869D01*
X7645653Y13835634D01*
G37*
G36*
X7703566Y13784834D02*
G01*
X7698994Y13779754D01*
X7702397Y13776451D01*
X7705242Y13772642D01*
X7707172Y13768476D01*
X7707884Y13764006D01*
X7706715Y13757706D01*
X7703464Y13753287D01*
X7698536Y13750645D01*
X7692390Y13749782D01*
X7687411Y13750290D01*
X7682230Y13751813D01*
X7676794Y13754404D01*
X7671003Y13758113D01*
X7664856Y13762888D01*
X7658303Y13768832D01*
X7651343Y13775994D01*
X7643875Y13784326D01*
X7638796Y13784326D01*
X7638796Y13738098D01*
X7645908Y13738098D01*
X7645857Y13762431D01*
X7645400Y13771626D01*
X7651699Y13765174D01*
X7657846Y13759332D01*
X7663891Y13754201D01*
X7669784Y13749883D01*
X7675575Y13746378D01*
X7681315Y13743787D01*
X7687005Y13742212D01*
X7692644Y13741654D01*
X7697368Y13742009D01*
X7701635Y13743127D01*
X7705344Y13744905D01*
X7708493Y13747343D01*
X7711084Y13750442D01*
X7712913Y13754100D01*
X7714081Y13758265D01*
X7714488Y13762990D01*
X7713725Y13769492D01*
X7711490Y13775131D01*
X7708036Y13780160D01*
G37*
G36*
X7713218Y13732763D02*
G01*
X7638796Y13708888D01*
X7638796Y13699236D01*
X7713218Y13675613D01*
X7713218Y13683996D01*
X7647431Y13703807D01*
X7647431Y13704062D01*
X7659776Y13707922D01*
X7672070Y13711428D01*
X7713218Y13723874D01*
G37*
G36*
X7688122Y12351562D02*
G01*
X7688122Y12330734D01*
X7665720Y12330734D01*
X7665720Y12324130D01*
X7688122Y12324130D01*
X7688122Y12303302D01*
X7694472Y12303302D01*
X7694472Y12324130D01*
X7716520Y12324130D01*
X7716520Y12330734D01*
X7694472Y12330734D01*
X7694472Y12351562D01*
G37*
G36*
X7653781Y12290602D02*
G01*
X7653781Y12250470D01*
X7660640Y12250470D01*
X7660640Y12265710D01*
X7728203Y12265710D01*
X7728203Y12271806D01*
X7726629Y12274956D01*
X7725206Y12278461D01*
X7724038Y12282474D01*
X7723124Y12287046D01*
X7717790Y12287046D01*
X7717790Y12273838D01*
X7660640Y12273838D01*
X7660640Y12290602D01*
G37*
G36*
X7718552Y12239802D02*
G01*
X7713980Y12234722D01*
X7717434Y12231420D01*
X7720279Y12227610D01*
X7722158Y12223445D01*
X7722870Y12218974D01*
X7721701Y12212675D01*
X7718501Y12208256D01*
X7713573Y12205614D01*
X7707375Y12204750D01*
X7702448Y12205258D01*
X7697266Y12206782D01*
X7691780Y12209373D01*
X7685989Y12213082D01*
X7679842Y12217857D01*
X7673340Y12223800D01*
X7666329Y12230963D01*
X7658862Y12239294D01*
X7653781Y12239294D01*
X7653781Y12193066D01*
X7660894Y12193066D01*
X7660843Y12217400D01*
X7660386Y12226594D01*
X7666685Y12220143D01*
X7672831Y12214301D01*
X7678877Y12209170D01*
X7684770Y12204852D01*
X7690612Y12201347D01*
X7696352Y12198756D01*
X7701991Y12197181D01*
X7707630Y12196622D01*
X7712354Y12196978D01*
X7716621Y12198096D01*
X7720380Y12199874D01*
X7723530Y12202363D01*
X7726070Y12205411D01*
X7727950Y12209068D01*
X7729118Y12213234D01*
X7729474Y12217958D01*
X7728712Y12224461D01*
X7726527Y12230100D01*
X7723073Y12235129D01*
G37*
G36*
X7728203Y12187732D02*
G01*
X7653781Y12163856D01*
X7653781Y12154204D01*
X7728203Y12130582D01*
X7728203Y12138964D01*
X7662418Y12158776D01*
X7662418Y12159030D01*
X7674762Y12162891D01*
X7687056Y12166396D01*
X7728203Y12178842D01*
G37*
G36*
X7691577Y11489588D02*
G01*
X7683042Y11488978D01*
X7675422Y11487150D01*
X7668869Y11484203D01*
X7663383Y11480292D01*
X7659014Y11475466D01*
X7655864Y11469776D01*
X7653883Y11463375D01*
X7653274Y11456314D01*
X7653883Y11449304D01*
X7655610Y11443106D01*
X7658303Y11437874D01*
X7661656Y11433708D01*
X7692593Y11433708D01*
X7692593Y11457584D01*
X7685481Y11457584D01*
X7685481Y11441582D01*
X7665212Y11441582D01*
X7663281Y11444274D01*
X7661859Y11447627D01*
X7660944Y11451437D01*
X7660640Y11455552D01*
X7661148Y11461343D01*
X7662773Y11466372D01*
X7665415Y11470741D01*
X7668971Y11474348D01*
X7673492Y11477193D01*
X7678826Y11479276D01*
X7684973Y11480546D01*
X7691831Y11480952D01*
X7698638Y11480495D01*
X7704734Y11479174D01*
X7710017Y11476990D01*
X7714488Y11474094D01*
X7718044Y11470386D01*
X7720685Y11466068D01*
X7722311Y11461089D01*
X7722819Y11455552D01*
X7722260Y11450370D01*
X7720736Y11446002D01*
X7718450Y11442395D01*
X7715758Y11439296D01*
X7721092Y11434470D01*
X7724343Y11438229D01*
X7727238Y11442954D01*
X7729372Y11448796D01*
X7730185Y11455806D01*
X7729880Y11460581D01*
X7729016Y11465102D01*
X7727543Y11469370D01*
X7725511Y11473281D01*
X7722920Y11476837D01*
X7719872Y11480038D01*
X7716266Y11482832D01*
X7712202Y11485168D01*
X7707680Y11487048D01*
X7702753Y11488470D01*
X7697368Y11489283D01*
G37*
G36*
X7654493Y11415674D02*
G01*
X7654493Y11407800D01*
X7700975Y11407902D01*
X7717790Y11408816D01*
X7717790Y11408308D01*
X7702499Y11400180D01*
X7654493Y11372240D01*
X7654493Y11363350D01*
X7728915Y11363350D01*
X7728915Y11371478D01*
X7682788Y11371376D01*
X7665415Y11370462D01*
X7665415Y11370970D01*
X7680706Y11378844D01*
X7728915Y11407038D01*
X7728915Y11415674D01*
G37*
G36*
X7654493Y11342776D02*
G01*
X7654493Y11334394D01*
X7721803Y11334394D01*
X7721803Y11325250D01*
X7721295Y11318849D01*
X7719822Y11313312D01*
X7717383Y11308689D01*
X7713980Y11304930D01*
X7709712Y11302034D01*
X7704581Y11299952D01*
X7698638Y11298732D01*
X7691831Y11298326D01*
X7685125Y11298732D01*
X7679181Y11299952D01*
X7673949Y11302034D01*
X7669580Y11304930D01*
X7666075Y11308689D01*
X7663484Y11313312D01*
X7661909Y11318849D01*
X7661351Y11325250D01*
X7661351Y11334394D01*
X7654493Y11334394D01*
X7654493Y11324234D01*
X7654798Y11318798D01*
X7655661Y11313820D01*
X7657084Y11309299D01*
X7659014Y11305235D01*
X7661452Y11301628D01*
X7664399Y11298478D01*
X7667853Y11295837D01*
X7671765Y11293652D01*
X7676184Y11291925D01*
X7680959Y11290706D01*
X7686192Y11289944D01*
X7691831Y11289690D01*
X7697470Y11289944D01*
X7702702Y11290706D01*
X7707528Y11291925D01*
X7711846Y11293652D01*
X7715758Y11295837D01*
X7719161Y11298529D01*
X7722108Y11301679D01*
X7724495Y11305336D01*
X7726425Y11309400D01*
X7727797Y11313972D01*
X7728661Y11319002D01*
X7728915Y11324488D01*
X7728915Y11342776D01*
G37*
G36*
X7673086Y10821568D02*
G01*
X7673086Y10800740D01*
X7650734Y10800740D01*
X7650734Y10794136D01*
X7673086Y10794136D01*
X7673086Y10773308D01*
X7679436Y10773308D01*
X7679436Y10794136D01*
X7701534Y10794136D01*
X7701534Y10800740D01*
X7679436Y10800740D01*
X7679436Y10821568D01*
G37*
G36*
X7638796Y10760608D02*
G01*
X7638796Y10720476D01*
X7645653Y10720476D01*
X7645653Y10735716D01*
X7713218Y10735716D01*
X7713218Y10741863D01*
X7711592Y10745012D01*
X7710220Y10748518D01*
X7709052Y10752480D01*
X7708138Y10757052D01*
X7702803Y10757052D01*
X7702803Y10743844D01*
X7645653Y10743844D01*
X7645653Y10760608D01*
G37*
G36*
X7703566Y10709808D02*
G01*
X7698994Y10704779D01*
X7702448Y10701426D01*
X7705242Y10697616D01*
X7707172Y10693450D01*
X7707884Y10688980D01*
X7706715Y10682681D01*
X7703464Y10678261D01*
X7698587Y10675620D01*
X7692390Y10674756D01*
X7687462Y10675264D01*
X7682230Y10676839D01*
X7676794Y10679430D01*
X7671003Y10683087D01*
X7664856Y10687913D01*
X7658353Y10693857D01*
X7651343Y10700969D01*
X7643875Y10709300D01*
X7638796Y10709300D01*
X7638796Y10663072D01*
X7645908Y10663072D01*
X7645857Y10687405D01*
X7645400Y10696600D01*
X7651699Y10690148D01*
X7657846Y10684357D01*
X7663891Y10679226D01*
X7669784Y10674858D01*
X7675625Y10671403D01*
X7681366Y10668812D01*
X7687005Y10667187D01*
X7692644Y10666679D01*
X7697368Y10667034D01*
X7701635Y10668152D01*
X7705394Y10669930D01*
X7708544Y10672368D01*
X7711084Y10675416D01*
X7712964Y10679074D01*
X7714081Y10683290D01*
X7714488Y10687964D01*
X7713725Y10694517D01*
X7711490Y10700156D01*
X7708087Y10705185D01*
G37*
G36*
X7713218Y10657789D02*
G01*
X7638796Y10633913D01*
X7638796Y10624210D01*
X7713218Y10600639D01*
X7713218Y10609021D01*
X7647431Y10628782D01*
X7647431Y10629036D01*
X7659776Y10632948D01*
X7672070Y10636402D01*
X7713218Y10648848D01*
G37*
G36*
X7676591Y9959594D02*
G01*
X7668056Y9958984D01*
X7660436Y9957155D01*
X7653883Y9954260D01*
X7648397Y9950297D01*
X7644028Y9945471D01*
X7640878Y9939782D01*
X7638897Y9933381D01*
X7638237Y9926370D01*
X7638897Y9919309D01*
X7640624Y9913162D01*
X7643317Y9907930D01*
X7646619Y9903764D01*
X7677607Y9903764D01*
X7677607Y9927640D01*
X7670495Y9927640D01*
X7670495Y9911638D01*
X7650225Y9911638D01*
X7648295Y9914280D01*
X7646873Y9917633D01*
X7645958Y9921494D01*
X7645603Y9925608D01*
X7646162Y9931349D01*
X7647787Y9936429D01*
X7650429Y9940747D01*
X7653985Y9944404D01*
X7658506Y9947249D01*
X7663840Y9949281D01*
X7669987Y9950551D01*
X7676845Y9951008D01*
X7683652Y9950551D01*
X7689748Y9949180D01*
X7695031Y9947046D01*
X7699502Y9944100D01*
X7703058Y9940442D01*
X7705699Y9936073D01*
X7707325Y9931146D01*
X7707833Y9925608D01*
X7707274Y9920376D01*
X7705750Y9916058D01*
X7703464Y9912400D01*
X7700721Y9909352D01*
X7706055Y9904526D01*
X7709306Y9908235D01*
X7712252Y9912959D01*
X7714386Y9918852D01*
X7715199Y9925862D01*
X7714894Y9930638D01*
X7714030Y9935159D01*
X7712557Y9939375D01*
X7710525Y9943287D01*
X7707934Y9946843D01*
X7704886Y9950043D01*
X7701280Y9952837D01*
X7697216Y9955225D01*
X7692694Y9957104D01*
X7687767Y9958476D01*
X7682382Y9959340D01*
G37*
G36*
X7639507Y9885730D02*
G01*
X7639507Y9877806D01*
X7685989Y9877907D01*
X7702753Y9878872D01*
X7702753Y9878364D01*
X7687513Y9870236D01*
X7639507Y9842296D01*
X7639507Y9833356D01*
X7713929Y9833356D01*
X7713929Y9841534D01*
X7667752Y9841433D01*
X7650429Y9840518D01*
X7650429Y9841026D01*
X7665669Y9848900D01*
X7713929Y9877044D01*
X7713929Y9885730D01*
G37*
G36*
X7639507Y9812832D02*
G01*
X7639507Y9804450D01*
X7706817Y9804450D01*
X7706817Y9795256D01*
X7706309Y9788855D01*
X7704836Y9783368D01*
X7702397Y9778746D01*
X7698994Y9774986D01*
X7694726Y9772040D01*
X7689596Y9770008D01*
X7683601Y9768789D01*
X7676845Y9768382D01*
X7670139Y9768789D01*
X7664196Y9770008D01*
X7658963Y9772040D01*
X7654594Y9774986D01*
X7651089Y9778746D01*
X7648498Y9783368D01*
X7646924Y9788855D01*
X7646365Y9795256D01*
X7646365Y9804450D01*
X7639507Y9804450D01*
X7639507Y9794290D01*
X7639812Y9788855D01*
X7640675Y9783876D01*
X7642047Y9779355D01*
X7644028Y9775291D01*
X7646466Y9771684D01*
X7649413Y9768535D01*
X7652867Y9765842D01*
X7656779Y9763658D01*
X7661198Y9761931D01*
X7665974Y9760712D01*
X7671206Y9760000D01*
X7676845Y9759746D01*
X7682484Y9760000D01*
X7687716Y9760712D01*
X7692542Y9761931D01*
X7696860Y9763658D01*
X7700772Y9765893D01*
X7704175Y9768535D01*
X7707122Y9771735D01*
X7709509Y9775342D01*
X7711440Y9779457D01*
X7712811Y9784029D01*
X7713675Y9789058D01*
X7713929Y9794494D01*
X7713929Y9812832D01*
G37*
G36*
X7688072Y9291574D02*
G01*
X7688072Y9270746D01*
X7665720Y9270746D01*
X7665720Y9264142D01*
X7688072Y9264142D01*
X7688072Y9243314D01*
X7694422Y9243314D01*
X7694422Y9264142D01*
X7716520Y9264142D01*
X7716520Y9270746D01*
X7694422Y9270746D01*
X7694422Y9291574D01*
G37*
G36*
X7653832Y9230614D02*
G01*
X7653832Y9190482D01*
X7660640Y9190482D01*
X7660640Y9205722D01*
X7728203Y9205722D01*
X7728203Y9211818D01*
X7726629Y9215018D01*
X7725206Y9218523D01*
X7724038Y9222486D01*
X7723124Y9227058D01*
X7717790Y9227058D01*
X7717790Y9213850D01*
X7660640Y9213850D01*
X7660640Y9230614D01*
G37*
G36*
X7718552Y9179814D02*
G01*
X7713980Y9174734D01*
X7717434Y9171432D01*
X7720279Y9167622D01*
X7722158Y9163456D01*
X7722870Y9158986D01*
X7721701Y9152686D01*
X7718501Y9148267D01*
X7713573Y9145625D01*
X7707375Y9144762D01*
X7702448Y9145270D01*
X7697266Y9146794D01*
X7691780Y9149384D01*
X7685989Y9153093D01*
X7679842Y9157919D01*
X7673340Y9163862D01*
X7666329Y9170974D01*
X7658862Y9179306D01*
X7653832Y9179306D01*
X7653832Y9133078D01*
X7660894Y9133078D01*
X7660843Y9157411D01*
X7660386Y9166606D01*
X7666685Y9160154D01*
X7672882Y9154312D01*
X7678877Y9149232D01*
X7684770Y9144863D01*
X7690612Y9141358D01*
X7696352Y9138818D01*
X7701991Y9137192D01*
X7707630Y9136634D01*
X7712354Y9137040D01*
X7716621Y9138107D01*
X7720380Y9139936D01*
X7723530Y9142374D01*
X7726070Y9145422D01*
X7727950Y9149080D01*
X7729118Y9153296D01*
X7729474Y9157970D01*
X7728712Y9164523D01*
X7726527Y9170162D01*
X7723073Y9175191D01*
G37*
G36*
X7728203Y9127744D02*
G01*
X7653832Y9103868D01*
X7653832Y9094216D01*
X7728203Y9070594D01*
X7728203Y9078976D01*
X7662418Y9098788D01*
X7662418Y9099042D01*
X7674762Y9102953D01*
X7687056Y9106408D01*
X7728203Y9118854D01*
G37*
G36*
X7691577Y8429599D02*
G01*
X7683042Y8428990D01*
X7675422Y8427161D01*
X7668869Y8424265D01*
X7663383Y8420303D01*
X7659014Y8415477D01*
X7655864Y8409787D01*
X7653883Y8403386D01*
X7653274Y8396325D01*
X7653883Y8389315D01*
X7655610Y8383168D01*
X7658303Y8377936D01*
X7661656Y8373770D01*
X7692593Y8373770D01*
X7692593Y8397646D01*
X7685531Y8397646D01*
X7685531Y8381644D01*
X7665161Y8381644D01*
X7663281Y8384286D01*
X7661859Y8387638D01*
X7660944Y8391448D01*
X7660640Y8395563D01*
X7661148Y8401354D01*
X7662773Y8406434D01*
X7665415Y8410752D01*
X7668971Y8414410D01*
X7673492Y8417255D01*
X7678826Y8419287D01*
X7684973Y8420557D01*
X7691881Y8420963D01*
X7698638Y8420506D01*
X7704734Y8419185D01*
X7710017Y8417052D01*
X7714488Y8414105D01*
X7718044Y8410448D01*
X7720685Y8406079D01*
X7722311Y8401151D01*
X7722870Y8395563D01*
X7722260Y8390382D01*
X7720736Y8386013D01*
X7718450Y8382406D01*
X7715707Y8379358D01*
X7721041Y8374532D01*
X7724292Y8378240D01*
X7727238Y8382965D01*
X7729372Y8388807D01*
X7730236Y8395868D01*
X7729931Y8400592D01*
X7729016Y8405114D01*
X7727543Y8409381D01*
X7725511Y8413292D01*
X7722920Y8416848D01*
X7719872Y8420049D01*
X7716266Y8422843D01*
X7712202Y8425230D01*
X7707731Y8427110D01*
X7702753Y8428482D01*
X7697368Y8429345D01*
G37*
G36*
X7654493Y8355736D02*
G01*
X7654493Y8347862D01*
X7700975Y8347913D01*
X7717790Y8348878D01*
X7717790Y8348370D01*
X7702550Y8340191D01*
X7654493Y8312302D01*
X7654493Y8303412D01*
X7728966Y8303412D01*
X7728966Y8311540D01*
X7682738Y8311438D01*
X7665466Y8310524D01*
X7665466Y8311032D01*
X7680706Y8318906D01*
X7728966Y8347049D01*
X7728966Y8355736D01*
G37*
G36*
X7654493Y8282787D02*
G01*
X7654493Y8274456D01*
X7721853Y8274456D01*
X7721853Y8265312D01*
X7721346Y8258860D01*
X7719822Y8253374D01*
X7717383Y8248751D01*
X7713980Y8244992D01*
X7709712Y8242046D01*
X7704581Y8240014D01*
X7698638Y8238794D01*
X7691881Y8238337D01*
X7685176Y8238794D01*
X7679181Y8240014D01*
X7673949Y8242046D01*
X7669580Y8244992D01*
X7666075Y8248751D01*
X7663484Y8253374D01*
X7661909Y8258860D01*
X7661402Y8265312D01*
X7661402Y8274456D01*
X7654493Y8274456D01*
X7654493Y8264296D01*
X7654798Y8258860D01*
X7655661Y8253882D01*
X7657084Y8249361D01*
X7659014Y8245246D01*
X7661452Y8241639D01*
X7664399Y8238540D01*
X7667853Y8235848D01*
X7671765Y8233664D01*
X7676184Y8231936D01*
X7680959Y8230717D01*
X7686192Y8229955D01*
X7691881Y8229752D01*
X7697520Y8229955D01*
X7702702Y8230717D01*
X7707528Y8231936D01*
X7711846Y8233664D01*
X7715758Y8235848D01*
X7719161Y8238540D01*
X7722108Y8241690D01*
X7724546Y8245348D01*
X7726425Y8249462D01*
X7727797Y8253984D01*
X7728661Y8259013D01*
X7728966Y8264499D01*
X7728966Y8282787D01*
G37*
G36*
X11156746Y13039293D02*
G01*
X11156746Y13030911D01*
X11222532Y13011099D01*
X11222532Y13010845D01*
X11210239Y13006984D01*
X11197894Y13003530D01*
X11156746Y12991033D01*
X11156746Y12982143D01*
X11231168Y13006019D01*
X11231168Y13015721D01*
G37*
G36*
X11224056Y12976860D02*
G01*
X11224107Y12952526D01*
X11224564Y12943281D01*
X11218265Y12949783D01*
X11212118Y12955574D01*
X11206073Y12960705D01*
X11200180Y12965023D01*
X11194389Y12968528D01*
X11188649Y12971119D01*
X11182959Y12972745D01*
X11177320Y12973253D01*
X11172596Y12972897D01*
X11168329Y12971780D01*
X11164620Y12970002D01*
X11161471Y12967563D01*
X11158931Y12964515D01*
X11157051Y12960858D01*
X11155883Y12956641D01*
X11155476Y12951968D01*
X11156238Y12945414D01*
X11158474Y12939776D01*
X11161928Y12934746D01*
X11166398Y12930073D01*
X11170970Y12935153D01*
X11167567Y12938506D01*
X11164722Y12942265D01*
X11162792Y12946430D01*
X11162080Y12950901D01*
X11163249Y12957200D01*
X11166500Y12961670D01*
X11171428Y12964261D01*
X11177574Y12965125D01*
X11182553Y12964668D01*
X11187734Y12963093D01*
X11193221Y12960502D01*
X11198961Y12956844D01*
X11205108Y12952018D01*
X11211661Y12946075D01*
X11218621Y12938912D01*
X11226088Y12930581D01*
X11231168Y12930581D01*
X11231168Y12976860D01*
G37*
G36*
X11224310Y12919405D02*
G01*
X11224310Y12904165D01*
X11156746Y12904165D01*
X11156746Y12898069D01*
X11158372Y12894919D01*
X11159794Y12891414D01*
X11160912Y12887452D01*
X11161826Y12882880D01*
X11167160Y12882880D01*
X11167160Y12896037D01*
X11224310Y12896037D01*
X11224310Y12879273D01*
X11231168Y12879273D01*
X11231168Y12919405D01*
G37*
G36*
X11190528Y12866573D02*
G01*
X11190528Y12845745D01*
X11168430Y12845745D01*
X11168430Y12839141D01*
X11190528Y12839141D01*
X11190528Y12818313D01*
X11196878Y12818313D01*
X11196878Y12839141D01*
X11219230Y12839141D01*
X11219230Y12845745D01*
X11196878Y12845745D01*
X11196878Y12866573D01*
G37*
G36*
X11193119Y13880185D02*
G01*
X11187480Y13879931D01*
X11182248Y13879220D01*
X11177473Y13877950D01*
X11173104Y13876274D01*
X11169243Y13874038D01*
X11165840Y13871346D01*
X11162893Y13868196D01*
X11160455Y13864590D01*
X11158575Y13860475D01*
X11157153Y13855903D01*
X11156340Y13850874D01*
X11156035Y13845387D01*
X11156035Y13835481D01*
X11163147Y13835481D01*
X11163147Y13844625D01*
X11163655Y13851026D01*
X11165128Y13856563D01*
X11167618Y13861186D01*
X11170970Y13864945D01*
X11175288Y13867841D01*
X11180419Y13869924D01*
X11186363Y13871143D01*
X11193119Y13871549D01*
X11199825Y13871143D01*
X11205819Y13869924D01*
X11211052Y13867841D01*
X11215420Y13864945D01*
X11218926Y13861186D01*
X11221466Y13856563D01*
X11223040Y13851026D01*
X11223599Y13844625D01*
X11223599Y13835481D01*
X11156035Y13835481D01*
X11156035Y13827099D01*
X11230457Y13827099D01*
X11230457Y13845641D01*
X11230203Y13851077D01*
X11229340Y13856055D01*
X11227917Y13860576D01*
X11225987Y13864640D01*
X11223498Y13868247D01*
X11220551Y13871397D01*
X11217097Y13874089D01*
X11213185Y13876274D01*
X11208816Y13878001D01*
X11203990Y13879220D01*
X11198758Y13879931D01*
G37*
G36*
X11156035Y13806525D02*
G01*
X11156035Y13798397D01*
X11202212Y13798499D01*
X11219535Y13799413D01*
X11219535Y13798905D01*
X11204295Y13791031D01*
X11156035Y13762837D01*
X11156035Y13754201D01*
X11230457Y13754201D01*
X11230457Y13762075D01*
X11183975Y13761974D01*
X11167211Y13761059D01*
X11167211Y13761567D01*
X11182451Y13769695D01*
X11230457Y13797635D01*
X11230457Y13806525D01*
G37*
G36*
X11192357Y13736167D02*
G01*
X11192357Y13712291D01*
X11199469Y13712291D01*
X11199469Y13728293D01*
X11219789Y13728293D01*
X11221669Y13725601D01*
X11223142Y13722299D01*
X11224056Y13718438D01*
X11224361Y13714323D01*
X11223802Y13708583D01*
X11222177Y13703503D01*
X11219586Y13699134D01*
X11215979Y13695527D01*
X11211509Y13692682D01*
X11206124Y13690600D01*
X11200028Y13689380D01*
X11193119Y13688923D01*
X11186312Y13689380D01*
X11180267Y13690701D01*
X11174933Y13692886D01*
X11170462Y13695832D01*
X11166906Y13699490D01*
X11164316Y13703807D01*
X11162690Y13708786D01*
X11162131Y13714323D01*
X11162690Y13719556D01*
X11164265Y13723874D01*
X11166551Y13727531D01*
X11169243Y13730579D01*
X11163909Y13735405D01*
X11160658Y13731697D01*
X11157712Y13726922D01*
X11155578Y13721080D01*
X11154765Y13714069D01*
X11155070Y13709294D01*
X11155984Y13704773D01*
X11157458Y13700556D01*
X11159490Y13696645D01*
X11162030Y13693038D01*
X11165128Y13689838D01*
X11168684Y13687044D01*
X11172748Y13684707D01*
X11177270Y13682827D01*
X11182248Y13681456D01*
X11187582Y13680592D01*
X11193373Y13680287D01*
X11201958Y13680897D01*
X11209528Y13682726D01*
X11216132Y13685672D01*
X11221618Y13689584D01*
X11225936Y13694460D01*
X11229136Y13700150D01*
X11231067Y13706551D01*
X11231727Y13713561D01*
X11231118Y13720622D01*
X11229340Y13726769D01*
X11226698Y13732001D01*
X11223345Y13736167D01*
G37*
G36*
X11156746Y11494363D02*
G01*
X11156746Y11485930D01*
X11222532Y11466118D01*
X11222532Y11465864D01*
X11210188Y11462004D01*
X11197894Y11458498D01*
X11156746Y11446052D01*
X11156746Y11437213D01*
X11231168Y11461038D01*
X11231168Y11470690D01*
G37*
G36*
X11224056Y11431828D02*
G01*
X11224107Y11407546D01*
X11224564Y11398351D01*
X11218265Y11404803D01*
X11212118Y11410594D01*
X11206073Y11415725D01*
X11200180Y11420094D01*
X11194338Y11423548D01*
X11188649Y11426139D01*
X11182959Y11427764D01*
X11177320Y11428272D01*
X11172596Y11427917D01*
X11168329Y11426799D01*
X11164620Y11425021D01*
X11161420Y11422583D01*
X11158880Y11419535D01*
X11157051Y11415877D01*
X11155883Y11411661D01*
X11155476Y11406936D01*
X11156238Y11400434D01*
X11158474Y11394795D01*
X11161877Y11389766D01*
X11166398Y11385092D01*
X11170970Y11390172D01*
X11167516Y11393525D01*
X11164722Y11397284D01*
X11162792Y11401501D01*
X11162080Y11405971D01*
X11163249Y11412220D01*
X11166500Y11416690D01*
X11171377Y11419281D01*
X11177574Y11420144D01*
X11182502Y11419687D01*
X11187734Y11418112D01*
X11193170Y11415522D01*
X11198961Y11411864D01*
X11205108Y11407038D01*
X11211661Y11401094D01*
X11218621Y11393982D01*
X11226088Y11385651D01*
X11231168Y11385651D01*
X11231168Y11431828D01*
G37*
G36*
X11224310Y11374475D02*
G01*
X11224310Y11359235D01*
X11156746Y11359235D01*
X11156746Y11353088D01*
X11158372Y11349939D01*
X11159744Y11346434D01*
X11160912Y11342471D01*
X11161826Y11337848D01*
X11167160Y11337848D01*
X11167160Y11351056D01*
X11224310Y11351056D01*
X11224310Y11334292D01*
X11231168Y11334292D01*
X11231168Y11374475D01*
G37*
G36*
X11190528Y11321592D02*
G01*
X11190528Y11300764D01*
X11168430Y11300764D01*
X11168430Y11294160D01*
X11190528Y11294160D01*
X11190528Y11273383D01*
X11196878Y11273383D01*
X11196878Y11294160D01*
X11219230Y11294160D01*
X11219230Y11300764D01*
X11196878Y11300764D01*
X11196878Y11321592D01*
G37*
G36*
X11193119Y12335205D02*
G01*
X11187480Y12334951D01*
X11182248Y12334240D01*
X11177473Y12332970D01*
X11173104Y12331242D01*
X11169243Y12329058D01*
X11165789Y12326366D01*
X11162893Y12323216D01*
X11160455Y12319609D01*
X11158524Y12315494D01*
X11157153Y12310922D01*
X11156289Y12305893D01*
X11156035Y12300407D01*
X11156035Y12290501D01*
X11163147Y12290501D01*
X11163147Y12299645D01*
X11163655Y12306046D01*
X11165128Y12311583D01*
X11167618Y12316206D01*
X11170970Y12319965D01*
X11175238Y12322860D01*
X11180368Y12324943D01*
X11186363Y12326162D01*
X11193119Y12326569D01*
X11199825Y12326162D01*
X11205819Y12324943D01*
X11211001Y12322860D01*
X11215420Y12319965D01*
X11218926Y12316206D01*
X11221466Y12311583D01*
X11223040Y12306046D01*
X11223599Y12299645D01*
X11223599Y12290501D01*
X11156035Y12290501D01*
X11156035Y12282119D01*
X11230457Y12282119D01*
X11230457Y12300661D01*
X11230152Y12306096D01*
X11229289Y12311075D01*
X11227917Y12315596D01*
X11225936Y12319660D01*
X11223498Y12323267D01*
X11220551Y12326416D01*
X11217097Y12329058D01*
X11213185Y12331293D01*
X11208816Y12332970D01*
X11203990Y12334240D01*
X11198758Y12334951D01*
G37*
G36*
X11156035Y12261545D02*
G01*
X11156035Y12253417D01*
X11202212Y12253518D01*
X11219535Y12254433D01*
X11219535Y12253925D01*
X11204295Y12246051D01*
X11156035Y12217857D01*
X11156035Y12209221D01*
X11230457Y12209221D01*
X11230457Y12217095D01*
X11183975Y12217044D01*
X11167211Y12216079D01*
X11167211Y12216587D01*
X11182451Y12224715D01*
X11230457Y12252655D01*
X11230457Y12261545D01*
G37*
G36*
X11192357Y12191187D02*
G01*
X11192357Y12167311D01*
X11199469Y12167311D01*
X11199469Y12183313D01*
X11219789Y12183313D01*
X11221669Y12180620D01*
X11223091Y12177268D01*
X11224006Y12173458D01*
X11224361Y12169343D01*
X11223802Y12163602D01*
X11222177Y12158522D01*
X11219535Y12154154D01*
X11215979Y12150547D01*
X11211458Y12147702D01*
X11206124Y12145619D01*
X11199977Y12144349D01*
X11193119Y12143943D01*
X11186312Y12144400D01*
X11180216Y12145721D01*
X11174933Y12147905D01*
X11170462Y12150852D01*
X11166906Y12154509D01*
X11164265Y12158827D01*
X11162690Y12163806D01*
X11162131Y12169343D01*
X11162690Y12174575D01*
X11164265Y12178893D01*
X11166500Y12182551D01*
X11169243Y12185599D01*
X11163909Y12190425D01*
X11160658Y12186716D01*
X11157712Y12181941D01*
X11155578Y12176099D01*
X11154765Y12169089D01*
X11155070Y12164314D01*
X11155984Y12159792D01*
X11157458Y12155576D01*
X11159439Y12151664D01*
X11162030Y12148058D01*
X11165128Y12144857D01*
X11168684Y12142063D01*
X11172748Y12139726D01*
X11177270Y12137847D01*
X11182197Y12136475D01*
X11187582Y12135612D01*
X11193373Y12135307D01*
X11201958Y12135967D01*
X11209528Y12137796D01*
X11216081Y12140692D01*
X11221567Y12144603D01*
X11225936Y12149480D01*
X11229136Y12155119D01*
X11231067Y12161570D01*
X11231727Y12168581D01*
X11231067Y12175642D01*
X11229340Y12181789D01*
X11226698Y12187021D01*
X11223345Y12191187D01*
G37*
G36*
X11156746Y9979355D02*
G01*
X11156746Y9970973D01*
X11222532Y9951161D01*
X11222532Y9950907D01*
X11210239Y9946995D01*
X11197894Y9943541D01*
X11156746Y9931095D01*
X11156746Y9922205D01*
X11231168Y9946081D01*
X11231168Y9955733D01*
G37*
G36*
X11224056Y9916871D02*
G01*
X11224107Y9892538D01*
X11224564Y9883343D01*
X11218265Y9889794D01*
X11212118Y9895636D01*
X11206073Y9900716D01*
X11200180Y9905085D01*
X11194389Y9908590D01*
X11188649Y9911181D01*
X11182959Y9912756D01*
X11177320Y9913315D01*
X11172596Y9912908D01*
X11168329Y9911842D01*
X11164620Y9910013D01*
X11161471Y9907574D01*
X11158931Y9904526D01*
X11157051Y9900869D01*
X11155883Y9896652D01*
X11155476Y9891979D01*
X11156238Y9885426D01*
X11158474Y9879787D01*
X11161928Y9874758D01*
X11166398Y9870135D01*
X11170970Y9875215D01*
X11167567Y9878517D01*
X11164722Y9882327D01*
X11162792Y9886492D01*
X11162080Y9890963D01*
X11163249Y9897262D01*
X11166500Y9901682D01*
X11171428Y9904323D01*
X11177574Y9905187D01*
X11182553Y9904679D01*
X11187734Y9903155D01*
X11193170Y9900513D01*
X11198961Y9896856D01*
X11205108Y9892030D01*
X11211661Y9886086D01*
X11218621Y9878974D01*
X11226088Y9870643D01*
X11231168Y9870643D01*
X11231168Y9916871D01*
G37*
G36*
X11224310Y9859467D02*
G01*
X11224310Y9844227D01*
X11156746Y9844227D01*
X11156746Y9838131D01*
X11158372Y9834930D01*
X11159744Y9831425D01*
X11160912Y9827463D01*
X11161826Y9822891D01*
X11167160Y9822891D01*
X11167160Y9836099D01*
X11224310Y9836099D01*
X11224310Y9819335D01*
X11231168Y9819335D01*
X11231168Y9859467D01*
G37*
G36*
X11190528Y9806635D02*
G01*
X11190528Y9785807D01*
X11168430Y9785807D01*
X11168430Y9779203D01*
X11190528Y9779203D01*
X11190528Y9758375D01*
X11196878Y9758375D01*
X11196878Y9779203D01*
X11219230Y9779203D01*
X11219230Y9785807D01*
X11196878Y9785807D01*
X11196878Y9806635D01*
G37*
G36*
X11193119Y10820247D02*
G01*
X11187480Y10819993D01*
X11182248Y10819231D01*
X11177473Y10818012D01*
X11173104Y10816285D01*
X11169243Y10814100D01*
X11165789Y10811408D01*
X11162893Y10808258D01*
X11160455Y10804601D01*
X11158524Y10800486D01*
X11157153Y10795914D01*
X11156289Y10790885D01*
X11156035Y10785398D01*
X11156035Y10775543D01*
X11163147Y10775543D01*
X11163147Y10784636D01*
X11163655Y10791088D01*
X11165128Y10796574D01*
X11167618Y10801197D01*
X11170970Y10805007D01*
X11175288Y10807903D01*
X11180419Y10809935D01*
X11186363Y10811205D01*
X11193119Y10811611D01*
X11199825Y10811205D01*
X11205819Y10809935D01*
X11211001Y10807903D01*
X11215420Y10805007D01*
X11218926Y10801197D01*
X11221466Y10796574D01*
X11223040Y10791088D01*
X11223599Y10784636D01*
X11223599Y10775543D01*
X11156035Y10775543D01*
X11156035Y10767161D01*
X11230457Y10767161D01*
X11230457Y10785652D01*
X11230152Y10791088D01*
X11229289Y10796066D01*
X11227917Y10800588D01*
X11225987Y10804702D01*
X11223498Y10808309D01*
X11220551Y10811408D01*
X11217097Y10814100D01*
X11213185Y10816285D01*
X11208816Y10818012D01*
X11203990Y10819231D01*
X11198758Y10819993D01*
G37*
G36*
X11156035Y10746536D02*
G01*
X11156035Y10738459D01*
X11202212Y10738510D01*
X11219535Y10739475D01*
X11219535Y10738967D01*
X11204295Y10731093D01*
X11156035Y10702848D01*
X11156035Y10694263D01*
X11230457Y10694263D01*
X11230457Y10702086D01*
X11183975Y10702036D01*
X11167211Y10701070D01*
X11167211Y10701578D01*
X11182451Y10709757D01*
X11230457Y10737697D01*
X11230457Y10746536D01*
G37*
G36*
X11192357Y10676178D02*
G01*
X11192357Y10652302D01*
X11199469Y10652302D01*
X11199469Y10668304D01*
X11219789Y10668304D01*
X11221669Y10665663D01*
X11223142Y10662310D01*
X11224056Y10658449D01*
X11224361Y10654385D01*
X11223802Y10648594D01*
X11222177Y10643514D01*
X11219586Y10639196D01*
X11215979Y10635538D01*
X11211509Y10632694D01*
X11206124Y10630662D01*
X11200028Y10629392D01*
X11193119Y10628985D01*
X11186312Y10629392D01*
X11180267Y10630763D01*
X11174933Y10632897D01*
X11170462Y10635843D01*
X11166906Y10639501D01*
X11164316Y10643870D01*
X11162690Y10648797D01*
X11162131Y10654385D01*
X11162690Y10659567D01*
X11164265Y10663936D01*
X11166500Y10667542D01*
X11169243Y10670590D01*
X11163909Y10675467D01*
X11160658Y10671708D01*
X11157712Y10666984D01*
X11155578Y10661142D01*
X11154765Y10654131D01*
X11155070Y10649356D01*
X11155984Y10644835D01*
X11157458Y10640568D01*
X11159490Y10636656D01*
X11162030Y10633100D01*
X11165128Y10629900D01*
X11168684Y10627106D01*
X11172748Y10624718D01*
X11177270Y10622838D01*
X11182248Y10621467D01*
X11187582Y10620603D01*
X11193373Y10620298D01*
X11201958Y10620959D01*
X11209528Y10622788D01*
X11216132Y10625683D01*
X11221618Y10629646D01*
X11225936Y10634472D01*
X11229136Y10640161D01*
X11231067Y10646562D01*
X11231727Y10653623D01*
X11231118Y10660634D01*
X11229340Y10666780D01*
X11226698Y10672013D01*
X11223345Y10676178D01*
G37*
G36*
X11171732Y8419338D02*
G01*
X11171732Y8410956D01*
X11237569Y8391144D01*
X11237569Y8390890D01*
X11225225Y8386978D01*
X11212931Y8383524D01*
X11171732Y8371078D01*
X11171732Y8362188D01*
X11246205Y8386064D01*
X11246205Y8395665D01*
G37*
G36*
X11239093Y8356803D02*
G01*
X11239144Y8332520D01*
X11239601Y8323275D01*
X11233302Y8329777D01*
X11227104Y8335568D01*
X11221110Y8340699D01*
X11215217Y8345068D01*
X11209375Y8348522D01*
X11203635Y8351113D01*
X11197996Y8352739D01*
X11192357Y8353298D01*
X11187582Y8352891D01*
X11183366Y8351774D01*
X11179606Y8349996D01*
X11176457Y8347557D01*
X11173917Y8344509D01*
X11172037Y8340852D01*
X11170869Y8336635D01*
X11170513Y8331911D01*
X11171275Y8325408D01*
X11173460Y8319770D01*
X11176914Y8314740D01*
X11181384Y8310118D01*
X11186007Y8315198D01*
X11182553Y8318500D01*
X11179708Y8322259D01*
X11177778Y8326475D01*
X11177066Y8330895D01*
X11178286Y8337194D01*
X11181486Y8341664D01*
X11186414Y8344306D01*
X11192611Y8345170D01*
X11197539Y8344662D01*
X11202720Y8343087D01*
X11208207Y8340496D01*
X11213998Y8336838D01*
X11220145Y8332012D01*
X11226647Y8326069D01*
X11233658Y8318957D01*
X11241125Y8310575D01*
X11246205Y8310575D01*
X11246205Y8356803D01*
G37*
G36*
X11239347Y8299399D02*
G01*
X11239347Y8284209D01*
X11171732Y8284209D01*
X11171732Y8278114D01*
X11173409Y8274913D01*
X11174780Y8271408D01*
X11175949Y8267446D01*
X11176863Y8262874D01*
X11182197Y8262874D01*
X11182197Y8276081D01*
X11239347Y8276081D01*
X11239347Y8259318D01*
X11246205Y8259318D01*
X11246205Y8299399D01*
G37*
G36*
X11205514Y8246618D02*
G01*
X11205514Y8225790D01*
X11183416Y8225790D01*
X11183416Y8219186D01*
X11205514Y8219186D01*
X11205514Y8198358D01*
X11211864Y8198358D01*
X11211864Y8219186D01*
X11234216Y8219186D01*
X11234216Y8225790D01*
X11211864Y8225790D01*
X11211864Y8246618D01*
G37*
G36*
X11208156Y9260179D02*
G01*
X11202517Y9259925D01*
X11197285Y9259214D01*
X11192459Y9257995D01*
X11188141Y9256268D01*
X11184229Y9254032D01*
X11180826Y9251391D01*
X11177879Y9248190D01*
X11175492Y9244584D01*
X11173561Y9240469D01*
X11172190Y9235897D01*
X11171326Y9230868D01*
X11171072Y9225381D01*
X11171072Y9215475D01*
X11178133Y9215475D01*
X11178133Y9224619D01*
X11178641Y9231020D01*
X11180165Y9236557D01*
X11182604Y9241180D01*
X11186007Y9244939D01*
X11190274Y9247835D01*
X11195405Y9249918D01*
X11201400Y9251137D01*
X11208156Y9251543D01*
X11214862Y9251137D01*
X11220805Y9249918D01*
X11226038Y9247835D01*
X11230406Y9244939D01*
X11233912Y9241180D01*
X11236502Y9236557D01*
X11238077Y9231020D01*
X11238585Y9224619D01*
X11238585Y9215475D01*
X11171072Y9215475D01*
X11171072Y9207093D01*
X11245494Y9207093D01*
X11245494Y9225635D01*
X11245189Y9231071D01*
X11244326Y9236049D01*
X11242954Y9240570D01*
X11240973Y9244634D01*
X11238534Y9248241D01*
X11235588Y9251391D01*
X11232134Y9254083D01*
X11228222Y9256268D01*
X11223802Y9257995D01*
X11219027Y9259214D01*
X11213795Y9259925D01*
G37*
G36*
X11171072Y9186519D02*
G01*
X11171072Y9178391D01*
X11217198Y9178493D01*
X11234572Y9179407D01*
X11234572Y9178899D01*
X11219281Y9171025D01*
X11171072Y9142831D01*
X11171072Y9134195D01*
X11245494Y9134195D01*
X11245494Y9142069D01*
X11199012Y9142018D01*
X11182248Y9141053D01*
X11182248Y9141561D01*
X11197488Y9149689D01*
X11245494Y9177629D01*
X11245494Y9186519D01*
G37*
G36*
X11207394Y9116161D02*
G01*
X11207394Y9092285D01*
X11214506Y9092285D01*
X11214506Y9108287D01*
X11234775Y9108287D01*
X11236706Y9105595D01*
X11238128Y9102293D01*
X11239042Y9098432D01*
X11239398Y9094317D01*
X11238839Y9088577D01*
X11237214Y9083497D01*
X11234572Y9079128D01*
X11231016Y9075521D01*
X11226495Y9072676D01*
X11221161Y9070594D01*
X11215014Y9069374D01*
X11208156Y9068917D01*
X11201349Y9069374D01*
X11195253Y9070746D01*
X11189970Y9072880D01*
X11185499Y9075826D01*
X11181943Y9079484D01*
X11179302Y9083802D01*
X11177676Y9088780D01*
X11177168Y9094317D01*
X11177727Y9099550D01*
X11179302Y9103868D01*
X11181537Y9107525D01*
X11184229Y9110573D01*
X11178895Y9115399D01*
X11175644Y9111691D01*
X11172748Y9106916D01*
X11170615Y9101074D01*
X11169802Y9094063D01*
X11170107Y9089288D01*
X11170970Y9084767D01*
X11172444Y9080550D01*
X11174476Y9076639D01*
X11177066Y9073032D01*
X11180114Y9069832D01*
X11183721Y9067038D01*
X11187785Y9064701D01*
X11192256Y9062821D01*
X11197234Y9061450D01*
X11202619Y9060586D01*
X11208359Y9060281D01*
X11216944Y9060942D01*
X11224564Y9062720D01*
X11231118Y9065666D01*
X11236604Y9069578D01*
X11240973Y9074454D01*
X11244122Y9080144D01*
X11246053Y9086545D01*
X11246713Y9093555D01*
X11246104Y9100616D01*
X11244376Y9106763D01*
X11241684Y9111996D01*
X11238331Y9116161D01*
G37*
G36*
X10070338Y9025382D02*
G01*
X10062616Y9025128D01*
X10055555Y9024467D01*
X10049154Y9023350D01*
X10043414Y9021826D01*
X10038334Y9019895D01*
X10033965Y9017609D01*
X10030256Y9014917D01*
X10027208Y9011920D01*
X10024872Y9008567D01*
X10023144Y9004858D01*
X10022128Y9000896D01*
X10021824Y8996680D01*
X10030206Y8996680D01*
X10030815Y9000693D01*
X10032593Y9004300D01*
X10035641Y9007449D01*
X10039959Y9010142D01*
X10045598Y9012275D01*
X10052507Y9013901D01*
X10060736Y9014866D01*
X10070338Y9015222D01*
X10079837Y9014866D01*
X10087965Y9013901D01*
X10094722Y9012275D01*
X10100208Y9010142D01*
X10104424Y9007449D01*
X10107371Y9004300D01*
X10109098Y9000693D01*
X10109708Y8996680D01*
X10109098Y8992768D01*
X10107371Y8989212D01*
X10104424Y8986062D01*
X10100208Y8983421D01*
X10094722Y8981287D01*
X10087965Y8979712D01*
X10079837Y8978696D01*
X10070338Y8978392D01*
X10060736Y8978696D01*
X10052507Y8979712D01*
X10045598Y8981287D01*
X10039959Y8983421D01*
X10035641Y8986062D01*
X10032593Y8989212D01*
X10030815Y8992768D01*
X10030206Y8996680D01*
X10021824Y8996680D01*
X10022128Y8992463D01*
X10023144Y8988602D01*
X10024872Y8984996D01*
X10027208Y8981694D01*
X10030256Y8978696D01*
X10033965Y8976106D01*
X10038334Y8973820D01*
X10043414Y8971940D01*
X10049154Y8970467D01*
X10055555Y8969349D01*
X10062616Y8968689D01*
X10070338Y8968486D01*
X10078059Y8968689D01*
X10085070Y8969349D01*
X10091420Y8970467D01*
X10097058Y8971940D01*
X10101986Y8973820D01*
X10106304Y8976106D01*
X10109911Y8978696D01*
X10112857Y8981694D01*
X10115143Y8984996D01*
X10116769Y8988602D01*
X10117734Y8992463D01*
X10118090Y8996680D01*
X10117734Y9000896D01*
X10116769Y9004858D01*
X10115143Y9008567D01*
X10112857Y9011920D01*
X10109911Y9014917D01*
X10106304Y9017609D01*
X10101986Y9019895D01*
X10097058Y9021826D01*
X10091420Y9023350D01*
X10085070Y9024467D01*
X10078059Y9025128D01*
G37*
G36*
X10021773Y8529320D02*
G01*
X10021773Y8479282D01*
X10030409Y8479282D01*
X10030409Y8498078D01*
X10114737Y8498078D01*
X10114737Y8505901D01*
X10112756Y8509762D01*
X10111079Y8514080D01*
X10109606Y8519058D01*
X10108387Y8524748D01*
X10101529Y8524748D01*
X10101529Y8508238D01*
X10030409Y8508238D01*
X10030409Y8529320D01*
G37*
G36*
X7926933Y11529212D02*
G01*
X7922158Y11528907D01*
X7917637Y11527993D01*
X7913420Y11526520D01*
X7909509Y11524488D01*
X7905953Y11521948D01*
X7902752Y11518849D01*
X7899958Y11515242D01*
X7897571Y11511229D01*
X7895691Y11506708D01*
X7894320Y11501729D01*
X7893456Y11496344D01*
X7893202Y11490604D01*
X7893812Y11482019D01*
X7895640Y11474399D01*
X7898536Y11467846D01*
X7902498Y11462359D01*
X7907324Y11457990D01*
X7913014Y11454841D01*
X7919415Y11452910D01*
X7926425Y11452250D01*
X7933486Y11452860D01*
X7939633Y11454638D01*
X7944866Y11457279D01*
X7949082Y11460632D01*
X7949082Y11491620D01*
X7925155Y11491620D01*
X7925155Y11484508D01*
X7941157Y11484508D01*
X7941157Y11464188D01*
X7938516Y11462308D01*
X7935163Y11460835D01*
X7931302Y11459921D01*
X7927187Y11459616D01*
X7921447Y11460175D01*
X7916367Y11461750D01*
X7912049Y11464391D01*
X7908391Y11467998D01*
X7905546Y11472468D01*
X7903514Y11477802D01*
X7902244Y11483949D01*
X7901787Y11490858D01*
X7902244Y11497665D01*
X7903616Y11503710D01*
X7905750Y11509044D01*
X7908696Y11513464D01*
X7912353Y11517071D01*
X7916722Y11519662D01*
X7921650Y11521287D01*
X7927187Y11521846D01*
X7932420Y11521236D01*
X7936788Y11519712D01*
X7940395Y11517426D01*
X7943443Y11514734D01*
X7948320Y11520068D01*
X7944561Y11523319D01*
X7939836Y11526266D01*
X7933994Y11528399D01*
G37*
G36*
X7967065Y11527942D02*
G01*
X7967065Y11453520D01*
X7974990Y11453520D01*
X7974888Y11499951D01*
X7973974Y11516766D01*
X7974482Y11516766D01*
X7982559Y11501526D01*
X8010499Y11453520D01*
X8019440Y11453520D01*
X8019440Y11527942D01*
X8011261Y11527942D01*
X8011363Y11481765D01*
X8012328Y11464442D01*
X8011820Y11464442D01*
X8003895Y11479682D01*
X7975752Y11527942D01*
G37*
G36*
X8039963Y11527942D02*
G01*
X8039963Y11520830D01*
X8057540Y11520830D01*
X8063941Y11520322D01*
X8069427Y11518798D01*
X8074050Y11516360D01*
X8077809Y11512956D01*
X8080756Y11508689D01*
X8082788Y11503558D01*
X8084007Y11497614D01*
X8084413Y11490858D01*
X8084007Y11484152D01*
X8082788Y11478158D01*
X8080756Y11472926D01*
X8077809Y11468557D01*
X8074050Y11465052D01*
X8069427Y11462512D01*
X8063941Y11460886D01*
X8057540Y11460378D01*
X8048345Y11460378D01*
X8048345Y11520830D01*
X8039963Y11520830D01*
X8039963Y11453520D01*
X8058505Y11453520D01*
X8063941Y11453774D01*
X8068919Y11454638D01*
X8073440Y11456060D01*
X8077504Y11457990D01*
X8081111Y11460480D01*
X8084261Y11463426D01*
X8086953Y11466880D01*
X8089138Y11470792D01*
X8090865Y11475161D01*
X8092084Y11479987D01*
X8092795Y11485219D01*
X8093049Y11490858D01*
X8092795Y11496497D01*
X8092084Y11501729D01*
X8090865Y11506504D01*
X8089138Y11510822D01*
X8086902Y11514734D01*
X8084261Y11518138D01*
X8081060Y11521084D01*
X8077453Y11523522D01*
X8073339Y11525402D01*
X8068767Y11526824D01*
X8063738Y11527637D01*
X8058302Y11527942D01*
G37*
G36*
X8068208Y12411710D02*
G01*
X8061350Y12410592D01*
X8055965Y12407493D01*
X8052460Y12402820D01*
X8051190Y12396978D01*
X8052206Y12391644D01*
X8054848Y12387681D01*
X8058454Y12384786D01*
X8062366Y12382754D01*
X8074253Y12377470D01*
X8077301Y12375540D01*
X8079384Y12372848D01*
X8080146Y12369038D01*
X8079282Y12365024D01*
X8076793Y12362027D01*
X8072831Y12360046D01*
X8067700Y12359386D01*
X8063382Y12359894D01*
X8059267Y12361316D01*
X8055508Y12363551D01*
X8052206Y12366498D01*
X8048396Y12362180D01*
X8052308Y12358725D01*
X8056880Y12356084D01*
X8062010Y12354356D01*
X8067700Y12353798D01*
X8075422Y12355017D01*
X8081365Y12358319D01*
X8085175Y12363297D01*
X8086496Y12369546D01*
X8085531Y12374880D01*
X8083042Y12378893D01*
X8079282Y12381941D01*
X8074812Y12384278D01*
X8063534Y12389256D01*
X8060588Y12391136D01*
X8058403Y12393726D01*
X8057540Y12397486D01*
X8058302Y12401092D01*
X8060486Y12403785D01*
X8063839Y12405512D01*
X8068208Y12406122D01*
X8072018Y12405715D01*
X8075422Y12404598D01*
X8078470Y12402870D01*
X8081162Y12400788D01*
X8084464Y12404852D01*
X8081264Y12407493D01*
X8077453Y12409678D01*
X8073085Y12411151D01*
G37*
G36*
X7904886Y12410694D02*
G01*
X7904886Y12405614D01*
X7920126Y12405614D01*
X7926019Y12405106D01*
X7930286Y12403480D01*
X7932928Y12400584D01*
X7933842Y12396216D01*
X7933029Y12392202D01*
X7930540Y12389205D01*
X7926120Y12387224D01*
X7919618Y12386564D01*
X7911236Y12386564D01*
X7911236Y12405614D01*
X7904886Y12405614D01*
X7904886Y12381738D01*
X7921142Y12381738D01*
X7927898Y12381077D01*
X7932928Y12379198D01*
X7936077Y12375946D01*
X7937144Y12371324D01*
X7936026Y12366193D01*
X7932826Y12362637D01*
X7927797Y12360554D01*
X7921142Y12359894D01*
X7911236Y12359894D01*
X7911236Y12381738D01*
X7904886Y12381738D01*
X7904886Y12354814D01*
X7922158Y12354814D01*
X7930692Y12355779D01*
X7937347Y12358827D01*
X7941665Y12363907D01*
X7943240Y12371070D01*
X7942376Y12376200D01*
X7940040Y12380163D01*
X7936382Y12382957D01*
X7931556Y12384532D01*
X7931556Y12384786D01*
X7935112Y12386614D01*
X7937753Y12389459D01*
X7939379Y12392964D01*
X7939938Y12396978D01*
X7938566Y12403175D01*
X7934706Y12407442D01*
X7928660Y12409881D01*
X7920888Y12410694D01*
G37*
G36*
X7947050Y12410694D02*
G01*
X7947050Y12405360D01*
X7964068Y12405360D01*
X7964068Y12354814D01*
X7970418Y12354814D01*
X7970418Y12405360D01*
X7987690Y12405360D01*
X7987690Y12410694D01*
G37*
G36*
X7997850Y12410694D02*
G01*
X7997850Y12354814D01*
X8003692Y12354814D01*
X8003590Y12389612D01*
X8002930Y12402312D01*
X8003184Y12402312D01*
X8009534Y12390882D01*
X8030362Y12354814D01*
X8036966Y12354814D01*
X8036966Y12410694D01*
X8030870Y12410694D01*
X8030921Y12376048D01*
X8031632Y12362942D01*
X8031378Y12362942D01*
X8025282Y12374372D01*
X8004200Y12410694D01*
G37*
G36*
X8067598Y11115903D02*
G01*
X8067598Y11109553D01*
X8118144Y11109553D01*
X8118144Y11099901D01*
X8117636Y11093958D01*
X8115909Y11089538D01*
X8112810Y11086846D01*
X8107984Y11085931D01*
X8103006Y11086846D01*
X8099552Y11089538D01*
X8097469Y11093958D01*
X8096808Y11099901D01*
X8096808Y11109553D01*
X8091728Y11109553D01*
X8091728Y11099139D01*
X8067598Y11085169D01*
X8067598Y11078311D01*
X8092236Y11092535D01*
X8094218Y11087150D01*
X8097469Y11083086D01*
X8102041Y11080496D01*
X8107984Y11079581D01*
X8115249Y11080953D01*
X8120024Y11084915D01*
X8122666Y11091011D01*
X8123478Y11098885D01*
X8123478Y11115903D01*
G37*
G36*
X8067598Y11069167D02*
G01*
X8067598Y11039195D01*
X8072678Y11039195D01*
X8072678Y11050625D01*
X8123478Y11050625D01*
X8123478Y11055197D01*
X8121192Y11060226D01*
X8120329Y11063224D01*
X8119668Y11066627D01*
X8115604Y11066627D01*
X8115604Y11056721D01*
X8072678Y11056721D01*
X8072678Y11069167D01*
G37*
G36*
X8116112Y11031067D02*
G01*
X8112810Y11027511D01*
X8115350Y11024870D01*
X8117433Y11021974D01*
X8118906Y11018875D01*
X8119414Y11015573D01*
X8118500Y11010798D01*
X8116062Y11007445D01*
X8112353Y11005515D01*
X8107730Y11004905D01*
X8104022Y11005261D01*
X8100161Y11006378D01*
X8096097Y11008309D01*
X8091779Y11011052D01*
X8087156Y11014659D01*
X8082280Y11019129D01*
X8076996Y11024514D01*
X8071408Y11030813D01*
X8067598Y11030813D01*
X8067598Y10996269D01*
X8072932Y10996269D01*
X8072881Y11014405D01*
X8072424Y11021415D01*
X8077200Y11016488D01*
X8081873Y11012068D01*
X8086445Y11008207D01*
X8090865Y11004956D01*
X8095234Y11002314D01*
X8099552Y11000384D01*
X8103768Y10999216D01*
X8107984Y10998809D01*
X8114741Y10999876D01*
X8119973Y11003076D01*
X8123326Y11008106D01*
X8124494Y11014811D01*
X8123885Y11019739D01*
X8122208Y11023955D01*
X8119567Y11027664D01*
G37*
G36*
X7842605Y11106302D02*
G01*
X7842605Y11099952D01*
X7893151Y11099952D01*
X7893151Y11090300D01*
X7892643Y11084356D01*
X7890916Y11079937D01*
X7887766Y11077244D01*
X7882991Y11076330D01*
X7878013Y11077244D01*
X7874558Y11079937D01*
X7872475Y11084356D01*
X7871815Y11090300D01*
X7871815Y11099952D01*
X7866735Y11099952D01*
X7866735Y11089538D01*
X7842605Y11075568D01*
X7842605Y11068710D01*
X7867243Y11082934D01*
X7869174Y11077549D01*
X7872425Y11073485D01*
X7877048Y11070894D01*
X7882991Y11069980D01*
X7890205Y11071352D01*
X7895031Y11075314D01*
X7897672Y11081410D01*
X7898485Y11089284D01*
X7898485Y11106302D01*
G37*
G36*
X7842605Y11059566D02*
G01*
X7842605Y11029594D01*
X7847685Y11029594D01*
X7847685Y11041024D01*
X7898485Y11041024D01*
X7898485Y11045596D01*
X7896199Y11050625D01*
X7895336Y11053622D01*
X7894675Y11057026D01*
X7890611Y11057026D01*
X7890611Y11047120D01*
X7847685Y11047120D01*
X7847685Y11059566D01*
G37*
G36*
X7849209Y11022228D02*
G01*
X7846415Y11019180D01*
X7843977Y11015370D01*
X7842250Y11010544D01*
X7841589Y11004702D01*
X7842707Y10997742D01*
X7845856Y10992205D01*
X7850886Y10988497D01*
X7857591Y10987176D01*
X7862824Y10988090D01*
X7866989Y10990630D01*
X7870037Y10994339D01*
X7871815Y10998860D01*
X7872069Y10998860D01*
X7874050Y10994847D01*
X7876997Y10991697D01*
X7880807Y10989665D01*
X7885531Y10988954D01*
X7891475Y10990122D01*
X7895844Y10993475D01*
X7898587Y10998454D01*
X7899501Y11004702D01*
X7898942Y11009325D01*
X7897520Y11013389D01*
X7895437Y11016945D01*
X7892897Y11020196D01*
X7888833Y11016894D01*
X7890967Y11014252D01*
X7892694Y11011357D01*
X7893862Y11008258D01*
X7894421Y11004956D01*
X7893608Y11000943D01*
X7891729Y10997895D01*
X7888833Y10995964D01*
X7885023Y10995304D01*
X7880756Y10996117D01*
X7877251Y10998758D01*
X7874965Y11003635D01*
X7874101Y11011052D01*
X7869275Y11011052D01*
X7868412Y11002772D01*
X7866024Y10997285D01*
X7862316Y10994186D01*
X7857591Y10993272D01*
X7853070Y10994136D01*
X7849666Y10996523D01*
X7847431Y11000232D01*
X7846669Y11004956D01*
X7847228Y11009477D01*
X7848752Y11013287D01*
X7850835Y11016488D01*
X7853273Y11019180D01*
G37*
G36*
X8205825Y8337499D02*
G01*
X8198916Y8336330D01*
X8193430Y8333231D01*
X8189823Y8328609D01*
X8188553Y8322767D01*
X8189569Y8317433D01*
X8192211Y8313420D01*
X8195818Y8310575D01*
X8199729Y8308543D01*
X8211616Y8303259D01*
X8214664Y8301329D01*
X8216747Y8298637D01*
X8217509Y8294827D01*
X8216595Y8290814D01*
X8214106Y8287766D01*
X8210194Y8285835D01*
X8205063Y8285175D01*
X8200745Y8285683D01*
X8196630Y8287105D01*
X8192871Y8289340D01*
X8189569Y8292287D01*
X8185759Y8287969D01*
X8189671Y8284514D01*
X8194243Y8281873D01*
X8199374Y8280146D01*
X8205063Y8279587D01*
X8212886Y8280755D01*
X8218830Y8284108D01*
X8222538Y8289086D01*
X8223859Y8295335D01*
X8222945Y8300669D01*
X8220456Y8304682D01*
X8216747Y8307730D01*
X8212175Y8310067D01*
X8200999Y8315045D01*
X8197951Y8316925D01*
X8195767Y8319516D01*
X8194903Y8323275D01*
X8195665Y8326831D01*
X8197850Y8329574D01*
X8201304Y8331301D01*
X8205825Y8331911D01*
X8209584Y8331504D01*
X8212937Y8330387D01*
X8215884Y8328659D01*
X8218525Y8326577D01*
X8222081Y8330641D01*
X8218728Y8333282D01*
X8214868Y8335467D01*
X8210550Y8336940D01*
G37*
G36*
X8150961Y8336483D02*
G01*
X8150961Y8280603D01*
X8181949Y8280603D01*
X8181949Y8285937D01*
X8157311Y8285937D01*
X8157311Y8336483D01*
G37*
G36*
X8247989Y8336483D02*
G01*
X8245551Y8335213D01*
X8242909Y8334197D01*
X8239912Y8333333D01*
X8236559Y8332673D01*
X8236559Y8328609D01*
X8246465Y8328609D01*
X8246465Y8285683D01*
X8234019Y8285683D01*
X8234019Y8280603D01*
X8263991Y8280603D01*
X8263991Y8285683D01*
X8252561Y8285683D01*
X8252561Y8336483D01*
G37*
G36*
X10601248Y9148013D02*
G01*
X10594390Y9146895D01*
X10588904Y9143796D01*
X10585297Y9139123D01*
X10583976Y9133281D01*
X10584992Y9127947D01*
X10587685Y9123984D01*
X10591292Y9121089D01*
X10595152Y9119057D01*
X10607040Y9113824D01*
X10610088Y9111843D01*
X10612170Y9109202D01*
X10612932Y9105341D01*
X10612069Y9101378D01*
X10609580Y9098330D01*
X10605668Y9096400D01*
X10600486Y9095689D01*
X10596168Y9096197D01*
X10592054Y9097619D01*
X10588294Y9099854D01*
X10584992Y9102801D01*
X10581182Y9098483D01*
X10585145Y9095028D01*
X10589717Y9092387D01*
X10594848Y9090710D01*
X10600486Y9090101D01*
X10608360Y9091320D01*
X10614253Y9094622D01*
X10618012Y9099651D01*
X10619282Y9105849D01*
X10618368Y9111183D01*
X10615930Y9115196D01*
X10612221Y9118244D01*
X10607598Y9120581D01*
X10596422Y9125559D01*
X10593425Y9127439D01*
X10591190Y9130080D01*
X10590326Y9133789D01*
X10591088Y9137396D01*
X10593324Y9140088D01*
X10596778Y9141815D01*
X10601248Y9142425D01*
X10605008Y9142018D01*
X10608360Y9140901D01*
X10611307Y9139224D01*
X10613948Y9137091D01*
X10617504Y9141155D01*
X10614202Y9143847D01*
X10610342Y9146032D01*
X10606024Y9147454D01*
G37*
G36*
X10641888Y9148013D02*
G01*
X10637113Y9147403D01*
X10632897Y9145727D01*
X10629138Y9143085D01*
X10625632Y9139631D01*
X10629442Y9136329D01*
X10631932Y9138869D01*
X10634726Y9140952D01*
X10637824Y9142425D01*
X10641126Y9142933D01*
X10645902Y9142018D01*
X10649204Y9139580D01*
X10651185Y9135872D01*
X10651794Y9131249D01*
X10651439Y9127540D01*
X10650270Y9123680D01*
X10648391Y9119616D01*
X10645648Y9115298D01*
X10642092Y9110675D01*
X10637672Y9105798D01*
X10632338Y9100515D01*
X10626140Y9094927D01*
X10626140Y9091117D01*
X10660684Y9091117D01*
X10660684Y9096451D01*
X10642346Y9096400D01*
X10635538Y9095943D01*
X10640364Y9100718D01*
X10644733Y9105392D01*
X10648543Y9109964D01*
X10651744Y9114383D01*
X10654385Y9118752D01*
X10656316Y9123070D01*
X10657484Y9127286D01*
X10657890Y9131503D01*
X10656773Y9138259D01*
X10653623Y9143492D01*
X10648594Y9146844D01*
G37*
G36*
X10546384Y9146997D02*
G01*
X10546384Y9091117D01*
X10577372Y9091117D01*
X10577372Y9096451D01*
X10552734Y9096451D01*
X10552734Y9146997D01*
G37*
G36*
X8207044Y10286288D02*
G01*
X8200136Y10285171D01*
X8194649Y10282072D01*
X8191042Y10277398D01*
X8189772Y10271556D01*
X8190788Y10266222D01*
X8193481Y10262260D01*
X8197138Y10259364D01*
X8201202Y10257332D01*
X8213039Y10252100D01*
X8215985Y10250119D01*
X8217966Y10247477D01*
X8218728Y10243616D01*
X8217865Y10239654D01*
X8215477Y10236606D01*
X8211616Y10234676D01*
X8206536Y10233964D01*
X8202168Y10234472D01*
X8197951Y10235895D01*
X8194141Y10238130D01*
X8190788Y10241076D01*
X8186978Y10236758D01*
X8190890Y10233304D01*
X8195513Y10230662D01*
X8200694Y10228986D01*
X8206536Y10228376D01*
X8214258Y10229596D01*
X8220049Y10232948D01*
X8223758Y10237927D01*
X8225078Y10244124D01*
X8224164Y10249458D01*
X8221725Y10253522D01*
X8218068Y10256520D01*
X8213648Y10258856D01*
X8202218Y10263835D01*
X8199170Y10265714D01*
X8196986Y10268356D01*
X8196122Y10272064D01*
X8196935Y10275671D01*
X8199170Y10278414D01*
X8202625Y10280091D01*
X8207044Y10280700D01*
X8210803Y10280294D01*
X8214156Y10279176D01*
X8217204Y10277500D01*
X8219998Y10275366D01*
X8223300Y10279430D01*
X8220049Y10282123D01*
X8216188Y10284307D01*
X8211820Y10285780D01*
G37*
G36*
X8236254Y10285272D02*
G01*
X8236254Y10279938D01*
X8252510Y10279938D01*
X8258403Y10279430D01*
X8262670Y10277703D01*
X8265312Y10274604D01*
X8266226Y10269778D01*
X8265312Y10264800D01*
X8262670Y10261346D01*
X8258403Y10259263D01*
X8252510Y10258602D01*
X8242604Y10258602D01*
X8242604Y10279938D01*
X8236254Y10279938D01*
X8236254Y10229392D01*
X8242604Y10229392D01*
X8242604Y10253522D01*
X8253018Y10253522D01*
X8266988Y10229392D01*
X8274100Y10229392D01*
X8259622Y10254030D01*
X8264956Y10256012D01*
X8269020Y10259263D01*
X8271662Y10263835D01*
X8272576Y10269778D01*
X8271154Y10277043D01*
X8267192Y10281818D01*
X8261096Y10284460D01*
X8253272Y10285272D01*
G37*
G36*
X8296960Y10285272D02*
G01*
X8292134Y10282986D01*
X8289137Y10282123D01*
X8285784Y10281462D01*
X8285784Y10277398D01*
X8295690Y10277398D01*
X8295690Y10234472D01*
X8282990Y10234472D01*
X8282990Y10229392D01*
X8313216Y10229392D01*
X8313216Y10234472D01*
X8301786Y10234472D01*
X8301786Y10285272D01*
G37*
G36*
X10022027Y10615371D02*
G01*
X10014305Y10614152D01*
X10008514Y10610850D01*
X10004806Y10605820D01*
X10003485Y10599623D01*
X10004399Y10594289D01*
X10006838Y10590276D01*
X10010495Y10587228D01*
X10014915Y10584891D01*
X10026345Y10579912D01*
X10029393Y10578033D01*
X10031577Y10575391D01*
X10032441Y10571683D01*
X10031628Y10568076D01*
X10029393Y10565384D01*
X10025938Y10563656D01*
X10021519Y10563047D01*
X10017760Y10563453D01*
X10014407Y10564571D01*
X10011359Y10566247D01*
X10008565Y10568381D01*
X10005263Y10564317D01*
X10008514Y10561624D01*
X10012375Y10559440D01*
X10016744Y10558018D01*
X10021519Y10557459D01*
X10028428Y10558576D01*
X10033914Y10561675D01*
X10037521Y10566349D01*
X10038791Y10572191D01*
X10037775Y10577525D01*
X10035082Y10581487D01*
X10031425Y10584383D01*
X10027361Y10586415D01*
X10015524Y10591647D01*
X10012578Y10593628D01*
X10010597Y10596270D01*
X10009835Y10600131D01*
X10010698Y10604093D01*
X10013086Y10607141D01*
X10016947Y10609072D01*
X10022027Y10609783D01*
X10026396Y10609275D01*
X10030612Y10607852D01*
X10034422Y10605617D01*
X10037775Y10602671D01*
X10041585Y10606989D01*
X10037673Y10610443D01*
X10033050Y10613085D01*
X10027869Y10614761D01*
G37*
G36*
X9954463Y10614355D02*
G01*
X9968941Y10589717D01*
X9963607Y10587736D01*
X9959543Y10584484D01*
X9956901Y10579912D01*
X9955987Y10573969D01*
X9962337Y10573969D01*
X9963251Y10578947D01*
X9965893Y10582402D01*
X9970160Y10584484D01*
X9976053Y10585145D01*
X9985959Y10585145D01*
X9985959Y10563809D01*
X9976053Y10563809D01*
X9970160Y10564317D01*
X9965893Y10566044D01*
X9963251Y10569143D01*
X9962337Y10573969D01*
X9955987Y10573969D01*
X9957409Y10566704D01*
X9961372Y10561929D01*
X9967468Y10559288D01*
X9975291Y10558475D01*
X9992309Y10558475D01*
X9992309Y10614355D01*
X9985959Y10614355D01*
X9985959Y10590225D01*
X9975545Y10590225D01*
X9961575Y10614355D01*
G37*
G36*
X9914331Y10614355D02*
G01*
X9914331Y10609021D01*
X9932517Y10609072D01*
X9939477Y10609529D01*
X9934600Y10604754D01*
X9930180Y10600080D01*
X9926320Y10595508D01*
X9923068Y10591088D01*
X9920427Y10586720D01*
X9918496Y10582402D01*
X9917277Y10578185D01*
X9916871Y10573969D01*
X9917988Y10567212D01*
X9921189Y10561980D01*
X9926218Y10558627D01*
X9932873Y10557459D01*
X9937851Y10558068D01*
X9942068Y10559745D01*
X9945776Y10562386D01*
X9949129Y10565841D01*
X9945573Y10569143D01*
X9942982Y10566603D01*
X9940086Y10564520D01*
X9936988Y10563047D01*
X9933635Y10562539D01*
X9929012Y10563453D01*
X9925659Y10565892D01*
X9923678Y10569600D01*
X9922967Y10574223D01*
X9923373Y10577931D01*
X9924542Y10581792D01*
X9926472Y10585856D01*
X9929266Y10590174D01*
X9932873Y10594797D01*
X9937343Y10599674D01*
X9942677Y10604957D01*
X9948875Y10610545D01*
X9948875Y10614355D01*
G37*
G36*
X9863886Y10200589D02*
G01*
X9860432Y10196779D01*
X9857892Y10192207D01*
X9856266Y10186974D01*
X9855708Y10181285D01*
X9856927Y10173563D01*
X9860229Y10167620D01*
X9865156Y10163810D01*
X9871252Y10162489D01*
X9876688Y10163454D01*
X9880803Y10165943D01*
X9883851Y10169702D01*
X9886188Y10174173D01*
X9891217Y10185552D01*
X9893096Y10188498D01*
X9895687Y10190632D01*
X9899446Y10191445D01*
X9902850Y10190683D01*
X9905492Y10188498D01*
X9907219Y10185146D01*
X9907778Y10180777D01*
X9907422Y10177018D01*
X9906355Y10173665D01*
X9904679Y10170617D01*
X9902444Y10167823D01*
X9906508Y10164521D01*
X9909302Y10167721D01*
X9911486Y10171531D01*
X9912908Y10175900D01*
X9913416Y10180777D01*
X9912299Y10187686D01*
X9909302Y10193121D01*
X9904730Y10196779D01*
X9898888Y10198049D01*
X9893604Y10196982D01*
X9889591Y10194239D01*
X9886746Y10190581D01*
X9884714Y10186619D01*
X9879380Y10174782D01*
X9877348Y10171785D01*
X9874605Y10169804D01*
X9870694Y10169093D01*
X9866884Y10169956D01*
X9863937Y10172344D01*
X9862007Y10176154D01*
X9861346Y10181285D01*
X9861804Y10185654D01*
X9863175Y10189819D01*
X9865410Y10193578D01*
X9868408Y10196779D01*
G37*
G36*
X9856724Y10151567D02*
G01*
X9856724Y10145217D01*
X9907320Y10145217D01*
X9907320Y10135311D01*
X9906762Y10129367D01*
X9904933Y10124998D01*
X9901732Y10122306D01*
X9896856Y10121341D01*
X9892080Y10122306D01*
X9888677Y10124998D01*
X9886645Y10129367D01*
X9885984Y10135311D01*
X9885984Y10145217D01*
X9880650Y10145217D01*
X9880650Y10134803D01*
X9856724Y10120833D01*
X9856724Y10113721D01*
X9881362Y10128199D01*
X9883343Y10122865D01*
X9886543Y10118801D01*
X9891064Y10116159D01*
X9896856Y10115245D01*
X9904120Y10116667D01*
X9908895Y10120579D01*
X9911537Y10126624D01*
X9912400Y10134295D01*
X9912400Y10151567D01*
G37*
G36*
X9856724Y10103815D02*
G01*
X9856724Y10097465D01*
X9912400Y10097465D01*
X9912400Y10103815D01*
G37*
G36*
X9856724Y10081717D02*
G01*
X9856724Y10075621D01*
X9907320Y10075621D01*
X9907320Y10068763D01*
X9906914Y10063988D01*
X9905746Y10059822D01*
X9903917Y10056317D01*
X9901326Y10053472D01*
X9898075Y10051288D01*
X9894214Y10049713D01*
X9889744Y10048748D01*
X9884714Y10048443D01*
X9879634Y10048748D01*
X9875113Y10049713D01*
X9871202Y10051288D01*
X9867950Y10053472D01*
X9865309Y10056317D01*
X9863378Y10059822D01*
X9862210Y10063988D01*
X9861854Y10068763D01*
X9861854Y10075621D01*
X9856724Y10075621D01*
X9856724Y10068001D01*
X9857232Y10062006D01*
X9858654Y10056774D01*
X9860991Y10052354D01*
X9864140Y10048697D01*
X9868154Y10045801D01*
X9872929Y10043769D01*
X9878466Y10042499D01*
X9884714Y10042093D01*
X9890912Y10042499D01*
X9896398Y10043769D01*
X9901174Y10045801D01*
X9905085Y10048697D01*
X9908235Y10052354D01*
X9910521Y10056774D01*
X9911892Y10062006D01*
X9912400Y10068001D01*
X9912400Y10081717D01*
G37*
G36*
X8849969Y9391294D02*
G01*
X8864447Y9366656D01*
X8859113Y9364675D01*
X8855049Y9361474D01*
X8852408Y9356953D01*
X8851493Y9351162D01*
X8857843Y9351162D01*
X8858758Y9355937D01*
X8861399Y9359341D01*
X8865768Y9361373D01*
X8871813Y9362084D01*
X8881465Y9362084D01*
X8881465Y9340748D01*
X8871813Y9340748D01*
X8865768Y9341256D01*
X8861399Y9343085D01*
X8858758Y9346285D01*
X8857843Y9351162D01*
X8851493Y9351162D01*
X8852916Y9343898D01*
X8856878Y9339122D01*
X8862974Y9336481D01*
X8870797Y9335668D01*
X8887815Y9335668D01*
X8887815Y9391294D01*
X8881465Y9391294D01*
X8881465Y9367164D01*
X8871051Y9367164D01*
X8857081Y9391294D01*
G37*
G36*
X8810853Y9391294D02*
G01*
X8810853Y9386214D01*
X8822283Y9386214D01*
X8822283Y9335668D01*
X8827109Y9335668D01*
X8829344Y9336836D01*
X8831935Y9337852D01*
X8838285Y9339478D01*
X8838285Y9343542D01*
X8828379Y9343542D01*
X8828379Y9386214D01*
X8841079Y9386214D01*
X8841079Y9391294D01*
G37*
G36*
X9014866Y9391751D02*
G01*
X9029344Y9367113D01*
X9024010Y9365183D01*
X9019946Y9361932D01*
X9017304Y9357360D01*
X9016390Y9351365D01*
X9022740Y9351365D01*
X9023654Y9356344D01*
X9026296Y9359849D01*
X9030563Y9361881D01*
X9036456Y9362541D01*
X9046362Y9362541D01*
X9046362Y9341205D01*
X9036456Y9341205D01*
X9030563Y9341764D01*
X9026296Y9343440D01*
X9023654Y9346590D01*
X9022740Y9351365D01*
X9016390Y9351365D01*
X9017812Y9344202D01*
X9021775Y9339478D01*
X9027871Y9336938D01*
X9035694Y9336125D01*
X9052712Y9336125D01*
X9052712Y9391751D01*
X9046362Y9391751D01*
X9046362Y9367621D01*
X9035948Y9367621D01*
X9021978Y9391751D01*
G37*
G36*
X8974734Y9391751D02*
G01*
X8974734Y9386417D01*
X8992920Y9386468D01*
X8999880Y9386925D01*
X8995003Y9382252D01*
X8990584Y9377629D01*
X8986723Y9373057D01*
X8983472Y9368586D01*
X8980830Y9364218D01*
X8978900Y9359849D01*
X8977680Y9355582D01*
X8977274Y9351365D01*
X8978392Y9344660D01*
X8981592Y9339529D01*
X8986621Y9336278D01*
X8993276Y9335109D01*
X8998254Y9335719D01*
X9002471Y9337395D01*
X9006179Y9339935D01*
X9009532Y9343237D01*
X9005976Y9346793D01*
X9003385Y9344152D01*
X9000490Y9341967D01*
X8997391Y9340494D01*
X8994038Y9339935D01*
X8989415Y9340850D01*
X8986062Y9343339D01*
X8984081Y9347047D01*
X8983370Y9351619D01*
X8983776Y9355328D01*
X8984945Y9359188D01*
X8986926Y9363303D01*
X8989669Y9367621D01*
X8993276Y9372193D01*
X8997746Y9377121D01*
X9003080Y9382353D01*
X9009278Y9387941D01*
X9009278Y9391751D01*
G37*
G36*
X9156700Y9392259D02*
G01*
X9149791Y9391192D01*
X9144203Y9388144D01*
X9140494Y9383166D01*
X9139174Y9376511D01*
X9140088Y9371177D01*
X9142628Y9366910D01*
X9146336Y9363862D01*
X9150858Y9362033D01*
X9150858Y9361779D01*
X9146844Y9359798D01*
X9143695Y9356902D01*
X9141663Y9353042D01*
X9140952Y9348317D01*
X9142171Y9342424D01*
X9145524Y9338157D01*
X9150604Y9335516D01*
X9156954Y9334601D01*
X9161424Y9335109D01*
X9165437Y9336481D01*
X9168993Y9338462D01*
X9172194Y9340951D01*
X9168892Y9345015D01*
X9166250Y9342932D01*
X9163405Y9341205D01*
X9160256Y9339986D01*
X9156954Y9339427D01*
X9152991Y9340240D01*
X9149943Y9342170D01*
X9147962Y9345066D01*
X9147302Y9348825D01*
X9148114Y9353143D01*
X9150807Y9356598D01*
X9155633Y9358934D01*
X9163050Y9359747D01*
X9163050Y9364573D01*
X9154820Y9365437D01*
X9149283Y9367875D01*
X9146235Y9371584D01*
X9145270Y9376257D01*
X9146133Y9380778D01*
X9148521Y9384233D01*
X9152229Y9386417D01*
X9156954Y9387179D01*
X9161475Y9386620D01*
X9165285Y9385147D01*
X9168485Y9383014D01*
X9171178Y9380575D01*
X9174226Y9384639D01*
X9171178Y9387484D01*
X9167368Y9389922D01*
X9162592Y9391650D01*
G37*
G36*
X9178798Y9391243D02*
G01*
X9193276Y9366605D01*
X9187942Y9364675D01*
X9183827Y9361424D01*
X9181236Y9356852D01*
X9180322Y9350857D01*
X9186672Y9350857D01*
X9187535Y9355836D01*
X9190177Y9359341D01*
X9194495Y9361373D01*
X9200388Y9362033D01*
X9210294Y9362033D01*
X9210294Y9340697D01*
X9200388Y9340697D01*
X9194495Y9341256D01*
X9190177Y9342932D01*
X9187535Y9346082D01*
X9186672Y9350857D01*
X9180322Y9350857D01*
X9181744Y9343644D01*
X9185706Y9338868D01*
X9191802Y9336176D01*
X9199626Y9335363D01*
X9216644Y9335363D01*
X9216644Y9391243D01*
X9210294Y9391243D01*
X9210294Y9367113D01*
X9199880Y9367113D01*
X9185910Y9391243D01*
G37*
G36*
X9343186Y9391396D02*
G01*
X9357664Y9366758D01*
X9352330Y9364776D01*
X9348266Y9361525D01*
X9345625Y9356953D01*
X9344710Y9351010D01*
X9350806Y9351010D01*
X9351772Y9355988D01*
X9354464Y9359442D01*
X9358884Y9361525D01*
X9364776Y9362186D01*
X9374682Y9362186D01*
X9374682Y9340596D01*
X9364776Y9340596D01*
X9358884Y9341154D01*
X9354464Y9342932D01*
X9351772Y9346184D01*
X9350806Y9351010D01*
X9344710Y9351010D01*
X9346133Y9343745D01*
X9350044Y9338970D01*
X9356090Y9336328D01*
X9363760Y9335516D01*
X9381032Y9335516D01*
X9381032Y9391396D01*
X9374682Y9391396D01*
X9374682Y9367266D01*
X9364268Y9367266D01*
X9350298Y9391396D01*
G37*
G36*
X9309150Y9391396D02*
G01*
X9309150Y9375902D01*
X9301530Y9375902D01*
X9301530Y9370822D01*
X9309150Y9370822D01*
X9309150Y9342882D01*
X9314484Y9342882D01*
X9314992Y9352788D01*
X9314992Y9370822D01*
X9332772Y9370822D01*
X9319310Y9351010D01*
X9314992Y9342882D01*
X9309150Y9342882D01*
X9309150Y9335516D01*
X9315754Y9335516D01*
X9339376Y9371838D01*
X9339376Y9375902D01*
X9314992Y9375902D01*
X9314992Y9391396D01*
G37*
G36*
X9465208Y9392412D02*
G01*
X9459264Y9391091D01*
X9454286Y9387382D01*
X9450933Y9381693D01*
X9449714Y9374378D01*
X9455556Y9374378D01*
X9456267Y9379610D01*
X9458299Y9383725D01*
X9461347Y9386366D01*
X9465208Y9387332D01*
X9470136Y9386112D01*
X9473895Y9382556D01*
X9476435Y9376714D01*
X9477654Y9368790D01*
X9474708Y9365386D01*
X9471710Y9363100D01*
X9468764Y9361830D01*
X9465970Y9361424D01*
X9461347Y9362338D01*
X9458096Y9364929D01*
X9456166Y9369044D01*
X9455556Y9374378D01*
X9449714Y9374378D01*
X9450781Y9366707D01*
X9453778Y9361220D01*
X9458604Y9357969D01*
X9464954Y9356852D01*
X9468408Y9357309D01*
X9471812Y9358680D01*
X9475012Y9360814D01*
X9477908Y9363710D01*
X9476587Y9352483D01*
X9473387Y9345117D01*
X9468764Y9341053D01*
X9463176Y9339834D01*
X9460585Y9340138D01*
X9458096Y9340951D01*
X9455912Y9342323D01*
X9454032Y9344152D01*
X9450476Y9340088D01*
X9452965Y9337903D01*
X9455912Y9336125D01*
X9459366Y9334957D01*
X9463430Y9334500D01*
X9467342Y9334906D01*
X9471101Y9336176D01*
X9474555Y9338310D01*
X9477603Y9341459D01*
X9480143Y9345625D01*
X9482074Y9350908D01*
X9483293Y9357309D01*
X9483750Y9364980D01*
X9483394Y9371330D01*
X9482378Y9376867D01*
X9480753Y9381591D01*
X9478568Y9385452D01*
X9475876Y9388500D01*
X9472726Y9390684D01*
X9469120Y9391954D01*
G37*
G36*
X9490354Y9391396D02*
G01*
X9504578Y9366758D01*
X9499346Y9364776D01*
X9495231Y9361576D01*
X9492589Y9356953D01*
X9491624Y9351010D01*
X9497974Y9351010D01*
X9498888Y9355988D01*
X9501632Y9359442D01*
X9506000Y9361525D01*
X9511944Y9362186D01*
X9521850Y9362186D01*
X9521850Y9340596D01*
X9511944Y9340596D01*
X9506000Y9341154D01*
X9501632Y9342932D01*
X9498888Y9346184D01*
X9497974Y9351010D01*
X9491624Y9351010D01*
X9493046Y9343745D01*
X9497060Y9338970D01*
X9503206Y9336328D01*
X9510928Y9335516D01*
X9528200Y9335516D01*
X9528200Y9391396D01*
X9521850Y9391396D01*
X9521850Y9367266D01*
X9511436Y9367266D01*
X9497466Y9391396D01*
G37*
G36*
X9648647Y9391396D02*
G01*
X9662871Y9366758D01*
X9657638Y9364776D01*
X9653574Y9361576D01*
X9650882Y9356953D01*
X9649917Y9351010D01*
X9656267Y9351010D01*
X9657232Y9355988D01*
X9659924Y9359442D01*
X9664344Y9361525D01*
X9670237Y9362186D01*
X9680143Y9362186D01*
X9680143Y9340596D01*
X9670237Y9340596D01*
X9664344Y9341154D01*
X9659924Y9342932D01*
X9657232Y9346184D01*
X9656267Y9351010D01*
X9649917Y9351010D01*
X9651390Y9343745D01*
X9655403Y9338970D01*
X9661499Y9336328D01*
X9669221Y9335516D01*
X9686493Y9335516D01*
X9686493Y9391396D01*
X9680143Y9391396D01*
X9680143Y9367266D01*
X9669729Y9367266D01*
X9655759Y9391396D01*
G37*
G36*
X9624771Y9391396D02*
G01*
X9624314Y9383572D01*
X9623602Y9376460D01*
X9622536Y9369806D01*
X9620961Y9363557D01*
X9618878Y9357512D01*
X9616084Y9351568D01*
X9612477Y9345574D01*
X9608007Y9339326D01*
X9608007Y9335516D01*
X9642551Y9335516D01*
X9642551Y9340850D01*
X9615373Y9340850D01*
X9619183Y9346488D01*
X9622332Y9352127D01*
X9624923Y9357868D01*
X9627006Y9363760D01*
X9628581Y9369958D01*
X9629800Y9376511D01*
X9630613Y9383674D01*
X9631121Y9391396D01*
G37*
G36*
X9754920Y9392412D02*
G01*
X9751212Y9391954D01*
X9747859Y9390583D01*
X9744964Y9388348D01*
X9742525Y9385147D01*
X9740544Y9381032D01*
X9739122Y9376003D01*
X9738207Y9370060D01*
X9737902Y9363202D01*
X9743998Y9363202D01*
X9744760Y9374022D01*
X9746996Y9381540D01*
X9750450Y9385909D01*
X9754920Y9387332D01*
X9759442Y9385909D01*
X9762998Y9381540D01*
X9765284Y9374022D01*
X9766096Y9363202D01*
X9765284Y9352635D01*
X9762998Y9345320D01*
X9759442Y9341002D01*
X9754920Y9339580D01*
X9750450Y9341002D01*
X9746996Y9345320D01*
X9744760Y9352635D01*
X9743998Y9363202D01*
X9737902Y9363202D01*
X9738207Y9356445D01*
X9739122Y9350552D01*
X9740544Y9345625D01*
X9742525Y9341612D01*
X9744964Y9338513D01*
X9747859Y9336278D01*
X9751212Y9334957D01*
X9754920Y9334500D01*
X9758629Y9334957D01*
X9761982Y9336278D01*
X9764877Y9338513D01*
X9767316Y9341612D01*
X9769297Y9345625D01*
X9770770Y9350552D01*
X9771634Y9356445D01*
X9771938Y9363202D01*
X9771634Y9370060D01*
X9770770Y9376003D01*
X9769297Y9381032D01*
X9767316Y9385147D01*
X9764877Y9388348D01*
X9761982Y9390583D01*
X9758629Y9391954D01*
G37*
G36*
X9819944Y9391396D02*
G01*
X9834168Y9366758D01*
X9828834Y9364776D01*
X9824720Y9361576D01*
X9822129Y9356953D01*
X9821214Y9351010D01*
X9827564Y9351010D01*
X9828479Y9355988D01*
X9831222Y9359442D01*
X9835591Y9361525D01*
X9841534Y9362186D01*
X9851440Y9362186D01*
X9851440Y9340596D01*
X9841534Y9340596D01*
X9835591Y9341154D01*
X9831222Y9342932D01*
X9828479Y9346184D01*
X9827564Y9351010D01*
X9821214Y9351010D01*
X9822688Y9343745D01*
X9826701Y9338970D01*
X9832797Y9336328D01*
X9840518Y9335516D01*
X9857536Y9335516D01*
X9857536Y9391396D01*
X9851440Y9391396D01*
X9851440Y9367266D01*
X9840772Y9367266D01*
X9827056Y9391396D01*
G37*
G36*
X9780828Y9391396D02*
G01*
X9780828Y9386062D01*
X9792258Y9386062D01*
X9792258Y9335516D01*
X9796830Y9335516D01*
X9801860Y9337802D01*
X9804857Y9338665D01*
X9808260Y9339326D01*
X9808260Y9343390D01*
X9798354Y9343390D01*
X9798354Y9386062D01*
X9810800Y9386062D01*
X9810800Y9391396D01*
G37*
G36*
X9970109Y9391396D02*
G01*
X9984384Y9366758D01*
X9978999Y9364776D01*
X9974935Y9361576D01*
X9972344Y9356953D01*
X9971379Y9351010D01*
X9977729Y9351010D01*
X9978694Y9355886D01*
X9981387Y9359341D01*
X9985806Y9361474D01*
X9991750Y9362186D01*
X10001402Y9362186D01*
X10001402Y9340596D01*
X9991750Y9340596D01*
X9985806Y9341154D01*
X9981387Y9342932D01*
X9978694Y9346184D01*
X9977729Y9351010D01*
X9971379Y9351010D01*
X9972802Y9343745D01*
X9976764Y9338970D01*
X9982860Y9336328D01*
X9990734Y9335516D01*
X10007752Y9335516D01*
X10007752Y9391396D01*
X10001402Y9391396D01*
X10001402Y9367266D01*
X9990988Y9367266D01*
X9977018Y9391396D01*
G37*
G36*
X9930993Y9391396D02*
G01*
X9930993Y9386062D01*
X9942474Y9386062D01*
X9942474Y9335516D01*
X9946995Y9335516D01*
X9952075Y9337802D01*
X9955072Y9338665D01*
X9958425Y9339326D01*
X9958425Y9343390D01*
X9948570Y9343390D01*
X9948570Y9386062D01*
X9960965Y9386062D01*
X9960965Y9391396D01*
G37*
G36*
X9889134Y9391396D02*
G01*
X9889134Y9386062D01*
X9900513Y9386062D01*
X9900513Y9335516D01*
X9905390Y9335516D01*
X9907625Y9336735D01*
X9910216Y9337802D01*
X9913162Y9338665D01*
X9916515Y9339326D01*
X9916515Y9343390D01*
X9906609Y9343390D01*
X9906609Y9386062D01*
X9919106Y9386062D01*
X9919106Y9391396D01*
G37*
G36*
X8411870Y12976504D02*
G01*
X8411870Y12920573D01*
X8442858Y12920573D01*
X8442858Y12925958D01*
X8418220Y12925958D01*
X8418220Y12976504D01*
G37*
G36*
X8452510Y12976504D02*
G01*
X8452510Y12920573D01*
X8485276Y12920573D01*
X8485276Y12925958D01*
X8458860Y12925958D01*
X8458860Y12947294D01*
X8480450Y12947294D01*
X8480450Y12952628D01*
X8458860Y12952628D01*
X8458860Y12971170D01*
X8484260Y12971170D01*
X8484260Y12976504D01*
G37*
G36*
X8497214Y12976504D02*
G01*
X8497214Y12971170D01*
X8510422Y12971170D01*
X8515146Y12970764D01*
X8519261Y12969646D01*
X8522665Y12967817D01*
X8525510Y12965277D01*
X8527694Y12962128D01*
X8529269Y12958267D01*
X8530183Y12953847D01*
X8530488Y12948818D01*
X8530183Y12943738D01*
X8529269Y12939166D01*
X8527694Y12935204D01*
X8525510Y12931902D01*
X8522665Y12929260D01*
X8519261Y12927279D01*
X8515146Y12926110D01*
X8510422Y12925704D01*
X8503564Y12925704D01*
X8503564Y12971170D01*
X8497214Y12971170D01*
X8497214Y12920573D01*
X8511184Y12920573D01*
X8517077Y12921081D01*
X8522258Y12922554D01*
X8526678Y12924891D01*
X8530285Y12928142D01*
X8533130Y12932156D01*
X8535212Y12936982D01*
X8536432Y12942570D01*
X8536838Y12948818D01*
X8536432Y12955016D01*
X8535162Y12960502D01*
X8533130Y12965277D01*
X8530285Y12969189D01*
X8526627Y12972338D01*
X8522157Y12974624D01*
X8516924Y12975996D01*
X8510930Y12976504D01*
G37*
G36*
X8562238Y12976504D02*
G01*
X8559850Y12975234D01*
X8557209Y12974218D01*
X8554212Y12973354D01*
X8550808Y12972694D01*
X8550808Y12968579D01*
X8560714Y12968579D01*
X8560714Y12925704D01*
X8548268Y12925704D01*
X8548268Y12920573D01*
X8578240Y12920573D01*
X8578240Y12925704D01*
X8566810Y12925704D01*
X8566810Y12976504D01*
G37*
G36*
X10126573Y12375896D02*
G01*
X10118902Y12374778D01*
X10113416Y12371628D01*
X10110165Y12366752D01*
X10109047Y12360402D01*
X10109182Y12359386D01*
X10113619Y12359386D01*
X10114534Y12364008D01*
X10117124Y12367361D01*
X10121239Y12369342D01*
X10126573Y12370054D01*
X10131806Y12369292D01*
X10135920Y12367158D01*
X10138562Y12364008D01*
X10139527Y12360148D01*
X10138308Y12355169D01*
X10134752Y12351410D01*
X10128910Y12348921D01*
X10120985Y12347702D01*
X10117582Y12350597D01*
X10115296Y12353594D01*
X10114026Y12356592D01*
X10113619Y12359386D01*
X10109182Y12359386D01*
X10109504Y12356947D01*
X10110876Y12353544D01*
X10113010Y12350292D01*
X10115905Y12347448D01*
X10104577Y12348870D01*
X10097211Y12352172D01*
X10093248Y12356795D01*
X10092029Y12362434D01*
X10092334Y12364872D01*
X10093147Y12367260D01*
X10094518Y12369393D01*
X10096347Y12371324D01*
X10092283Y12374880D01*
X10090150Y12372390D01*
X10088372Y12369444D01*
X10087152Y12366091D01*
X10086695Y12362180D01*
X10087102Y12358217D01*
X10088372Y12354458D01*
X10090505Y12350953D01*
X10093604Y12347854D01*
X10097770Y12345263D01*
X10103002Y12343282D01*
X10109352Y12342012D01*
X10116921Y12341606D01*
X10123373Y12341961D01*
X10128961Y12342977D01*
X10133736Y12344654D01*
X10137648Y12346838D01*
X10140696Y12349581D01*
X10142880Y12352731D01*
X10144150Y12356287D01*
X10144607Y12360148D01*
X10143286Y12366142D01*
X10139578Y12371120D01*
X10133888Y12374575D01*
G37*
G36*
X10136479Y12334494D02*
G01*
X10132669Y12330938D01*
X10135362Y12328144D01*
X10137394Y12325096D01*
X10138613Y12321641D01*
X10139019Y12317730D01*
X10137394Y12310313D01*
X10132618Y12304725D01*
X10125202Y12301169D01*
X10115397Y12299950D01*
X10105796Y12301220D01*
X10098532Y12304826D01*
X10093909Y12310516D01*
X10092283Y12317984D01*
X10092690Y12321387D01*
X10093807Y12324486D01*
X10095484Y12327229D01*
X10097617Y12329668D01*
X10093553Y12333224D01*
X10090962Y12330379D01*
X10088778Y12326924D01*
X10087254Y12322759D01*
X10086695Y12317984D01*
X10087203Y12312853D01*
X10088727Y12308128D01*
X10091166Y12304014D01*
X10094518Y12300458D01*
X10098684Y12297562D01*
X10103612Y12295378D01*
X10109301Y12294057D01*
X10115651Y12293600D01*
X10122103Y12294057D01*
X10127792Y12295378D01*
X10132720Y12297511D01*
X10136886Y12300356D01*
X10140188Y12303861D01*
X10142626Y12307925D01*
X10144099Y12312497D01*
X10144607Y12317476D01*
X10144048Y12322606D01*
X10142474Y12327128D01*
X10139883Y12331039D01*
G37*
G36*
X9385198Y13292124D02*
G01*
X9381286Y13291718D01*
X9377527Y13290448D01*
X9374073Y13288314D01*
X9371025Y13285165D01*
X9368485Y13280999D01*
X9366554Y13275716D01*
X9365335Y13269264D01*
X9364878Y13261644D01*
X9365091Y13257834D01*
X9370974Y13257834D01*
X9373920Y13261086D01*
X9376918Y13263422D01*
X9379864Y13264743D01*
X9382658Y13265200D01*
X9387281Y13264235D01*
X9390532Y13261543D01*
X9392462Y13257479D01*
X9393072Y13252246D01*
X9392310Y13247014D01*
X9390278Y13242899D01*
X9387179Y13240207D01*
X9383420Y13239292D01*
X9378391Y13240512D01*
X9374632Y13244068D01*
X9372193Y13249859D01*
X9370974Y13257834D01*
X9365091Y13257834D01*
X9365234Y13255294D01*
X9366250Y13249757D01*
X9367875Y13245033D01*
X9370060Y13241172D01*
X9372752Y13238124D01*
X9375902Y13235940D01*
X9379508Y13234619D01*
X9383420Y13234212D01*
X9389364Y13235533D01*
X9394342Y13239191D01*
X9397695Y13244931D01*
X9398914Y13252246D01*
X9397847Y13259917D01*
X9394850Y13265353D01*
X9390024Y13268655D01*
X9383674Y13269772D01*
X9380220Y13269315D01*
X9376816Y13267944D01*
X9373616Y13265810D01*
X9370720Y13262914D01*
X9372041Y13274141D01*
X9375241Y13281507D01*
X9379864Y13285520D01*
X9385452Y13286790D01*
X9387941Y13286486D01*
X9390430Y13285673D01*
X9392666Y13284301D01*
X9394596Y13282472D01*
X9397898Y13286536D01*
X9395460Y13288670D01*
X9392615Y13290448D01*
X9389211Y13291667D01*
G37*
G36*
X9313570Y13291108D02*
G01*
X9313570Y13257834D01*
X9313976Y13251688D01*
X9315094Y13246607D01*
X9316872Y13242544D01*
X9319260Y13239343D01*
X9322155Y13236956D01*
X9325457Y13235381D01*
X9329166Y13234466D01*
X9333128Y13234212D01*
X9337192Y13234466D01*
X9340951Y13235381D01*
X9344304Y13236956D01*
X9347250Y13239343D01*
X9349638Y13242544D01*
X9351416Y13246607D01*
X9352534Y13251688D01*
X9352940Y13257834D01*
X9352940Y13291108D01*
X9346844Y13291108D01*
X9346844Y13257834D01*
X9345777Y13249198D01*
X9342831Y13243661D01*
X9338513Y13240664D01*
X9333128Y13239800D01*
X9327946Y13240664D01*
X9323781Y13243661D01*
X9320936Y13249198D01*
X9319920Y13257834D01*
X9319920Y13291108D01*
G37*
G36*
X9904628Y13525906D02*
G01*
X9904628Y13519556D01*
X9955174Y13519556D01*
X9955174Y13510666D01*
X9954666Y13504672D01*
X9953040Y13500404D01*
X9950145Y13497813D01*
X9945776Y13497001D01*
X9941864Y13497712D01*
X9938918Y13500150D01*
X9937038Y13504468D01*
X9936378Y13510971D01*
X9936378Y13519556D01*
X9931552Y13519556D01*
X9931552Y13509447D01*
X9930942Y13502640D01*
X9929012Y13497610D01*
X9925761Y13494512D01*
X9921138Y13493445D01*
X9915906Y13494512D01*
X9912248Y13497712D01*
X9910165Y13502741D01*
X9909454Y13509447D01*
X9909454Y13519556D01*
X9904628Y13519556D01*
X9904628Y13508431D01*
X9905644Y13499846D01*
X9908692Y13493191D01*
X9913721Y13488873D01*
X9920884Y13487298D01*
X9926015Y13488162D01*
X9929926Y13490600D01*
X9932670Y13494308D01*
X9934346Y13498982D01*
X9934600Y13498982D01*
X9936480Y13495426D01*
X9939223Y13492835D01*
X9942677Y13491210D01*
X9946538Y13490651D01*
X9952888Y13491972D01*
X9957104Y13495883D01*
X9959492Y13501878D01*
X9960254Y13509701D01*
X9960254Y13525906D01*
G37*
G36*
X9932314Y13479424D02*
G01*
X9925913Y13478967D01*
X9920224Y13477646D01*
X9915296Y13475512D01*
X9911232Y13472617D01*
X9907930Y13469112D01*
X9905593Y13464997D01*
X9904120Y13460374D01*
X9903612Y13455345D01*
X9904120Y13450316D01*
X9905644Y13445845D01*
X9908133Y13441883D01*
X9911486Y13438327D01*
X9915550Y13441832D01*
X9912858Y13444778D01*
X9910876Y13447877D01*
X9909606Y13451281D01*
X9909200Y13455040D01*
X9910826Y13462457D01*
X9915448Y13468045D01*
X9922814Y13471601D01*
X9932568Y13472871D01*
X9942169Y13471550D01*
X9949484Y13467943D01*
X9954056Y13462254D01*
X9955682Y13454837D01*
X9955326Y13451382D01*
X9954260Y13448334D01*
X9952583Y13445693D01*
X9950348Y13443356D01*
X9954412Y13439851D01*
X9957003Y13442543D01*
X9959187Y13445998D01*
X9960711Y13450214D01*
X9961270Y13455040D01*
X9960762Y13460120D01*
X9959289Y13464794D01*
X9956850Y13468908D01*
X9953548Y13472515D01*
X9949434Y13475411D01*
X9944455Y13477595D01*
X9938766Y13478967D01*
G37*
G36*
X9904628Y13428929D02*
G01*
X9904628Y13398703D01*
X9909708Y13398703D01*
X9909708Y13410082D01*
X9960254Y13410082D01*
X9960254Y13414908D01*
X9959035Y13417194D01*
X9957968Y13419785D01*
X9957104Y13422731D01*
X9956444Y13426135D01*
X9952380Y13426135D01*
X9952380Y13416229D01*
X9909708Y13416229D01*
X9909708Y13428929D01*
G37*
G36*
X9379864Y12830098D02*
G01*
X9379864Y12825018D01*
X9395104Y12825018D01*
X9400997Y12824510D01*
X9405315Y12822885D01*
X9407956Y12819989D01*
X9408820Y12815620D01*
X9408058Y12811607D01*
X9405518Y12808610D01*
X9401098Y12806629D01*
X9394596Y12805968D01*
X9386214Y12805968D01*
X9386214Y12825018D01*
X9379864Y12825018D01*
X9379864Y12801142D01*
X9396120Y12801142D01*
X9402927Y12800482D01*
X9407956Y12798602D01*
X9411055Y12795351D01*
X9412122Y12790728D01*
X9411004Y12785598D01*
X9407855Y12782042D01*
X9402826Y12779959D01*
X9396120Y12779298D01*
X9386214Y12779298D01*
X9386214Y12801142D01*
X9379864Y12801142D01*
X9379864Y12774218D01*
X9397136Y12774218D01*
X9405670Y12775184D01*
X9412376Y12778232D01*
X9416694Y12783312D01*
X9418218Y12790474D01*
X9417405Y12795605D01*
X9415068Y12799568D01*
X9411360Y12802362D01*
X9406534Y12803936D01*
X9406534Y12804190D01*
X9410090Y12806019D01*
X9412732Y12808864D01*
X9414357Y12812369D01*
X9414916Y12816382D01*
X9413544Y12822580D01*
X9409684Y12826847D01*
X9403689Y12829286D01*
X9395866Y12830098D01*
G37*
G36*
X9429394Y12830098D02*
G01*
X9429394Y12774218D01*
X9460382Y12774218D01*
X9460382Y12779552D01*
X9435744Y12779552D01*
X9435744Y12830098D01*
G37*
G36*
X9631883Y13407999D02*
G01*
X9631883Y13396823D01*
X9581083Y13396823D01*
X9581083Y13391946D01*
X9582302Y13389711D01*
X9583369Y13387120D01*
X9584232Y13384174D01*
X9584893Y13380770D01*
X9588957Y13380770D01*
X9588957Y13390473D01*
X9631883Y13390473D01*
X9631883Y13378027D01*
X9636963Y13378027D01*
X9636963Y13407999D01*
G37*
G36*
X9636963Y13369086D02*
G01*
X9612325Y13354659D01*
X9610344Y13359993D01*
X9607092Y13364057D01*
X9602520Y13366648D01*
X9596577Y13367562D01*
X9589312Y13366191D01*
X9584537Y13362228D01*
X9581896Y13356132D01*
X9581083Y13348309D01*
X9581083Y13337641D01*
X9586417Y13337641D01*
X9586417Y13347293D01*
X9586925Y13353288D01*
X9588601Y13357656D01*
X9591751Y13360349D01*
X9596577Y13361212D01*
X9601504Y13360349D01*
X9605010Y13357707D01*
X9607042Y13353288D01*
X9607753Y13347293D01*
X9607753Y13337641D01*
X9581083Y13337641D01*
X9581083Y13331291D01*
X9636963Y13331291D01*
X9636963Y13337641D01*
X9612833Y13337641D01*
X9612833Y13348004D01*
X9636963Y13362025D01*
G37*
G36*
X9620707Y13320115D02*
G01*
X9615576Y13319251D01*
X9611563Y13316813D01*
X9608820Y13313105D01*
X9607245Y13308431D01*
X9606991Y13308431D01*
X9605111Y13311987D01*
X9602317Y13314578D01*
X9598812Y13316204D01*
X9594799Y13316762D01*
X9588550Y13315442D01*
X9584283Y13311530D01*
X9581845Y13305536D01*
X9581083Y13297712D01*
X9581083Y13287857D01*
X9586163Y13287857D01*
X9586163Y13296696D01*
X9586671Y13302742D01*
X9588296Y13307009D01*
X9591192Y13309600D01*
X9595561Y13310412D01*
X9599523Y13309650D01*
X9602571Y13307161D01*
X9604502Y13302843D01*
X9605213Y13296493D01*
X9605213Y13287857D01*
X9610039Y13287857D01*
X9610039Y13298017D01*
X9610648Y13304774D01*
X9612579Y13309803D01*
X9615830Y13312901D01*
X9620453Y13313968D01*
X9625533Y13312901D01*
X9629089Y13309701D01*
X9631172Y13304672D01*
X9631883Y13298017D01*
X9631883Y13287857D01*
X9581083Y13287857D01*
X9581083Y13281507D01*
X9636963Y13281507D01*
X9636963Y13299033D01*
X9635947Y13307568D01*
X9632899Y13314222D01*
X9627819Y13318540D01*
G37*
G36*
X9756800Y13281964D02*
G01*
X9751872Y13281355D01*
X9747656Y13279678D01*
X9743897Y13277037D01*
X9740544Y13273582D01*
X9744100Y13270280D01*
X9746742Y13272769D01*
X9749586Y13274903D01*
X9752736Y13276326D01*
X9756038Y13276884D01*
X9760712Y13275970D01*
X9764064Y13273481D01*
X9766046Y13269772D01*
X9766706Y13265200D01*
X9766350Y13261492D01*
X9765182Y13257631D01*
X9763201Y13253516D01*
X9760407Y13249198D01*
X9756800Y13244626D01*
X9752380Y13239699D01*
X9747046Y13234466D01*
X9740798Y13228878D01*
X9740798Y13225068D01*
X9775342Y13225068D01*
X9775342Y13230402D01*
X9757156Y13230351D01*
X9750196Y13229894D01*
X9755124Y13234669D01*
X9759543Y13239343D01*
X9763404Y13243864D01*
X9766655Y13248335D01*
X9769297Y13252704D01*
X9771227Y13256971D01*
X9772396Y13261238D01*
X9772802Y13265454D01*
X9771684Y13272211D01*
X9768535Y13277392D01*
X9763506Y13280745D01*
G37*
G36*
X9647834Y13280948D02*
G01*
X9647834Y13275868D01*
X9663074Y13275868D01*
X9668967Y13275360D01*
X9673285Y13273735D01*
X9675926Y13270839D01*
X9676790Y13266470D01*
X9676028Y13262457D01*
X9673488Y13259460D01*
X9669068Y13257479D01*
X9662566Y13256818D01*
X9654184Y13256818D01*
X9654184Y13275868D01*
X9647834Y13275868D01*
X9647834Y13251992D01*
X9664090Y13251992D01*
X9670897Y13251332D01*
X9675926Y13249452D01*
X9679025Y13246201D01*
X9680092Y13241578D01*
X9678974Y13236448D01*
X9675825Y13232892D01*
X9670796Y13230809D01*
X9664090Y13230148D01*
X9654184Y13230148D01*
X9654184Y13251992D01*
X9647834Y13251992D01*
X9647834Y13225068D01*
X9665106Y13225068D01*
X9673640Y13226034D01*
X9680346Y13229082D01*
X9684664Y13234162D01*
X9686188Y13241324D01*
X9685375Y13246455D01*
X9683038Y13250418D01*
X9679330Y13253212D01*
X9674504Y13254786D01*
X9674504Y13255040D01*
X9678060Y13256869D01*
X9680702Y13259714D01*
X9682327Y13263219D01*
X9682886Y13267232D01*
X9681514Y13273430D01*
X9677654Y13277697D01*
X9671659Y13280136D01*
X9663836Y13280948D01*
G37*
G36*
X9697364Y13280948D02*
G01*
X9697364Y13275614D01*
X9713620Y13275614D01*
X9719513Y13275056D01*
X9723831Y13273379D01*
X9726472Y13270230D01*
X9727336Y13265454D01*
X9726472Y13260476D01*
X9723831Y13256971D01*
X9719513Y13254939D01*
X9713620Y13254278D01*
X9703714Y13254278D01*
X9703714Y13275614D01*
X9697364Y13275614D01*
X9697364Y13225068D01*
X9703714Y13225068D01*
X9703714Y13249198D01*
X9714128Y13249198D01*
X9728098Y13225068D01*
X9735210Y13225068D01*
X9720732Y13249706D01*
X9726066Y13251637D01*
X9730181Y13254888D01*
X9732772Y13259460D01*
X9733686Y13265454D01*
X9732264Y13272668D01*
X9728352Y13277494D01*
X9722205Y13280136D01*
X9714382Y13280948D01*
G37*
G36*
X9580524Y12909397D02*
G01*
X9580524Y12891262D01*
X9581032Y12884251D01*
X9571583Y12893598D01*
X9567011Y12897459D01*
X9562541Y12900710D01*
X9558223Y12903352D01*
X9553905Y12905282D01*
X9549638Y12906451D01*
X9545472Y12906857D01*
X9538716Y12905790D01*
X9533483Y12902590D01*
X9530130Y12897561D01*
X9528962Y12890855D01*
X9529521Y12885928D01*
X9531248Y12881711D01*
X9533890Y12878003D01*
X9537344Y12874599D01*
X9540646Y12878155D01*
X9538106Y12880797D01*
X9535972Y12883692D01*
X9534550Y12886791D01*
X9534042Y12890093D01*
X9534906Y12894868D01*
X9537395Y12898221D01*
X9541103Y12900152D01*
X9545726Y12900761D01*
X9549384Y12900406D01*
X9553295Y12899288D01*
X9557359Y12897358D01*
X9561677Y12894614D01*
X9566249Y12891008D01*
X9571177Y12886537D01*
X9576409Y12881152D01*
X9582048Y12874853D01*
X9585858Y12874853D01*
X9585858Y12909397D01*
G37*
G36*
X9578746Y12868757D02*
G01*
X9574936Y12865201D01*
X9577628Y12862407D01*
X9579610Y12859308D01*
X9580829Y12855854D01*
X9581286Y12851993D01*
X9579610Y12844627D01*
X9574936Y12839039D01*
X9567570Y12835483D01*
X9557918Y12834213D01*
X9548114Y12835534D01*
X9540798Y12839141D01*
X9536125Y12844830D01*
X9534550Y12852247D01*
X9534956Y12855702D01*
X9536074Y12858800D01*
X9537750Y12861544D01*
X9539884Y12863931D01*
X9535820Y12867233D01*
X9533229Y12864541D01*
X9531045Y12861086D01*
X9529521Y12856972D01*
X9528962Y12852247D01*
X9529470Y12847116D01*
X9530943Y12842443D01*
X9533432Y12838226D01*
X9536734Y12834620D01*
X9540900Y12831673D01*
X9545878Y12829489D01*
X9551568Y12828117D01*
X9557918Y12827609D01*
X9564319Y12828117D01*
X9570008Y12829438D01*
X9574987Y12831572D01*
X9579152Y12834467D01*
X9582454Y12837972D01*
X9584842Y12842087D01*
X9586366Y12846710D01*
X9586874Y12851739D01*
X9586315Y12856819D01*
X9584791Y12861340D01*
X9582251Y12865303D01*
G37*
G36*
X9569602Y12819735D02*
G01*
X9564420Y12818922D01*
X9560458Y12816586D01*
X9557664Y12812877D01*
X9556140Y12808051D01*
X9555886Y12808051D01*
X9554006Y12811658D01*
X9551212Y12814249D01*
X9547707Y12815874D01*
X9543694Y12816433D01*
X9537446Y12815062D01*
X9533178Y12811201D01*
X9530740Y12805206D01*
X9529978Y12797383D01*
X9529978Y12787731D01*
X9535058Y12787731D01*
X9535058Y12796621D01*
X9535566Y12802514D01*
X9537141Y12806832D01*
X9540087Y12809474D01*
X9544456Y12810337D01*
X9548418Y12809575D01*
X9551466Y12807035D01*
X9553397Y12802666D01*
X9554108Y12796113D01*
X9554108Y12787731D01*
X9558934Y12787731D01*
X9558934Y12797637D01*
X9559544Y12804444D01*
X9561474Y12809474D01*
X9564725Y12812572D01*
X9569348Y12813639D01*
X9574428Y12812572D01*
X9577984Y12809372D01*
X9580067Y12804343D01*
X9580778Y12797637D01*
X9580778Y12787731D01*
X9529978Y12787731D01*
X9529978Y12781381D01*
X9585858Y12781381D01*
X9585858Y12798653D01*
X9584842Y12807238D01*
X9581794Y12813893D01*
X9576714Y12818211D01*
G37*
G36*
X9045651Y13432485D02*
G01*
X9040520Y13431926D01*
X9035796Y13430453D01*
X9031630Y13427963D01*
X9028023Y13424662D01*
X9025077Y13420496D01*
X9022892Y13415518D01*
X9021521Y13409879D01*
X9021013Y13403529D01*
X9021470Y13397077D01*
X9022842Y13391388D01*
X9024975Y13386409D01*
X9027871Y13382244D01*
X9031376Y13378942D01*
X9035491Y13376554D01*
X9040114Y13375030D01*
X9045143Y13374573D01*
X9050223Y13375081D01*
X9054693Y13376605D01*
X9058706Y13379145D01*
X9062161Y13382701D01*
X9058605Y13386511D01*
X9055811Y13383768D01*
X9052661Y13381786D01*
X9049207Y13380567D01*
X9045397Y13380161D01*
X9038031Y13381786D01*
X9032443Y13386511D01*
X9028887Y13393877D01*
X9027617Y13403529D01*
X9028887Y13413282D01*
X9032544Y13420598D01*
X9038234Y13425271D01*
X9045651Y13426897D01*
X9049105Y13426490D01*
X9052153Y13425373D01*
X9054896Y13423646D01*
X9057335Y13421563D01*
X9060637Y13425627D01*
X9057944Y13428167D01*
X9054490Y13430351D01*
X9050375Y13431875D01*
G37*
G36*
X8974785Y13431469D02*
G01*
X8974785Y13426389D01*
X8990025Y13426389D01*
X8995918Y13425881D01*
X9000236Y13424255D01*
X9002877Y13421309D01*
X9003741Y13416991D01*
X9002979Y13412978D01*
X9000439Y13409930D01*
X8996019Y13407999D01*
X8989517Y13407339D01*
X8981135Y13407339D01*
X8981135Y13426389D01*
X8974785Y13426389D01*
X8974785Y13402513D01*
X8991041Y13402513D01*
X8997848Y13401852D01*
X9002877Y13399973D01*
X9005976Y13396722D01*
X9007043Y13392099D01*
X9005925Y13386968D01*
X9002776Y13383412D01*
X8997746Y13381329D01*
X8991041Y13380669D01*
X8981135Y13380669D01*
X8981135Y13402513D01*
X8974785Y13402513D01*
X8974785Y13375589D01*
X8992057Y13375589D01*
X9000591Y13376554D01*
X9007297Y13379602D01*
X9011615Y13384682D01*
X9013139Y13391845D01*
X9012326Y13396976D01*
X9009989Y13400938D01*
X9006281Y13403732D01*
X9001455Y13405307D01*
X9001455Y13405561D01*
X9005011Y13407390D01*
X9007652Y13410184D01*
X9009278Y13413740D01*
X9009837Y13417753D01*
X9008465Y13423950D01*
X9004604Y13428218D01*
X8998610Y13430656D01*
X8990787Y13431469D01*
G37*
G36*
X9072575Y13431469D02*
G01*
X9072575Y13375589D01*
X9078925Y13375589D01*
X9078925Y13431469D01*
G37*
G36*
X9094419Y13431469D02*
G01*
X9094419Y13375589D01*
X9100515Y13375589D01*
X9100464Y13410387D01*
X9099753Y13423087D01*
X9100007Y13423087D01*
X9106103Y13411657D01*
X9127185Y13375589D01*
X9133789Y13375589D01*
X9133789Y13431469D01*
X9127693Y13431469D01*
X9127794Y13396823D01*
X9128455Y13383717D01*
X9128201Y13383717D01*
X9122105Y13395147D01*
X9101023Y13431469D01*
G37*
G36*
X9742474Y12768122D02*
G01*
X9742474Y12756692D01*
X9691674Y12756692D01*
X9691674Y12752120D01*
X9693960Y12747091D01*
X9694824Y12744094D01*
X9695484Y12740690D01*
X9699548Y12740690D01*
X9699548Y12750596D01*
X9742474Y12750596D01*
X9742474Y12738150D01*
X9747554Y12738150D01*
X9747554Y12768122D01*
G37*
G36*
X9691674Y12729006D02*
G01*
X9691674Y12688366D01*
X9697008Y12688366D01*
X9697008Y12705384D01*
X9747554Y12705384D01*
X9747554Y12711734D01*
X9697008Y12711734D01*
X9697008Y12729006D01*
G37*
G36*
X9691674Y12678460D02*
G01*
X9691674Y12672364D01*
X9724948Y12672364D01*
X9733534Y12671298D01*
X9739122Y12668402D01*
X9742068Y12664033D01*
X9742982Y12658648D01*
X9742068Y12653518D01*
X9739122Y12649301D01*
X9733534Y12646507D01*
X9724948Y12645440D01*
X9691674Y12645440D01*
X9691674Y12639090D01*
X9724948Y12639090D01*
X9731044Y12639497D01*
X9736124Y12640614D01*
X9740239Y12642392D01*
X9743440Y12644780D01*
X9745776Y12647676D01*
X9747351Y12650978D01*
X9748266Y12654686D01*
X9748570Y12658648D01*
X9748266Y12662712D01*
X9747351Y12666472D01*
X9745776Y12669824D01*
X9743440Y12672771D01*
X9740239Y12675158D01*
X9736124Y12676936D01*
X9731044Y12678105D01*
X9724948Y12678460D01*
G37*
G36*
X9719360Y12626898D02*
G01*
X9713010Y12626492D01*
X9707372Y12625171D01*
X9702444Y12623139D01*
X9698329Y12620345D01*
X9695027Y12616891D01*
X9692640Y12612878D01*
X9691166Y12608306D01*
X9690658Y12603276D01*
X9696246Y12603276D01*
X9697821Y12610388D01*
X9702444Y12615824D01*
X9709759Y12619329D01*
X9719360Y12620548D01*
X9729165Y12619329D01*
X9736582Y12615824D01*
X9741306Y12610388D01*
X9742982Y12603276D01*
X9741306Y12596368D01*
X9736582Y12590983D01*
X9729165Y12587528D01*
X9719360Y12586258D01*
X9709759Y12587528D01*
X9702444Y12590983D01*
X9697821Y12596368D01*
X9696246Y12603276D01*
X9690658Y12603276D01*
X9691166Y12598349D01*
X9692640Y12593828D01*
X9695027Y12589814D01*
X9698329Y12586360D01*
X9702444Y12583515D01*
X9707372Y12581432D01*
X9713010Y12580112D01*
X9719360Y12579654D01*
X9725710Y12580112D01*
X9731400Y12581432D01*
X9736378Y12583515D01*
X9740595Y12586360D01*
X9743998Y12589814D01*
X9746488Y12593828D01*
X9748012Y12598349D01*
X9748570Y12603276D01*
X9748012Y12608306D01*
X9746488Y12612878D01*
X9743998Y12616891D01*
X9740595Y12620345D01*
X9736378Y12623139D01*
X9731400Y12625171D01*
X9725710Y12626492D01*
G37*
G36*
X9740442Y12574828D02*
G01*
X9736632Y12571272D01*
X9739325Y12568478D01*
X9741306Y12565329D01*
X9742525Y12561874D01*
X9742982Y12558064D01*
X9741306Y12550698D01*
X9736632Y12545110D01*
X9729266Y12541554D01*
X9719614Y12540284D01*
X9709861Y12541605D01*
X9702495Y12545212D01*
X9697872Y12550902D01*
X9696246Y12558318D01*
X9696653Y12561773D01*
X9697770Y12564821D01*
X9699447Y12567564D01*
X9701580Y12570002D01*
X9697516Y12573304D01*
X9694926Y12570612D01*
X9692741Y12567158D01*
X9691217Y12563043D01*
X9690658Y12558318D01*
X9691166Y12553188D01*
X9692690Y12548463D01*
X9695129Y12544298D01*
X9698431Y12540691D01*
X9702647Y12537744D01*
X9707575Y12535560D01*
X9713264Y12534188D01*
X9719614Y12533680D01*
X9726015Y12534138D01*
X9731756Y12535509D01*
X9736683Y12537643D01*
X9740849Y12540538D01*
X9744151Y12544044D01*
X9746589Y12548158D01*
X9748062Y12552781D01*
X9748570Y12557810D01*
X9748062Y12562890D01*
X9746488Y12567361D01*
X9743948Y12571374D01*
G37*
G36*
X9731298Y12525806D02*
G01*
X9726168Y12524994D01*
X9722154Y12522657D01*
X9719411Y12518948D01*
X9717836Y12514122D01*
X9717582Y12514122D01*
X9715703Y12517678D01*
X9712909Y12520320D01*
X9709404Y12521946D01*
X9705390Y12522504D01*
X9699142Y12521133D01*
X9694926Y12517272D01*
X9692436Y12511278D01*
X9691674Y12503454D01*
X9691674Y12493802D01*
X9696754Y12493802D01*
X9696754Y12502692D01*
X9697262Y12508585D01*
X9698888Y12512903D01*
X9701784Y12515545D01*
X9706152Y12516408D01*
X9710115Y12515646D01*
X9713163Y12513106D01*
X9715093Y12508687D01*
X9715804Y12502184D01*
X9715804Y12493802D01*
X9720630Y12493802D01*
X9720630Y12503708D01*
X9721240Y12510516D01*
X9723170Y12515545D01*
X9726422Y12518644D01*
X9731044Y12519710D01*
X9736124Y12518644D01*
X9739680Y12515443D01*
X9741763Y12510414D01*
X9742474Y12503708D01*
X9742474Y12493802D01*
X9691674Y12493802D01*
X9691674Y12487452D01*
X9747554Y12487452D01*
X9747554Y12504724D01*
X9746538Y12513310D01*
X9743490Y12519964D01*
X9738410Y12524282D01*
G37*
G36*
X10269728Y12795859D02*
G01*
X10269728Y12789509D01*
X10320528Y12789509D01*
X10320528Y12780619D01*
X10320020Y12774726D01*
X10318394Y12770408D01*
X10315498Y12767767D01*
X10311130Y12766903D01*
X10307167Y12767665D01*
X10304119Y12770205D01*
X10302189Y12774625D01*
X10301478Y12781127D01*
X10301478Y12789509D01*
X10296652Y12789509D01*
X10296652Y12779603D01*
X10296042Y12772796D01*
X10294112Y12767767D01*
X10290860Y12764668D01*
X10286238Y12763601D01*
X10281107Y12764719D01*
X10277551Y12767868D01*
X10275468Y12772898D01*
X10274808Y12779603D01*
X10274808Y12789509D01*
X10269728Y12789509D01*
X10269728Y12778587D01*
X10270744Y12770053D01*
X10273741Y12763347D01*
X10278821Y12759029D01*
X10285984Y12757505D01*
X10291114Y12758318D01*
X10295077Y12760655D01*
X10297871Y12764363D01*
X10299446Y12769189D01*
X10299700Y12769189D01*
X10301579Y12765633D01*
X10304373Y12762992D01*
X10307878Y12761366D01*
X10311892Y12760807D01*
X10318089Y12762179D01*
X10322356Y12766040D01*
X10324846Y12772034D01*
X10325608Y12779857D01*
X10325608Y12795859D01*
G37*
G36*
X10297668Y12749631D02*
G01*
X10291267Y12749174D01*
X10285526Y12747802D01*
X10280599Y12745669D01*
X10276433Y12742773D01*
X10273131Y12739268D01*
X10270693Y12735153D01*
X10269220Y12730530D01*
X10268712Y12725501D01*
X10269220Y12720421D01*
X10270794Y12715951D01*
X10273334Y12711938D01*
X10276840Y12708483D01*
X10280650Y12712039D01*
X10277957Y12714833D01*
X10275976Y12717983D01*
X10274706Y12721437D01*
X10274300Y12725247D01*
X10275925Y12732613D01*
X10280650Y12738201D01*
X10288016Y12741757D01*
X10297668Y12743027D01*
X10307421Y12741757D01*
X10314787Y12738100D01*
X10319410Y12732410D01*
X10321036Y12724993D01*
X10320629Y12721539D01*
X10319512Y12718491D01*
X10317835Y12715748D01*
X10315702Y12713309D01*
X10319766Y12710007D01*
X10322356Y12712700D01*
X10324541Y12716154D01*
X10326065Y12720269D01*
X10326624Y12724993D01*
X10326116Y12730124D01*
X10324592Y12734848D01*
X10322153Y12739014D01*
X10318800Y12742621D01*
X10314635Y12745567D01*
X10309707Y12747752D01*
X10304018Y12749123D01*
G37*
G36*
X10297922Y12703657D02*
G01*
X10291572Y12703200D01*
X10285882Y12701879D01*
X10280853Y12699796D01*
X10276636Y12697002D01*
X10273284Y12693548D01*
X10270794Y12689484D01*
X10269220Y12684963D01*
X10268712Y12680035D01*
X10274300Y12680035D01*
X10275976Y12686995D01*
X10280700Y12692329D01*
X10288117Y12695834D01*
X10297922Y12697053D01*
X10307523Y12695834D01*
X10314838Y12692329D01*
X10319410Y12686995D01*
X10321036Y12680035D01*
X10319410Y12672923D01*
X10314838Y12667488D01*
X10307523Y12663982D01*
X10297922Y12662763D01*
X10288117Y12663982D01*
X10280700Y12667488D01*
X10275976Y12672923D01*
X10274300Y12680035D01*
X10268712Y12680035D01*
X10269220Y12675006D01*
X10270794Y12670434D01*
X10273284Y12666421D01*
X10276636Y12662966D01*
X10280853Y12660172D01*
X10285831Y12658140D01*
X10291572Y12656870D01*
X10297922Y12656413D01*
X10304272Y12656870D01*
X10309910Y12658140D01*
X10314838Y12660172D01*
X10318953Y12662966D01*
X10322255Y12666421D01*
X10324642Y12670434D01*
X10326116Y12675006D01*
X10326624Y12680035D01*
X10326116Y12684963D01*
X10324642Y12689484D01*
X10322255Y12693548D01*
X10318953Y12697002D01*
X10314838Y12699796D01*
X10309910Y12701879D01*
X10304272Y12703200D01*
G37*
G36*
X10292334Y12644221D02*
G01*
X10286238Y12643815D01*
X10281158Y12642697D01*
X10277043Y12640919D01*
X10273842Y12638532D01*
X10271506Y12635636D01*
X10269880Y12632334D01*
X10269016Y12628626D01*
X10268712Y12624663D01*
X10269016Y12620599D01*
X10269880Y12616840D01*
X10271506Y12613487D01*
X10273842Y12610541D01*
X10277043Y12608153D01*
X10281158Y12606375D01*
X10286238Y12605258D01*
X10292334Y12604851D01*
X10325608Y12604851D01*
X10325608Y12610947D01*
X10292334Y12610947D01*
X10283748Y12612014D01*
X10278160Y12614960D01*
X10275163Y12619278D01*
X10274300Y12624663D01*
X10275214Y12629845D01*
X10278160Y12634010D01*
X10283748Y12636855D01*
X10292334Y12637871D01*
X10325608Y12637871D01*
X10325608Y12644221D01*
G37*
G36*
X10320274Y12594945D02*
G01*
X10320274Y12577927D01*
X10269728Y12577927D01*
X10269728Y12571577D01*
X10320274Y12571577D01*
X10320274Y12554305D01*
X10325608Y12554305D01*
X10325608Y12594945D01*
G37*
G36*
X10318242Y12548971D02*
G01*
X10314940Y12545415D01*
X10317480Y12542774D01*
X10319562Y12539929D01*
X10321036Y12536779D01*
X10321544Y12533477D01*
X10320629Y12528702D01*
X10318191Y12525349D01*
X10314482Y12523419D01*
X10309860Y12522809D01*
X10306151Y12523165D01*
X10302290Y12524333D01*
X10298226Y12526264D01*
X10293908Y12529007D01*
X10289286Y12532563D01*
X10284409Y12537033D01*
X10279126Y12542418D01*
X10273538Y12548717D01*
X10269728Y12548717D01*
X10269728Y12514173D01*
X10275062Y12514173D01*
X10275011Y12532360D01*
X10274554Y12539319D01*
X10279329Y12534392D01*
X10284002Y12529972D01*
X10288574Y12526111D01*
X10292994Y12522860D01*
X10297363Y12520218D01*
X10301681Y12518288D01*
X10305897Y12517120D01*
X10310114Y12516713D01*
X10316870Y12517831D01*
X10322102Y12520980D01*
X10325455Y12526010D01*
X10326624Y12532715D01*
X10326014Y12537490D01*
X10324338Y12541707D01*
X10321696Y12545466D01*
G37*
G36*
X9981488Y11436197D02*
G01*
X9975850Y11435892D01*
X9970516Y11435029D01*
X9965436Y11433657D01*
X9960762Y11431778D01*
X9956495Y11429390D01*
X9952634Y11426596D01*
X9949281Y11423396D01*
X9946487Y11419789D01*
X9944201Y11415826D01*
X9942525Y11411559D01*
X9941458Y11406987D01*
X9941102Y11402161D01*
X9941763Y11395506D01*
X9943592Y11389664D01*
X9946335Y11384686D01*
X9949891Y11380419D01*
X9954006Y11376812D01*
X9958476Y11373764D01*
X9963150Y11371224D01*
X9986568Y11360759D01*
X9995306Y11356644D01*
X9999065Y11354409D01*
X10002316Y11351920D01*
X10004958Y11349024D01*
X10006990Y11345621D01*
X10008260Y11341506D01*
X10008666Y11336629D01*
X10008209Y11331854D01*
X10006736Y11327587D01*
X10004399Y11323777D01*
X10001148Y11320475D01*
X9997033Y11317884D01*
X9992207Y11315903D01*
X9986568Y11314684D01*
X9980218Y11314277D01*
X9975037Y11314582D01*
X9969957Y11315446D01*
X9965029Y11316817D01*
X9960254Y11318748D01*
X9955682Y11321084D01*
X9951364Y11323929D01*
X9947351Y11327180D01*
X9943693Y11330787D01*
X9934752Y11320627D01*
X9939172Y11316360D01*
X9943947Y11312550D01*
X9949129Y11309248D01*
X9954615Y11306505D01*
X9960508Y11304270D01*
X9966655Y11302644D01*
X9973157Y11301679D01*
X9979964Y11301323D01*
X9986518Y11301628D01*
X9992563Y11302593D01*
X9998151Y11304117D01*
X10003282Y11306200D01*
X10007854Y11308791D01*
X10011918Y11311890D01*
X10015423Y11315344D01*
X10018318Y11319205D01*
X10020655Y11323421D01*
X10022332Y11327892D01*
X10023348Y11332667D01*
X10023652Y11337645D01*
X10023144Y11344503D01*
X10021570Y11350447D01*
X10019131Y11355578D01*
X10015829Y11360048D01*
X10011867Y11363858D01*
X10007295Y11367160D01*
X10002215Y11370106D01*
X9996779Y11372697D01*
X9977932Y11380571D01*
X9970262Y11384026D01*
X9963200Y11388445D01*
X9958120Y11394592D01*
X9956088Y11403177D01*
X9956596Y11407546D01*
X9957917Y11411407D01*
X9960152Y11414810D01*
X9963099Y11417655D01*
X9966756Y11419941D01*
X9971125Y11421618D01*
X9976053Y11422634D01*
X9981488Y11422989D01*
X9990328Y11422126D01*
X9998100Y11419636D01*
X10005110Y11415725D01*
X10011511Y11410543D01*
X10019334Y11420195D01*
X10015829Y11423599D01*
X10011867Y11426647D01*
X10007549Y11429390D01*
X10002926Y11431727D01*
X9997948Y11433606D01*
X9992715Y11435029D01*
X9987229Y11435892D01*
G37*
G36*
X9729063Y11433657D02*
G01*
X9729063Y11421973D01*
X9766604Y11421973D01*
X9774072Y11421668D01*
X9780625Y11420652D01*
X9786162Y11418925D01*
X9790785Y11416436D01*
X9794392Y11413134D01*
X9797034Y11408918D01*
X9798608Y11403736D01*
X9799116Y11397589D01*
X9798608Y11391544D01*
X9797034Y11386312D01*
X9794392Y11381892D01*
X9790785Y11378285D01*
X9786162Y11375491D01*
X9780625Y11373510D01*
X9774072Y11372342D01*
X9766604Y11371935D01*
X9743998Y11371935D01*
X9743998Y11421973D01*
X9729063Y11421973D01*
X9729063Y11303609D01*
X9743998Y11303609D01*
X9743998Y11359743D01*
X9768179Y11359743D01*
X9800691Y11303609D01*
X9817404Y11303609D01*
X9783673Y11361267D01*
X9790176Y11363147D01*
X9796068Y11365788D01*
X9801250Y11369192D01*
X9805619Y11373358D01*
X9809124Y11378234D01*
X9811715Y11383924D01*
X9813340Y11390376D01*
X9813848Y11397589D01*
X9813493Y11403888D01*
X9812375Y11409527D01*
X9810546Y11414455D01*
X9808108Y11418773D01*
X9805009Y11422481D01*
X9801301Y11425631D01*
X9797084Y11428171D01*
X9792309Y11430254D01*
X9787077Y11431778D01*
X9781438Y11432844D01*
X9775342Y11433454D01*
X9768941Y11433657D01*
G37*
G36*
X9840518Y11433657D02*
G01*
X9840518Y11303609D01*
X9916718Y11303609D01*
X9916718Y11316055D01*
X9855250Y11316055D01*
X9855250Y11366093D01*
X9905288Y11366093D01*
X9905288Y11378539D01*
X9855250Y11378539D01*
X9855250Y11421211D01*
X9914686Y11421211D01*
X9914686Y11433657D01*
G37*
G36*
X10049814Y11433657D02*
G01*
X10049814Y11303609D01*
X10125811Y11303609D01*
X10125811Y11316055D01*
X10064597Y11316055D01*
X10064597Y11366093D01*
X10114381Y11366093D01*
X10114381Y11378539D01*
X10064597Y11378539D01*
X10064597Y11421211D01*
X10123779Y11421211D01*
X10123779Y11433657D01*
G37*
G36*
X10141000Y11433657D02*
G01*
X10141000Y11421211D01*
X10180675Y11421211D01*
X10180675Y11303609D01*
X10195661Y11303609D01*
X10195661Y11421211D01*
X10235488Y11421211D01*
X10235488Y11433657D01*
G37*
G36*
X9731654Y12381534D02*
G01*
X9723628Y12380214D01*
X9718090Y12376708D01*
X9714890Y12371425D01*
X9713874Y12365024D01*
X9714026Y12362535D01*
X9714433Y12360300D01*
X9715144Y12358166D01*
X9716160Y12356134D01*
X9699396Y12357658D01*
X9699396Y12378994D01*
X9694062Y12378994D01*
X9694062Y12352324D01*
X9719970Y12350546D01*
X9722002Y12353848D01*
X9719564Y12358471D01*
X9718903Y12360808D01*
X9718700Y12363500D01*
X9719564Y12368326D01*
X9722154Y12372136D01*
X9726320Y12374575D01*
X9731908Y12375438D01*
X9737598Y12374422D01*
X9741916Y12371781D01*
X9744659Y12367818D01*
X9745624Y12362992D01*
X9745065Y12358471D01*
X9743694Y12354763D01*
X9741662Y12351664D01*
X9739274Y12349022D01*
X9743338Y12345974D01*
X9746081Y12349073D01*
X9748418Y12352934D01*
X9750094Y12357658D01*
X9750704Y12363500D01*
X9749434Y12370257D01*
X9745726Y12376048D01*
X9739782Y12380010D01*
G37*
G36*
X9749688Y12341656D02*
G01*
X9725050Y12327178D01*
X9723069Y12332512D01*
X9719818Y12336576D01*
X9715246Y12339218D01*
X9709302Y12340132D01*
X9702088Y12338710D01*
X9697364Y12334748D01*
X9694824Y12328652D01*
X9694062Y12320828D01*
X9694062Y12310160D01*
X9699142Y12310160D01*
X9699142Y12320066D01*
X9699650Y12325959D01*
X9701377Y12330226D01*
X9704476Y12332868D01*
X9709302Y12333782D01*
X9714280Y12332868D01*
X9717735Y12330226D01*
X9719818Y12325959D01*
X9720478Y12320066D01*
X9720478Y12310160D01*
X9694062Y12310160D01*
X9694062Y12303810D01*
X9749688Y12303810D01*
X9749688Y12310160D01*
X9725558Y12310160D01*
X9725558Y12320574D01*
X9749688Y12334544D01*
G37*
G36*
X8670137Y10835589D02*
G01*
X8664194Y10835233D01*
X8661806Y10834725D01*
X8659977Y10834065D01*
X8661501Y10827461D01*
X8664803Y10828172D01*
X8669121Y10828477D01*
X8675065Y10827867D01*
X8680297Y10825988D01*
X8684615Y10822787D01*
X8687917Y10818317D01*
X8682177Y10816844D01*
X8676995Y10814304D01*
X8672423Y10810748D01*
X8668562Y10806277D01*
X8665464Y10800842D01*
X8663127Y10794593D01*
X8661704Y10787532D01*
X8661247Y10779709D01*
X8669883Y10779709D01*
X8670290Y10786719D01*
X8671458Y10792968D01*
X8673388Y10798454D01*
X8676030Y10803026D01*
X8679332Y10806734D01*
X8683244Y10809478D01*
X8687714Y10811154D01*
X8692743Y10811713D01*
X8697620Y10811154D01*
X8702040Y10809478D01*
X8705900Y10806734D01*
X8709152Y10803026D01*
X8711793Y10798454D01*
X8713724Y10792968D01*
X8714943Y10786719D01*
X8715349Y10779709D01*
X8714943Y10773003D01*
X8713724Y10766958D01*
X8711793Y10761726D01*
X8709152Y10757306D01*
X8705900Y10753750D01*
X8702040Y10751159D01*
X8697620Y10749534D01*
X8692743Y10748975D01*
X8687714Y10749534D01*
X8683244Y10751159D01*
X8679332Y10753750D01*
X8676030Y10757306D01*
X8673388Y10761726D01*
X8671458Y10766958D01*
X8670290Y10773003D01*
X8669883Y10779709D01*
X8661247Y10779709D01*
X8661806Y10771276D01*
X8663533Y10763808D01*
X8666276Y10757255D01*
X8670036Y10751820D01*
X8674608Y10747451D01*
X8679992Y10744250D01*
X8686038Y10742269D01*
X8692743Y10741609D01*
X8699296Y10742269D01*
X8705342Y10744250D01*
X8710625Y10747451D01*
X8715197Y10751820D01*
X8718905Y10757255D01*
X8721648Y10763808D01*
X8723376Y10771276D01*
X8723985Y10779709D01*
X8723477Y10787634D01*
X8722004Y10794796D01*
X8719667Y10801096D01*
X8716467Y10806531D01*
X8712504Y10811052D01*
X8707882Y10814558D01*
X8702598Y10816996D01*
X8696807Y10818317D01*
X8692794Y10825327D01*
X8686952Y10830763D01*
X8679383Y10834319D01*
G37*
G36*
X8606129Y10817301D02*
G01*
X8606129Y10810443D01*
X8621369Y10810443D01*
X8621369Y10742879D01*
X8627465Y10742879D01*
X8630615Y10744504D01*
X8634120Y10745876D01*
X8638082Y10747044D01*
X8642705Y10747959D01*
X8642705Y10753293D01*
X8629497Y10753293D01*
X8629497Y10810443D01*
X8646261Y10810443D01*
X8646261Y10817301D01*
G37*
G36*
X8636965Y12066371D02*
G01*
X8630412Y12065711D01*
X8624417Y12063730D01*
X8619083Y12060580D01*
X8614511Y12056211D01*
X8610803Y12050725D01*
X8608060Y12044222D01*
X8606332Y12036704D01*
X8605774Y12028271D01*
X8614410Y12028271D01*
X8614816Y12034977D01*
X8615984Y12041022D01*
X8617915Y12046254D01*
X8620556Y12050725D01*
X8623808Y12054230D01*
X8627668Y12056872D01*
X8632088Y12058446D01*
X8636965Y12059005D01*
X8641994Y12058446D01*
X8646464Y12056872D01*
X8650376Y12054230D01*
X8653678Y12050674D01*
X8656320Y12046254D01*
X8658250Y12041022D01*
X8659418Y12034977D01*
X8659876Y12028271D01*
X8659418Y12021312D01*
X8658250Y12015012D01*
X8656320Y12009577D01*
X8653678Y12004954D01*
X8650376Y12001246D01*
X8646464Y11998553D01*
X8641994Y11996877D01*
X8636965Y11996267D01*
X8632088Y11996877D01*
X8627668Y11998553D01*
X8623808Y12001246D01*
X8620556Y12004954D01*
X8617915Y12009577D01*
X8615984Y12015012D01*
X8614816Y12021312D01*
X8614410Y12028271D01*
X8605774Y12028271D01*
X8606231Y12020346D01*
X8607704Y12013234D01*
X8610041Y12006884D01*
X8613241Y12001449D01*
X8617204Y11996978D01*
X8621826Y11993473D01*
X8627110Y11991035D01*
X8632901Y11989663D01*
X8636914Y11982704D01*
X8642756Y11977217D01*
X8650325Y11973661D01*
X8659622Y11972391D01*
X8665514Y11972798D01*
X8667902Y11973255D01*
X8669731Y11973915D01*
X8668258Y11980519D01*
X8664905Y11979808D01*
X8660638Y11979503D01*
X8654643Y11980164D01*
X8649411Y11982043D01*
X8645093Y11985193D01*
X8641842Y11989663D01*
X8647531Y11991187D01*
X8652713Y11993727D01*
X8657285Y11997232D01*
X8661146Y12001754D01*
X8664244Y12007138D01*
X8666581Y12013387D01*
X8668004Y12020448D01*
X8668512Y12028271D01*
X8667902Y12036704D01*
X8666175Y12044222D01*
X8663432Y12050725D01*
X8659672Y12056211D01*
X8655100Y12060580D01*
X8649716Y12063730D01*
X8643670Y12065711D01*
G37*
G36*
X8700262Y12066371D02*
G01*
X8693810Y12065609D01*
X8688222Y12063374D01*
X8683193Y12059970D01*
X8678672Y12055449D01*
X8683447Y12050877D01*
X8686901Y12054332D01*
X8690660Y12057126D01*
X8694775Y12059056D01*
X8699195Y12059767D01*
X8705494Y12058599D01*
X8709964Y12055348D01*
X8712555Y12050471D01*
X8713470Y12044273D01*
X8712962Y12039346D01*
X8711387Y12034113D01*
X8708847Y12028678D01*
X8705138Y12022886D01*
X8700363Y12016740D01*
X8694470Y12010186D01*
X8687409Y12003227D01*
X8679129Y11995759D01*
X8679129Y11990679D01*
X8725154Y11990679D01*
X8725154Y11997791D01*
X8700871Y11997740D01*
X8691626Y11997283D01*
X8698128Y12003582D01*
X8704021Y12009729D01*
X8709101Y12015774D01*
X8713470Y12021667D01*
X8716924Y12027509D01*
X8719464Y12033250D01*
X8721039Y12038888D01*
X8721547Y12044527D01*
X8721191Y12049252D01*
X8720074Y12053519D01*
X8718296Y12057278D01*
X8715857Y12060428D01*
X8712809Y12062968D01*
X8709152Y12064847D01*
X8704935Y12065965D01*
G37*
G36*
X8784336Y11275720D02*
G01*
X8774988Y11274247D01*
X8767775Y11270234D01*
X8763101Y11264188D01*
X8761515Y11256416D01*
X8769350Y11256416D01*
X8770416Y11261699D01*
X8773515Y11265916D01*
X8778240Y11268659D01*
X8784336Y11269624D01*
X8790736Y11268557D01*
X8795918Y11265560D01*
X8799322Y11261090D01*
X8800592Y11255400D01*
X8799779Y11250168D01*
X8797493Y11245443D01*
X8794038Y11241328D01*
X8789670Y11237874D01*
X8781999Y11241176D01*
X8775496Y11244884D01*
X8771026Y11249761D01*
X8769350Y11256416D01*
X8761515Y11256416D01*
X8762542Y11249863D01*
X8765336Y11244529D01*
X8769400Y11240363D01*
X8774176Y11237112D01*
X8774176Y11236604D01*
X8770670Y11233505D01*
X8767368Y11229340D01*
X8764981Y11224260D01*
X8764102Y11219078D01*
X8771128Y11219078D01*
X8771686Y11223244D01*
X8773261Y11227206D01*
X8775852Y11230914D01*
X8779256Y11234318D01*
X8785707Y11231676D01*
X8791244Y11228273D01*
X8795054Y11223802D01*
X8796528Y11217808D01*
X8795613Y11212779D01*
X8793073Y11208867D01*
X8789263Y11206276D01*
X8784336Y11205362D01*
X8778748Y11206480D01*
X8774582Y11209375D01*
X8771991Y11213744D01*
X8771128Y11219078D01*
X8764102Y11219078D01*
X8764016Y11218570D01*
X8765387Y11210696D01*
X8769400Y11204549D01*
X8775801Y11200485D01*
X8784336Y11199012D01*
X8792159Y11200384D01*
X8798458Y11204244D01*
X8802624Y11210188D01*
X8804148Y11217808D01*
X8803335Y11223294D01*
X8801201Y11227968D01*
X8798052Y11231778D01*
X8794242Y11234826D01*
X8794242Y11235334D01*
X8799271Y11238687D01*
X8803690Y11243259D01*
X8806789Y11249050D01*
X8807958Y11255908D01*
X8807500Y11260074D01*
X8806180Y11263833D01*
X8804097Y11267236D01*
X8801303Y11270132D01*
X8797848Y11272469D01*
X8793835Y11274247D01*
X8789263Y11275364D01*
G37*
G36*
X8815578Y11274450D02*
G01*
X8834628Y11241430D01*
X8827516Y11238890D01*
X8822080Y11234572D01*
X8818575Y11228476D01*
X8817356Y11220602D01*
X8825992Y11220602D01*
X8827211Y11227206D01*
X8830767Y11231778D01*
X8836609Y11234470D01*
X8844534Y11235334D01*
X8857488Y11235334D01*
X8857488Y11206886D01*
X8844534Y11206886D01*
X8836609Y11207648D01*
X8830767Y11209934D01*
X8827211Y11214201D01*
X8825992Y11220602D01*
X8817356Y11220602D01*
X8817864Y11215370D01*
X8819286Y11211001D01*
X8821521Y11207394D01*
X8824620Y11204600D01*
X8828379Y11202517D01*
X8832799Y11201146D01*
X8837777Y11200333D01*
X8843264Y11200028D01*
X8865870Y11200028D01*
X8865870Y11274450D01*
X8857488Y11274450D01*
X8857488Y11242446D01*
X8843518Y11242446D01*
X8824976Y11274450D01*
G37*
G36*
X8614562Y11275364D02*
G01*
X8609431Y11274806D01*
X8604504Y11273129D01*
X8599982Y11270132D01*
X8595969Y11265865D01*
X8592667Y11260124D01*
X8590076Y11252860D01*
X8588451Y11244021D01*
X8587892Y11233454D01*
X8588118Y11229390D01*
X8595766Y11229390D01*
X8599576Y11233962D01*
X8603691Y11237163D01*
X8607806Y11238992D01*
X8611768Y11239550D01*
X8617762Y11238331D01*
X8622080Y11234826D01*
X8624620Y11229390D01*
X8625484Y11222278D01*
X8624519Y11215319D01*
X8621776Y11209832D01*
X8617661Y11206276D01*
X8612530Y11205006D01*
X8605723Y11206632D01*
X8600643Y11211306D01*
X8597290Y11218926D01*
X8595766Y11229390D01*
X8588118Y11229390D01*
X8588349Y11225225D01*
X8589721Y11218113D01*
X8591854Y11212118D01*
X8594801Y11207191D01*
X8598357Y11203330D01*
X8602573Y11200587D01*
X8607298Y11198961D01*
X8612530Y11198402D01*
X8616696Y11198860D01*
X8620607Y11200130D01*
X8624163Y11202212D01*
X8627211Y11205006D01*
X8629802Y11208461D01*
X8631732Y11212576D01*
X8632952Y11217198D01*
X8633358Y11222278D01*
X8633002Y11227714D01*
X8631936Y11232489D01*
X8630208Y11236502D01*
X8627872Y11239804D01*
X8624925Y11242344D01*
X8621471Y11244173D01*
X8617508Y11245291D01*
X8613038Y11245646D01*
X8608314Y11244986D01*
X8603691Y11243157D01*
X8599373Y11240211D01*
X8595512Y11236248D01*
X8596172Y11244580D01*
X8597442Y11251488D01*
X8599322Y11257076D01*
X8601760Y11261445D01*
X8604554Y11264646D01*
X8607755Y11266881D01*
X8611158Y11268100D01*
X8614816Y11268506D01*
X8618372Y11268151D01*
X8621725Y11267033D01*
X8624722Y11265204D01*
X8627262Y11262664D01*
X8632088Y11267998D01*
X8628735Y11270996D01*
X8624773Y11273332D01*
X8620048Y11274806D01*
G37*
G36*
X8640978Y11274094D02*
G01*
X8660028Y11241074D01*
X8652916Y11238484D01*
X8647480Y11234216D01*
X8643975Y11228120D01*
X8642756Y11220246D01*
X8651392Y11220246D01*
X8652611Y11226850D01*
X8656167Y11231422D01*
X8662009Y11234115D01*
X8669934Y11234978D01*
X8682888Y11234978D01*
X8682888Y11206530D01*
X8669934Y11206530D01*
X8662009Y11207242D01*
X8656167Y11209578D01*
X8652611Y11213846D01*
X8651392Y11220246D01*
X8642756Y11220246D01*
X8643264Y11215014D01*
X8644686Y11210594D01*
X8646922Y11207038D01*
X8650020Y11204244D01*
X8653780Y11202162D01*
X8658199Y11200739D01*
X8663178Y11199926D01*
X8668664Y11199672D01*
X8691270Y11199672D01*
X8691270Y11274094D01*
X8682888Y11274094D01*
X8682888Y11242090D01*
X8668918Y11242090D01*
X8650376Y11274094D01*
G37*
D10*
X10876526Y10559808D02*
G01*
X10985492Y10559808D01*
X10903704Y10514342D02*
G01*
X10958314Y10605274D01*
X10903704Y10605274D02*
G01*
X10958314Y10514342D01*
X10849094Y10792726D02*
G01*
X10831060Y10774438D01*
X10821916Y10747260D01*
X10821916Y10710684D01*
X10831060Y10683506D01*
X10849094Y10665218D01*
X10867382Y10665218D01*
X10885416Y10674362D01*
X10894560Y10683506D01*
X10903704Y10701794D01*
X10921992Y10756150D01*
X10930882Y10774438D01*
X10940026Y10783582D01*
X10958314Y10792726D01*
X10985492Y10792726D01*
X11003780Y10774438D01*
X11012670Y10747260D01*
X11012670Y10710684D01*
X11003780Y10683506D01*
X10985492Y10665218D01*
X10821916Y10852670D02*
G01*
X11012670Y10852670D01*
X10821916Y10979924D02*
G01*
X11012670Y10979924D01*
X10912848Y10852670D02*
G01*
X10912848Y10979924D01*
X10821916Y11039868D02*
G01*
X11012670Y11039868D01*
X10821916Y11099812D02*
G01*
X11012670Y11099812D01*
X10821916Y11099812D02*
G01*
X10821916Y11218176D01*
X10912848Y11099812D02*
G01*
X10912848Y11172710D01*
X11012670Y11099812D02*
G01*
X11012670Y11218176D01*
X10821916Y11278120D02*
G01*
X11012670Y11278120D01*
X11012670Y11278120D02*
G01*
X11012670Y11387086D01*
X10821916Y11447284D02*
G01*
X11012670Y11447284D01*
X10821916Y11447284D02*
G01*
X10821916Y11510784D01*
X10831060Y11537962D01*
X10849094Y11556250D01*
X10867382Y11565394D01*
X10894560Y11574538D01*
X10940026Y11574538D01*
X10967458Y11565394D01*
X10985492Y11556250D01*
X11003780Y11537962D01*
X11012670Y11510784D01*
X11012670Y11447284D01*
X11117259Y10868797D02*
G01*
X11196761Y10903087D01*
X11117259Y10937123D02*
G01*
X11196761Y10903087D01*
X11077635Y10985891D02*
G01*
X11077635Y11048375D01*
X11123101Y11014339D01*
X11123101Y11031357D01*
X11128689Y11042787D01*
X11134277Y11048375D01*
X11151549Y11054217D01*
X11162725Y11054217D01*
X11179743Y11048375D01*
X11191173Y11037199D01*
X11196761Y11019927D01*
X11196761Y11002909D01*
X11191173Y10985891D01*
X11185585Y10980303D01*
X11174155Y10974461D01*
X11168567Y11097397D02*
G01*
X11174155Y11091555D01*
X11179743Y11097397D01*
X11174155Y11102985D01*
X11168567Y11097397D01*
X11077635Y11174613D02*
G01*
X11083223Y11157595D01*
X11100241Y11146165D01*
X11128689Y11140577D01*
X11145707Y11140577D01*
X11174155Y11146165D01*
X11191173Y11157595D01*
X11196761Y11174613D01*
X11196761Y11186043D01*
X11191173Y11203061D01*
X11174155Y11214237D01*
X11145707Y11220079D01*
X11128689Y11220079D01*
X11100241Y11214237D01*
X11083223Y11203061D01*
X11077635Y11186043D01*
X11077635Y11174613D01*
D11*
X7780301Y13604971D02*
G01*
X7671335Y13604971D01*
X7780301Y13604971D02*
G01*
X7780301Y13558235D01*
X7775221Y13542741D01*
X7769887Y13537407D01*
X7759473Y13532327D01*
X7743979Y13532327D01*
X7733565Y13537407D01*
X7728485Y13542741D01*
X7723151Y13558235D01*
X7723151Y13604971D01*
X7780301Y13466795D02*
G01*
X7775221Y13477209D01*
X7764807Y13487623D01*
X7754393Y13492703D01*
X7738645Y13498037D01*
X7712737Y13498037D01*
X7697243Y13492703D01*
X7686829Y13487623D01*
X7676415Y13477209D01*
X7671335Y13466795D01*
X7671335Y13445967D01*
X7676415Y13435553D01*
X7686829Y13425139D01*
X7697243Y13420059D01*
X7712737Y13414725D01*
X7738645Y13414725D01*
X7754393Y13420059D01*
X7764807Y13425139D01*
X7775221Y13435553D01*
X7780301Y13445967D01*
X7780301Y13466795D01*
X7780301Y13380435D02*
G01*
X7671335Y13380435D01*
X7780301Y13380435D02*
G01*
X7780301Y13333699D01*
X7775221Y13318205D01*
X7769887Y13312871D01*
X7759473Y13307791D01*
X7749059Y13307791D01*
X7738645Y13312871D01*
X7733565Y13318205D01*
X7728485Y13333699D01*
X7728485Y13380435D01*
X7728485Y13344113D02*
G01*
X7671335Y13307791D01*
X7780301Y13237179D02*
G01*
X7671335Y13237179D01*
X7780301Y13273501D02*
G01*
X7780301Y13200857D01*
X7759473Y13166567D02*
G01*
X7764807Y13156153D01*
X7780301Y13140405D01*
X7671335Y13140405D01*
X7780301Y12059975D02*
G01*
X7671335Y12059975D01*
X7780301Y12059975D02*
G01*
X7780301Y12013239D01*
X7775221Y11997745D01*
X7769887Y11992411D01*
X7759473Y11987331D01*
X7743979Y11987331D01*
X7733565Y11992411D01*
X7728485Y11997745D01*
X7723151Y12013239D01*
X7723151Y12059975D01*
X7780301Y11921799D02*
G01*
X7775221Y11932213D01*
X7764807Y11942627D01*
X7754393Y11947707D01*
X7738645Y11953041D01*
X7712737Y11953041D01*
X7697243Y11947707D01*
X7686829Y11942627D01*
X7676415Y11932213D01*
X7671335Y11921799D01*
X7671335Y11900971D01*
X7676415Y11890557D01*
X7686829Y11880143D01*
X7697243Y11875063D01*
X7712737Y11869729D01*
X7738645Y11869729D01*
X7754393Y11875063D01*
X7764807Y11880143D01*
X7775221Y11890557D01*
X7780301Y11900971D01*
X7780301Y11921799D01*
X7780301Y11835439D02*
G01*
X7671335Y11835439D01*
X7780301Y11835439D02*
G01*
X7780301Y11788703D01*
X7775221Y11773209D01*
X7769887Y11767875D01*
X7759473Y11762795D01*
X7749059Y11762795D01*
X7738645Y11767875D01*
X7733565Y11773209D01*
X7728485Y11788703D01*
X7728485Y11835439D01*
X7728485Y11799117D02*
G01*
X7671335Y11762795D01*
X7780301Y11692183D02*
G01*
X7671335Y11692183D01*
X7780301Y11728505D02*
G01*
X7780301Y11655861D01*
X7754393Y11616237D02*
G01*
X7759473Y11616237D01*
X7769887Y11611157D01*
X7775221Y11605823D01*
X7780301Y11595409D01*
X7780301Y11574835D01*
X7775221Y11564421D01*
X7769887Y11559087D01*
X7759473Y11554007D01*
X7749059Y11554007D01*
X7738645Y11559087D01*
X7723151Y11569501D01*
X7671335Y11621571D01*
X7671335Y11548673D01*
X7765303Y10544977D02*
G01*
X7656337Y10544977D01*
X7765303Y10544977D02*
G01*
X7765303Y10498241D01*
X7760223Y10482747D01*
X7754889Y10477413D01*
X7744475Y10472333D01*
X7728981Y10472333D01*
X7718567Y10477413D01*
X7713487Y10482747D01*
X7708153Y10498241D01*
X7708153Y10544977D01*
X7765303Y10406801D02*
G01*
X7760223Y10417215D01*
X7749809Y10427629D01*
X7739395Y10432709D01*
X7723647Y10438043D01*
X7697739Y10438043D01*
X7682245Y10432709D01*
X7671831Y10427629D01*
X7661417Y10417215D01*
X7656337Y10406801D01*
X7656337Y10385973D01*
X7661417Y10375559D01*
X7671831Y10365145D01*
X7682245Y10360065D01*
X7697739Y10354731D01*
X7723647Y10354731D01*
X7739395Y10360065D01*
X7749809Y10365145D01*
X7760223Y10375559D01*
X7765303Y10385973D01*
X7765303Y10406801D01*
X7765303Y10320441D02*
G01*
X7656337Y10320441D01*
X7765303Y10320441D02*
G01*
X7765303Y10273705D01*
X7760223Y10258211D01*
X7754889Y10252877D01*
X7744475Y10247797D01*
X7734061Y10247797D01*
X7723647Y10252877D01*
X7718567Y10258211D01*
X7713487Y10273705D01*
X7713487Y10320441D01*
X7713487Y10284119D02*
G01*
X7656337Y10247797D01*
X7765303Y10177185D02*
G01*
X7656337Y10177185D01*
X7765303Y10213507D02*
G01*
X7765303Y10140863D01*
X7765303Y10096159D02*
G01*
X7765303Y10039009D01*
X7723647Y10069997D01*
X7723647Y10054503D01*
X7718567Y10044089D01*
X7713487Y10039009D01*
X7697739Y10033675D01*
X7687325Y10033675D01*
X7671831Y10039009D01*
X7661417Y10049423D01*
X7656337Y10064917D01*
X7656337Y10080411D01*
X7661417Y10096159D01*
X7666497Y10101239D01*
X7676911Y10106573D01*
X7780299Y8999981D02*
G01*
X7671333Y8999981D01*
X7780299Y8999981D02*
G01*
X7780299Y8953245D01*
X7775219Y8937752D01*
X7769885Y8932418D01*
X7759471Y8927337D01*
X7743977Y8927337D01*
X7733563Y8932418D01*
X7728483Y8937752D01*
X7723149Y8953245D01*
X7723149Y8999981D01*
X7780299Y8861805D02*
G01*
X7775219Y8872220D01*
X7764805Y8882634D01*
X7754391Y8887713D01*
X7738643Y8893047D01*
X7712735Y8893047D01*
X7697241Y8887713D01*
X7686827Y8882634D01*
X7676413Y8872220D01*
X7671333Y8861805D01*
X7671333Y8840978D01*
X7676413Y8830563D01*
X7686827Y8820150D01*
X7697241Y8815070D01*
X7712735Y8809736D01*
X7738643Y8809736D01*
X7754391Y8815070D01*
X7764805Y8820150D01*
X7775219Y8830563D01*
X7780299Y8840978D01*
X7780299Y8861805D01*
X7780299Y8775445D02*
G01*
X7671333Y8775445D01*
X7780299Y8775445D02*
G01*
X7780299Y8728710D01*
X7775219Y8713215D01*
X7769885Y8707881D01*
X7759471Y8702802D01*
X7749057Y8702802D01*
X7738643Y8707881D01*
X7733563Y8713215D01*
X7728483Y8728710D01*
X7728483Y8775445D01*
X7728483Y8739124D02*
G01*
X7671333Y8702802D01*
X7780299Y8632189D02*
G01*
X7671333Y8632189D01*
X7780299Y8668512D02*
G01*
X7780299Y8595868D01*
X7780299Y8509508D02*
G01*
X7707655Y8561578D01*
X7707655Y8483600D01*
X7780299Y8509508D02*
G01*
X7671333Y8509508D01*
X11119660Y8489980D02*
G01*
X11228626Y8489980D01*
X11119660Y8489980D02*
G01*
X11119660Y8536716D01*
X11124740Y8552210D01*
X11130074Y8557544D01*
X11140488Y8562624D01*
X11155982Y8562624D01*
X11166396Y8557544D01*
X11171476Y8552210D01*
X11176810Y8536716D01*
X11176810Y8489980D01*
X11119660Y8628156D02*
G01*
X11124740Y8617742D01*
X11135154Y8607328D01*
X11145568Y8602248D01*
X11161316Y8596914D01*
X11187224Y8596914D01*
X11202718Y8602248D01*
X11213132Y8607328D01*
X11223546Y8617742D01*
X11228626Y8628156D01*
X11228626Y8648984D01*
X11223546Y8659398D01*
X11213132Y8669812D01*
X11202718Y8674892D01*
X11187224Y8680226D01*
X11161316Y8680226D01*
X11145568Y8674892D01*
X11135154Y8669812D01*
X11124740Y8659398D01*
X11119660Y8648984D01*
X11119660Y8628156D01*
X11119660Y8714516D02*
G01*
X11228626Y8714516D01*
X11119660Y8714516D02*
G01*
X11119660Y8761252D01*
X11124740Y8776746D01*
X11130074Y8782080D01*
X11140488Y8787160D01*
X11150902Y8787160D01*
X11161316Y8782080D01*
X11166396Y8776746D01*
X11171476Y8761252D01*
X11171476Y8714516D01*
X11171476Y8750838D02*
G01*
X11228626Y8787160D01*
X11119660Y8857772D02*
G01*
X11228626Y8857772D01*
X11119660Y8821450D02*
G01*
X11119660Y8894094D01*
X11119660Y8990868D02*
G01*
X11119660Y8938798D01*
X11166396Y8933718D01*
X11161316Y8938798D01*
X11155982Y8954546D01*
X11155982Y8970040D01*
X11161316Y8985534D01*
X11171476Y8995948D01*
X11187224Y9001282D01*
X11197638Y9001282D01*
X11213132Y8995948D01*
X11223546Y8985534D01*
X11228626Y8970040D01*
X11228626Y8954546D01*
X11223546Y8938798D01*
X11218466Y8933718D01*
X11208052Y8928384D01*
X11112162Y10049979D02*
G01*
X11221128Y10049979D01*
X11112162Y10049979D02*
G01*
X11112162Y10096715D01*
X11117242Y10112209D01*
X11122576Y10117543D01*
X11132990Y10122623D01*
X11148484Y10122623D01*
X11158898Y10117543D01*
X11163978Y10112209D01*
X11169312Y10096715D01*
X11169312Y10049979D01*
X11112162Y10188155D02*
G01*
X11117242Y10177741D01*
X11127656Y10167327D01*
X11138070Y10162247D01*
X11153818Y10156913D01*
X11179726Y10156913D01*
X11195220Y10162247D01*
X11205634Y10167327D01*
X11216048Y10177741D01*
X11221128Y10188155D01*
X11221128Y10208983D01*
X11216048Y10219397D01*
X11205634Y10229811D01*
X11195220Y10234891D01*
X11179726Y10240225D01*
X11153818Y10240225D01*
X11138070Y10234891D01*
X11127656Y10229811D01*
X11117242Y10219397D01*
X11112162Y10208983D01*
X11112162Y10188155D01*
X11112162Y10274515D02*
G01*
X11221128Y10274515D01*
X11112162Y10274515D02*
G01*
X11112162Y10321251D01*
X11117242Y10336745D01*
X11122576Y10342079D01*
X11132990Y10347159D01*
X11143404Y10347159D01*
X11153818Y10342079D01*
X11158898Y10336745D01*
X11163978Y10321251D01*
X11163978Y10274515D01*
X11163978Y10310837D02*
G01*
X11221128Y10347159D01*
X11112162Y10417771D02*
G01*
X11221128Y10417771D01*
X11112162Y10381449D02*
G01*
X11112162Y10454093D01*
X11127656Y10550867D02*
G01*
X11117242Y10545533D01*
X11112162Y10530039D01*
X11112162Y10519625D01*
X11117242Y10504131D01*
X11132990Y10493717D01*
X11158898Y10488383D01*
X11184806Y10488383D01*
X11205634Y10493717D01*
X11216048Y10504131D01*
X11221128Y10519625D01*
X11221128Y10524959D01*
X11216048Y10540453D01*
X11205634Y10550867D01*
X11190140Y10555947D01*
X11184806Y10555947D01*
X11169312Y10550867D01*
X11158898Y10540453D01*
X11153818Y10524959D01*
X11153818Y10519625D01*
X11158898Y10504131D01*
X11169312Y10493717D01*
X11184806Y10488383D01*
X11119660Y11579974D02*
G01*
X11228626Y11579974D01*
X11119660Y11579974D02*
G01*
X11119660Y11626710D01*
X11124740Y11642204D01*
X11130074Y11647538D01*
X11140488Y11652618D01*
X11155982Y11652618D01*
X11166396Y11647538D01*
X11171476Y11642204D01*
X11176810Y11626710D01*
X11176810Y11579974D01*
X11119660Y11718150D02*
G01*
X11124740Y11707736D01*
X11135154Y11697322D01*
X11145568Y11692242D01*
X11161316Y11686908D01*
X11187224Y11686908D01*
X11202718Y11692242D01*
X11213132Y11697322D01*
X11223546Y11707736D01*
X11228626Y11718150D01*
X11228626Y11738978D01*
X11223546Y11749392D01*
X11213132Y11759806D01*
X11202718Y11764886D01*
X11187224Y11770220D01*
X11161316Y11770220D01*
X11145568Y11764886D01*
X11135154Y11759806D01*
X11124740Y11749392D01*
X11119660Y11738978D01*
X11119660Y11718150D01*
X11119660Y11804510D02*
G01*
X11228626Y11804510D01*
X11119660Y11804510D02*
G01*
X11119660Y11851246D01*
X11124740Y11866740D01*
X11130074Y11872074D01*
X11140488Y11877154D01*
X11150902Y11877154D01*
X11161316Y11872074D01*
X11166396Y11866740D01*
X11171476Y11851246D01*
X11171476Y11804510D01*
X11171476Y11840832D02*
G01*
X11228626Y11877154D01*
X11119660Y11947766D02*
G01*
X11228626Y11947766D01*
X11119660Y11911444D02*
G01*
X11119660Y11984088D01*
X11119660Y12091276D02*
G01*
X11228626Y12039206D01*
X11119660Y12018378D02*
G01*
X11119660Y12091276D01*
X11089662Y13109973D02*
G01*
X11198628Y13109973D01*
X11089662Y13109973D02*
G01*
X11089662Y13156709D01*
X11094742Y13172203D01*
X11100076Y13177537D01*
X11110490Y13182617D01*
X11125984Y13182617D01*
X11136398Y13177537D01*
X11141478Y13172203D01*
X11146812Y13156709D01*
X11146812Y13109973D01*
X11089662Y13248149D02*
G01*
X11094742Y13237735D01*
X11105156Y13227321D01*
X11115570Y13222241D01*
X11131318Y13216907D01*
X11157226Y13216907D01*
X11172720Y13222241D01*
X11183134Y13227321D01*
X11193548Y13237735D01*
X11198628Y13248149D01*
X11198628Y13268977D01*
X11193548Y13279391D01*
X11183134Y13289805D01*
X11172720Y13294885D01*
X11157226Y13300219D01*
X11131318Y13300219D01*
X11115570Y13294885D01*
X11105156Y13289805D01*
X11094742Y13279391D01*
X11089662Y13268977D01*
X11089662Y13248149D01*
X11089662Y13334509D02*
G01*
X11198628Y13334509D01*
X11089662Y13334509D02*
G01*
X11089662Y13381245D01*
X11094742Y13396739D01*
X11100076Y13402073D01*
X11110490Y13407153D01*
X11120904Y13407153D01*
X11131318Y13402073D01*
X11136398Y13396739D01*
X11141478Y13381245D01*
X11141478Y13334509D01*
X11141478Y13370831D02*
G01*
X11198628Y13407153D01*
X11089662Y13477765D02*
G01*
X11198628Y13477765D01*
X11089662Y13441443D02*
G01*
X11089662Y13514087D01*
X11089662Y13574539D02*
G01*
X11094742Y13558791D01*
X11105156Y13553711D01*
X11115570Y13553711D01*
X11125984Y13558791D01*
X11131318Y13569205D01*
X11136398Y13590033D01*
X11141478Y13605527D01*
X11151892Y13615941D01*
X11162306Y13621275D01*
X11178054Y13621275D01*
X11188468Y13615941D01*
X11193548Y13610861D01*
X11198628Y13595113D01*
X11198628Y13574539D01*
X11193548Y13558791D01*
X11188468Y13553711D01*
X11178054Y13548377D01*
X11162306Y13548377D01*
X11151892Y13553711D01*
X11141478Y13564125D01*
X11136398Y13579619D01*
X11131318Y13600447D01*
X11125984Y13610861D01*
X11115570Y13615941D01*
X11105156Y13615941D01*
X11094742Y13610861D01*
X11089662Y13595113D01*
X11089662Y13574539D01*
D10*
X9891283Y8532439D02*
G01*
X9900427Y8536757D01*
X9909317Y8545901D01*
X9913889Y8555045D01*
X9918461Y8568761D01*
X9918461Y8591367D01*
X9913889Y8605083D01*
X9909317Y8614227D01*
X9900427Y8623117D01*
X9891283Y8627689D01*
X9872995Y8627689D01*
X9863851Y8623117D01*
X9854961Y8614227D01*
X9850389Y8605083D01*
X9845817Y8591367D01*
X9845817Y8568761D01*
X9850389Y8555045D01*
X9854961Y8545901D01*
X9863851Y8536757D01*
X9872995Y8532439D01*
X9891283Y8532439D01*
X9815845Y8532439D02*
G01*
X9815845Y8627689D01*
X9815845Y8532439D02*
G01*
X9752091Y8627689D01*
X9752091Y8532439D02*
G01*
X9752091Y8627689D01*
D12*
X9878367Y8919288D02*
G01*
X9869223Y8914716D01*
X9855761Y8901254D01*
X9855761Y8996504D01*
X9743770Y8923863D02*
G01*
X9743770Y8919291D01*
X9739198Y8910147D01*
X9734626Y8905575D01*
X9725736Y8901257D01*
X9707448Y8901257D01*
X9698304Y8905575D01*
X9693732Y8910147D01*
X9689160Y8919291D01*
X9689160Y8928435D01*
X9693732Y8937579D01*
X9702876Y8951041D01*
X9748342Y8996507D01*
X9684842Y8996507D01*
X9609327Y8901249D02*
G01*
X9559290Y8901249D01*
X9586468Y8937571D01*
X9573006Y8937571D01*
X9563861Y8942143D01*
X9559290Y8946715D01*
X9554718Y8960177D01*
X9554718Y8969321D01*
X9559290Y8983037D01*
X9568434Y8991927D01*
X9581895Y8996499D01*
X9595611Y8996499D01*
X9609327Y8991927D01*
X9613900Y8987609D01*
X9618472Y8978465D01*
X9442958Y8901249D02*
G01*
X9488424Y8964749D01*
X9420097Y8964749D01*
X9442958Y8901249D02*
G01*
X9442958Y8996499D01*
X9313765Y8901247D02*
G01*
X9359231Y8901247D01*
X9363803Y8942141D01*
X9359231Y8937569D01*
X9345515Y8932997D01*
X9332053Y8932997D01*
X9318337Y8937569D01*
X9309193Y8946713D01*
X9304621Y8960175D01*
X9304621Y8969319D01*
X9309193Y8983035D01*
X9318337Y8991925D01*
X9332053Y8996497D01*
X9345515Y8996497D01*
X9359231Y8991925D01*
X9363803Y8987607D01*
X9368375Y8978463D01*
X9183877Y8914843D02*
G01*
X9188450Y8905699D01*
X9201911Y8901127D01*
X9211056Y8901127D01*
X9224772Y8905699D01*
X9233915Y8919415D01*
X9238488Y8942021D01*
X9238488Y8964627D01*
X9233915Y8982915D01*
X9224772Y8992059D01*
X9211056Y8996631D01*
X9206484Y8996631D01*
X9193022Y8992059D01*
X9183877Y8982915D01*
X9179306Y8969199D01*
X9179306Y8964627D01*
X9183877Y8951165D01*
X9193022Y8942021D01*
X9206484Y8937449D01*
X9211056Y8937449D01*
X9224772Y8942021D01*
X9233915Y8951165D01*
X9238488Y8964627D01*
X9044686Y8901130D02*
G01*
X9090152Y8996634D01*
X9108440Y8901130D02*
G01*
X9044686Y8901130D01*
X8965531Y8901130D02*
G01*
X8979247Y8905702D01*
X8983819Y8914846D01*
X8983819Y8923736D01*
X8979247Y8932880D01*
X8970103Y8937452D01*
X8952069Y8942024D01*
X8938353Y8946596D01*
X8929209Y8955740D01*
X8924637Y8964630D01*
X8924637Y8978346D01*
X8929209Y8987490D01*
X8933781Y8992062D01*
X8947497Y8996634D01*
X8965531Y8996634D01*
X8979247Y8992062D01*
X8983819Y8987490D01*
X8988391Y8978346D01*
X8988391Y8964630D01*
X8983819Y8955740D01*
X8974675Y8946596D01*
X8961213Y8942024D01*
X8942925Y8937452D01*
X8933781Y8932880D01*
X8929209Y8923736D01*
X8929209Y8914846D01*
X8933781Y8905702D01*
X8947497Y8901130D01*
X8965531Y8901130D01*
D10*
X7867985Y11749476D02*
G01*
X7867985Y11558976D01*
X8121985Y11558976D01*
X8121985Y12320976D01*
X7867985Y12320976D01*
D13*
X7867985Y12320976D02*
G01*
X7867985Y11749476D01*
D11*
X7930123Y11122599D02*
G01*
X7930123Y11194402D01*
X8029844Y11194402D01*
X8029844Y11122599D01*
X7930123Y11077356D02*
G01*
X7930123Y11005553D01*
X8029844Y11005553D01*
X8029844Y11077356D01*
X7705125Y11122599D02*
G01*
X7705125Y11194402D01*
X7804845Y11194402D01*
X7804845Y11122599D01*
X7705125Y11077356D02*
G01*
X7705125Y11005553D01*
X7804845Y11005553D01*
X7804845Y11077356D01*
D14*
X6950527Y13921971D02*
G01*
X6950527Y12777970D01*
X7001327Y13921971D02*
G01*
X7001327Y12777970D01*
X6869991Y13921971D02*
G01*
X6869991Y12777970D01*
X7604988Y12777970D02*
G01*
X6869991Y12777970D01*
X7604988Y13921971D02*
G01*
X6869991Y13921971D01*
X7604988Y13921971D02*
G01*
X7604988Y12777970D01*
X6950529Y12386972D02*
G01*
X6950529Y11242972D01*
X7001329Y12386972D02*
G01*
X7001329Y11242972D01*
X6869993Y12386972D02*
G01*
X6869993Y11242972D01*
X7604991Y11242972D02*
G01*
X6869993Y11242972D01*
X7604991Y12386972D02*
G01*
X6869993Y12386972D01*
X7604991Y12386972D02*
G01*
X7604991Y11242972D01*
X6950529Y10851977D02*
G01*
X6950529Y9707976D01*
X7001329Y10851977D02*
G01*
X7001329Y9707976D01*
X6869993Y10851977D02*
G01*
X6869993Y9707976D01*
X7604991Y9707976D02*
G01*
X6869993Y9707976D01*
X7604991Y10851977D02*
G01*
X6869993Y10851977D01*
X7604991Y10851977D02*
G01*
X7604991Y9707976D01*
X6950527Y9316981D02*
G01*
X6950527Y8172980D01*
X7001327Y9316981D02*
G01*
X7001327Y8172980D01*
X6869991Y9316981D02*
G01*
X6869991Y8172980D01*
X7604988Y8172980D02*
G01*
X6869991Y8172980D01*
X7604988Y9316981D02*
G01*
X6869991Y9316981D01*
X7604988Y9316981D02*
G01*
X7604988Y8172980D01*
X11934436Y8172980D02*
G01*
X11934436Y9316981D01*
X11883636Y8172980D02*
G01*
X11883636Y9316981D01*
X12014972Y8172980D02*
G01*
X12014972Y9316981D01*
X11279974Y9316981D02*
G01*
X12014972Y9316981D01*
X11279974Y8172980D02*
G01*
X12014972Y8172980D01*
X11279974Y8172980D02*
G01*
X11279974Y9316981D01*
X11934436Y9702980D02*
G01*
X11934436Y10846981D01*
X11883636Y9702980D02*
G01*
X11883636Y10846981D01*
X12014972Y9702980D02*
G01*
X12014972Y10846981D01*
X11279974Y10846981D02*
G01*
X12014972Y10846981D01*
X11279974Y9702980D02*
G01*
X12014972Y9702980D01*
X11279974Y9702980D02*
G01*
X11279974Y10846981D01*
X11934441Y11232977D02*
G01*
X11934441Y12376978D01*
X11883641Y11232977D02*
G01*
X11883641Y12376978D01*
X12014977Y11232977D02*
G01*
X12014977Y12376978D01*
X11279979Y12376978D02*
G01*
X12014977Y12376978D01*
X11279979Y11232977D02*
G01*
X12014977Y11232977D01*
X11279979Y11232977D02*
G01*
X11279979Y12376978D01*
X11934438Y12762971D02*
G01*
X11934438Y13906972D01*
X11883638Y12762971D02*
G01*
X11883638Y13906972D01*
X12014974Y12762971D02*
G01*
X12014974Y13906972D01*
X11279977Y13906972D02*
G01*
X12014974Y13906972D01*
X11279977Y12762971D02*
G01*
X12014974Y12762971D01*
X11279977Y12762971D02*
G01*
X11279977Y13906972D01*
X11016480Y8819984D02*
G01*
X11016480Y8084987D01*
X10253479Y8819984D02*
G01*
X11016480Y8819984D01*
X10253479Y8165523D02*
G01*
X11016480Y8165523D01*
X10253479Y8216323D02*
G01*
X11016480Y8216323D01*
X10253479Y8084987D02*
G01*
X11016480Y8084987D01*
X10253479Y8819984D02*
G01*
X10253479Y8084987D01*
D11*
X8067842Y9382602D02*
G01*
X8372124Y9382602D01*
X8372124Y8377361D01*
X8067842Y8377361D01*
X8067842Y9382602D01*
X10787120Y9172359D02*
G01*
X10482839Y9172359D01*
X10482839Y10177599D01*
X10787120Y10177599D01*
X10787120Y9172359D01*
X8072856Y10187599D02*
G01*
X8427135Y10187599D01*
X8427135Y9672360D01*
X8072856Y9672360D01*
X8072856Y10187599D01*
X10167106Y10647357D02*
G01*
X9812827Y10647357D01*
X9812827Y11162596D01*
X10167106Y11162596D01*
X10167106Y10647357D01*
X8812362Y9957838D02*
G01*
X8812362Y10262120D01*
X9817602Y10262120D01*
X9817602Y9957838D01*
X8812362Y9957838D01*
X8800122Y9532602D02*
G01*
X8800122Y9604405D01*
X8899842Y9604405D01*
X8899842Y9532602D01*
X8800122Y9487359D02*
G01*
X8800122Y9415556D01*
X8899842Y9415556D01*
X8899842Y9487359D01*
X8958686Y9532599D02*
G01*
X8958686Y9604402D01*
X9058407Y9604402D01*
X9058407Y9532599D01*
X8958686Y9487357D02*
G01*
X8958686Y9415553D01*
X9058407Y9415553D01*
X9058407Y9487357D01*
X9117256Y9532599D02*
G01*
X9117256Y9604402D01*
X9216976Y9604402D01*
X9216976Y9532599D01*
X9117256Y9487357D02*
G01*
X9117256Y9415553D01*
X9216976Y9415553D01*
X9216976Y9487357D01*
X9275820Y9532599D02*
G01*
X9275820Y9604402D01*
X9375541Y9604402D01*
X9375541Y9532599D01*
X9275820Y9487357D02*
G01*
X9275820Y9415553D01*
X9375541Y9415553D01*
X9375541Y9487357D01*
X9434395Y9532602D02*
G01*
X9434395Y9604405D01*
X9534116Y9604405D01*
X9534116Y9532602D01*
X9434395Y9487359D02*
G01*
X9434395Y9415556D01*
X9534116Y9415556D01*
X9534116Y9487359D01*
X9592967Y9532602D02*
G01*
X9592967Y9604405D01*
X9692688Y9604405D01*
X9692688Y9532602D01*
X9592967Y9487359D02*
G01*
X9592967Y9415556D01*
X9692688Y9415556D01*
X9692688Y9487359D01*
X9751545Y9532602D02*
G01*
X9751545Y9604405D01*
X9851265Y9604405D01*
X9851265Y9532602D01*
X9751545Y9487359D02*
G01*
X9751545Y9415556D01*
X9851265Y9415556D01*
X9851265Y9487359D01*
X9910119Y9532602D02*
G01*
X9910119Y9604405D01*
X10009840Y9604405D01*
X10009840Y9532602D01*
X9910119Y9487359D02*
G01*
X9910119Y9415556D01*
X10009840Y9415556D01*
X10009840Y9487359D01*
D14*
X8919982Y13024972D02*
G01*
X8919982Y12944972D01*
X8939992Y12724897D02*
G01*
X8979997Y12724897D01*
X8979984Y12684897D01*
X8939992Y12724897D01*
X8609982Y12174974D02*
G01*
X8609982Y12234974D01*
X8579982Y12204974D02*
G01*
X8639982Y12204974D01*
X8509995Y12834922D02*
G01*
X8536970Y12834922D01*
X8683020Y12834922D02*
G01*
X8836944Y12834922D01*
X8982994Y12834922D02*
G01*
X9009994Y12834922D01*
X8509995Y12334923D02*
G01*
X8536970Y12334923D01*
X8683020Y12334923D02*
G01*
X8836944Y12334923D01*
X8982994Y12334923D02*
G01*
X9009994Y12334923D01*
X8509995Y12334923D02*
G01*
X8509995Y12834922D01*
X9009994Y12334923D02*
G01*
X9009994Y12834922D01*
D11*
X10391609Y12379835D02*
G01*
X10312600Y12379835D01*
X10312600Y12280115D02*
G01*
X10391609Y12280115D01*
X10406849Y12295355D02*
G01*
X10406849Y12364595D01*
X10188348Y12379835D02*
G01*
X10267358Y12379835D01*
X10267358Y12280115D02*
G01*
X10188348Y12280115D01*
X10173108Y12295355D02*
G01*
X10173108Y12364595D01*
X9446183Y13211512D02*
G01*
X9268343Y13211512D01*
X9446183Y12903674D02*
G01*
X9268343Y12903674D01*
X9782403Y13509223D02*
G01*
X9782403Y13430214D01*
X9882124Y13430214D02*
G01*
X9882124Y13509223D01*
X9866884Y13524463D02*
G01*
X9797643Y13524463D01*
X9782403Y13305962D02*
G01*
X9782403Y13384971D01*
X9882124Y13384971D02*
G01*
X9882124Y13305962D01*
X9866884Y13290722D02*
G01*
X9797643Y13290722D01*
X9179643Y12653832D02*
G01*
X9179643Y12750213D01*
X9634882Y12750213D01*
X9634882Y12653832D01*
X9179643Y12411354D02*
G01*
X9179643Y12314974D01*
X9634882Y12314974D01*
X9634882Y12411354D01*
X9757122Y13384971D02*
G01*
X9757122Y13313168D01*
X9657402Y13313168D01*
X9657402Y13384971D01*
X9757122Y13430214D02*
G01*
X9757122Y13502017D01*
X9657402Y13502017D01*
X9657402Y13430214D01*
X9729884Y13207453D02*
G01*
X9801687Y13207453D01*
X9801687Y13107733D01*
X9729884Y13107733D01*
X9684641Y13207453D02*
G01*
X9612838Y13207453D01*
X9612838Y13107733D01*
X9684641Y13107733D01*
X9607402Y13009224D02*
G01*
X9607402Y12930215D01*
X9707123Y12930215D02*
G01*
X9707123Y13009224D01*
X9691883Y13024464D02*
G01*
X9622642Y13024464D01*
X9607402Y12805963D02*
G01*
X9607402Y12884972D01*
X9707123Y12884972D02*
G01*
X9707123Y12805963D01*
X9691883Y12790723D02*
G01*
X9622642Y12790723D01*
X9150342Y12973852D02*
G01*
X9150342Y13114853D01*
X8969621Y13114853D02*
G01*
X8969621Y12973852D01*
X8984861Y12958612D02*
G01*
X9135102Y12958612D01*
X9150342Y13336092D02*
G01*
X9150342Y13195091D01*
X8969621Y13195091D02*
G01*
X8969621Y13336092D01*
X8984861Y13351332D02*
G01*
X9135102Y13351332D01*
X9947622Y12476474D02*
G01*
X9947622Y12617475D01*
X9766901Y12617475D02*
G01*
X9766901Y12476474D01*
X9782141Y12461234D02*
G01*
X9932382Y12461234D01*
X9947622Y12838714D02*
G01*
X9947622Y12697713D01*
X9766901Y12697713D02*
G01*
X9766901Y12838714D01*
X9782141Y12853954D02*
G01*
X9932382Y12853954D01*
X10245341Y12478854D02*
G01*
X10245341Y12619855D01*
X10064620Y12619855D02*
G01*
X10064620Y12478854D01*
X10079860Y12463614D02*
G01*
X10230101Y12463614D01*
X10245341Y12841094D02*
G01*
X10245341Y12700093D01*
X10064620Y12700093D02*
G01*
X10064620Y12841094D01*
X10079860Y12856334D02*
G01*
X10230101Y12856334D01*
D14*
X9976980Y8489988D02*
G01*
X9976980Y9029989D01*
X8802982Y9029989D02*
G01*
X9976980Y9029989D01*
X8802982Y8489988D02*
G01*
X8802982Y9029989D01*
X8802982Y8489988D02*
G01*
X9976980Y8489988D01*
X8989982Y8669977D02*
G01*
X8899989Y8669977D01*
X8899989Y8869977D01*
X8989982Y8869977D01*
X8989982Y8669977D01*
X9116982Y8669977D02*
G01*
X9026989Y8669977D01*
X9026989Y8869977D01*
X9116982Y8869977D01*
X9116982Y8669977D01*
X9243982Y8669977D02*
G01*
X9153989Y8669977D01*
X9153989Y8869977D01*
X9243982Y8869977D01*
X9243982Y8669977D01*
X9370982Y8669977D02*
G01*
X9280989Y8669977D01*
X9280989Y8869977D01*
X9370982Y8869977D01*
X9370982Y8669977D01*
X9497982Y8669977D02*
G01*
X9407989Y8669977D01*
X9407989Y8869977D01*
X9497982Y8869977D01*
X9497982Y8669977D01*
X9624982Y8669977D02*
G01*
X9534989Y8669977D01*
X9534989Y8869977D01*
X9624982Y8869977D01*
X9624982Y8669977D01*
X9751982Y8669977D02*
G01*
X9661989Y8669977D01*
X9661989Y8869977D01*
X9751982Y8869977D01*
X9751982Y8669977D01*
X9878982Y8670002D02*
G01*
X9788989Y8670002D01*
X9788989Y8870002D01*
X9878982Y8870002D01*
X9878982Y8670002D01*
D10*
X9201985Y11956473D02*
G01*
X9201985Y12146973D01*
X8947985Y12146973D01*
X8947985Y10622973D01*
X9201985Y10622973D01*
D13*
X9201985Y10622973D02*
G01*
X9201985Y11956473D01*
D14*
X9649978Y11499979D02*
G01*
X9649978Y11536865D01*
X9649978Y12103092D02*
G01*
X9649978Y12139978D01*
X10269974Y12139978D02*
G01*
X9649978Y12139978D01*
X10269974Y11499979D02*
G01*
X9649978Y11499979D01*
X10269974Y11499979D02*
G01*
X10269974Y11536865D01*
X10269974Y11703093D02*
G01*
X10269974Y11936864D01*
X10269974Y12103092D02*
G01*
X10269974Y12139978D01*
X9649978Y11703093D02*
G01*
X9649978Y11936864D01*
D11*
X9857359Y12396035D02*
G01*
X9761471Y12396035D01*
X9761471Y12263915D01*
X9857359Y12263915D01*
X9942601Y12396035D02*
G01*
X10038488Y12396035D01*
X10038488Y12263915D01*
X9942601Y12263915D01*
D14*
X8614986Y11073574D02*
G01*
X8614986Y11159975D01*
X8614986Y11159975D02*
G01*
X8714988Y11159975D01*
X8754986Y10978578D02*
G01*
X8754986Y11041372D01*
X8614986Y10859975D02*
G01*
X8614986Y10946376D01*
X8614986Y10859975D02*
G01*
X8714988Y10859975D01*
X8614984Y11853572D02*
G01*
X8614984Y11939973D01*
X8614984Y11939973D02*
G01*
X8714986Y11939973D01*
X8754983Y11758576D02*
G01*
X8754983Y11821370D01*
X8614984Y11639974D02*
G01*
X8614984Y11726374D01*
X8614984Y11639974D02*
G01*
X8714986Y11639974D01*
D11*
X8738920Y11402354D02*
G01*
X8738920Y11306467D01*
X8871041Y11306467D01*
X8871041Y11402354D01*
X8738920Y11487597D02*
G01*
X8738920Y11583484D01*
X8871041Y11583484D01*
X8871041Y11487597D01*
X8706043Y11487597D02*
G01*
X8706043Y11583484D01*
X8573922Y11583484D01*
X8573922Y11487597D01*
X8706043Y11402354D02*
G01*
X8706043Y11306467D01*
X8573922Y11306467D01*
X8573922Y11402354D01*
G75*
G01*
X10391610Y12280115D02*
G03*
X10406850Y12295355I0J15240D01*
G75*
G01*
X10406850Y12364596D02*
G03*
X10391610Y12379836I-15240J0D01*
G75*
G01*
X10188349Y12280115D02*
G02*
X10173109Y12295355I0J15240D01*
G75*
G01*
X10173109Y12364596D02*
G02*
X10188349Y12379836I15240J0D01*
G75*
G01*
X9882124Y13509224D02*
G03*
X9866884Y13524464I-15240J0D01*
G75*
G01*
X9797644Y13524464D02*
G03*
X9782404Y13509224I0J-15240D01*
G75*
G01*
X9882124Y13305963D02*
G02*
X9866884Y13290723I-15240J0D01*
G75*
G01*
X9797644Y13290723D02*
G02*
X9782404Y13305963I0J15240D01*
G75*
G01*
X9707123Y13009225D02*
G03*
X9691883Y13024465I-15240J0D01*
G75*
G01*
X9622643Y13024465D02*
G03*
X9607403Y13009225I0J-15240D01*
G75*
G01*
X9707123Y12805964D02*
G02*
X9691883Y12790724I-15240J0D01*
G75*
G01*
X9622643Y12790724D02*
G02*
X9607403Y12805964I0J15240D01*
G75*
G01*
X8969621Y12973853D02*
G03*
X8984861Y12958613I15240J0D01*
G75*
G01*
X9135102Y12958613D02*
G03*
X9150342Y12973853I0J15240D01*
G75*
G01*
X8969621Y13336092D02*
G02*
X8984861Y13351332I15240J0D01*
G75*
G01*
X9135102Y13351332D02*
G02*
X9150342Y13336092I0J-15240D01*
G75*
G01*
X9766902Y12476475D02*
G03*
X9782142Y12461235I15240J0D01*
G75*
G01*
X9932383Y12461235D02*
G03*
X9947623Y12476475I0J15240D01*
G75*
G01*
X9766902Y12838714D02*
G02*
X9782142Y12853954I15240J0D01*
G75*
G01*
X9932383Y12853954D02*
G02*
X9947623Y12838714I0J-15240D01*
G75*
G01*
X10064620Y12478855D02*
G03*
X10079860Y12463615I15240J0D01*
G75*
G01*
X10230101Y12463615D02*
G03*
X10245341Y12478855I0J15240D01*
G75*
G01*
X10064620Y12841094D02*
G02*
X10079860Y12856334I15240J0D01*
G75*
G01*
X10230101Y12856334D02*
G02*
X10245341Y12841094I0J-15240D01*
D15*
G75*
G01
X8158074Y9324492D02*
G03X8158074Y9324492I-15011J0D01*
G75*
G01
X7968285Y9400692D02*
G03X7968285Y9400692I-15011J0D01*
G75*
G01
X10726903Y9230487D02*
G03X10726903Y9230487I-15011J0D01*
G75*
G01
X10916691Y9154287D02*
G03X10916691Y9154287I-15011J0D01*
G75*
G01
X8137982Y10133178D02*
G03X8137982Y10133178I-15011J0D01*
G75*
G01
X7978419Y10219868D02*
G03X7978419Y10219868I-15011J0D01*
G75*
G01
X10132009Y10701782D02*
G03X10132009Y10701782I-15011J0D01*
G75*
G01
X10291572Y10615092D02*
G03X10291572Y10615092I-15011J0D01*
G75*
G01
X8885504Y10033076D02*
G03X8885504Y10033076I-15011J0D01*
G75*
G01
X8809304Y9843287D02*
G03X8809304Y9843287I-15011J0D01*
D14*
G75*
G01
X8909990Y12584913D02*
G03X8909990Y12584913I-150012J0D01*
D15*
G75*
G01
X9502419Y12890754D02*
G03X9502419Y12890754I-15011J0D01*
D14*
G75*
G01
X10153853Y11819992D02*
G03X10153853Y11819992I-193853J0D01*
G75*
G01
X10108108Y11819992D02*
G03X10108108Y11819992I-148107J0D01*
M02*
