G04 Layer: TopPasteMaskLayer*
G04 EasyEDA v6.5.38, 2023-11-28 08:19:45*
G04 5b7e501a1e2443daa6a4fc3441366d2c,52c161dc85b4440087471843f8ea1cfe,10*
G04 Gerber Generator version 0.2*
G04 Scale: 100 percent, Rotated: No, Reflected: No *
G04 Dimensions in millimeters *
G04 leading zeros omitted , absolute positions ,4 integer and 5 decimal *
%FSLAX45Y45*%
%MOMM*%

%AMMACRO1*21,1,$1,$2,0,0,$3*%
%ADD10O,1.9709892X0.6020054*%
%ADD11O,1.7314926000000002X0.3430016*%
%ADD12O,0.6020054X1.9709892*%
%ADD13MACRO1,1.4986X0.9982X90.0000*%
%ADD14MACRO1,1.5011X0.9982X90.0000*%
%ADD15R,1.0720X0.5320*%
%ADD16R,1.4000X2.1200*%
%ADD17MACRO1,0.76X1.5999X0.0000*%
%ADD18R,2.1000X1.2000*%
%ADD19R,1.0000X0.8000*%
%ADD20R,0.0191X0.8000*%

%LPD*%
G36*
X7957007Y11086490D02*
G01*
X7952994Y11082477D01*
X7952994Y11032439D01*
X7957007Y11028426D01*
X8002981Y11028426D01*
X8006994Y11032439D01*
X8006994Y11082477D01*
X8002981Y11086490D01*
G37*
G36*
X7957007Y11171529D02*
G01*
X7952994Y11167516D01*
X7952994Y11117478D01*
X7957007Y11113465D01*
X8002981Y11113465D01*
X8006994Y11117478D01*
X8006994Y11167516D01*
X8002981Y11171529D01*
G37*
G36*
X7731963Y11086490D02*
G01*
X7728000Y11082477D01*
X7728000Y11032439D01*
X7731963Y11028426D01*
X7777988Y11028426D01*
X7782001Y11032439D01*
X7782001Y11082477D01*
X7777988Y11086490D01*
G37*
G36*
X7731963Y11171529D02*
G01*
X7728000Y11167516D01*
X7728000Y11117478D01*
X7731963Y11113465D01*
X7777988Y11113465D01*
X7782001Y11117478D01*
X7782001Y11167516D01*
X7777988Y11171529D01*
G37*
G36*
X8827008Y9496501D02*
G01*
X8822994Y9492488D01*
X8822994Y9442399D01*
X8827008Y9438436D01*
X8872982Y9438436D01*
X8876995Y9442399D01*
X8876995Y9492488D01*
X8872982Y9496501D01*
G37*
G36*
X8827008Y9581540D02*
G01*
X8822994Y9577527D01*
X8822994Y9527489D01*
X8827008Y9523476D01*
X8872982Y9523476D01*
X8876995Y9527489D01*
X8876995Y9577527D01*
X8872982Y9581540D01*
G37*
G36*
X8985554Y9496501D02*
G01*
X8981541Y9492488D01*
X8981541Y9442399D01*
X8985554Y9438436D01*
X9031528Y9438436D01*
X9035542Y9442399D01*
X9035542Y9492488D01*
X9031528Y9496501D01*
G37*
G36*
X8985554Y9581540D02*
G01*
X8981541Y9577527D01*
X8981541Y9527489D01*
X8985554Y9523476D01*
X9031528Y9523476D01*
X9035542Y9527489D01*
X9035542Y9577527D01*
X9031528Y9581540D01*
G37*
G36*
X9144101Y9496501D02*
G01*
X9140139Y9492488D01*
X9140139Y9442399D01*
X9144101Y9438436D01*
X9190126Y9438436D01*
X9194139Y9442399D01*
X9194139Y9492488D01*
X9190126Y9496501D01*
G37*
G36*
X9144101Y9581540D02*
G01*
X9140139Y9577527D01*
X9140139Y9527489D01*
X9144101Y9523476D01*
X9190126Y9523476D01*
X9194139Y9527489D01*
X9194139Y9577527D01*
X9190126Y9581540D01*
G37*
G36*
X9302699Y9496501D02*
G01*
X9298686Y9492488D01*
X9298686Y9442399D01*
X9302699Y9438436D01*
X9348673Y9438436D01*
X9352686Y9442399D01*
X9352686Y9492488D01*
X9348673Y9496501D01*
G37*
G36*
X9302699Y9581540D02*
G01*
X9298686Y9577527D01*
X9298686Y9527489D01*
X9302699Y9523476D01*
X9348673Y9523476D01*
X9352686Y9527489D01*
X9352686Y9577527D01*
X9348673Y9581540D01*
G37*
G36*
X9461246Y9496501D02*
G01*
X9457232Y9492488D01*
X9457232Y9442399D01*
X9461246Y9438436D01*
X9507270Y9438436D01*
X9511233Y9442399D01*
X9511233Y9492488D01*
X9507270Y9496501D01*
G37*
G36*
X9461246Y9581540D02*
G01*
X9457232Y9577527D01*
X9457232Y9527489D01*
X9461246Y9523476D01*
X9507270Y9523476D01*
X9511233Y9527489D01*
X9511233Y9577527D01*
X9507270Y9581540D01*
G37*
G36*
X9619843Y9496501D02*
G01*
X9615830Y9492488D01*
X9615830Y9442399D01*
X9619843Y9438436D01*
X9665817Y9438436D01*
X9669830Y9442399D01*
X9669830Y9492488D01*
X9665817Y9496501D01*
G37*
G36*
X9619843Y9581540D02*
G01*
X9615830Y9577527D01*
X9615830Y9527489D01*
X9619843Y9523476D01*
X9665817Y9523476D01*
X9669830Y9527489D01*
X9669830Y9577527D01*
X9665817Y9581540D01*
G37*
G36*
X9778390Y9496501D02*
G01*
X9774428Y9492488D01*
X9774428Y9442399D01*
X9778390Y9438436D01*
X9824415Y9438436D01*
X9828428Y9442399D01*
X9828428Y9492488D01*
X9824415Y9496501D01*
G37*
G36*
X9778390Y9581540D02*
G01*
X9774428Y9577527D01*
X9774428Y9527489D01*
X9778390Y9523476D01*
X9824415Y9523476D01*
X9828428Y9527489D01*
X9828428Y9577527D01*
X9824415Y9581540D01*
G37*
G36*
X9936988Y9496501D02*
G01*
X9932974Y9492488D01*
X9932974Y9442399D01*
X9936988Y9438436D01*
X9982962Y9438436D01*
X9986975Y9442399D01*
X9986975Y9492488D01*
X9982962Y9496501D01*
G37*
G36*
X9936988Y9581540D02*
G01*
X9932974Y9577527D01*
X9932974Y9527489D01*
X9936988Y9523476D01*
X9982962Y9523476D01*
X9986975Y9527489D01*
X9986975Y9577527D01*
X9982962Y9581540D01*
G37*
G36*
X10216997Y12357455D02*
G01*
X10211968Y12352477D01*
X10211968Y12307468D01*
X10216997Y12302490D01*
X10264952Y12302490D01*
X10271963Y12307468D01*
X10271963Y12352477D01*
X10264952Y12357455D01*
G37*
G36*
X10314990Y12357455D02*
G01*
X10307980Y12352477D01*
X10307980Y12307468D01*
X10314990Y12302490D01*
X10362996Y12302490D01*
X10367975Y12307468D01*
X10367975Y12352477D01*
X10362996Y12357455D01*
G37*
G36*
X9809784Y13389610D02*
G01*
X9804755Y13382599D01*
X9804755Y13334593D01*
X9809784Y13329564D01*
X9854742Y13329564D01*
X9859772Y13334593D01*
X9859772Y13382599D01*
X9854742Y13389610D01*
G37*
G36*
X9809784Y13485571D02*
G01*
X9804755Y13480592D01*
X9804755Y13432586D01*
X9809784Y13425576D01*
X9854742Y13425576D01*
X9859772Y13432586D01*
X9859772Y13480592D01*
X9854742Y13485571D01*
G37*
G36*
X9684258Y13479170D02*
G01*
X9680244Y13475157D01*
X9680244Y13425119D01*
X9684258Y13421106D01*
X9730282Y13421106D01*
X9734245Y13425119D01*
X9734245Y13475157D01*
X9730282Y13479170D01*
G37*
G36*
X9684258Y13394080D02*
G01*
X9680244Y13390067D01*
X9680244Y13340029D01*
X9684258Y13336016D01*
X9730282Y13336016D01*
X9734245Y13340029D01*
X9734245Y13390067D01*
X9730282Y13394080D01*
G37*
G36*
X9639706Y13184581D02*
G01*
X9635693Y13180568D01*
X9635693Y13134594D01*
X9639706Y13130580D01*
X9689744Y13130580D01*
X9693757Y13134594D01*
X9693757Y13180568D01*
X9689744Y13184581D01*
G37*
G36*
X9724745Y13184581D02*
G01*
X9720783Y13180568D01*
X9720783Y13134594D01*
X9724745Y13130580D01*
X9774834Y13130580D01*
X9778847Y13134594D01*
X9778847Y13180568D01*
X9774834Y13184581D01*
G37*
G36*
X9634778Y12889585D02*
G01*
X9629749Y12882575D01*
X9629749Y12834569D01*
X9634778Y12829590D01*
X9679736Y12829590D01*
X9684766Y12834569D01*
X9684766Y12882575D01*
X9679736Y12889585D01*
G37*
G36*
X9634778Y12985597D02*
G01*
X9629749Y12980568D01*
X9629749Y12932613D01*
X9634778Y12925602D01*
X9679736Y12925602D01*
X9684766Y12932613D01*
X9684766Y12980568D01*
X9679736Y12985597D01*
G37*
G36*
X8998000Y13322452D02*
G01*
X8992971Y13317474D01*
X8992971Y13202462D01*
X8998000Y13197484D01*
X9039961Y13197992D01*
X9039961Y13241985D01*
X9084970Y13241985D01*
X9084970Y13196976D01*
X9125966Y13197484D01*
X9130995Y13202462D01*
X9130995Y13317474D01*
X9125966Y13322452D01*
G37*
G36*
X8998000Y13107466D02*
G01*
X8992971Y13102488D01*
X8992971Y12987477D01*
X8998000Y12982498D01*
X9125966Y12982498D01*
X9130995Y12987477D01*
X9130995Y13102488D01*
X9125966Y13107466D01*
X9084970Y13106958D01*
X9084970Y13062965D01*
X9039961Y13062965D01*
X9039961Y13107466D01*
G37*
G36*
X9795256Y12825120D02*
G01*
X9790277Y12820091D01*
X9790277Y12705080D01*
X9795256Y12700101D01*
X9837267Y12700609D01*
X9837267Y12744602D01*
X9882276Y12744602D01*
X9882276Y12699593D01*
X9923272Y12700101D01*
X9928250Y12705080D01*
X9928250Y12820091D01*
X9923272Y12825120D01*
G37*
G36*
X9795256Y12610084D02*
G01*
X9790277Y12605105D01*
X9790277Y12490094D01*
X9795256Y12485116D01*
X9923272Y12485116D01*
X9928250Y12490094D01*
X9928250Y12605105D01*
X9923272Y12610084D01*
X9882276Y12609576D01*
X9882276Y12565583D01*
X9837267Y12565583D01*
X9837267Y12610084D01*
G37*
G36*
X10092994Y12827457D02*
G01*
X10087965Y12822478D01*
X10087965Y12707467D01*
X10092994Y12702489D01*
X10135006Y12702997D01*
X10135006Y12746990D01*
X10179964Y12746990D01*
X10179964Y12701981D01*
X10220960Y12702489D01*
X10225989Y12707467D01*
X10225989Y12822478D01*
X10220960Y12827457D01*
G37*
G36*
X10092994Y12612471D02*
G01*
X10087965Y12607493D01*
X10087965Y12492482D01*
X10092994Y12487452D01*
X10220960Y12487452D01*
X10225989Y12492482D01*
X10225989Y12607493D01*
X10220960Y12612471D01*
X10179964Y12611963D01*
X10179964Y12567970D01*
X10135006Y12567970D01*
X10135006Y12612471D01*
G37*
G36*
X9780473Y12374981D02*
G01*
X9775494Y12370003D01*
X9775494Y12289993D01*
X9780473Y12284964D01*
X9860483Y12284964D01*
X9865461Y12289993D01*
X9865461Y12312751D01*
X9828479Y12312751D01*
X9828479Y12345771D01*
X9865461Y12345771D01*
X9865461Y12370003D01*
X9860483Y12374981D01*
G37*
G36*
X9940493Y12374981D02*
G01*
X9935464Y12370003D01*
X9935464Y12345771D01*
X9973462Y12345771D01*
X9973462Y12312751D01*
X9935464Y12312751D01*
X9935464Y12289993D01*
X9940493Y12284964D01*
X10019487Y12284964D01*
X10024465Y12289993D01*
X10024465Y12370003D01*
X10019487Y12374981D01*
G37*
G36*
X8764981Y11410492D02*
G01*
X8760002Y11405463D01*
X8760002Y11325453D01*
X8764981Y11320475D01*
X8844991Y11320475D01*
X8849969Y11325453D01*
X8849969Y11405463D01*
X8844991Y11410492D01*
X8822182Y11410492D01*
X8822182Y11373459D01*
X8789162Y11373459D01*
X8789162Y11410492D01*
G37*
G36*
X8764981Y11569496D02*
G01*
X8760002Y11564467D01*
X8760002Y11485473D01*
X8764981Y11480495D01*
X8789162Y11480495D01*
X8789162Y11518493D01*
X8822182Y11518493D01*
X8822182Y11480495D01*
X8844991Y11480495D01*
X8849969Y11485473D01*
X8849969Y11564467D01*
X8844991Y11569496D01*
G37*
G36*
X8599982Y11569496D02*
G01*
X8595004Y11564467D01*
X8595004Y11484457D01*
X8599982Y11479479D01*
X8622792Y11479479D01*
X8622792Y11516461D01*
X8655761Y11516461D01*
X8655761Y11479479D01*
X8679992Y11479479D01*
X8684971Y11484457D01*
X8684971Y11564467D01*
X8679992Y11569496D01*
G37*
G36*
X8599982Y11409476D02*
G01*
X8595004Y11404498D01*
X8595004Y11325504D01*
X8599982Y11320475D01*
X8679992Y11320475D01*
X8684971Y11325504D01*
X8684971Y11404498D01*
X8679992Y11409476D01*
X8655761Y11409476D01*
X8655761Y11371478D01*
X8622792Y11371478D01*
X8622792Y11409476D01*
G37*
D10*
G01*
X7946415Y9324492D03*
G01*
X7946415Y9197492D03*
G01*
X7946415Y9070492D03*
G01*
X7946415Y8943492D03*
G01*
X7946415Y8816492D03*
G01*
X7946415Y8689492D03*
G01*
X7946415Y8562492D03*
G01*
X7946415Y8435492D03*
G01*
X8493531Y9324492D03*
G01*
X8493531Y9197492D03*
G01*
X8493531Y9070492D03*
G01*
X8493531Y8943492D03*
G01*
X8493531Y8816492D03*
G01*
X8493531Y8689492D03*
G01*
X8493531Y8562492D03*
G01*
X8493531Y8435492D03*
G01*
X10908538Y9230487D03*
G01*
X10908538Y9357487D03*
G01*
X10908538Y9484487D03*
G01*
X10908538Y9611487D03*
G01*
X10908538Y9738487D03*
G01*
X10908538Y9865487D03*
G01*
X10908538Y9992487D03*
G01*
X10908538Y10119487D03*
G01*
X10361422Y9230487D03*
G01*
X10361422Y9357487D03*
G01*
X10361422Y9484487D03*
G01*
X10361422Y9611487D03*
G01*
X10361422Y9738487D03*
G01*
X10361422Y9865487D03*
G01*
X10361422Y9992487D03*
G01*
X10361422Y10119487D03*
D11*
G01*
X7963408Y10157485D03*
G01*
X7963408Y10092486D03*
G01*
X7963408Y10027488D03*
G01*
X7963408Y9962464D03*
G01*
X7963408Y9897465D03*
G01*
X7963408Y9832467D03*
G01*
X7963408Y9767468D03*
G01*
X7963408Y9702469D03*
G01*
X8536559Y10157485D03*
G01*
X8536559Y10092486D03*
G01*
X8536559Y10027488D03*
G01*
X8536559Y9962464D03*
G01*
X8536559Y9897465D03*
G01*
X8536559Y9832467D03*
G01*
X8536559Y9767468D03*
G01*
X8536559Y9702469D03*
G01*
X10276560Y10677474D03*
G01*
X10276560Y10742472D03*
G01*
X10276560Y10807471D03*
G01*
X10276560Y10872495D03*
G01*
X10276560Y10937494D03*
G01*
X10276560Y11002492D03*
G01*
X10276560Y11067491D03*
G01*
X10276560Y11132489D03*
G01*
X9703409Y10677474D03*
G01*
X9703409Y10742472D03*
G01*
X9703409Y10807471D03*
G01*
X9703409Y10872495D03*
G01*
X9703409Y10937494D03*
G01*
X9703409Y11002492D03*
G01*
X9703409Y11067491D03*
G01*
X9703409Y11132489D03*
D12*
G01*
X8870492Y9836429D03*
G01*
X8997492Y9836429D03*
G01*
X9124492Y9836429D03*
G01*
X9251492Y9836429D03*
G01*
X9378492Y9836429D03*
G01*
X9505492Y9836429D03*
G01*
X9632492Y9836429D03*
G01*
X9759492Y9836429D03*
G01*
X8870492Y10383545D03*
G01*
X8997492Y10383545D03*
G01*
X9124492Y10383545D03*
G01*
X9251492Y10383545D03*
G01*
X9378492Y10383545D03*
G01*
X9505492Y10383545D03*
G01*
X9632492Y10383545D03*
G01*
X9759492Y10383545D03*
D13*
G01*
X8609990Y12334976D03*
G01*
X8909964Y12334976D03*
D14*
G01*
X8909964Y12834975D03*
G01*
X8609990Y12834975D03*
D15*
G01*
X9472168Y12962585D03*
G01*
X9472168Y13057581D03*
G01*
X9472168Y13152577D03*
G01*
X9242348Y13152577D03*
G01*
X9242348Y13057581D03*
G01*
X9242348Y12962585D03*
D16*
G01*
X9610064Y12532588D03*
G01*
X9204452Y12532588D03*
D17*
G01*
X9834473Y9141472D03*
G01*
X9707473Y9141472D03*
G01*
X9580473Y9141472D03*
G01*
X9453473Y9141472D03*
G01*
X9326473Y9141472D03*
G01*
X9199473Y9141472D03*
G01*
X9072473Y9141472D03*
G01*
X8945473Y9141472D03*
G01*
X9834473Y8378482D03*
G01*
X9707473Y8378482D03*
G01*
X9580473Y8378482D03*
G01*
X9453473Y8378482D03*
G01*
X9326473Y8378482D03*
G01*
X9199473Y8378482D03*
G01*
X9072473Y8378482D03*
G01*
X8945473Y8378482D03*
D18*
G01*
X9659975Y12019965D03*
G01*
X10259974Y12019965D03*
G01*
X9659975Y11619966D03*
G01*
X10259974Y11619966D03*
D19*
G01*
X8799982Y11104981D03*
G01*
X8569985Y11009985D03*
G01*
X8799982Y10914964D03*
G01*
X8799982Y11884964D03*
G01*
X8569985Y11789968D03*
G01*
X8799982Y11694972D03*
M02*
