G04 Layer: BottomSolderMaskLayer*
G04 EasyEDA v6.5.38, 2023-11-28 08:19:45*
G04 5b7e501a1e2443daa6a4fc3441366d2c,52c161dc85b4440087471843f8ea1cfe,10*
G04 Gerber Generator version 0.2*
G04 Scale: 100 percent, Rotated: No, Reflected: No *
G04 Dimensions in millimeters *
G04 leading zeros omitted , absolute positions ,4 integer and 5 decimal *
%FSLAX45Y45*%
%MOMM*%

%AMMACRO1*1,1,$1,$2,$3*1,1,$1,$4,$5*1,1,$1,0-$2,0-$3*1,1,$1,0-$4,0-$5*20,1,$1,$2,$3,$4,$5,0*20,1,$1,$4,$5,0-$2,0-$3,0*20,1,$1,0-$2,0-$3,0-$4,0-$5,0*20,1,$1,0-$4,0-$5,$2,$3,0*4,1,4,$2,$3,$4,$5,0-$2,0-$3,0-$4,0-$5,$2,$3,0*%
%ADD10MACRO1,0.1016X0.8X-0.8X0.8X0.8*%
%ADD11C,1.7016*%
%ADD12C,1.6764*%
%ADD13R,1.6764X1.6764*%
%ADD14C,2.3016*%
%ADD15C,1.9016*%
%ADD16MACRO1,0.1016X0.9X0.9X0.9X-0.9*%

%LPD*%
D10*
G01*
X10599978Y10745975D03*
D11*
G01*
X10599978Y10999978D03*
G01*
X10599978Y11253978D03*
G01*
X10599978Y11507978D03*
G01*
X10599978Y11761978D03*
G01*
X10599978Y12015978D03*
G01*
X10599978Y12269978D03*
G01*
X10599978Y12523978D03*
G01*
X10599978Y12777978D03*
G01*
X10599978Y13031978D03*
G01*
X10599978Y13285978D03*
G01*
X10599978Y13539978D03*
G01*
X10599978Y13793978D03*
D10*
G01*
X8299983Y10745975D03*
D11*
G01*
X8299983Y10999978D03*
G01*
X8299983Y11253978D03*
G01*
X8299983Y11507978D03*
G01*
X8299983Y11761978D03*
G01*
X8299983Y12015978D03*
G01*
X8299983Y12269978D03*
G01*
X8299983Y12523978D03*
G01*
X8299983Y12777978D03*
G01*
X8299983Y13031978D03*
G01*
X8299983Y13285978D03*
G01*
X8299983Y13539978D03*
G01*
X8299983Y13793978D03*
D12*
G01*
X7994980Y12193981D03*
G01*
X7994980Y11939981D03*
D13*
G01*
X7994980Y11685981D03*
D14*
G01*
X7229983Y13730960D03*
G01*
X7229983Y13349960D03*
G01*
X7229983Y12968960D03*
G01*
X7229983Y12195962D03*
G01*
X7229983Y11814962D03*
G01*
X7229983Y11433962D03*
G01*
X7229983Y10660964D03*
G01*
X7229983Y10279964D03*
G01*
X7229983Y9898964D03*
G01*
X7229983Y9125991D03*
G01*
X7229983Y8744991D03*
G01*
X7229983Y8363991D03*
G01*
X11654967Y8363991D03*
G01*
X11654967Y8744991D03*
G01*
X11654967Y9125991D03*
G01*
X11654967Y9893985D03*
G01*
X11654967Y10274985D03*
G01*
X11654967Y10655985D03*
G01*
X11654993Y11423980D03*
G01*
X11654993Y11804980D03*
G01*
X11654993Y12185980D03*
G01*
X11654967Y12953974D03*
G01*
X11654967Y13334974D03*
G01*
X11654967Y13715974D03*
G01*
X10444479Y8444992D03*
G01*
X10825479Y8444992D03*
D15*
G01*
X9074988Y10749991D03*
G01*
X9074988Y11003991D03*
G01*
X9074988Y11257991D03*
G01*
X9074988Y11511991D03*
G01*
X9074988Y11765991D03*
D16*
G01*
X9074985Y12019973D03*
M02*
