G04 Layer: TopLayer*
G04 EasyEDA v6.5.38, 2023-11-28 08:19:45*
G04 5b7e501a1e2443daa6a4fc3441366d2c,52c161dc85b4440087471843f8ea1cfe,10*
G04 Gerber Generator version 0.2*
G04 Scale: 100 percent, Rotated: No, Reflected: No *
G04 Dimensions in millimeters *
G04 leading zeros omitted , absolute positions ,4 integer and 5 decimal *
%FSLAX45Y45*%
%MOMM*%

%AMMACRO1*21,1,$1,$2,0,0,$3*%
%ADD10C,0.5000*%
%ADD11C,0.2540*%
%ADD12C,1.0000*%
%ADD13MACRO1,0.54X0.5656X0.0000*%
%ADD14R,0.5400X0.5657*%
%ADD15O,1.9709892X0.6020054*%
%ADD16O,1.7314926000000002X0.3430016*%
%ADD17O,0.6020054X1.9709892*%
%ADD18MACRO1,1.4986X0.9982X90.0000*%
%ADD19MACRO1,1.5011X0.9982X90.0000*%
%ADD20MACRO1,0.54X0.7901X90.0000*%
%ADD21R,1.0720X0.5320*%
%ADD22MACRO1,0.54X0.7901X0.0000*%
%ADD23R,0.5400X0.7901*%
%ADD24R,1.4000X2.1200*%
%ADD25MACRO1,0.54X0.5656X-90.0000*%
%ADD26MACRO1,1.35X1.41X0.0000*%
%ADD27R,1.3500X1.4100*%
%ADD28MACRO1,0.76X1.6X0.0000*%
%ADD29R,2.1000X1.2000*%
%ADD30MACRO1,0.864X0.8065X-90.0000*%
%ADD31R,1.0000X0.8000*%
%ADD32MACRO1,0.864X0.8065X0.0000*%
%ADD33R,0.8640X0.8065*%
%ADD34MACRO1,1.6X1.6X90.0000*%
%ADD35C,1.6000*%
%ADD36C,1.5748*%
%ADD37R,1.5748X1.5748*%
%ADD38C,2.2000*%
%ADD39C,1.8000*%
%ADD40R,1.8000X1.8000*%
%ADD41C,0.6100*%
%ADD42C,0.6200*%
%ADD43C,0.0117*%

%LPD*%
G36*
X9044990Y12824968D02*
G01*
X9044990Y12434976D01*
X9059976Y12419990D01*
X9284970Y12419990D01*
X9284970Y12824968D01*
G37*
G36*
X9989972Y13529970D02*
G01*
X9989972Y13394994D01*
X9914991Y13394994D01*
X9914991Y13259968D01*
X9832238Y13257580D01*
X9832238Y13057581D01*
X9732264Y13057581D01*
X9732264Y12882575D01*
X10439958Y12884962D01*
X10439958Y13529970D01*
G37*
D10*
X8493531Y9324489D02*
G01*
X8448878Y9324489D01*
X8331733Y9207345D01*
X8331733Y9109326D01*
X7229983Y12195985D02*
G01*
X7069302Y12035304D01*
X7069302Y10821667D01*
X7229983Y10660987D01*
X7229983Y12195985D02*
G01*
X7075855Y12350112D01*
X7075855Y13576856D01*
X7229983Y13730983D01*
X11654967Y9893983D02*
G01*
X11815622Y9733328D01*
X11815622Y8524643D01*
X11654967Y8363988D01*
X10361422Y9230484D02*
G01*
X10444479Y9147426D01*
X10444479Y8444989D01*
D11*
X10908538Y9865484D02*
G01*
X10974527Y9865484D01*
X11584533Y10475490D01*
X11676837Y10475490D01*
X11803456Y10602109D01*
X11803456Y11656514D01*
X11654993Y11804977D01*
X9094038Y9466704D02*
G01*
X9008541Y9466704D01*
X9167113Y9466704D02*
G01*
X9094038Y9466704D01*
X9094038Y9466704D02*
G01*
X9094038Y9406430D01*
X8668156Y9578489D02*
G01*
X8696909Y9578489D01*
X8808694Y9466704D01*
X8668156Y9767465D02*
G01*
X8668156Y9578489D01*
X8311565Y9593323D02*
G01*
X8311565Y10014861D01*
X8454186Y10157482D01*
X8536559Y10157482D01*
X7946415Y9324489D02*
G01*
X8215249Y9593323D01*
X8311565Y9593323D01*
X9060992Y10515114D02*
G01*
X9060992Y10198681D01*
X8668156Y9805845D01*
X8668156Y9767465D01*
X8668156Y9767465D02*
G01*
X8536559Y9767465D01*
X9824643Y12258850D02*
G01*
X9865766Y12217727D01*
X9865766Y11992759D01*
X9796043Y11923036D01*
X9542932Y11923036D01*
X9703409Y11067488D02*
G01*
X9629647Y11067488D01*
X9519031Y11178105D01*
X9519031Y11899135D01*
X9542932Y11923036D01*
X9801402Y9466704D02*
G01*
X9822637Y9445470D01*
X9938740Y9445470D01*
X9959975Y9466704D01*
X8747912Y9173182D02*
G01*
X8808694Y9233964D01*
X8808694Y9466704D01*
X9642830Y9466704D02*
G01*
X9801402Y9466704D01*
X9484258Y9466704D02*
G01*
X9505492Y9445470D01*
X9621596Y9445470D01*
X9642830Y9466704D01*
X9484258Y9466704D02*
G01*
X9325686Y9466704D01*
X9959975Y9466704D02*
G01*
X9982479Y9466704D01*
X9982479Y9466704D02*
G01*
X10014889Y9466704D01*
X9703409Y10677471D02*
G01*
X9223349Y10677471D01*
X8898305Y12019988D02*
G01*
X8898305Y11502743D01*
X9015958Y11385090D01*
X9124315Y11385090D01*
X9223349Y11286055D01*
X9223349Y10677471D01*
X8898305Y12019988D02*
G01*
X8822131Y12019988D01*
X8609990Y12232129D01*
X9074988Y12019988D02*
G01*
X8898305Y12019988D01*
X9060992Y10515114D02*
G01*
X8977274Y10515114D01*
X8870492Y10408333D01*
X8870492Y10383542D01*
X8849995Y9466704D02*
G01*
X8811971Y9466704D01*
X8811971Y9466704D02*
G01*
X8808694Y9466704D01*
X8493531Y8943489D02*
G01*
X8518220Y8943489D01*
X8747912Y9173182D01*
X8747912Y9173182D02*
G01*
X8887663Y9033405D01*
X9884105Y9033405D01*
X9959975Y9109275D01*
X9959975Y9466704D01*
X10908538Y9230484D02*
G01*
X10804245Y9230484D01*
X10423245Y9611484D01*
X10361422Y9611484D01*
X10014889Y9466704D02*
G01*
X10159669Y9611484D01*
X10361422Y9611484D01*
X9824643Y12329970D02*
G01*
X9824643Y12258850D01*
X9074988Y12019988D02*
G01*
X9133941Y12019988D01*
X8609990Y12334974D02*
G01*
X8609990Y12232129D01*
X9857257Y12557579D02*
G01*
X9857257Y12459180D01*
X9824643Y12329970D02*
G01*
X9824643Y12426566D01*
X9857257Y12459180D01*
X9703409Y10742470D02*
G01*
X9568205Y10742470D01*
X10679049Y9862233D02*
G01*
X10679049Y9668329D01*
X10862894Y9484484D01*
X10908538Y9484484D01*
X8536559Y9897463D02*
G01*
X8462340Y9897463D01*
X8417839Y9852962D01*
X8417839Y9655578D01*
X8432418Y9640999D01*
X8268131Y10159260D02*
G01*
X8184946Y10242445D01*
X8184946Y13424938D01*
X8299983Y13539975D01*
X8536559Y9832464D02*
G01*
X8605494Y9832464D01*
X8861933Y10088902D01*
X8861933Y10144401D01*
X9703409Y11002490D02*
G01*
X9777958Y11002490D01*
X9820376Y11044908D01*
X9820376Y11149403D01*
X9729368Y11240411D01*
X9644405Y11240411D01*
X9703409Y10807468D02*
G01*
X9596094Y10807468D01*
X9407093Y10996470D01*
X9407093Y11358801D01*
X9135821Y11630073D01*
X9023984Y11630073D01*
X8956903Y11697154D01*
X8956903Y11869290D01*
X9922052Y10810034D02*
G01*
X9922052Y11568681D01*
X8997492Y9836426D02*
G01*
X8997492Y10052352D01*
X9212706Y9553267D02*
G01*
X9253753Y9594314D01*
X9264904Y9594314D01*
X9378492Y9707902D01*
X9378492Y9836426D01*
X9199499Y9249407D02*
G01*
X9225229Y9275137D01*
X9225229Y9540745D01*
X9212706Y9553267D01*
X9199499Y9141482D02*
G01*
X9199499Y9249407D01*
X9167113Y9553267D02*
G01*
X9212706Y9553267D01*
X9124492Y10070462D02*
G01*
X9124492Y10383542D01*
X9453499Y9249407D02*
G01*
X9453499Y9269803D01*
X9453499Y9141482D02*
G01*
X9453499Y9249407D01*
X9429343Y9553267D02*
G01*
X9429343Y9628959D01*
X9484258Y9553267D02*
G01*
X9429343Y9553267D01*
X9759492Y10383542D02*
G01*
X9863480Y10487530D01*
X9863480Y11619989D01*
X8299983Y13031975D02*
G01*
X8299983Y12963827D01*
X8531986Y12731823D01*
X8733205Y12731823D01*
X8742425Y12741043D01*
X8569985Y11722072D02*
G01*
X8565159Y11717246D01*
X8565159Y11306502D01*
X8649487Y11222174D01*
X8649487Y10502110D01*
X8569985Y11789991D02*
G01*
X8569985Y11722072D01*
X9975316Y11857352D02*
G01*
X9792893Y11674929D01*
X9792893Y11619964D01*
X10599978Y11507975D02*
G01*
X10250601Y11857352D01*
X9975316Y11857352D01*
X9975316Y11857352D02*
G01*
X9975316Y12329970D01*
X9726447Y11619964D02*
G01*
X9660000Y11619964D01*
X9726447Y11619964D02*
G01*
X9792893Y11619964D01*
X10344480Y12329970D02*
G01*
X10344480Y12275055D01*
X9975316Y12329970D02*
G01*
X10043540Y12329970D01*
X10043540Y12329970D02*
G01*
X10098633Y12274877D01*
X10344302Y12274877D01*
X10344480Y12275055D01*
X8609990Y12834973D02*
G01*
X8609990Y12937944D01*
X8609990Y12937944D02*
G01*
X8674506Y12937944D01*
X8725966Y12886484D01*
X8725966Y12834973D01*
D10*
X7229983Y11433985D02*
G01*
X7382383Y11281585D01*
X7382383Y10051387D01*
X7229983Y9898987D01*
X8828354Y10223014D02*
G01*
X8899677Y10223014D01*
X8997492Y10320830D01*
X8997492Y10383542D01*
X8299983Y11507975D02*
G01*
X8433612Y11374346D01*
X8433612Y10617756D01*
X8828354Y10223014D01*
X8536559Y9962461D02*
G01*
X8625128Y9962461D01*
X8718397Y10055730D01*
X8718397Y10113058D01*
X8828354Y10223014D01*
X7229983Y9898987D02*
G01*
X7439736Y9689233D01*
X7950174Y9689233D01*
X7963408Y9702467D01*
X9759492Y10208333D02*
G01*
X9632492Y10335333D01*
X9632492Y10383542D01*
X10276560Y11132487D02*
G01*
X10176941Y11132487D01*
X9992918Y10948464D01*
X9992918Y10441759D01*
X9759492Y10208333D01*
X9759492Y10208333D02*
G01*
X9759492Y9836426D01*
X8299983Y11507975D02*
G01*
X8479612Y11687604D01*
X8479612Y12404620D01*
X8745169Y12670177D01*
X8860434Y12670177D01*
X8909964Y12719707D01*
X9074988Y11765988D02*
G01*
X9460179Y11380797D01*
X9460179Y11025832D01*
X9613518Y10872492D01*
X9703409Y10872492D01*
X8945499Y8318395D02*
G01*
X8063509Y8318395D01*
X7946415Y8435489D01*
X8945499Y8318395D02*
G01*
X8945499Y8258299D01*
X8945499Y8378492D02*
G01*
X8945499Y8318395D01*
X10599978Y12777975D02*
G01*
X10731601Y12646352D01*
X10731601Y11131598D01*
X10599978Y10999975D01*
X8909964Y12834973D02*
G01*
X8909964Y12719707D01*
X8909964Y13267941D02*
G01*
X8909964Y12834973D01*
X7229983Y8363988D02*
G01*
X7874914Y8363988D01*
X7946415Y8435489D01*
X10825479Y8444989D02*
G01*
X10638790Y8258299D01*
X9834499Y8258299D01*
X10908538Y10119484D02*
G01*
X11118468Y10119484D01*
X11654967Y10655983D01*
X10276560Y11132487D02*
G01*
X10467466Y11132487D01*
X10599978Y10999975D01*
X8949690Y13307667D02*
G01*
X8909964Y13267941D01*
X9059976Y13254989D02*
G01*
X9002367Y13254989D01*
X8949692Y13307664D01*
X9834499Y8378492D02*
G01*
X9834499Y8258299D01*
X9707499Y8318395D02*
G01*
X9767595Y8258299D01*
X9834499Y8258299D01*
X9707499Y8318395D02*
G01*
X9707499Y8258299D01*
X9707499Y8378492D02*
G01*
X9707499Y8318395D01*
X9580499Y8318395D02*
G01*
X9640595Y8258299D01*
X9707499Y8258299D01*
X9580499Y8318395D02*
G01*
X9580499Y8258299D01*
X9580499Y8378492D02*
G01*
X9580499Y8318395D01*
X9453499Y8318395D02*
G01*
X9513595Y8258299D01*
X9580499Y8258299D01*
X9453499Y8318395D02*
G01*
X9453499Y8258299D01*
X9453499Y8378492D02*
G01*
X9453499Y8318395D01*
X9326499Y8318395D02*
G01*
X9386595Y8258299D01*
X9453499Y8258299D01*
X9326499Y8318395D02*
G01*
X9326499Y8258299D01*
X9326499Y8378492D02*
G01*
X9326499Y8318395D01*
X9199499Y8318395D02*
G01*
X9259595Y8258299D01*
X9326499Y8258299D01*
X9199499Y8318395D02*
G01*
X9199499Y8258299D01*
X9199499Y8378492D02*
G01*
X9199499Y8318395D01*
X9072499Y8318395D02*
G01*
X9132595Y8258299D01*
X9199499Y8258299D01*
X9072499Y8318395D02*
G01*
X9072499Y8258299D01*
X9072499Y8378492D02*
G01*
X9072499Y8318395D01*
X8945499Y8258299D02*
G01*
X9072499Y8258299D01*
D11*
X8569985Y11077902D02*
G01*
X8512581Y11135306D01*
X8512581Y11253975D01*
X8569985Y11009983D02*
G01*
X8569985Y11077902D01*
X9834499Y9141482D02*
G01*
X9834499Y9384027D01*
X9880701Y9504042D02*
G01*
X9880701Y9528909D01*
X9905060Y9553267D01*
X9959975Y9553267D02*
G01*
X9905060Y9553267D01*
X9505492Y10383542D02*
G01*
X9505492Y10114150D01*
X9690658Y9928984D01*
X9690658Y9752429D01*
X9769551Y9673536D01*
X9784791Y9673536D01*
X9905060Y9553267D01*
X9326499Y9333659D02*
G01*
X9270593Y9389564D01*
X9270593Y9553089D01*
X9270771Y9553267D01*
X9326499Y9249407D02*
G01*
X9326499Y9333659D01*
X9505492Y9836426D02*
G01*
X9505492Y9716284D01*
X9584512Y9637265D01*
X9298228Y9553267D02*
G01*
X9325686Y9553267D01*
X9298228Y9553267D02*
G01*
X9270771Y9553267D01*
X9326499Y9141482D02*
G01*
X9326499Y9249407D01*
X7229983Y10279987D02*
G01*
X7083221Y10133225D01*
X7083221Y9528959D01*
X7922691Y8689489D01*
X7946415Y8689489D01*
X7475042Y9760099D02*
G01*
X7475042Y11569926D01*
X7229983Y11814985D01*
X7946415Y8943489D02*
G01*
X7979232Y8943489D01*
X8188096Y9152354D01*
X8188096Y9180192D01*
X7963408Y10157482D02*
G01*
X8033435Y10157482D01*
X8080324Y10110594D01*
X8080324Y9666932D01*
X7807325Y9393933D01*
X7807325Y8909047D01*
X7899882Y8816489D01*
X7946415Y8816489D01*
X7963408Y10092484D02*
G01*
X7893684Y10092484D01*
X7848752Y10137416D01*
X7848752Y10295227D01*
X6959981Y9078998D02*
G01*
X6959981Y8803891D01*
X7201382Y8562489D01*
X7946415Y8562489D01*
X7963408Y10027485D02*
G01*
X7865770Y10027485D01*
X7832496Y10060759D01*
X7544561Y8501148D02*
G01*
X8427872Y8501148D01*
X8493531Y8435489D01*
X9585680Y9553267D02*
G01*
X9525939Y9613008D01*
X9525939Y9617834D01*
X9441992Y9701781D01*
X9441992Y10035689D01*
X9251492Y10226189D01*
X9251492Y10383542D01*
X9585680Y9553267D02*
G01*
X9615373Y9553267D01*
X9585680Y9553267D02*
G01*
X9585680Y9526165D01*
X9569704Y9510189D01*
X9642830Y9553267D02*
G01*
X9615373Y9553267D01*
X9580499Y9141482D02*
G01*
X9580499Y9382249D01*
X10276560Y10807468D02*
G01*
X10353776Y10807468D01*
X10400487Y10760758D01*
X10400487Y10158549D01*
X10361422Y10119484D01*
X10908538Y9738484D02*
G01*
X10878007Y9738484D01*
X10737621Y9878870D01*
X10737621Y9886515D01*
X10692104Y9932032D01*
X10268661Y9932032D01*
X10234218Y9966474D01*
X10234218Y10635129D01*
X10276560Y10677471D01*
X7946415Y9070489D02*
G01*
X7983702Y9070489D01*
X8372957Y9459744D01*
X8372957Y9560176D01*
X8375980Y9563199D01*
X8375980Y9611763D01*
X8372957Y9614786D01*
X8372957Y10018570D01*
X8446871Y10092484D01*
X8536559Y10092484D01*
X7946415Y9197489D02*
G01*
X7998561Y9197489D01*
X8060639Y9259567D01*
X7563713Y9777981D02*
G01*
X7563713Y13016252D01*
X7229983Y13349983D01*
X7229983Y8744988D02*
G01*
X7348981Y8625989D01*
X8430031Y8625989D01*
X8493531Y8562489D01*
X10908538Y9357484D02*
G01*
X11042472Y9357484D01*
X11654967Y8744988D01*
X10908538Y9611484D02*
G01*
X10991468Y9611484D01*
X11654967Y10274983D01*
X10361422Y9992484D02*
G01*
X10401782Y9992484D01*
X11412067Y11002769D01*
X11412067Y13092071D01*
X11654967Y13334972D01*
X8536559Y10027485D02*
G01*
X8607704Y10027485D01*
X8655735Y10075517D01*
X8655735Y10221059D01*
X9251492Y9836426D02*
G01*
X9251492Y9746587D01*
X9063456Y9558550D01*
X9063456Y9553267D01*
X9008541Y9553267D02*
G01*
X8995562Y9553267D01*
X8949156Y9506861D01*
X8949156Y9424388D01*
X9072499Y9301045D01*
X9072499Y9141482D01*
X9025915Y9553267D02*
G01*
X9008541Y9553267D01*
X9025915Y9553267D02*
G01*
X9063456Y9553267D01*
X9707270Y13364309D02*
G01*
X9707270Y13336216D01*
X9074988Y10749988D02*
G01*
X8939072Y10885904D01*
X8939072Y10999848D01*
X8799982Y11138938D01*
X8799982Y11138938D02*
G01*
X8799982Y11172898D01*
X8799982Y11104979D02*
G01*
X8799982Y11138938D01*
X8804986Y11369647D02*
G01*
X8804986Y11177902D01*
X8799982Y11172898D01*
X8639987Y11520294D02*
G01*
X8639987Y11588544D01*
X8639987Y11588544D02*
G01*
X8639987Y11691033D01*
X8766022Y11817068D01*
X8799982Y11817068D01*
X8639987Y11520294D02*
G01*
X8639987Y11452070D01*
X8639987Y11452070D02*
G01*
X8640165Y11451892D01*
X8856014Y11451892D01*
X8945194Y11362712D01*
X8945194Y11133782D01*
X9074988Y11003988D01*
X8799982Y11884987D02*
G01*
X8799982Y11817068D01*
X8799982Y10914987D02*
G01*
X8799982Y10982906D01*
X8639987Y11369647D02*
G01*
X8639987Y11301422D01*
X8639987Y11301422D02*
G01*
X8690279Y11251130D01*
X8690279Y11058649D01*
X8766022Y10982906D01*
X8799982Y10982906D01*
X8799982Y11694970D02*
G01*
X8799982Y11627076D01*
X8804986Y11520294D02*
G01*
X8804986Y11622072D01*
X8799982Y11627076D01*
X9709988Y9628273D02*
G01*
X9676333Y9628273D01*
X9571329Y9733277D01*
X9571329Y9975441D01*
X9378492Y10168277D01*
X9378492Y10383542D01*
X9707499Y9141482D02*
G01*
X9707499Y9406633D01*
X9709988Y9628273D02*
G01*
X9709988Y9589767D01*
X9746488Y9553267D01*
X9801402Y9553267D02*
G01*
X9746488Y9553267D01*
X8945499Y9141482D02*
G01*
X8945499Y9249407D01*
X8904909Y9553267D02*
G01*
X8905519Y9552658D01*
X8905519Y9289387D01*
X8945499Y9249407D01*
X8894825Y9553267D02*
G01*
X8904909Y9553267D01*
X8849995Y9553267D02*
G01*
X8894825Y9553267D01*
X8904909Y9553267D02*
G01*
X9124492Y9772850D01*
X9124492Y9836426D01*
X8870492Y9836426D02*
G01*
X8784361Y9836426D01*
X8758250Y9810315D01*
X10276560Y10742470D02*
G01*
X10202011Y10742470D01*
X10159542Y10700001D01*
X10159542Y9903152D01*
X10265460Y9797234D01*
X10483722Y9797234D01*
X10908538Y9992484D02*
G01*
X10856315Y9992484D01*
X10791393Y9927562D01*
D10*
X11654967Y12953972D02*
G01*
X11488877Y12787881D01*
X11488877Y11590093D01*
X11654993Y11423977D01*
D11*
X9703409Y10937491D02*
G01*
X9789413Y10937491D01*
X9818065Y10908840D01*
X9818065Y10652782D01*
X9753117Y10587835D01*
X9289821Y10587835D01*
X9182684Y10480697D01*
X9182684Y10100713D01*
X9320301Y9963096D01*
X9320301Y9732566D01*
X9278264Y9690529D01*
D10*
X9059976Y13254989D02*
G01*
X9289971Y13254989D01*
X9359986Y13184974D01*
X9359986Y13124972D01*
X9427370Y13057578D01*
X9472165Y13057578D01*
X9059976Y13054964D02*
G01*
X9062590Y13057578D01*
X9242351Y13057578D01*
X9059974Y12884962D02*
G01*
X9059976Y12884965D01*
X9059976Y13054964D01*
D12*
X9242348Y12962585D02*
G01*
X9204452Y12924688D01*
X9204452Y12532588D01*
X9610064Y12532588D02*
G01*
X9635058Y12557582D01*
X9857257Y12557582D01*
X10002525Y12557582D02*
G01*
X10107269Y12557582D01*
X9857257Y12557582D02*
G01*
X10002525Y12557582D01*
X10154988Y12759987D02*
G01*
X10154980Y12884972D01*
X9857231Y12757658D02*
G01*
X9854981Y12899974D01*
D11*
X9832263Y13462101D02*
G01*
X9821036Y13450874D01*
X9707270Y13450874D01*
X9707270Y13450874D02*
G01*
X9599980Y13450874D01*
D10*
X10154988Y12759987D02*
G01*
X10581987Y12759987D01*
X10599978Y12777978D01*
X10599978Y12777978D02*
G01*
X10235463Y12413462D01*
X10235463Y12329972D01*
X9074985Y11765983D02*
G01*
X9328970Y12019968D01*
X9659988Y12019968D01*
D11*
X9242348Y12962585D02*
G01*
X9351848Y12853085D01*
X9657257Y12853085D01*
X9657334Y12962128D02*
G01*
X9472168Y12962636D01*
D10*
X9472168Y13057581D02*
G01*
X9824981Y13057581D01*
X9750552Y13157580D02*
G01*
X9750552Y13057581D01*
X9663988Y13157580D02*
G01*
X9658984Y13152577D01*
X9472168Y13152577D01*
X9634225Y13152577D02*
G01*
X9634225Y13291266D01*
X9707270Y13364311D01*
X9707270Y13364311D02*
G01*
X9718497Y13353084D01*
X9832263Y13353084D01*
X8909964Y13267941D02*
G01*
X8719464Y13267941D01*
X8433587Y13553818D01*
X8433587Y13660371D01*
X8299983Y13793975D01*
X9242348Y13057581D02*
G01*
X9242348Y13152577D01*
X9824643Y12329972D02*
G01*
X9719645Y12224974D01*
X9404982Y12224974D01*
X9199991Y12019983D01*
X9074985Y12019983D01*
D11*
X7754988Y11143256D02*
G01*
X7754988Y11953989D01*
X7994980Y12193981D01*
X7979978Y11143256D02*
G01*
X7814990Y11308257D01*
X7814990Y11744975D01*
X7994980Y11924967D01*
X7994980Y11939981D01*
X8536559Y10157487D02*
G01*
X8536559Y10258402D01*
X8339983Y10454977D01*
X7979984Y10919978D02*
G01*
X7979984Y11056696D01*
X7979984Y11056696D02*
G01*
X7754985Y11056696D01*
X9223349Y10677471D02*
G01*
X9060992Y10515114D01*
D13*
G01*
X7979984Y11056694D03*
D14*
G01*
X7979994Y11143259D03*
D13*
G01*
X7754985Y11056694D03*
D14*
G01*
X7754975Y11143259D03*
D15*
G01*
X7946415Y9324492D03*
G01*
X7946415Y9197492D03*
G01*
X7946415Y9070492D03*
G01*
X7946415Y8943492D03*
G01*
X7946415Y8816492D03*
G01*
X7946415Y8689492D03*
G01*
X7946415Y8562492D03*
G01*
X7946415Y8435492D03*
G01*
X8493531Y9324492D03*
G01*
X8493531Y9197492D03*
G01*
X8493531Y9070492D03*
G01*
X8493531Y8943492D03*
G01*
X8493531Y8816492D03*
G01*
X8493531Y8689492D03*
G01*
X8493531Y8562492D03*
G01*
X8493531Y8435492D03*
G01*
X10908538Y9230487D03*
G01*
X10908538Y9357487D03*
G01*
X10908538Y9484487D03*
G01*
X10908538Y9611487D03*
G01*
X10908538Y9738487D03*
G01*
X10908538Y9865487D03*
G01*
X10908538Y9992487D03*
G01*
X10908538Y10119487D03*
G01*
X10361422Y9230487D03*
G01*
X10361422Y9357487D03*
G01*
X10361422Y9484487D03*
G01*
X10361422Y9611487D03*
G01*
X10361422Y9738487D03*
G01*
X10361422Y9865487D03*
G01*
X10361422Y9992487D03*
G01*
X10361422Y10119487D03*
D16*
G01*
X7963408Y10157485D03*
G01*
X7963408Y10092486D03*
G01*
X7963408Y10027488D03*
G01*
X7963408Y9962464D03*
G01*
X7963408Y9897465D03*
G01*
X7963408Y9832467D03*
G01*
X7963408Y9767468D03*
G01*
X7963408Y9702469D03*
G01*
X8536559Y10157485D03*
G01*
X8536559Y10092486D03*
G01*
X8536559Y10027488D03*
G01*
X8536559Y9962464D03*
G01*
X8536559Y9897465D03*
G01*
X8536559Y9832467D03*
G01*
X8536559Y9767468D03*
G01*
X8536559Y9702469D03*
G01*
X10276560Y10677474D03*
G01*
X10276560Y10742472D03*
G01*
X10276560Y10807471D03*
G01*
X10276560Y10872495D03*
G01*
X10276560Y10937494D03*
G01*
X10276560Y11002492D03*
G01*
X10276560Y11067491D03*
G01*
X10276560Y11132489D03*
G01*
X9703409Y10677474D03*
G01*
X9703409Y10742472D03*
G01*
X9703409Y10807471D03*
G01*
X9703409Y10872495D03*
G01*
X9703409Y10937494D03*
G01*
X9703409Y11002492D03*
G01*
X9703409Y11067491D03*
G01*
X9703409Y11132489D03*
D17*
G01*
X8870492Y9836429D03*
G01*
X8997492Y9836429D03*
G01*
X9124492Y9836429D03*
G01*
X9251492Y9836429D03*
G01*
X9378492Y9836429D03*
G01*
X9505492Y9836429D03*
G01*
X9632492Y9836429D03*
G01*
X9759492Y9836429D03*
G01*
X8870492Y10383545D03*
G01*
X8997492Y10383545D03*
G01*
X9124492Y10383545D03*
G01*
X9251492Y10383545D03*
G01*
X9378492Y10383545D03*
G01*
X9505492Y10383545D03*
G01*
X9632492Y10383545D03*
G01*
X9759492Y10383545D03*
D13*
G01*
X8849982Y9466698D03*
D14*
G01*
X8849995Y9553270D03*
D13*
G01*
X9008546Y9466695D03*
D14*
G01*
X9008541Y9553270D03*
D13*
G01*
X9167116Y9466695D03*
D14*
G01*
X9167113Y9553270D03*
D13*
G01*
X9325681Y9466695D03*
D14*
G01*
X9325686Y9553270D03*
D13*
G01*
X9484255Y9466698D03*
D14*
G01*
X9484258Y9553270D03*
D13*
G01*
X9642828Y9466698D03*
D14*
G01*
X9642830Y9553270D03*
D13*
G01*
X9801405Y9466698D03*
D14*
G01*
X9801402Y9553270D03*
D13*
G01*
X9959980Y9466698D03*
D14*
G01*
X9959975Y9553270D03*
D18*
G01*
X8609995Y12334974D03*
G01*
X8909969Y12334974D03*
D19*
G01*
X8909969Y12834973D03*
G01*
X8609995Y12834973D03*
D20*
G01*
X10344485Y12329975D03*
G01*
X10235473Y12329975D03*
D21*
G01*
X9472168Y12962585D03*
G01*
X9472168Y13057581D03*
G01*
X9472168Y13152577D03*
G01*
X9242348Y13152577D03*
G01*
X9242348Y13057581D03*
G01*
X9242348Y12962585D03*
D22*
G01*
X9832263Y13462099D03*
D23*
G01*
X9832263Y13353084D03*
D24*
G01*
X9610064Y12532588D03*
G01*
X9204452Y12532588D03*
D13*
G01*
X9707262Y13450876D03*
D14*
G01*
X9707270Y13364311D03*
D25*
G01*
X9663979Y13157593D03*
G01*
X9750545Y13157593D03*
D22*
G01*
X9657262Y12962100D03*
D23*
G01*
X9657257Y12853085D03*
D26*
G01*
X9059981Y13054970D03*
D27*
G01*
X9059976Y13254964D03*
D26*
G01*
X9857262Y12557592D03*
D27*
G01*
X9857257Y12757607D03*
D26*
G01*
X10154980Y12559972D03*
D27*
G01*
X10154970Y12759969D03*
D28*
G01*
X9834479Y9141477D03*
G01*
X9707479Y9141477D03*
G01*
X9580479Y9141477D03*
G01*
X9453479Y9141477D03*
G01*
X9326479Y9141477D03*
G01*
X9199479Y9141477D03*
G01*
X9072479Y9141477D03*
G01*
X8945479Y9141477D03*
G01*
X9834479Y8378487D03*
G01*
X9707479Y8378487D03*
G01*
X9580479Y8378487D03*
G01*
X9453479Y8378487D03*
G01*
X9326479Y8378487D03*
G01*
X9199479Y8378487D03*
G01*
X9072479Y8378487D03*
G01*
X8945479Y8378487D03*
D29*
G01*
X9659975Y12019965D03*
G01*
X10259974Y12019965D03*
G01*
X9659975Y11619966D03*
G01*
X10259974Y11619966D03*
D30*
G01*
X9824655Y12329975D03*
G01*
X9975305Y12329975D03*
D31*
G01*
X8799982Y11104981D03*
G01*
X8569985Y11009985D03*
G01*
X8799982Y10914964D03*
G01*
X8799982Y11884964D03*
G01*
X8569985Y11789968D03*
G01*
X8799982Y11694972D03*
D32*
G01*
X8804981Y11369650D03*
D33*
G01*
X8804986Y11520296D03*
D32*
G01*
X8639982Y11520300D03*
D33*
G01*
X8639987Y11369649D03*
D34*
G01*
X10599978Y10745975D03*
D35*
G01*
X10599978Y10999978D03*
G01*
X10599978Y11253978D03*
G01*
X10599978Y11507978D03*
G01*
X10599978Y11761978D03*
G01*
X10599978Y12015978D03*
G01*
X10599978Y12269978D03*
G01*
X10599978Y12523978D03*
G01*
X10599978Y12777978D03*
G01*
X10599978Y13031978D03*
G01*
X10599978Y13285978D03*
G01*
X10599978Y13539978D03*
G01*
X10599978Y13793978D03*
D34*
G01*
X8299983Y10745975D03*
D35*
G01*
X8299983Y10999978D03*
G01*
X8299983Y11253978D03*
G01*
X8299983Y11507978D03*
G01*
X8299983Y11761978D03*
G01*
X8299983Y12015978D03*
G01*
X8299983Y12269978D03*
G01*
X8299983Y12523978D03*
G01*
X8299983Y12777978D03*
G01*
X8299983Y13031978D03*
G01*
X8299983Y13285978D03*
G01*
X8299983Y13539978D03*
G01*
X8299983Y13793978D03*
D36*
G01*
X7994980Y12193981D03*
G01*
X7994980Y11939981D03*
D37*
G01*
X7994980Y11685981D03*
D38*
G01*
X7229983Y13730960D03*
G01*
X7229983Y13349960D03*
G01*
X7229983Y12968960D03*
G01*
X7229983Y12195962D03*
G01*
X7229983Y11814962D03*
G01*
X7229983Y11433962D03*
G01*
X7229983Y10660964D03*
G01*
X7229983Y10279964D03*
G01*
X7229983Y9898964D03*
G01*
X7229983Y9125991D03*
G01*
X7229983Y8744991D03*
G01*
X7229983Y8363991D03*
G01*
X11654967Y8363991D03*
G01*
X11654967Y8744991D03*
G01*
X11654967Y9125991D03*
G01*
X11654967Y9893985D03*
G01*
X11654967Y10274985D03*
G01*
X11654967Y10655985D03*
G01*
X11654993Y11423980D03*
G01*
X11654993Y11804980D03*
G01*
X11654993Y12185980D03*
G01*
X11654967Y12953974D03*
G01*
X11654967Y13334974D03*
G01*
X11654967Y13715974D03*
G01*
X10444479Y8444992D03*
G01*
X10825479Y8444992D03*
D39*
G01*
X9074988Y10749991D03*
G01*
X9074988Y11003991D03*
G01*
X9074988Y11257991D03*
G01*
X9074988Y11511991D03*
G01*
X9074988Y11765991D03*
D40*
G01*
X9074988Y12019965D03*
D41*
G01*
X8331733Y9109329D03*
G01*
X9094038Y9406432D03*
G01*
X8311565Y9593326D03*
G01*
X8668156Y9578492D03*
G01*
X10679049Y9862235D03*
G01*
X9568205Y10742472D03*
G01*
X8432418Y9641001D03*
G01*
X8268131Y10159263D03*
G01*
X9278264Y9690531D03*
G01*
X8861933Y10144404D03*
G01*
X9644405Y11240414D03*
G01*
X8956903Y11869293D03*
G01*
X9922052Y11568684D03*
G01*
X9922052Y10810036D03*
G01*
X8997492Y10052354D03*
G01*
X9124492Y10070464D03*
G01*
X9453499Y9269806D03*
G01*
X9429343Y9628962D03*
G01*
X8742425Y12741046D03*
G01*
X9863480Y11619992D03*
G01*
X8649487Y10502112D03*
G01*
X8725966Y12834975D03*
G01*
X8512581Y11253978D03*
G01*
X9880701Y9504045D03*
G01*
X9834499Y9384029D03*
G01*
X9326499Y9333661D03*
G01*
X9584512Y9637268D03*
G01*
X7475042Y9760102D03*
G01*
X8188096Y9180195D03*
G01*
X6959981Y9079001D03*
G01*
X7848752Y10295229D03*
G01*
X7544561Y8501151D03*
G01*
X7832496Y10060762D03*
G01*
X9580499Y9382252D03*
G01*
X9569704Y9510191D03*
G01*
X7563713Y9777984D03*
G01*
X8060639Y9259570D03*
G01*
X8655735Y10221061D03*
G01*
X9709988Y9628276D03*
G01*
X9707499Y9406636D03*
G01*
X8758250Y9810318D03*
G01*
X10791393Y9927564D03*
G01*
X10483722Y9797237D03*
D42*
G01*
X9059976Y12884962D03*
G01*
X10002520Y12557582D03*
G01*
X9599980Y13450874D03*
G01*
X8339988Y10454970D03*
G01*
X7979994Y10919968D03*
M02*
