M48
METRIC,LZ,000.000
;FILE_FORMAT=3:3
;TYPE=PLATED
;Layer: PTH_Through
;EasyEDA v6.5.29, 2023-07-08 22:53:17
;f4c6c8685b5442dcac5e84d632293f1e,52c161dc85b4440087471843f8ea1cfe,10
;Gerber Generator version 0.2
;Holesize 1 = 0.305 mm
T01C0.305
;Holesize 2 = 1.000 mm
T02C1.000
;Holesize 3 = 1.101 mm
T03C1.101
;Holesize 4 = 1.200 mm
T04C1.200
%
G05
G90
T01
X103106Y110641
X085902Y114607
X089364Y128742
X103066Y122599
X101149Y108844
X086632Y118178
X098519Y121170
X098875Y119737
X101678Y114626
T02
X084190Y096000
X086730Y096000
X089270Y096000
X091810Y096000
X084190Y089500
X086730Y089500
X089270Y089500
X091810Y089500
X097190Y096000
X099730Y096000
X102270Y096000
X104810Y096000
X097190Y089500
X099730Y089500
X102270Y089500
X104810Y089500
X098770Y131500
X096230Y131500
T03
X106000Y107460
X106000Y110000
X106000Y112540
X106000Y115080
X106000Y117620
X106000Y120160
X106000Y122700
X106000Y125240
X106000Y127780
X106000Y130320
X106000Y132860
X106000Y135400
X106000Y137940
X083000Y107460
X083000Y110000
X083000Y112540
X083000Y115080
X083000Y117620
X083000Y120160
X083000Y122700
X083000Y125240
X083000Y127780
X083000Y130320
X083000Y132860
X083000Y135400
X083000Y137940
T04
X097670Y117200
X095130Y117200
X100350Y112500
X097810Y112500
X095270Y112500
X092730Y112500
X090190Y112500
X087650Y112500
M30
