G04 Layer: BottomLayer*
G04 EasyEDA v6.5.29, 2023-07-08 22:53:17*
G04 f4c6c8685b5442dcac5e84d632293f1e,52c161dc85b4440087471843f8ea1cfe,10*
G04 Gerber Generator version 0.2*
G04 Scale: 100 percent, Rotated: No, Reflected: No *
G04 Dimensions in millimeters *
G04 leading zeros omitted , absolute positions ,4 integer and 5 decimal *
%FSLAX45Y45*%
%MOMM*%

%AMMACRO1*21,1,$1,$2,0,0,$3*%
%ADD10C,0.2540*%
%ADD11MACRO1,1.6X1.6X90.0000*%
%ADD12C,1.6000*%
%ADD13R,2.0000X2.0000*%
%ADD14C,2.0000*%
%ADD15R,1.7000X1.7000*%
%ADD16C,1.7000*%
%ADD17C,1.8000*%
%ADD18R,1.8000X1.8000*%
%ADD19C,0.6096*%

%LPD*%
D10*
X8764978Y11249987D02*
G01*
X8882936Y11249987D01*
X10310594Y11064135D02*
G01*
X10310594Y11143460D01*
X10083949Y11370104D01*
X9222407Y11370104D01*
X9145978Y11293675D01*
X9145978Y11208763D01*
X9056545Y11119330D01*
X8954615Y11119330D01*
X8882936Y11191008D01*
X8882936Y11249987D01*
X10480977Y9599978D02*
G01*
X10365559Y9715395D01*
X9296397Y9715395D01*
X9180979Y9599978D01*
X9512983Y11719989D02*
G01*
X9427969Y11634975D01*
X8273641Y11634975D01*
X8189160Y11550495D01*
X8189160Y11364795D01*
X8299980Y11253975D01*
X8590226Y11460680D02*
G01*
X8383521Y11253975D01*
X8299980Y11253975D01*
X10599976Y12777975D02*
G01*
X9828959Y12006958D01*
X9828959Y11753999D01*
X9862969Y11719989D01*
X9894948Y11719989D02*
G01*
X9894948Y11652704D01*
X10547677Y10999975D01*
X10599976Y10999975D01*
X8418979Y9599978D02*
G01*
X8418979Y8949966D01*
X8418979Y8949966D02*
G01*
X8531959Y8949966D01*
X9718977Y8949966D02*
G01*
X9606023Y8949966D01*
X9606023Y8949966D02*
G01*
X9484179Y8828123D01*
X8625558Y8828123D01*
X8531959Y8921722D01*
X8531959Y8949966D01*
X9018978Y11249987D02*
G01*
X8746258Y11522707D01*
X8314712Y11522707D01*
X8299980Y11507975D01*
X9862969Y11719989D02*
G01*
X9894948Y11719989D01*
X9830965Y11719989D02*
G01*
X9862969Y11719989D01*
X9830965Y11719989D02*
G01*
X9556468Y11445491D01*
X9214482Y11445491D01*
X9018978Y11249987D01*
X9766983Y11719989D02*
G01*
X9830965Y11719989D01*
X10599976Y13285975D02*
G01*
X10709399Y13176552D01*
X10709399Y12887398D01*
X10599976Y12777975D01*
X9622990Y13149983D02*
G01*
X9758982Y13285975D01*
X10599976Y13285975D01*
X8299980Y13793975D02*
G01*
X8408083Y13685873D01*
X8408083Y13581733D01*
X8839832Y13149983D01*
X9622990Y13149983D01*
X9526978Y11249987D02*
G01*
X9022966Y10745975D01*
X8299980Y10745975D01*
X9272978Y11249987D02*
G01*
X9022966Y10999975D01*
X8299980Y10999975D01*
X8936377Y12874165D02*
G01*
X8840188Y12777975D01*
X8299980Y12777975D01*
X10599976Y11507975D02*
G01*
X10306555Y11801396D01*
X10306555Y12259942D01*
X10599976Y10853950D02*
G01*
X10626976Y10853950D01*
X10709399Y10936373D01*
X10709399Y11398552D01*
X10599976Y11507975D01*
X10599976Y10745975D02*
G01*
X10599976Y10853950D01*
X10114861Y10884405D02*
G01*
X9868227Y10637771D01*
X8194164Y10637771D01*
X8146895Y10685040D01*
X8146895Y12370889D01*
X8299980Y12523975D01*
X8663200Y11817753D02*
G01*
X8663200Y11906755D01*
X8299980Y12269975D01*
X9851920Y12117016D02*
G01*
X9776355Y12117016D01*
X8353397Y13539975D01*
X8299980Y13539975D01*
X10167820Y11462636D02*
G01*
X10167820Y11693420D01*
X9887506Y11973735D01*
D11*
G01*
X10599978Y10745975D03*
D12*
G01*
X10599978Y10999978D03*
G01*
X10599978Y11253978D03*
G01*
X10599978Y11507978D03*
G01*
X10599978Y11761978D03*
G01*
X10599978Y12015978D03*
G01*
X10599978Y12269978D03*
G01*
X10599978Y12523978D03*
G01*
X10599978Y12777978D03*
G01*
X10599978Y13031978D03*
G01*
X10599978Y13285978D03*
G01*
X10599978Y13539978D03*
G01*
X10599978Y13793978D03*
D11*
G01*
X8299983Y10745975D03*
D12*
G01*
X8299983Y10999978D03*
G01*
X8299983Y11253978D03*
G01*
X8299983Y11507978D03*
G01*
X8299983Y11761978D03*
G01*
X8299983Y12015978D03*
G01*
X8299983Y12269978D03*
G01*
X8299983Y12523978D03*
G01*
X8299983Y12777978D03*
G01*
X8299983Y13031978D03*
G01*
X8299983Y13285978D03*
G01*
X8299983Y13539978D03*
G01*
X8299983Y13793978D03*
D13*
G01*
X9766985Y11719966D03*
D14*
G01*
X9512985Y11719966D03*
D15*
G01*
X8418982Y9599980D03*
D16*
G01*
X8672982Y9599980D03*
G01*
X8926982Y9599980D03*
G01*
X9180982Y9599980D03*
D15*
G01*
X8418982Y8949969D03*
D16*
G01*
X8672982Y8949969D03*
G01*
X8926982Y8949969D03*
G01*
X9180982Y8949969D03*
G01*
X9718979Y9599980D03*
G01*
X9972979Y9599980D03*
G01*
X10226979Y9599980D03*
G01*
X10480979Y9599980D03*
D15*
G01*
X9718979Y8949969D03*
D16*
G01*
X9972979Y8949969D03*
G01*
X10226979Y8949969D03*
G01*
X10480979Y8949969D03*
D17*
G01*
X10034981Y11249964D03*
G01*
X9780981Y11249964D03*
G01*
X9526981Y11249964D03*
G01*
X9272981Y11249964D03*
G01*
X9018981Y11249964D03*
D18*
G01*
X8764981Y11249990D03*
D16*
G01*
X9876993Y13149961D03*
G01*
X9622993Y13149961D03*
D19*
G01*
X10310596Y11064138D03*
G01*
X8590229Y11460683D03*
G01*
X8936380Y12874167D03*
G01*
X10306558Y12259945D03*
G01*
X10114864Y10884408D03*
G01*
X8663203Y11817756D03*
G01*
X9851923Y12117019D03*
G01*
X9887508Y11973737D03*
G01*
X10167823Y11462638D03*
M02*
