G04 Layer: TopLayer*
G04 EasyEDA v6.5.29, 2023-07-08 22:53:17*
G04 f4c6c8685b5442dcac5e84d632293f1e,52c161dc85b4440087471843f8ea1cfe,10*
G04 Gerber Generator version 0.2*
G04 Scale: 100 percent, Rotated: No, Reflected: No *
G04 Dimensions in millimeters *
G04 leading zeros omitted , absolute positions ,4 integer and 5 decimal *
%FSLAX45Y45*%
%MOMM*%

%AMMACRO1*21,1,$1,$2,0,0,$3*%
%ADD10C,0.2540*%
%ADD11MACRO1,0.864X0.8065X0.0000*%
%ADD12R,0.8640X0.8065*%
%ADD13O,1.7999964X0.5999988*%
%ADD14R,0.7620X1.5240*%
%ADD15R,2.1000X1.2000*%
%ADD16R,0.8999X0.8000*%
%ADD17MACRO1,1.728X1.485X0.0000*%
%ADD18R,1.7280X1.4850*%
%ADD19R,0.9000X0.8000*%
%ADD20R,0.8000X0.9000*%
%ADD21R,1.0000X0.8000*%
%ADD22MACRO1,1.6X1.6X90.0000*%
%ADD23C,1.6000*%
%ADD24R,2.0000X2.0000*%
%ADD25C,2.0000*%
%ADD26R,1.7000X1.7000*%
%ADD27C,1.7000*%
%ADD28C,1.8000*%
%ADD29R,1.8000X1.8000*%
%ADD30C,0.6096*%
%ADD31C,0.0120*%

%LPD*%
D10*
X8906482Y13030959D02*
G01*
X8877830Y13002308D01*
X8877830Y12642771D01*
X8299980Y12064921D01*
X8299980Y12015975D01*
X8906482Y13083054D02*
G01*
X8906482Y13030959D01*
X8906482Y13083054D02*
G01*
X8906482Y13135124D01*
X8906482Y13135124D02*
G01*
X8899471Y13135124D01*
X8819969Y13214626D01*
X10056314Y10827484D02*
G01*
X10183314Y10700484D01*
X10227180Y10700484D01*
X9632820Y10827484D02*
G01*
X10056314Y10827484D01*
X10599976Y12269975D02*
G01*
X10454078Y12124077D01*
X10454078Y11314351D01*
X10369699Y11229972D01*
X10261165Y11229972D01*
X10056314Y11025121D01*
X10056314Y10827484D01*
X9247172Y10700484D02*
G01*
X9189082Y10758573D01*
X8721722Y10758573D01*
X8652812Y10827484D01*
X9632820Y10827484D02*
G01*
X9574730Y10769394D01*
X9316082Y10769394D01*
X9247172Y10700484D01*
X10319966Y11154661D02*
G01*
X10319966Y11073508D01*
X10310594Y11064135D01*
X10290705Y11018009D02*
G01*
X10310594Y11037897D01*
X10310594Y11064135D01*
X10290705Y11018009D02*
G01*
X10227180Y10954484D01*
X10290705Y11018009D02*
G01*
X10373662Y10935027D01*
X10373662Y10935027D02*
G01*
X10373662Y10392686D01*
X10599976Y10166372D01*
X10599976Y13539975D02*
G01*
X10724055Y13415896D01*
X10724055Y11211709D01*
X10639320Y11126975D01*
X10565610Y11126975D01*
X10373662Y10935027D01*
X9180979Y8949966D02*
G01*
X9180979Y9599978D01*
X10480977Y8949966D02*
G01*
X10480977Y9599978D01*
X9219994Y13365299D02*
G01*
X9661674Y13365299D01*
X9876990Y13149983D01*
X9019994Y13365299D02*
G01*
X9219994Y13365299D01*
X8819969Y13365299D02*
G01*
X8619970Y13365299D01*
X9019994Y13365299D02*
G01*
X8819969Y13365299D01*
X9247172Y10954484D02*
G01*
X9129138Y10954484D01*
X8882936Y11200686D01*
X8882936Y11249987D01*
X10599976Y10166372D02*
G01*
X10480977Y10047373D01*
X10480977Y9599978D01*
X8764978Y11249987D02*
G01*
X8882936Y11249987D01*
X9876990Y13149983D02*
G01*
X10034038Y13307032D01*
X10289969Y13307032D01*
X10599976Y10234648D02*
G01*
X10599976Y10166372D01*
X10409958Y13307032D02*
G01*
X10409958Y13349958D01*
X10599976Y13539975D01*
X10339981Y12937944D02*
G01*
X10409958Y13007921D01*
X10409958Y13307032D01*
X10409958Y13307032D02*
G01*
X10289969Y13307032D01*
X10289969Y13409241D02*
G01*
X10289969Y13307032D01*
X10339981Y12869974D02*
G01*
X10339981Y12937944D01*
X10319966Y11373584D02*
G01*
X10319966Y11393319D01*
X10192103Y11521183D01*
X9711789Y11521183D01*
X9512983Y11719989D01*
X8554971Y12009981D02*
G01*
X8554971Y11942010D01*
X8554971Y11942010D02*
G01*
X8476714Y11863753D01*
X8476714Y11574193D01*
X8590226Y11460680D01*
X10319966Y11305308D02*
G01*
X10319966Y11373584D01*
X9946053Y12149985D02*
G01*
X10057000Y12149985D01*
X9929975Y12779982D02*
G01*
X9929975Y12166064D01*
X9946053Y12149985D01*
X9805692Y11847954D02*
G01*
X9844554Y11847954D01*
X9946053Y11949452D01*
X9946053Y12149985D01*
X9766983Y11847954D02*
G01*
X9805692Y11847954D01*
X9805692Y11847954D02*
G01*
X9805692Y11756895D01*
X10016030Y11756895D01*
X10029974Y11742950D01*
X10029974Y11674650D02*
G01*
X10029974Y11742950D01*
X10289969Y12988516D02*
G01*
X10266880Y12965427D01*
X10266880Y12812392D01*
X10281333Y12797939D01*
X10339981Y12797939D01*
X8299980Y11507975D02*
G01*
X8523145Y11284811D01*
X8523145Y10799747D01*
X8622408Y10700484D01*
X8652812Y10700484D01*
X9247172Y10573484D02*
G01*
X9189082Y10631573D01*
X8721722Y10631573D01*
X8652812Y10700484D01*
X9507369Y10573484D02*
G01*
X9247172Y10573484D01*
X9718977Y8949966D02*
G01*
X9718977Y9599978D01*
X9507369Y10573484D02*
G01*
X9507369Y10159921D01*
X9601807Y10065484D01*
X9632820Y10065484D01*
X9632820Y10700484D02*
G01*
X9599114Y10700484D01*
X9507369Y10608739D01*
X9507369Y10573484D01*
X8418979Y9599978D02*
G01*
X8531959Y9599978D01*
X8652812Y10065484D02*
G01*
X8531959Y9944630D01*
X8531959Y9599978D01*
X10227180Y10573484D02*
G01*
X10169090Y10631573D01*
X9701730Y10631573D01*
X9632820Y10700484D01*
X9632820Y10065484D02*
G01*
X9718977Y9979327D01*
X9718977Y9599978D01*
X9160482Y12321054D02*
G01*
X9267466Y12321054D01*
X9419130Y12169391D01*
X9419130Y12098550D01*
X9669726Y11847954D01*
X9766983Y11847954D01*
X9160482Y12321054D02*
G01*
X9160482Y12373124D01*
X9160482Y12268959D02*
G01*
X9160482Y12321054D01*
X9033482Y12321054D02*
G01*
X9033482Y12373124D01*
X9033482Y12268959D02*
G01*
X9033482Y12321054D01*
X8906482Y12321054D02*
G01*
X8906482Y12373124D01*
X8906482Y12268959D02*
G01*
X8906482Y12321054D01*
X8906482Y12321054D02*
G01*
X9033482Y12321054D01*
X8779482Y12268959D02*
G01*
X8779482Y12373124D01*
X8779482Y12373124D02*
G01*
X8906482Y12373124D01*
X9160482Y12373124D02*
G01*
X9033482Y12373124D01*
X9766983Y11719989D02*
G01*
X9766983Y11847954D01*
X10339981Y12729969D02*
G01*
X10339981Y12797939D01*
X10289969Y13090725D02*
G01*
X10289969Y12988516D01*
X10339981Y12729969D02*
G01*
X10551970Y12729969D01*
X10599976Y12777975D01*
X9589970Y12779982D02*
G01*
X9589970Y13116963D01*
X9622990Y13149983D01*
X10189969Y12149985D02*
G01*
X10057000Y12149985D01*
X8794976Y11592938D02*
G01*
X8760990Y11592938D01*
X8706888Y11647040D01*
X8706888Y11778612D01*
X8721747Y11793471D01*
X8721747Y11842036D01*
X8706888Y11856895D01*
X8706888Y11967258D01*
X8734270Y11994639D01*
X9319994Y11994639D01*
X8794976Y11524993D02*
G01*
X8794976Y11592938D01*
X9033482Y13030959D02*
G01*
X9033482Y12926794D01*
X9033482Y12926794D02*
G01*
X8989006Y12926794D01*
X8936377Y12874165D01*
X9033482Y13083054D02*
G01*
X9033482Y13030959D01*
X9033482Y13083054D02*
G01*
X9033482Y13135124D01*
X9019994Y13214626D02*
G01*
X9019994Y13146351D01*
X9033482Y13135124D02*
G01*
X9031221Y13135124D01*
X9019994Y13146351D01*
X8564979Y11619989D02*
G01*
X8564979Y11883031D01*
X8669271Y11987324D01*
X8669271Y12327658D01*
X8979684Y12638072D01*
X9588065Y12638072D01*
X9662005Y12712011D01*
X9662005Y12779982D01*
X10189969Y12549985D02*
G01*
X10057000Y12549985D01*
X10035994Y12779982D02*
G01*
X10057000Y12758976D01*
X10057000Y12549985D01*
X10035994Y12779982D02*
G01*
X10002009Y12779982D01*
X10069979Y12779982D02*
G01*
X10035994Y12779982D01*
X10322938Y12549985D02*
G01*
X10322938Y12276325D01*
X10306555Y12259942D01*
X10189969Y12549985D02*
G01*
X10322938Y12549985D01*
X10599976Y10385295D02*
G01*
X10599976Y10745975D01*
X9695990Y12779982D02*
G01*
X9769091Y12853083D01*
X9996878Y12853083D01*
X10002009Y12847952D01*
X10002009Y12779982D01*
X9695990Y12779982D02*
G01*
X9662005Y12779982D01*
X9729975Y12779982D02*
G01*
X9695990Y12779982D01*
X9170108Y13146351D02*
G01*
X9219994Y13146351D01*
X9160482Y13109089D02*
G01*
X9160482Y13136725D01*
X9170108Y13146351D01*
X9170108Y13146351D02*
G01*
X9170108Y13275663D01*
X9162717Y13283054D01*
X8551059Y13283054D01*
X8299980Y13031975D01*
X9160482Y13030959D02*
G01*
X9160482Y13109089D01*
X9219994Y13214626D02*
G01*
X9219994Y13146351D01*
X10227180Y10827484D02*
G01*
X10171783Y10827484D01*
X10114861Y10884405D01*
X9632820Y10954484D02*
G01*
X9477524Y11109779D01*
X9232643Y11109779D01*
X9141838Y11200584D01*
X9141838Y11299187D01*
X9068813Y11372212D01*
X8805948Y11372212D01*
X8663200Y11514960D01*
X8663200Y11817753D01*
X9069981Y11924637D02*
G01*
X9141152Y11924637D01*
X9141152Y11924637D02*
G01*
X9141152Y11905485D01*
X9620704Y11425933D01*
X9859032Y11425933D01*
X10034978Y11249987D01*
X9780978Y11249987D02*
G01*
X9738916Y11249987D01*
X9425835Y11563068D01*
X9070108Y11563068D01*
X9069981Y11562941D01*
X9069981Y11494640D02*
G01*
X9069981Y11562941D01*
X10199977Y11821970D02*
G01*
X10127028Y11821970D01*
X10029974Y11825297D02*
G01*
X10123700Y11825297D01*
X10127028Y11821970D01*
X10199977Y11745948D02*
G01*
X10267947Y11745948D01*
X10365102Y11843103D01*
X10365102Y12289101D01*
X10599976Y12523975D01*
X10199977Y11677977D02*
G01*
X10199977Y11745948D01*
X9247172Y10446484D02*
G01*
X9217632Y10446484D01*
X8926979Y10155831D01*
X8926979Y9599978D01*
X8672979Y8949966D02*
G01*
X8300946Y9322000D01*
X8300946Y10115750D01*
X8631679Y10446484D01*
X8652812Y10446484D01*
X9247172Y10319484D02*
G01*
X9227817Y10319484D01*
X9053979Y10145646D01*
X9053979Y9076966D01*
X8926979Y8949966D01*
X9632820Y10573484D02*
G01*
X9662360Y10573484D01*
X9972977Y10262867D01*
X9972977Y9599978D01*
X10227180Y10446484D02*
G01*
X10197640Y10446484D01*
X10100002Y10348846D01*
X10100002Y9726952D01*
X10226977Y9599978D01*
X9632820Y10446484D02*
G01*
X9652175Y10446484D01*
X9845977Y10252682D01*
X9845977Y9076966D01*
X9972977Y8949966D01*
X10227180Y10319484D02*
G01*
X10254409Y10319484D01*
X10353977Y10219916D01*
X10353977Y9076966D01*
X10226977Y8949966D01*
X8299980Y13285975D02*
G01*
X8146945Y13132940D01*
X8146945Y11761797D01*
X8259315Y11649428D01*
X8312045Y11649428D01*
X8570643Y11390830D01*
X8570643Y11036653D01*
X8652812Y10954484D01*
X8784968Y11914985D02*
G01*
X8784968Y11847014D01*
X9249991Y11645313D02*
G01*
X9249991Y11713588D01*
X9249991Y11713588D02*
G01*
X9116565Y11847014D01*
X8784968Y11847014D01*
X9249991Y11494640D02*
G01*
X9249991Y11426365D01*
X9249991Y11426365D02*
G01*
X9240771Y11417145D01*
X9016616Y11417145D01*
X8998684Y11435077D01*
X8998684Y11574015D01*
X9069981Y11645313D01*
X8794976Y11714985D02*
G01*
X8794976Y11647015D01*
X9069981Y11645313D02*
G01*
X8796677Y11645313D01*
X8794976Y11647015D01*
X8784968Y12104977D02*
G01*
X8862946Y12104977D01*
X9069981Y12109447D02*
G01*
X8867416Y12109447D01*
X8862946Y12104977D01*
X9069981Y12109447D02*
G01*
X9069981Y12143585D01*
X9069981Y12075309D02*
G01*
X9069981Y12109447D01*
X9319994Y12145312D02*
G01*
X9248823Y12145312D01*
X9069981Y12143585D02*
G01*
X9247096Y12143585D01*
X9248823Y12145312D01*
X8652812Y10573484D02*
G01*
X8682352Y10573484D01*
X8781006Y10474830D01*
X8781006Y9708004D01*
X8672979Y9599978D01*
X8299980Y11761975D02*
G01*
X8191497Y11870458D01*
X8191497Y12318540D01*
X8269932Y12396975D01*
X8338995Y12396975D01*
X8631196Y12689177D01*
X8631196Y13135124D01*
X8631196Y13135124D02*
G01*
X8619970Y13146351D01*
X8779482Y13135124D02*
G01*
X8631196Y13135124D01*
X8619970Y13214626D02*
G01*
X8619970Y13146351D01*
X8779482Y13030959D02*
G01*
X8779482Y13135124D01*
X9887506Y11973735D02*
G01*
X9887506Y12081431D01*
X9851920Y12117016D01*
X9247172Y10827484D02*
G01*
X9310672Y10890984D01*
X9842980Y10890984D01*
X10167820Y11215824D01*
X10167820Y11462636D01*
D11*
G01*
X8619982Y13365298D03*
D12*
G01*
X8619972Y13214654D03*
D11*
G01*
X8819982Y13365298D03*
D12*
G01*
X8819972Y13214654D03*
D11*
G01*
X9019987Y13365298D03*
D12*
G01*
X9019997Y13214654D03*
D11*
G01*
X9219981Y13365298D03*
D12*
G01*
X9219971Y13214654D03*
D13*
G01*
X9247174Y10065486D03*
G01*
X9247174Y10192486D03*
G01*
X9247174Y10319486D03*
G01*
X9247174Y10446486D03*
G01*
X9247174Y10573486D03*
G01*
X9247174Y10700486D03*
G01*
X9247174Y10827486D03*
G01*
X9247174Y10954486D03*
G01*
X8652814Y10065486D03*
G01*
X8652814Y10192486D03*
G01*
X8652814Y10319486D03*
G01*
X8652814Y10446486D03*
G01*
X8652814Y10573486D03*
G01*
X8652814Y10700486D03*
G01*
X8652814Y10827486D03*
G01*
X8652814Y10954486D03*
G01*
X10227183Y10065486D03*
G01*
X10227183Y10192486D03*
G01*
X10227183Y10319486D03*
G01*
X10227183Y10446486D03*
G01*
X10227183Y10573486D03*
G01*
X10227183Y10700486D03*
G01*
X10227183Y10827486D03*
G01*
X10227183Y10954486D03*
G01*
X9632822Y10065486D03*
G01*
X9632822Y10192486D03*
G01*
X9632822Y10319486D03*
G01*
X9632822Y10446486D03*
G01*
X9632822Y10573486D03*
G01*
X9632822Y10700486D03*
G01*
X9632822Y10827486D03*
G01*
X9632822Y10954486D03*
D14*
G01*
X9033484Y13030962D03*
G01*
X9033484Y12268962D03*
G01*
X8906484Y12268962D03*
G01*
X8906484Y13030962D03*
G01*
X8779484Y13030962D03*
G01*
X8779484Y12268962D03*
G01*
X9160484Y12268962D03*
G01*
X9160484Y13030962D03*
D15*
G01*
X10189972Y12149962D03*
G01*
X9589973Y12149962D03*
G01*
X10189972Y12549962D03*
G01*
X9589973Y12549962D03*
D11*
G01*
X10599978Y10234654D03*
D12*
G01*
X10599978Y10385297D03*
D11*
G01*
X10319979Y11154652D03*
D12*
G01*
X10319969Y11305311D03*
D16*
G01*
X10199979Y11677980D03*
G01*
X10199979Y11821972D03*
D11*
G01*
X10029979Y11825301D03*
D12*
G01*
X10029977Y11674652D03*
D17*
G01*
X10289979Y13090723D03*
D18*
G01*
X10289971Y13409218D03*
D19*
G01*
X10339984Y12869976D03*
G01*
X10339984Y12729971D03*
D20*
G01*
X9729977Y12779984D03*
G01*
X9589973Y12779984D03*
G01*
X10069982Y12779984D03*
G01*
X9929977Y12779984D03*
D21*
G01*
X8784996Y12104979D03*
G01*
X8554974Y12009983D03*
G01*
X8784970Y11914962D03*
G01*
X8794978Y11714987D03*
G01*
X8564981Y11619992D03*
G01*
X8794978Y11524970D03*
D11*
G01*
X9319981Y12145300D03*
D12*
G01*
X9319971Y11994642D03*
D11*
G01*
X9249981Y11494651D03*
D12*
G01*
X9249994Y11645290D03*
D11*
G01*
X9069981Y11645301D03*
D12*
G01*
X9069984Y11494643D03*
D11*
G01*
X9069981Y12075300D03*
D12*
G01*
X9069984Y11924639D03*
D22*
G01*
X10599978Y10745975D03*
D23*
G01*
X10599978Y10999978D03*
G01*
X10599978Y11253978D03*
G01*
X10599978Y11507978D03*
G01*
X10599978Y11761978D03*
G01*
X10599978Y12015978D03*
G01*
X10599978Y12269978D03*
G01*
X10599978Y12523978D03*
G01*
X10599978Y12777978D03*
G01*
X10599978Y13031978D03*
G01*
X10599978Y13285978D03*
G01*
X10599978Y13539978D03*
G01*
X10599978Y13793978D03*
D22*
G01*
X8299983Y10745975D03*
D23*
G01*
X8299983Y10999978D03*
G01*
X8299983Y11253978D03*
G01*
X8299983Y11507978D03*
G01*
X8299983Y11761978D03*
G01*
X8299983Y12015978D03*
G01*
X8299983Y12269978D03*
G01*
X8299983Y12523978D03*
G01*
X8299983Y12777978D03*
G01*
X8299983Y13031978D03*
G01*
X8299983Y13285978D03*
G01*
X8299983Y13539978D03*
G01*
X8299983Y13793978D03*
D24*
G01*
X9766985Y11719966D03*
D25*
G01*
X9512985Y11719966D03*
D26*
G01*
X8418982Y9599980D03*
D27*
G01*
X8672982Y9599980D03*
G01*
X8926982Y9599980D03*
G01*
X9180982Y9599980D03*
D26*
G01*
X8418982Y8949969D03*
D27*
G01*
X8672982Y8949969D03*
G01*
X8926982Y8949969D03*
G01*
X9180982Y8949969D03*
G01*
X9718979Y9599980D03*
G01*
X9972979Y9599980D03*
G01*
X10226979Y9599980D03*
G01*
X10480979Y9599980D03*
D26*
G01*
X9718979Y8949969D03*
D27*
G01*
X9972979Y8949969D03*
G01*
X10226979Y8949969D03*
G01*
X10480979Y8949969D03*
D28*
G01*
X10034981Y11249964D03*
G01*
X9780981Y11249964D03*
G01*
X9526981Y11249964D03*
G01*
X9272981Y11249964D03*
G01*
X9018981Y11249964D03*
D29*
G01*
X8764981Y11249990D03*
D27*
G01*
X9876993Y13149961D03*
G01*
X9622993Y13149961D03*
D30*
G01*
X10310596Y11064138D03*
G01*
X8590229Y11460683D03*
G01*
X8936380Y12874167D03*
G01*
X10306558Y12259945D03*
G01*
X10114864Y10884408D03*
G01*
X8663203Y11817756D03*
G01*
X9851923Y12117019D03*
G01*
X9887508Y11973737D03*
G01*
X10167823Y11462638D03*
M02*
