G04 Layer: TopSilkscreenLayer*
G04 EasyEDA v6.5.29, 2023-07-08 22:53:17*
G04 f4c6c8685b5442dcac5e84d632293f1e,52c161dc85b4440087471843f8ea1cfe,10*
G04 Gerber Generator version 0.2*
G04 Scale: 100 percent, Rotated: No, Reflected: No *
G04 Dimensions in millimeters *
G04 leading zeros omitted , absolute positions ,4 integer and 5 decimal *
%FSLAX45Y45*%
%MOMM*%

%ADD10C,0.1524*%
%ADD11C,0.0762*%
%ADD12C,0.2032*%
%ADD13C,0.2030*%
%ADD14C,0.2540*%
%ADD15C,0.1500*%
%ADD16C,0.4000*%
%ADD17C,0.0184*%

%LPD*%
G36*
X8977325Y12125706D02*
G01*
X8936177Y12101576D01*
X8934856Y12106300D01*
X8932976Y12110516D01*
X8930538Y12114225D01*
X8927592Y12117324D01*
X8924086Y12119813D01*
X8920022Y12121642D01*
X8915400Y12122759D01*
X8910269Y12123166D01*
X8903665Y12122556D01*
X8898178Y12120829D01*
X8893708Y12117984D01*
X8890152Y12114225D01*
X8887510Y12109551D01*
X8885732Y12104116D01*
X8884666Y12097918D01*
X8884361Y12091162D01*
X8884361Y12073128D01*
X8892997Y12073128D01*
X8892997Y12089384D01*
X8893911Y12099340D01*
X8896858Y12106706D01*
X8902192Y12111228D01*
X8910269Y12112752D01*
X8918346Y12111228D01*
X8924086Y12106706D01*
X8927439Y12099340D01*
X8928557Y12089384D01*
X8928557Y12073128D01*
X8884361Y12073128D01*
X8884361Y12062714D01*
X8977325Y12062714D01*
X8977325Y12073128D01*
X8937193Y12073128D01*
X8937193Y12090654D01*
X8977325Y12113768D01*
G37*
G36*
X8884361Y12045696D02*
G01*
X8884361Y11978386D01*
X8893251Y11978386D01*
X8893251Y12006580D01*
X8977325Y12006580D01*
X8977325Y12017248D01*
X8893251Y12017248D01*
X8893251Y12045696D01*
G37*
G36*
X8930589Y11970004D02*
G01*
X8923528Y11969699D01*
X8917025Y11968784D01*
X8911031Y11967260D01*
X8905595Y11965127D01*
X8900769Y11962384D01*
X8896502Y11959031D01*
X8892844Y11955119D01*
X8889847Y11950598D01*
X8887460Y11945467D01*
X8885732Y11939778D01*
X8884716Y11933478D01*
X8884361Y11926570D01*
X8884361Y11914378D01*
X8892997Y11914378D01*
X8892997Y11925808D01*
X8893251Y11931192D01*
X8894114Y11936120D01*
X8895486Y11940590D01*
X8897416Y11944553D01*
X8899855Y11948058D01*
X8902801Y11951055D01*
X8906256Y11953595D01*
X8910218Y11955678D01*
X8914638Y11957253D01*
X8919514Y11958421D01*
X8924798Y11959132D01*
X8930589Y11959336D01*
X8936278Y11959132D01*
X8941612Y11958421D01*
X8946489Y11957253D01*
X8950960Y11955678D01*
X8954973Y11953595D01*
X8958478Y11951055D01*
X8961526Y11948058D01*
X8964066Y11944553D01*
X8966047Y11940590D01*
X8967470Y11936120D01*
X8968384Y11931192D01*
X8968689Y11925808D01*
X8968689Y11914378D01*
X8884361Y11914378D01*
X8884361Y11903710D01*
X8977325Y11903710D01*
X8977325Y11927078D01*
X8976969Y11933834D01*
X8975852Y11940032D01*
X8974124Y11945670D01*
X8971686Y11950750D01*
X8968587Y11955221D01*
X8964879Y11959132D01*
X8960561Y11962434D01*
X8955684Y11965127D01*
X8950198Y11967260D01*
X8944203Y11968784D01*
X8937650Y11969699D01*
G37*
G36*
X8960916Y11688419D02*
G01*
X8951925Y11686895D01*
X8945168Y11682730D01*
X8940038Y11676634D01*
X8936024Y11669115D01*
X8927998Y11650218D01*
X8924798Y11645239D01*
X8920378Y11641582D01*
X8914180Y11640159D01*
X8908338Y11641480D01*
X8903868Y11645138D01*
X8900972Y11650878D01*
X8899956Y11658193D01*
X8900617Y11664492D01*
X8902446Y11670131D01*
X8905240Y11675160D01*
X8908846Y11679783D01*
X8902242Y11685371D01*
X8897569Y11679986D01*
X8893962Y11673586D01*
X8891676Y11666220D01*
X8890812Y11658193D01*
X8891320Y11652199D01*
X8892641Y11646712D01*
X8894775Y11641836D01*
X8897670Y11637619D01*
X8901176Y11634216D01*
X8905290Y11631625D01*
X8909913Y11630050D01*
X8914942Y11629491D01*
X8923934Y11631218D01*
X8930589Y11635740D01*
X8935313Y11641886D01*
X8938564Y11648541D01*
X8947556Y11668201D01*
X8950909Y11673179D01*
X8955379Y11676532D01*
X8961678Y11677751D01*
X8968282Y11676329D01*
X8973312Y11672316D01*
X8976563Y11665966D01*
X8977680Y11657431D01*
X8976868Y11650116D01*
X8974531Y11643207D01*
X8970822Y11636857D01*
X8965996Y11631269D01*
X8973108Y11624919D01*
X8978950Y11631523D01*
X8983370Y11639143D01*
X8986113Y11647678D01*
X8987078Y11657177D01*
X8986570Y11664035D01*
X8985097Y11670182D01*
X8982710Y11675516D01*
X8979560Y11680037D01*
X8975699Y11683593D01*
X8971229Y11686235D01*
X8966301Y11687860D01*
G37*
G36*
X8892336Y11620855D02*
G01*
X8892336Y11553291D01*
X8901226Y11553291D01*
X8901226Y11581739D01*
X8985300Y11581739D01*
X8985300Y11592407D01*
X8901226Y11592407D01*
X8901226Y11620855D01*
G37*
G36*
X8985300Y11547449D02*
G01*
X8944152Y11523573D01*
X8942832Y11528196D01*
X8941003Y11532412D01*
X8938564Y11536070D01*
X8935618Y11539220D01*
X8932113Y11541709D01*
X8928049Y11543588D01*
X8923426Y11544757D01*
X8918244Y11545163D01*
X8911691Y11544554D01*
X8906205Y11542776D01*
X8901684Y11539982D01*
X8898178Y11536172D01*
X8895537Y11531447D01*
X8893708Y11525961D01*
X8892692Y11519763D01*
X8892336Y11512905D01*
X8892336Y11495125D01*
X8900972Y11495125D01*
X8900972Y11511381D01*
X8901887Y11521287D01*
X8904884Y11528552D01*
X8910218Y11532971D01*
X8918244Y11534495D01*
X8926372Y11532971D01*
X8932062Y11528552D01*
X8935466Y11521287D01*
X8936532Y11511381D01*
X8936532Y11495125D01*
X8892336Y11495125D01*
X8892336Y11484457D01*
X8985300Y11484457D01*
X8985300Y11495125D01*
X8945168Y11495125D01*
X8945168Y11512397D01*
X8985300Y11535765D01*
G37*
G36*
X8569401Y13525601D02*
G01*
X8569401Y13518743D01*
X8590737Y13518743D01*
X8598662Y13518032D01*
X8604504Y13515695D01*
X8608060Y13511479D01*
X8609279Y13505027D01*
X8608060Y13498474D01*
X8604504Y13493851D01*
X8598662Y13491210D01*
X8590737Y13490295D01*
X8577783Y13490295D01*
X8577783Y13518743D01*
X8569401Y13518743D01*
X8569401Y13451179D01*
X8577783Y13451179D01*
X8577783Y13483183D01*
X8591753Y13483183D01*
X8610295Y13451179D01*
X8619693Y13451179D01*
X8600643Y13484199D01*
X8607755Y13486790D01*
X8613190Y13491108D01*
X8616696Y13497204D01*
X8617915Y13505027D01*
X8617458Y13510310D01*
X8616035Y13514679D01*
X8613749Y13518235D01*
X8610701Y13521029D01*
X8606891Y13523112D01*
X8602522Y13524534D01*
X8597493Y13525347D01*
X8592007Y13525601D01*
G37*
G36*
X8650427Y13525601D02*
G01*
X8647277Y13524026D01*
X8643772Y13522604D01*
X8639810Y13521436D01*
X8635187Y13520521D01*
X8635187Y13515187D01*
X8648395Y13515187D01*
X8648395Y13458037D01*
X8631631Y13458037D01*
X8631631Y13451179D01*
X8671763Y13451179D01*
X8671763Y13458037D01*
X8656523Y13458037D01*
X8656523Y13525601D01*
G37*
G36*
X8846210Y13526871D02*
G01*
X8839809Y13526109D01*
X8834170Y13523925D01*
X8829192Y13520470D01*
X8824620Y13515949D01*
X8829446Y13511377D01*
X8832850Y13514832D01*
X8836660Y13517676D01*
X8840774Y13519556D01*
X8845194Y13520267D01*
X8851493Y13519099D01*
X8855913Y13515898D01*
X8858554Y13510971D01*
X8859418Y13504773D01*
X8858910Y13499846D01*
X8857386Y13494664D01*
X8854795Y13489178D01*
X8851138Y13483386D01*
X8846362Y13477240D01*
X8840470Y13470737D01*
X8833358Y13463727D01*
X8825128Y13456259D01*
X8825128Y13451179D01*
X8871102Y13451179D01*
X8871102Y13458291D01*
X8846820Y13458291D01*
X8837574Y13457783D01*
X8844127Y13464082D01*
X8849969Y13470280D01*
X8855100Y13476274D01*
X8859418Y13482167D01*
X8862872Y13488009D01*
X8865412Y13493750D01*
X8866987Y13499388D01*
X8867546Y13505027D01*
X8867190Y13509802D01*
X8866073Y13514019D01*
X8864295Y13517778D01*
X8861806Y13520928D01*
X8858758Y13523468D01*
X8855100Y13525347D01*
X8850934Y13526516D01*
G37*
G36*
X8767216Y13525601D02*
G01*
X8767216Y13518743D01*
X8788552Y13518743D01*
X8796477Y13518032D01*
X8802319Y13515695D01*
X8805875Y13511479D01*
X8807094Y13505027D01*
X8805875Y13498474D01*
X8802319Y13493851D01*
X8796477Y13491210D01*
X8788552Y13490295D01*
X8775598Y13490295D01*
X8775598Y13518743D01*
X8767216Y13518743D01*
X8767216Y13451179D01*
X8775598Y13451179D01*
X8775598Y13483183D01*
X8789568Y13483183D01*
X8808110Y13451179D01*
X8817508Y13451179D01*
X8798458Y13484199D01*
X8805570Y13486790D01*
X8811006Y13491108D01*
X8814511Y13497204D01*
X8815730Y13505027D01*
X8815222Y13510310D01*
X8813800Y13514679D01*
X8811564Y13518235D01*
X8808466Y13521029D01*
X8804706Y13523112D01*
X8800287Y13524534D01*
X8795308Y13525347D01*
X8789822Y13525601D01*
G37*
G36*
X9035338Y13526871D02*
G01*
X9029344Y13526211D01*
X9024010Y13524382D01*
X9019235Y13521639D01*
X9015018Y13518235D01*
X9019590Y13512647D01*
X9022842Y13515644D01*
X9026550Y13517981D01*
X9030665Y13519607D01*
X9035084Y13520267D01*
X9040520Y13519251D01*
X9044584Y13516711D01*
X9047124Y13512850D01*
X9048038Y13507821D01*
X9046921Y13501979D01*
X9043416Y13497356D01*
X9036964Y13494257D01*
X9027210Y13493089D01*
X9027210Y13486739D01*
X9038183Y13485622D01*
X9045498Y13482421D01*
X9049562Y13477544D01*
X9050832Y13471245D01*
X9049664Y13465251D01*
X9046413Y13460679D01*
X9041485Y13457783D01*
X9035338Y13456767D01*
X9029242Y13457478D01*
X9024213Y13459409D01*
X9020048Y13462152D01*
X9016542Y13465403D01*
X9012224Y13460069D01*
X9016288Y13456259D01*
X9021419Y13453008D01*
X9027871Y13450773D01*
X9035846Y13449909D01*
X9040571Y13450316D01*
X9044940Y13451382D01*
X9048902Y13453110D01*
X9052356Y13455497D01*
X9055201Y13458545D01*
X9057386Y13462152D01*
X9058706Y13466318D01*
X9059214Y13470991D01*
X9057944Y13478001D01*
X9054541Y13483590D01*
X9049461Y13487654D01*
X9043212Y13490041D01*
X9043212Y13490295D01*
X9048597Y13493140D01*
X9052864Y13497102D01*
X9055658Y13502233D01*
X9056674Y13508583D01*
X9055049Y13516406D01*
X9050578Y13522147D01*
X9043771Y13525652D01*
G37*
G36*
X8955836Y13525601D02*
G01*
X8955836Y13518743D01*
X8977172Y13518743D01*
X8985097Y13518032D01*
X8990888Y13515695D01*
X8994495Y13511479D01*
X8995714Y13505027D01*
X8994495Y13498474D01*
X8990888Y13493851D01*
X8985097Y13491210D01*
X8977172Y13490295D01*
X8964218Y13490295D01*
X8964218Y13518743D01*
X8955836Y13518743D01*
X8955836Y13451179D01*
X8964218Y13451179D01*
X8964218Y13483183D01*
X8978188Y13483183D01*
X8996730Y13451179D01*
X9006128Y13451179D01*
X8987078Y13484199D01*
X8994140Y13486790D01*
X8999575Y13491108D01*
X9003080Y13497204D01*
X9004350Y13505027D01*
X9003842Y13510310D01*
X9002420Y13514679D01*
X9000134Y13518235D01*
X8997086Y13521029D01*
X8993327Y13523112D01*
X8988907Y13524534D01*
X8983929Y13525347D01*
X8978442Y13525601D01*
G37*
G36*
X9164421Y13525601D02*
G01*
X9164421Y13518743D01*
X9185757Y13518743D01*
X9193682Y13518032D01*
X9199473Y13515695D01*
X9203080Y13511479D01*
X9204299Y13505027D01*
X9203080Y13498474D01*
X9199473Y13493851D01*
X9193682Y13491210D01*
X9185757Y13490295D01*
X9172803Y13490295D01*
X9172803Y13518743D01*
X9164421Y13518743D01*
X9164421Y13451179D01*
X9172803Y13451179D01*
X9172803Y13483183D01*
X9186773Y13483183D01*
X9205315Y13451179D01*
X9214713Y13451179D01*
X9195663Y13484199D01*
X9202724Y13486790D01*
X9208211Y13491108D01*
X9211716Y13497204D01*
X9212935Y13505027D01*
X9212427Y13510310D01*
X9211005Y13514679D01*
X9208770Y13518235D01*
X9205671Y13521029D01*
X9201912Y13523112D01*
X9197492Y13524534D01*
X9192514Y13525347D01*
X9187027Y13525601D01*
G37*
G36*
X9251289Y13525601D02*
G01*
X9220375Y13478611D01*
X9228429Y13478611D01*
X9246463Y13505027D01*
X9252305Y13515949D01*
X9252813Y13515949D01*
X9252305Y13502741D01*
X9252305Y13478611D01*
X9220375Y13478611D01*
X9219539Y13477341D01*
X9219539Y13472007D01*
X9252305Y13472007D01*
X9252305Y13451179D01*
X9260179Y13451179D01*
X9260179Y13472007D01*
X9270339Y13472007D01*
X9270339Y13478611D01*
X9260179Y13478611D01*
X9260179Y13525601D01*
G37*
G36*
X9360357Y10711942D02*
G01*
X9360357Y10703560D01*
X9427921Y10703560D01*
X9427921Y10694416D01*
X9427413Y10688066D01*
X9425940Y10682630D01*
X9423450Y10678058D01*
X9420098Y10674299D01*
X9415830Y10671403D01*
X9410700Y10669371D01*
X9404705Y10668152D01*
X9397949Y10667746D01*
X9391192Y10668152D01*
X9385096Y10669371D01*
X9379864Y10671403D01*
X9375444Y10674299D01*
X9371939Y10678058D01*
X9369348Y10682630D01*
X9367774Y10688066D01*
X9367215Y10694416D01*
X9367215Y10703560D01*
X9360357Y10703560D01*
X9360357Y10693400D01*
X9360662Y10687964D01*
X9361525Y10682986D01*
X9362948Y10678515D01*
X9364929Y10674451D01*
X9367418Y10670895D01*
X9370415Y10667796D01*
X9373870Y10665155D01*
X9377832Y10662970D01*
X9382252Y10661294D01*
X9387078Y10660075D01*
X9392310Y10659364D01*
X9397949Y10659110D01*
X9403588Y10659364D01*
X9408820Y10660075D01*
X9413595Y10661294D01*
X9417913Y10662970D01*
X9421774Y10665155D01*
X9425127Y10667796D01*
X9428022Y10670946D01*
X9430410Y10674553D01*
X9432340Y10678617D01*
X9433661Y10683138D01*
X9434525Y10688167D01*
X9434779Y10693654D01*
X9434779Y10711942D01*
G37*
G36*
X9360357Y10642600D02*
G01*
X9360357Y10599166D01*
X9367469Y10599166D01*
X9367469Y10634218D01*
X9395917Y10634218D01*
X9395917Y10605770D01*
X9403283Y10605770D01*
X9403283Y10634218D01*
X9427667Y10634218D01*
X9427667Y10600182D01*
X9434779Y10600182D01*
X9434779Y10642600D01*
G37*
G36*
X9360357Y10583164D02*
G01*
X9360357Y10575798D01*
X9408464Y10575899D01*
X9424873Y10576814D01*
X9424873Y10576306D01*
X9408109Y10570464D01*
X9367977Y10555732D01*
X9367977Y10549890D01*
X9408109Y10535412D01*
X9424873Y10529570D01*
X9424873Y10529062D01*
X9414103Y10529773D01*
X9403283Y10530078D01*
X9360357Y10530078D01*
X9360357Y10522458D01*
X9434779Y10522458D01*
X9434779Y10532618D01*
X9378391Y10552430D01*
X9378391Y10552938D01*
X9394139Y10558272D01*
X9434779Y10573004D01*
X9434779Y10583164D01*
G37*
G36*
X9390583Y10501884D02*
G01*
X9382455Y10501325D01*
X9375698Y10499801D01*
X9370263Y10497413D01*
X9365996Y10494213D01*
X9362846Y10490301D01*
X9360712Y10485780D01*
X9359493Y10480852D01*
X9359087Y10475468D01*
X9359493Y10470184D01*
X9360712Y10465257D01*
X9362846Y10460837D01*
X9365996Y10456976D01*
X9370263Y10453776D01*
X9375698Y10451338D01*
X9382455Y10449814D01*
X9390583Y10449306D01*
X9434779Y10449306D01*
X9434779Y10457180D01*
X9390583Y10457180D01*
X9384233Y10457535D01*
X9379000Y10458653D01*
X9374835Y10460329D01*
X9371584Y10462615D01*
X9369196Y10465308D01*
X9367621Y10468406D01*
X9366758Y10471810D01*
X9366453Y10475468D01*
X9366758Y10479074D01*
X9367621Y10482478D01*
X9369196Y10485526D01*
X9371584Y10488218D01*
X9374835Y10490403D01*
X9379000Y10492079D01*
X9384233Y10493146D01*
X9390583Y10493502D01*
X9434779Y10493502D01*
X9434779Y10501884D01*
G37*
G36*
X9360357Y10438384D02*
G01*
X9360357Y10429748D01*
X9393123Y10412476D01*
X9393123Y10411968D01*
X9360357Y10394188D01*
X9360357Y10384790D01*
X9398457Y10406634D01*
X9434779Y10386314D01*
X9434779Y10394950D01*
X9407347Y10409529D01*
X9404299Y10410952D01*
X9404299Y10411460D01*
X9410039Y10414457D01*
X9414967Y10417302D01*
X9434779Y10427716D01*
X9434779Y10437114D01*
X9398711Y10416794D01*
G37*
G36*
X9360357Y10374122D02*
G01*
X9360357Y10333990D01*
X9367215Y10333990D01*
X9367215Y10349230D01*
X9434779Y10349230D01*
X9434779Y10355580D01*
X9433153Y10358628D01*
X9431782Y10362133D01*
X9430613Y10366095D01*
X9429699Y10370566D01*
X9424365Y10370566D01*
X9424365Y10357358D01*
X9367215Y10357358D01*
X9367215Y10374122D01*
G37*
G36*
X10340289Y10706862D02*
G01*
X10340289Y10698480D01*
X10407853Y10698480D01*
X10407853Y10689336D01*
X10407345Y10682935D01*
X10405872Y10677398D01*
X10403382Y10672775D01*
X10400030Y10669016D01*
X10395762Y10666120D01*
X10390632Y10664037D01*
X10384637Y10662818D01*
X10377881Y10662412D01*
X10371124Y10662818D01*
X10365079Y10664037D01*
X10359898Y10666120D01*
X10355529Y10669016D01*
X10352024Y10672775D01*
X10349484Y10677398D01*
X10347960Y10682935D01*
X10347401Y10689336D01*
X10347401Y10698480D01*
X10340289Y10698480D01*
X10340289Y10688320D01*
X10340594Y10682884D01*
X10341457Y10677906D01*
X10342880Y10673384D01*
X10344861Y10669320D01*
X10347350Y10665714D01*
X10350347Y10662564D01*
X10353802Y10659872D01*
X10357764Y10657687D01*
X10362184Y10656011D01*
X10367010Y10654741D01*
X10372242Y10654030D01*
X10377881Y10653776D01*
X10383520Y10654030D01*
X10388752Y10654741D01*
X10393527Y10656011D01*
X10397845Y10657687D01*
X10401706Y10659922D01*
X10405059Y10662615D01*
X10407954Y10665764D01*
X10410342Y10669371D01*
X10412272Y10673486D01*
X10413593Y10678058D01*
X10414457Y10683087D01*
X10414711Y10688574D01*
X10414711Y10706862D01*
G37*
G36*
X10340289Y10637520D02*
G01*
X10340289Y10593832D01*
X10347401Y10593832D01*
X10347401Y10628884D01*
X10376103Y10628884D01*
X10376103Y10600436D01*
X10383215Y10600436D01*
X10383215Y10628884D01*
X10407599Y10628884D01*
X10407599Y10595102D01*
X10414711Y10595102D01*
X10414711Y10637520D01*
G37*
G36*
X10340289Y10578084D02*
G01*
X10340289Y10570464D01*
X10388498Y10570565D01*
X10404805Y10571480D01*
X10404805Y10570972D01*
X10388041Y10565130D01*
X10347909Y10550652D01*
X10347909Y10544810D01*
X10404805Y10524236D01*
X10404805Y10523982D01*
X10383469Y10524998D01*
X10340289Y10524998D01*
X10340289Y10517124D01*
X10414711Y10517124D01*
X10414711Y10527538D01*
X10370108Y10543286D01*
X10358323Y10547096D01*
X10358323Y10547604D01*
X10414711Y10567670D01*
X10414711Y10578084D01*
G37*
G36*
X10370515Y10496804D02*
G01*
X10362387Y10496245D01*
X10355630Y10494721D01*
X10350195Y10492333D01*
X10345928Y10489133D01*
X10342778Y10485221D01*
X10340644Y10480700D01*
X10339425Y10475772D01*
X10339019Y10470388D01*
X10339425Y10465003D01*
X10340644Y10460024D01*
X10342778Y10455554D01*
X10345928Y10451642D01*
X10350195Y10448442D01*
X10355630Y10446004D01*
X10362387Y10444480D01*
X10370515Y10443972D01*
X10414711Y10443972D01*
X10414711Y10452100D01*
X10370515Y10452100D01*
X10364216Y10452455D01*
X10359034Y10453522D01*
X10354868Y10455198D01*
X10351617Y10457434D01*
X10349230Y10460126D01*
X10347604Y10463225D01*
X10346690Y10466679D01*
X10346385Y10470388D01*
X10347604Y10477347D01*
X10351617Y10482986D01*
X10359034Y10486796D01*
X10370515Y10488168D01*
X10414711Y10488168D01*
X10414711Y10496804D01*
G37*
G36*
X10340289Y10433304D02*
G01*
X10340289Y10424668D01*
X10373055Y10407142D01*
X10373055Y10406888D01*
X10340289Y10388854D01*
X10340289Y10379710D01*
X10378389Y10401554D01*
X10414711Y10380980D01*
X10414711Y10389870D01*
X10392562Y10401706D01*
X10384485Y10405618D01*
X10384485Y10406126D01*
X10414711Y10422636D01*
X10414711Y10432034D01*
X10378897Y10411460D01*
G37*
G36*
X10405313Y10373868D02*
G01*
X10400487Y10369042D01*
X10404043Y10365587D01*
X10406837Y10361777D01*
X10408716Y10357612D01*
X10409377Y10353040D01*
X10408208Y10346791D01*
X10405008Y10342422D01*
X10400182Y10339882D01*
X10394137Y10339070D01*
X10389209Y10339578D01*
X10383977Y10341051D01*
X10378490Y10343642D01*
X10372699Y10347248D01*
X10366552Y10352024D01*
X10359948Y10357916D01*
X10352938Y10365028D01*
X10345369Y10373360D01*
X10340289Y10373360D01*
X10340289Y10327386D01*
X10347401Y10327386D01*
X10347350Y10354716D01*
X10346893Y10360914D01*
X10353192Y10354360D01*
X10359390Y10348518D01*
X10365435Y10343388D01*
X10371429Y10339070D01*
X10377271Y10335615D01*
X10383062Y10333024D01*
X10388752Y10331450D01*
X10394391Y10330942D01*
X10403332Y10332415D01*
X10410139Y10336631D01*
X10414457Y10343388D01*
X10415981Y10352278D01*
X10415219Y10358628D01*
X10413034Y10364216D01*
X10409682Y10369194D01*
G37*
G36*
X10546791Y10549229D02*
G01*
X10546791Y10542371D01*
X10568127Y10542371D01*
X10576052Y10541660D01*
X10581894Y10539323D01*
X10585450Y10535056D01*
X10586669Y10528655D01*
X10585450Y10522051D01*
X10581894Y10517479D01*
X10576052Y10514787D01*
X10568127Y10513923D01*
X10555173Y10513923D01*
X10555173Y10542371D01*
X10546791Y10542371D01*
X10546791Y10474807D01*
X10555173Y10474807D01*
X10555173Y10506811D01*
X10569143Y10506811D01*
X10587685Y10474807D01*
X10597083Y10474807D01*
X10578033Y10507827D01*
X10585145Y10510367D01*
X10590580Y10514685D01*
X10594086Y10520781D01*
X10595305Y10528655D01*
X10594848Y10533888D01*
X10593425Y10538307D01*
X10591139Y10541863D01*
X10588091Y10544657D01*
X10584281Y10546740D01*
X10579862Y10548162D01*
X10574883Y10548975D01*
X10569397Y10549229D01*
G37*
G36*
X10611307Y10549229D02*
G01*
X10609021Y10514685D01*
X10613593Y10511891D01*
X10616539Y10513720D01*
X10619435Y10515092D01*
X10622534Y10515904D01*
X10626039Y10516209D01*
X10632643Y10514990D01*
X10637672Y10511536D01*
X10640923Y10505998D01*
X10642041Y10498683D01*
X10640771Y10491114D01*
X10637266Y10485323D01*
X10632084Y10481665D01*
X10625785Y10480395D01*
X10619740Y10481106D01*
X10614710Y10482935D01*
X10610494Y10485628D01*
X10606989Y10488777D01*
X10602925Y10483443D01*
X10607141Y10479735D01*
X10612221Y10476585D01*
X10618571Y10474350D01*
X10626293Y10473537D01*
X10630916Y10473944D01*
X10635335Y10475214D01*
X10639399Y10477296D01*
X10643057Y10480141D01*
X10646105Y10483748D01*
X10648391Y10488117D01*
X10649915Y10493146D01*
X10650423Y10498937D01*
X10649966Y10504678D01*
X10648696Y10509605D01*
X10646664Y10513669D01*
X10643920Y10516920D01*
X10640618Y10519410D01*
X10636808Y10521188D01*
X10632592Y10522204D01*
X10628071Y10522559D01*
X10624820Y10522356D01*
X10621873Y10521797D01*
X10619181Y10520832D01*
X10616641Y10519511D01*
X10618673Y10542117D01*
X10646867Y10542117D01*
X10646867Y10549229D01*
G37*
G36*
X10352989Y11480292D02*
G01*
X10347706Y11479784D01*
X10342727Y11478107D01*
X10338104Y11475313D01*
X10334040Y11471148D01*
X10330637Y11465661D01*
X10328046Y11458651D01*
X10326370Y11450116D01*
X10325811Y11439906D01*
X10326098Y11434572D01*
X10333685Y11434572D01*
X10337596Y11439144D01*
X10341610Y11442192D01*
X10345623Y11443919D01*
X10349433Y11444478D01*
X10355580Y11443258D01*
X10359898Y11439804D01*
X10362539Y11434419D01*
X10363403Y11427460D01*
X10362387Y11420348D01*
X10359644Y11414810D01*
X10355478Y11411204D01*
X10350195Y11409934D01*
X10343642Y11411559D01*
X10338663Y11416334D01*
X10335310Y11424107D01*
X10333685Y11434572D01*
X10326098Y11434572D01*
X10326268Y11431422D01*
X10327589Y11424005D01*
X10329773Y11417757D01*
X10332669Y11412575D01*
X10336225Y11408562D01*
X10340340Y11405666D01*
X10345064Y11403939D01*
X10350195Y11403330D01*
X10354360Y11403787D01*
X10358272Y11405057D01*
X10361879Y11407140D01*
X10364978Y11409984D01*
X10367619Y11413490D01*
X10369550Y11417604D01*
X10370820Y11422278D01*
X10371277Y11427460D01*
X10370870Y11432844D01*
X10369804Y11437518D01*
X10368076Y11441480D01*
X10365740Y11444732D01*
X10362793Y11447272D01*
X10359237Y11449100D01*
X10355224Y11450218D01*
X10350703Y11450574D01*
X10346080Y11449964D01*
X10341559Y11448237D01*
X10337292Y11445443D01*
X10333431Y11441684D01*
X10333990Y11449862D01*
X10335260Y11456619D01*
X10337139Y11462105D01*
X10339578Y11466423D01*
X10342524Y11469624D01*
X10345826Y11471808D01*
X10349382Y11473027D01*
X10353243Y11473434D01*
X10356596Y11473027D01*
X10359745Y11471859D01*
X10362641Y11470030D01*
X10365181Y11467592D01*
X10370007Y11472926D01*
X10366654Y11475923D01*
X10362692Y11478260D01*
X10358170Y11479733D01*
G37*
G36*
X10266629Y11479022D02*
G01*
X10266629Y11472164D01*
X10287965Y11472164D01*
X10295890Y11471452D01*
X10301681Y11469116D01*
X10305288Y11464899D01*
X10306507Y11458448D01*
X10305288Y11451844D01*
X10301681Y11447272D01*
X10295890Y11444579D01*
X10287965Y11443716D01*
X10275011Y11443716D01*
X10275011Y11472164D01*
X10266629Y11472164D01*
X10266629Y11404600D01*
X10275011Y11404600D01*
X10275011Y11436604D01*
X10288981Y11436604D01*
X10307523Y11404600D01*
X10316921Y11404600D01*
X10297871Y11437620D01*
X10304932Y11440210D01*
X10310368Y11444528D01*
X10313873Y11450574D01*
X10315143Y11458448D01*
X10314635Y11463731D01*
X10313212Y11468100D01*
X10310926Y11471656D01*
X10307878Y11474450D01*
X10304119Y11476532D01*
X10299700Y11477955D01*
X10294721Y11478768D01*
X10289235Y11479022D01*
G37*
G36*
X10318089Y11882678D02*
G01*
X10318089Y11841276D01*
X10325201Y11841276D01*
X10325201Y11874296D01*
X10392511Y11874296D01*
X10392511Y11882678D01*
G37*
G36*
X10318089Y11828068D02*
G01*
X10318089Y11784634D01*
X10325201Y11784634D01*
X10325201Y11819686D01*
X10353649Y11819686D01*
X10353649Y11791238D01*
X10360761Y11791238D01*
X10360761Y11819686D01*
X10385399Y11819686D01*
X10385399Y11785904D01*
X10392511Y11785904D01*
X10392511Y11828068D01*
G37*
G36*
X10318089Y11768886D02*
G01*
X10318089Y11760504D01*
X10385399Y11760504D01*
X10385399Y11751106D01*
X10384891Y11744756D01*
X10383367Y11739321D01*
X10380929Y11734749D01*
X10377525Y11730990D01*
X10373258Y11728094D01*
X10368127Y11726062D01*
X10362184Y11724843D01*
X10355427Y11724436D01*
X10348722Y11724843D01*
X10342727Y11726062D01*
X10337495Y11728094D01*
X10333126Y11730990D01*
X10329621Y11734749D01*
X10327081Y11739321D01*
X10325455Y11744756D01*
X10324947Y11751106D01*
X10324947Y11760504D01*
X10318089Y11760504D01*
X10318089Y11750090D01*
X10318394Y11744706D01*
X10319207Y11739778D01*
X10320629Y11735308D01*
X10322560Y11731244D01*
X10325049Y11727688D01*
X10327995Y11724538D01*
X10331450Y11721896D01*
X10335361Y11719712D01*
X10339730Y11717985D01*
X10344556Y11716766D01*
X10349788Y11716054D01*
X10355427Y11715800D01*
X10361066Y11716054D01*
X10366298Y11716766D01*
X10371074Y11718036D01*
X10375442Y11719712D01*
X10379303Y11721947D01*
X10382707Y11724640D01*
X10385653Y11727789D01*
X10388092Y11731396D01*
X10389971Y11735511D01*
X10391394Y11740083D01*
X10392206Y11745112D01*
X10392511Y11750598D01*
X10392511Y11768886D01*
G37*
G36*
X10338663Y11707926D02*
G01*
X10338663Y11699036D01*
X10345267Y11699036D01*
X10371937Y11681002D01*
X10382859Y11675160D01*
X10382859Y11674652D01*
X10369397Y11675160D01*
X10345267Y11675160D01*
X10345267Y11699036D01*
X10338663Y11699036D01*
X10338663Y11675160D01*
X10318089Y11675160D01*
X10318089Y11667540D01*
X10338663Y11667540D01*
X10338663Y11657126D01*
X10345267Y11657126D01*
X10345267Y11667540D01*
X10392511Y11667540D01*
X10392511Y11676176D01*
X10343997Y11707926D01*
G37*
G36*
X9987229Y11987022D02*
G01*
X9987229Y11980164D01*
X10008565Y11980164D01*
X10016490Y11979452D01*
X10022281Y11977116D01*
X10025888Y11972848D01*
X10027107Y11966448D01*
X10025888Y11959844D01*
X10022281Y11955272D01*
X10016490Y11952579D01*
X10008565Y11951716D01*
X9995611Y11951716D01*
X9995611Y11980164D01*
X9987229Y11980164D01*
X9987229Y11912600D01*
X9995611Y11912600D01*
X9995611Y11944604D01*
X10009581Y11944604D01*
X10028123Y11912600D01*
X10037521Y11912600D01*
X10018471Y11945620D01*
X10025532Y11948210D01*
X10031018Y11952478D01*
X10034524Y11958574D01*
X10035743Y11966448D01*
X10035235Y11971680D01*
X10033812Y11976100D01*
X10031577Y11979656D01*
X10028478Y11982450D01*
X10024719Y11984532D01*
X10020300Y11985955D01*
X10015321Y11986768D01*
X10009835Y11987022D01*
G37*
G36*
X10045395Y11987022D02*
G01*
X10045395Y11979910D01*
X10081971Y11979910D01*
X10078466Y11974880D01*
X10075367Y11969851D01*
X10072624Y11964873D01*
X10070236Y11959793D01*
X10068153Y11954662D01*
X10066375Y11949379D01*
X10064851Y11943943D01*
X10063632Y11938304D01*
X10062616Y11932361D01*
X10061295Y11919559D01*
X10060889Y11912600D01*
X10069525Y11912600D01*
X10070338Y11926214D01*
X10071862Y11938406D01*
X10072979Y11944146D01*
X10074351Y11949633D01*
X10076129Y11955018D01*
X10078262Y11960352D01*
X10080853Y11965635D01*
X10083901Y11970969D01*
X10087457Y11976354D01*
X10091623Y11981942D01*
X10091623Y11987022D01*
G37*
G36*
X10436301Y13289889D02*
G01*
X10429544Y13289229D01*
X10423296Y13287248D01*
X10417759Y13283996D01*
X10413034Y13279577D01*
X10409123Y13273989D01*
X10406227Y13267385D01*
X10404449Y13259816D01*
X10403840Y13251281D01*
X10404449Y13242798D01*
X10406227Y13235228D01*
X10409123Y13228675D01*
X10412984Y13223189D01*
X10417657Y13218769D01*
X10423093Y13215569D01*
X10429189Y13213588D01*
X10435844Y13212927D01*
X10442600Y13213638D01*
X10448544Y13215721D01*
X10453776Y13219023D01*
X10458399Y13223595D01*
X10453878Y13228929D01*
X10450068Y13225221D01*
X10445953Y13222528D01*
X10441381Y13220852D01*
X10436301Y13220293D01*
X10431068Y13220852D01*
X10426395Y13222528D01*
X10422280Y13225170D01*
X10418876Y13228777D01*
X10416133Y13233298D01*
X10414101Y13238632D01*
X10412882Y13244728D01*
X10412476Y13251535D01*
X10412882Y13258342D01*
X10414203Y13264438D01*
X10416286Y13269722D01*
X10419080Y13274192D01*
X10422585Y13277748D01*
X10426700Y13280390D01*
X10431373Y13281964D01*
X10436606Y13282523D01*
X10441127Y13282015D01*
X10445191Y13280593D01*
X10448848Y13278357D01*
X10452049Y13275411D01*
X10456672Y13280745D01*
X10452912Y13284200D01*
X10448290Y13287146D01*
X10442752Y13289127D01*
G37*
G36*
X10489895Y13288619D02*
G01*
X10486847Y13286994D01*
X10483392Y13285622D01*
X10479430Y13284454D01*
X10474960Y13283539D01*
X10474960Y13278205D01*
X10487863Y13278205D01*
X10487863Y13221055D01*
X10471404Y13221055D01*
X10471404Y13214197D01*
X10511231Y13214197D01*
X10511231Y13221055D01*
X10496245Y13221055D01*
X10496245Y13288619D01*
G37*
G36*
X10446410Y13007340D02*
G01*
X10439603Y13006679D01*
X10433405Y13004647D01*
X10427868Y13001396D01*
X10423093Y12996976D01*
X10419232Y12991439D01*
X10416336Y12984835D01*
X10414508Y12977266D01*
X10413898Y12968732D01*
X10414508Y12960146D01*
X10416286Y12952577D01*
X10419130Y12945973D01*
X10422940Y12940487D01*
X10427614Y12936169D01*
X10433050Y12932968D01*
X10439196Y12931038D01*
X10445902Y12930378D01*
X10452658Y12931089D01*
X10458602Y12933121D01*
X10463885Y12936474D01*
X10468508Y12941046D01*
X10463682Y12946126D01*
X10459923Y12942570D01*
X10455859Y12939928D01*
X10451338Y12938302D01*
X10446156Y12937744D01*
X10440974Y12938302D01*
X10436352Y12939928D01*
X10432288Y12942519D01*
X10428884Y12946126D01*
X10426192Y12950596D01*
X10424160Y12955981D01*
X10422940Y12962077D01*
X10422534Y12968986D01*
X10422940Y12975793D01*
X10424210Y12981838D01*
X10426242Y12987172D01*
X10429036Y12991642D01*
X10432491Y12995198D01*
X10436555Y12997789D01*
X10441228Y12999415D01*
X10446410Y12999974D01*
X10451084Y12999415D01*
X10455198Y12997942D01*
X10458805Y12995706D01*
X10461904Y12992862D01*
X10466730Y12998196D01*
X10463022Y13001650D01*
X10458348Y13004596D01*
X10452811Y13006578D01*
G37*
G36*
X10497972Y13007340D02*
G01*
X10491470Y13006578D01*
X10485831Y13004342D01*
X10480903Y13000888D01*
X10476382Y12996418D01*
X10481208Y12991846D01*
X10484612Y12995249D01*
X10488422Y12997992D01*
X10492536Y12999821D01*
X10496956Y13000482D01*
X10503255Y12999313D01*
X10507675Y12996113D01*
X10510316Y12991287D01*
X10511180Y12985242D01*
X10510672Y12980263D01*
X10509148Y12975082D01*
X10506557Y12969595D01*
X10502900Y12963804D01*
X10498124Y12957657D01*
X10492181Y12951053D01*
X10485120Y12943992D01*
X10476890Y12936474D01*
X10476890Y12931648D01*
X10522864Y12931648D01*
X10522864Y12938760D01*
X10498531Y12938709D01*
X10492282Y12938353D01*
X10489336Y12937998D01*
X10495788Y12944398D01*
X10501630Y12950596D01*
X10506760Y12956641D01*
X10511078Y12962585D01*
X10514584Y12968427D01*
X10517174Y12974167D01*
X10518749Y12979857D01*
X10519308Y12985496D01*
X10518902Y12990220D01*
X10517835Y12994487D01*
X10516057Y12998196D01*
X10513568Y13001345D01*
X10510520Y13003885D01*
X10506862Y13005765D01*
X10502696Y13006933D01*
G37*
G36*
X9400590Y12857276D02*
G01*
X9393834Y12856616D01*
X9387586Y12854635D01*
X9382048Y12851384D01*
X9377324Y12846964D01*
X9373412Y12841376D01*
X9370517Y12834772D01*
X9368739Y12827203D01*
X9368078Y12818668D01*
X9368688Y12810185D01*
X9370466Y12802616D01*
X9373311Y12796062D01*
X9377121Y12790576D01*
X9381845Y12786156D01*
X9387281Y12782956D01*
X9393377Y12780975D01*
X9400082Y12780314D01*
X9406890Y12781026D01*
X9412833Y12783108D01*
X9418066Y12786461D01*
X9422688Y12790982D01*
X9417862Y12796316D01*
X9414154Y12792608D01*
X9410090Y12789916D01*
X9405518Y12788239D01*
X9400336Y12787680D01*
X9395206Y12788239D01*
X9390532Y12789916D01*
X9386519Y12792557D01*
X9383115Y12796164D01*
X9380372Y12800685D01*
X9378391Y12806019D01*
X9377172Y12812115D01*
X9376714Y12818922D01*
X9377172Y12825730D01*
X9378442Y12831826D01*
X9380474Y12837109D01*
X9383217Y12841579D01*
X9386671Y12845135D01*
X9390786Y12847777D01*
X9395409Y12849352D01*
X9400590Y12849910D01*
X9405264Y12849402D01*
X9409379Y12847980D01*
X9412986Y12845745D01*
X9416084Y12842798D01*
X9420910Y12848132D01*
X9417202Y12851638D01*
X9412579Y12854533D01*
X9407042Y12856565D01*
G37*
G36*
X9452660Y12857276D02*
G01*
X9446717Y12856616D01*
X9441332Y12854787D01*
X9436506Y12852044D01*
X9432086Y12848640D01*
X9436658Y12843052D01*
X9440113Y12846050D01*
X9443872Y12848386D01*
X9447987Y12850012D01*
X9452406Y12850672D01*
X9457893Y12849656D01*
X9461957Y12847116D01*
X9464497Y12843256D01*
X9465360Y12838226D01*
X9464294Y12832384D01*
X9460788Y12827711D01*
X9454337Y12824612D01*
X9444532Y12823494D01*
X9444532Y12817144D01*
X9455505Y12816027D01*
X9462820Y12812826D01*
X9466935Y12807950D01*
X9468154Y12801650D01*
X9466986Y12795656D01*
X9463735Y12791084D01*
X9458756Y12788188D01*
X9452406Y12787172D01*
X9446463Y12787884D01*
X9441484Y12789814D01*
X9437268Y12792557D01*
X9433610Y12795808D01*
X9429546Y12790474D01*
X9433560Y12786664D01*
X9438690Y12783413D01*
X9445091Y12781178D01*
X9452914Y12780314D01*
X9457740Y12780670D01*
X9462160Y12781788D01*
X9466122Y12783515D01*
X9469577Y12785902D01*
X9472371Y12788950D01*
X9474504Y12792557D01*
X9475825Y12796723D01*
X9476282Y12801396D01*
X9475063Y12808407D01*
X9471660Y12813995D01*
X9466681Y12818059D01*
X9460534Y12820446D01*
X9460534Y12820700D01*
X9465919Y12823545D01*
X9470085Y12827457D01*
X9472828Y12832588D01*
X9473742Y12838988D01*
X9472168Y12846812D01*
X9467799Y12852552D01*
X9461093Y12856057D01*
G37*
G36*
X10170820Y12937286D02*
G01*
X10164013Y12936626D01*
X10157815Y12934594D01*
X10152278Y12931394D01*
X10147503Y12926923D01*
X10143642Y12921386D01*
X10140746Y12914782D01*
X10138918Y12907213D01*
X10138308Y12898678D01*
X10138918Y12890195D01*
X10140696Y12882626D01*
X10143540Y12876072D01*
X10147350Y12870535D01*
X10152024Y12866166D01*
X10157460Y12862966D01*
X10163606Y12860985D01*
X10170312Y12860324D01*
X10177068Y12861036D01*
X10183012Y12863068D01*
X10188244Y12866420D01*
X10192918Y12870992D01*
X10188092Y12876326D01*
X10184333Y12872618D01*
X10180269Y12869926D01*
X10175697Y12868249D01*
X10170566Y12867690D01*
X10165384Y12868249D01*
X10160762Y12869875D01*
X10156698Y12872567D01*
X10153294Y12876174D01*
X10150602Y12880695D01*
X10148570Y12886029D01*
X10147350Y12892125D01*
X10146944Y12898932D01*
X10147350Y12905740D01*
X10148620Y12911836D01*
X10150652Y12917119D01*
X10153446Y12921589D01*
X10156901Y12925145D01*
X10160965Y12927787D01*
X10165638Y12929362D01*
X10170820Y12929920D01*
X10175494Y12929412D01*
X10179608Y12927990D01*
X10183215Y12925755D01*
X10186314Y12922808D01*
X10191140Y12928142D01*
X10187432Y12931597D01*
X10182758Y12934543D01*
X10177221Y12936524D01*
G37*
G36*
X10230256Y12936016D02*
G01*
X10199341Y12889026D01*
X10207396Y12889026D01*
X10225430Y12915442D01*
X10231272Y12926364D01*
X10231780Y12926364D01*
X10231272Y12913156D01*
X10231272Y12889026D01*
X10199341Y12889026D01*
X10198506Y12887756D01*
X10198506Y12882422D01*
X10231272Y12882422D01*
X10231272Y12861594D01*
X10238892Y12861594D01*
X10238892Y12882422D01*
X10249052Y12882422D01*
X10249052Y12889026D01*
X10238892Y12889026D01*
X10238892Y12936016D01*
G37*
G36*
X8485936Y12166904D02*
G01*
X8479332Y12166244D01*
X8473338Y12164314D01*
X8468004Y12161113D01*
X8463483Y12156744D01*
X8459774Y12151258D01*
X8457031Y12144756D01*
X8455304Y12137237D01*
X8454694Y12128804D01*
X8463330Y12128804D01*
X8463737Y12135561D01*
X8464956Y12141555D01*
X8466886Y12146788D01*
X8469477Y12151258D01*
X8472779Y12154763D01*
X8476640Y12157405D01*
X8481009Y12158980D01*
X8485936Y12159538D01*
X8490915Y12158980D01*
X8495385Y12157405D01*
X8499297Y12154763D01*
X8502599Y12151258D01*
X8505240Y12146788D01*
X8507171Y12141555D01*
X8508390Y12135561D01*
X8508796Y12128804D01*
X8508390Y12121845D01*
X8507171Y12115546D01*
X8505240Y12110110D01*
X8502599Y12105487D01*
X8499297Y12101779D01*
X8495385Y12099086D01*
X8490915Y12097410D01*
X8485936Y12096800D01*
X8481009Y12097410D01*
X8476640Y12099086D01*
X8472779Y12101779D01*
X8469477Y12105487D01*
X8466886Y12110110D01*
X8464956Y12115546D01*
X8463737Y12121845D01*
X8463330Y12128804D01*
X8454694Y12128804D01*
X8455202Y12120880D01*
X8456676Y12113768D01*
X8459012Y12107418D01*
X8462213Y12101982D01*
X8466124Y12097512D01*
X8470747Y12094006D01*
X8476030Y12091568D01*
X8481872Y12090196D01*
X8485886Y12083237D01*
X8491677Y12077750D01*
X8499246Y12074194D01*
X8508542Y12072924D01*
X8514486Y12073331D01*
X8516874Y12073788D01*
X8518702Y12074448D01*
X8517178Y12081052D01*
X8513826Y12080392D01*
X8509558Y12080036D01*
X8503564Y12080697D01*
X8498332Y12082576D01*
X8494014Y12085726D01*
X8490762Y12090196D01*
X8496503Y12091720D01*
X8501684Y12094260D01*
X8506256Y12097766D01*
X8510117Y12102287D01*
X8513216Y12107672D01*
X8515502Y12113920D01*
X8516924Y12120981D01*
X8517432Y12128804D01*
X8516823Y12137237D01*
X8515146Y12144756D01*
X8512352Y12151258D01*
X8508644Y12156744D01*
X8504072Y12161113D01*
X8498687Y12164314D01*
X8492591Y12166244D01*
G37*
G36*
X8551214Y12165634D02*
G01*
X8548065Y12164060D01*
X8544560Y12162637D01*
X8540597Y12161469D01*
X8535974Y12160554D01*
X8535974Y12155220D01*
X8549182Y12155220D01*
X8549182Y12098070D01*
X8532418Y12098070D01*
X8532418Y12091212D01*
X8572550Y12091212D01*
X8572550Y12098070D01*
X8557310Y12098070D01*
X8557310Y12165634D01*
G37*
G36*
X8485936Y11871502D02*
G01*
X8479332Y11870842D01*
X8473338Y11868912D01*
X8468004Y11865711D01*
X8463483Y11861342D01*
X8459774Y11855856D01*
X8457031Y11849354D01*
X8455304Y11841835D01*
X8454694Y11833402D01*
X8463330Y11833402D01*
X8463737Y11840159D01*
X8464956Y11846153D01*
X8466886Y11851386D01*
X8469477Y11855856D01*
X8472779Y11859361D01*
X8476640Y11862003D01*
X8481009Y11863628D01*
X8485936Y11864136D01*
X8490915Y11863628D01*
X8495385Y11862003D01*
X8499297Y11859361D01*
X8502599Y11855856D01*
X8505240Y11851386D01*
X8507171Y11846153D01*
X8508390Y11840159D01*
X8508796Y11833402D01*
X8508390Y11826443D01*
X8507171Y11820144D01*
X8505240Y11814708D01*
X8502599Y11810085D01*
X8499297Y11806377D01*
X8495385Y11803684D01*
X8490915Y11802008D01*
X8485936Y11801398D01*
X8481009Y11802008D01*
X8476640Y11803684D01*
X8472779Y11806377D01*
X8469477Y11810085D01*
X8466886Y11814708D01*
X8464956Y11820144D01*
X8463737Y11826443D01*
X8463330Y11833402D01*
X8454694Y11833402D01*
X8455202Y11825478D01*
X8456676Y11818366D01*
X8459012Y11812016D01*
X8462213Y11806580D01*
X8466124Y11802110D01*
X8470747Y11798604D01*
X8476030Y11796166D01*
X8481872Y11794794D01*
X8485886Y11787835D01*
X8491677Y11782348D01*
X8499246Y11778792D01*
X8508542Y11777522D01*
X8514486Y11777929D01*
X8516874Y11778386D01*
X8518702Y11779046D01*
X8517178Y11785650D01*
X8513826Y11784990D01*
X8509558Y11784634D01*
X8503564Y11785295D01*
X8498332Y11787174D01*
X8494014Y11790324D01*
X8490762Y11794794D01*
X8496503Y11796318D01*
X8501684Y11798858D01*
X8506256Y11802364D01*
X8510117Y11806885D01*
X8513216Y11812270D01*
X8515502Y11818518D01*
X8516924Y11825579D01*
X8517432Y11833402D01*
X8516823Y11841835D01*
X8515146Y11849354D01*
X8512352Y11855856D01*
X8508644Y11861342D01*
X8504072Y11865711D01*
X8498687Y11868912D01*
X8492591Y11870842D01*
G37*
G36*
X8549182Y11871502D02*
G01*
X8542782Y11870740D01*
X8537143Y11868556D01*
X8532164Y11865102D01*
X8527592Y11860580D01*
X8532418Y11856008D01*
X8535822Y11859463D01*
X8539632Y11862257D01*
X8543747Y11864187D01*
X8548166Y11864898D01*
X8554466Y11863730D01*
X8558885Y11860479D01*
X8561527Y11855602D01*
X8562390Y11849404D01*
X8561882Y11844477D01*
X8560358Y11839295D01*
X8557768Y11833809D01*
X8554110Y11828018D01*
X8549335Y11821871D01*
X8543442Y11815368D01*
X8536381Y11808358D01*
X8528100Y11800890D01*
X8528100Y11795810D01*
X8574074Y11795810D01*
X8574074Y11802922D01*
X8549792Y11802872D01*
X8540546Y11802414D01*
X8547100Y11808714D01*
X8552942Y11814911D01*
X8558072Y11820906D01*
X8562390Y11826798D01*
X8565845Y11832640D01*
X8568385Y11838381D01*
X8569960Y11844020D01*
X8570518Y11849658D01*
X8570163Y11854383D01*
X8569045Y11858650D01*
X8567267Y11862409D01*
X8564829Y11865559D01*
X8561730Y11868099D01*
X8558072Y11869978D01*
X8553907Y11871147D01*
G37*
G36*
X9346742Y12309652D02*
G01*
X9338919Y12308281D01*
X9332671Y12304420D01*
X9328454Y12298476D01*
X9326930Y12290856D01*
X9334550Y12290856D01*
X9335465Y12295886D01*
X9338005Y12299848D01*
X9341866Y12302388D01*
X9346742Y12303302D01*
X9352330Y12302236D01*
X9356496Y12299289D01*
X9359087Y12294920D01*
X9359950Y12289586D01*
X9359392Y12285421D01*
X9357817Y12281458D01*
X9355226Y12277750D01*
X9351822Y12274346D01*
X9345371Y12277039D01*
X9339834Y12280392D01*
X9336024Y12284862D01*
X9334550Y12290856D01*
X9326930Y12290856D01*
X9327743Y12285370D01*
X9329877Y12280696D01*
X9333026Y12276886D01*
X9336836Y12273838D01*
X9336836Y12273330D01*
X9331807Y12269978D01*
X9327388Y12265406D01*
X9324289Y12259614D01*
X9323207Y12253264D01*
X9330486Y12253264D01*
X9331299Y12258548D01*
X9333585Y12263272D01*
X9337040Y12267336D01*
X9341408Y12270790D01*
X9349079Y12267539D01*
X9355582Y12263780D01*
X9360052Y12258903D01*
X9361728Y12252248D01*
X9360662Y12246965D01*
X9357563Y12242749D01*
X9352838Y12240006D01*
X9346742Y12239040D01*
X9340342Y12240107D01*
X9335211Y12243104D01*
X9331756Y12247575D01*
X9330486Y12253264D01*
X9323207Y12253264D01*
X9323578Y12248591D01*
X9324898Y12244832D01*
X9326981Y12241428D01*
X9329775Y12238532D01*
X9333230Y12236196D01*
X9337294Y12234418D01*
X9341815Y12233300D01*
X9346742Y12232944D01*
X9356090Y12234418D01*
X9363303Y12238431D01*
X9367977Y12244527D01*
X9369602Y12251994D01*
X9368536Y12258802D01*
X9365742Y12264136D01*
X9361678Y12268301D01*
X9356902Y12271552D01*
X9356902Y12272060D01*
X9360408Y12275159D01*
X9363710Y12279325D01*
X9366148Y12284405D01*
X9367062Y12290094D01*
X9365691Y12297968D01*
X9361678Y12304166D01*
X9355277Y12308179D01*
G37*
G36*
X9265208Y12308636D02*
G01*
X9265208Y12301778D01*
X9286544Y12301778D01*
X9294469Y12301067D01*
X9300311Y12298730D01*
X9303867Y12294463D01*
X9305086Y12288062D01*
X9303867Y12281458D01*
X9300311Y12276886D01*
X9294469Y12274194D01*
X9286544Y12273330D01*
X9273590Y12273330D01*
X9273590Y12301778D01*
X9265208Y12301778D01*
X9265208Y12234214D01*
X9273590Y12234214D01*
X9273590Y12266218D01*
X9287560Y12266218D01*
X9306102Y12234214D01*
X9315500Y12234214D01*
X9296450Y12267234D01*
X9303562Y12269774D01*
X9308998Y12274092D01*
X9312503Y12280188D01*
X9313722Y12288062D01*
X9313214Y12293295D01*
X9311843Y12297714D01*
X9309557Y12301270D01*
X9306509Y12304064D01*
X9302699Y12306147D01*
X9298279Y12307570D01*
X9293301Y12308382D01*
X9287814Y12308636D01*
G37*
G36*
X9283954Y11798909D02*
G01*
X9279788Y11798452D01*
X9275876Y11797182D01*
X9272320Y11795099D01*
X9269272Y11792305D01*
X9266682Y11788800D01*
X9264751Y11784736D01*
X9263532Y11780113D01*
X9263126Y11775033D01*
X9271000Y11775033D01*
X9271965Y11781993D01*
X9274708Y11787479D01*
X9278823Y11791035D01*
X9283954Y11792305D01*
X9290761Y11790680D01*
X9295841Y11786006D01*
X9299194Y11778335D01*
X9300718Y11767921D01*
X9296908Y11763298D01*
X9292793Y11760149D01*
X9288678Y11758320D01*
X9284716Y11757761D01*
X9278721Y11758980D01*
X9274454Y11762486D01*
X9271863Y11767921D01*
X9271000Y11775033D01*
X9263126Y11775033D01*
X9263481Y11769547D01*
X9264548Y11764822D01*
X9266275Y11760809D01*
X9268612Y11757507D01*
X9271558Y11754967D01*
X9275013Y11753138D01*
X9278975Y11752021D01*
X9283446Y11751665D01*
X9288170Y11752275D01*
X9292793Y11754154D01*
X9297111Y11757101D01*
X9300972Y11761063D01*
X9300311Y11752732D01*
X9299041Y11745823D01*
X9297162Y11740235D01*
X9294723Y11735866D01*
X9291929Y11732615D01*
X9288780Y11730431D01*
X9285325Y11729161D01*
X9281668Y11728805D01*
X9278112Y11729161D01*
X9274759Y11730278D01*
X9271762Y11732107D01*
X9269222Y11734647D01*
X9264396Y11729313D01*
X9267748Y11726316D01*
X9271711Y11723979D01*
X9276435Y11722455D01*
X9281922Y11721947D01*
X9287103Y11722455D01*
X9291980Y11724182D01*
X9296501Y11727129D01*
X9300514Y11731447D01*
X9303816Y11737187D01*
X9306407Y11744452D01*
X9308033Y11753291D01*
X9308592Y11763857D01*
X9308134Y11772036D01*
X9306763Y11779199D01*
X9304629Y11785193D01*
X9301683Y11790121D01*
X9298127Y11793982D01*
X9293910Y11796725D01*
X9289186Y11798350D01*
G37*
G36*
X9205214Y11797639D02*
G01*
X9205214Y11790781D01*
X9226550Y11790781D01*
X9234474Y11790070D01*
X9240316Y11787733D01*
X9243872Y11783466D01*
X9245092Y11777065D01*
X9243872Y11770461D01*
X9240316Y11765889D01*
X9234474Y11763197D01*
X9226550Y11762333D01*
X9213596Y11762333D01*
X9213596Y11790781D01*
X9205214Y11790781D01*
X9205214Y11723217D01*
X9213596Y11723217D01*
X9213596Y11755221D01*
X9227566Y11755221D01*
X9246108Y11723217D01*
X9255506Y11723217D01*
X9236456Y11756237D01*
X9243568Y11758777D01*
X9249003Y11763095D01*
X9252508Y11769191D01*
X9253728Y11777065D01*
X9253220Y11782298D01*
X9251797Y11786666D01*
X9249562Y11790273D01*
X9246463Y11793067D01*
X9242704Y11795150D01*
X9238284Y11796572D01*
X9233306Y11797385D01*
X9227820Y11797639D01*
G37*
G36*
X9127490Y11804294D02*
G01*
X9122460Y11803684D01*
X9117990Y11801957D01*
X9114129Y11799011D01*
X9110827Y11794845D01*
X9108186Y11789511D01*
X9106204Y11782958D01*
X9105036Y11775186D01*
X9104630Y11766194D01*
X9112504Y11766194D01*
X9112758Y11773763D01*
X9113570Y11780215D01*
X9114891Y11785650D01*
X9116669Y11790019D01*
X9118854Y11793423D01*
X9121394Y11795810D01*
X9124289Y11797233D01*
X9127490Y11797690D01*
X9130588Y11797233D01*
X9133382Y11795810D01*
X9135872Y11793423D01*
X9137954Y11790019D01*
X9139631Y11785650D01*
X9140901Y11780215D01*
X9141663Y11773763D01*
X9141968Y11766194D01*
X9141663Y11758371D01*
X9140901Y11751716D01*
X9139631Y11746179D01*
X9137954Y11741658D01*
X9135872Y11738254D01*
X9133382Y11735816D01*
X9130588Y11734393D01*
X9127490Y11733936D01*
X9124289Y11734393D01*
X9121394Y11735816D01*
X9118854Y11738254D01*
X9116669Y11741658D01*
X9114891Y11746179D01*
X9113570Y11751716D01*
X9112758Y11758371D01*
X9112504Y11766194D01*
X9104630Y11766194D01*
X9105036Y11756999D01*
X9106204Y11749074D01*
X9108186Y11742369D01*
X9110827Y11736933D01*
X9114129Y11732717D01*
X9117990Y11729720D01*
X9122460Y11727942D01*
X9127490Y11727332D01*
X9132468Y11727942D01*
X9136888Y11729720D01*
X9140748Y11732717D01*
X9144000Y11736933D01*
X9146590Y11742369D01*
X9148521Y11749074D01*
X9149689Y11756999D01*
X9150096Y11766194D01*
X9149689Y11775186D01*
X9148521Y11782958D01*
X9146590Y11789511D01*
X9144000Y11794845D01*
X9140748Y11799011D01*
X9136888Y11801957D01*
X9132468Y11803684D01*
G37*
G36*
X8990330Y11803024D02*
G01*
X8990330Y11796166D01*
X9011920Y11796166D01*
X9019844Y11795455D01*
X9025636Y11793118D01*
X9029242Y11788851D01*
X9030462Y11782450D01*
X9029242Y11775846D01*
X9025636Y11771274D01*
X9019844Y11768582D01*
X9011920Y11767718D01*
X8998712Y11767718D01*
X8998712Y11796166D01*
X8990330Y11796166D01*
X8990330Y11728602D01*
X8998712Y11728602D01*
X8998712Y11760606D01*
X9012682Y11760606D01*
X9031224Y11728602D01*
X9040876Y11728602D01*
X9021572Y11761622D01*
X9028633Y11764213D01*
X9034119Y11768480D01*
X9037574Y11774576D01*
X9038844Y11782450D01*
X9038336Y11787682D01*
X9036913Y11792102D01*
X9034678Y11795658D01*
X9031630Y11798452D01*
X9027871Y11800535D01*
X9023502Y11801957D01*
X9018574Y11802770D01*
X9013190Y11803024D01*
G37*
G36*
X9071356Y11803024D02*
G01*
X9068308Y11801398D01*
X9064802Y11799976D01*
X9060840Y11798858D01*
X9056370Y11797944D01*
X9056370Y11792610D01*
X9069324Y11792610D01*
X9069324Y11735460D01*
X9052814Y11735460D01*
X9052814Y11728602D01*
X9092692Y11728602D01*
X9092692Y11735460D01*
X9077706Y11735460D01*
X9077706Y11803024D01*
G37*
G36*
X9153296Y12164009D02*
G01*
X9153296Y12155627D01*
X9220860Y12155627D01*
X9220860Y12142419D01*
X9220098Y12134494D01*
X9217660Y12128703D01*
X9213342Y12125096D01*
X9206890Y12123877D01*
X9200388Y12125096D01*
X9195816Y12128703D01*
X9193072Y12134494D01*
X9192158Y12142419D01*
X9192158Y12155627D01*
X9185300Y12155627D01*
X9185300Y12141657D01*
X9153296Y12123115D01*
X9153296Y12113463D01*
X9186062Y12132767D01*
X9188754Y12125706D01*
X9193022Y12120219D01*
X9199067Y12116765D01*
X9206890Y12115495D01*
X9212122Y12116003D01*
X9216542Y12117425D01*
X9220149Y12119660D01*
X9222994Y12122708D01*
X9225127Y12126468D01*
X9226600Y12130836D01*
X9227413Y12135764D01*
X9227718Y12141149D01*
X9227718Y12164009D01*
G37*
G36*
X9153296Y12101525D02*
G01*
X9153296Y12061647D01*
X9160154Y12061647D01*
X9160154Y12076633D01*
X9227718Y12076633D01*
X9227718Y12082983D01*
X9225991Y12086031D01*
X9224568Y12089536D01*
X9223502Y12093498D01*
X9222638Y12097969D01*
X9217050Y12097969D01*
X9217050Y12085015D01*
X9160154Y12085015D01*
X9160154Y12101525D01*
G37*
G36*
X9153296Y12045899D02*
G01*
X9153296Y12005767D01*
X9160154Y12005767D01*
X9160154Y12021007D01*
X9227718Y12021007D01*
X9227718Y12027103D01*
X9225991Y12030303D01*
X9224568Y12033808D01*
X9223502Y12037771D01*
X9222638Y12042343D01*
X9217050Y12042343D01*
X9217050Y12029135D01*
X9160154Y12029135D01*
X9160154Y12045899D01*
G37*
D10*
X9500026Y11975304D02*
G01*
X9500026Y11866084D01*
X9500026Y11975304D02*
G01*
X9546762Y11975304D01*
X9562256Y11969970D01*
X9567336Y11964890D01*
X9572670Y11954476D01*
X9572670Y11938982D01*
X9567336Y11928568D01*
X9562256Y11923234D01*
X9546762Y11918154D01*
X9500026Y11918154D01*
X9606960Y11975304D02*
G01*
X9606960Y11866084D01*
X9606960Y11975304D02*
G01*
X9653696Y11975304D01*
X9669190Y11969970D01*
X9674524Y11964890D01*
X9679604Y11954476D01*
X9679604Y11944062D01*
X9674524Y11933648D01*
X9669190Y11928568D01*
X9653696Y11923234D01*
X9606960Y11923234D01*
X9643282Y11923234D02*
G01*
X9679604Y11866084D01*
X9791872Y11949396D02*
G01*
X9786792Y11959556D01*
X9776378Y11969970D01*
X9765964Y11975304D01*
X9745136Y11975304D01*
X9734722Y11969970D01*
X9724308Y11959556D01*
X9719228Y11949396D01*
X9713894Y11933648D01*
X9713894Y11907740D01*
X9719228Y11892246D01*
X9724308Y11881832D01*
X9734722Y11871418D01*
X9745136Y11866084D01*
X9765964Y11866084D01*
X9776378Y11871418D01*
X9786792Y11881832D01*
X9791872Y11892246D01*
X9791872Y11907740D01*
X9765964Y11907740D02*
G01*
X9791872Y11907740D01*
X8139973Y10105285D02*
G01*
X8139973Y9996319D01*
X8139973Y9996319D02*
G01*
X8202203Y9996319D01*
X8236493Y10105285D02*
G01*
X8236493Y9996319D01*
X8236493Y10105285D02*
G01*
X8304057Y10105285D01*
X8236493Y10053469D02*
G01*
X8278149Y10053469D01*
X8236493Y9996319D02*
G01*
X8304057Y9996319D01*
X8338347Y10105285D02*
G01*
X8338347Y9996319D01*
X8338347Y10105285D02*
G01*
X8374923Y10105285D01*
X8390417Y10100205D01*
X8400831Y10089791D01*
X8405911Y10079377D01*
X8411245Y10063629D01*
X8411245Y10037721D01*
X8405911Y10022227D01*
X8400831Y10011813D01*
X8390417Y10001399D01*
X8374923Y9996319D01*
X8338347Y9996319D01*
X8476523Y10105285D02*
G01*
X8461029Y10100205D01*
X8450615Y10084457D01*
X8445535Y10058549D01*
X8445535Y10043055D01*
X8450615Y10016893D01*
X8461029Y10001399D01*
X8476523Y9996319D01*
X8486937Y9996319D01*
X8502685Y10001399D01*
X8513099Y10016893D01*
X8518179Y10043055D01*
X8518179Y10058549D01*
X8513099Y10084457D01*
X8502685Y10100205D01*
X8486937Y10105285D01*
X8476523Y10105285D01*
X8149973Y8665311D02*
G01*
X8149973Y8556345D01*
X8149973Y8556345D02*
G01*
X8212203Y8556345D01*
X8246493Y8665311D02*
G01*
X8246493Y8556345D01*
X8246493Y8665311D02*
G01*
X8314057Y8665311D01*
X8246493Y8613495D02*
G01*
X8288149Y8613495D01*
X8246493Y8556345D02*
G01*
X8314057Y8556345D01*
X8348347Y8665311D02*
G01*
X8348347Y8556345D01*
X8348347Y8665311D02*
G01*
X8384923Y8665311D01*
X8400417Y8660231D01*
X8410831Y8649817D01*
X8415911Y8639403D01*
X8421245Y8623655D01*
X8421245Y8597747D01*
X8415911Y8582253D01*
X8410831Y8571839D01*
X8400417Y8561425D01*
X8384923Y8556345D01*
X8348347Y8556345D01*
X8455535Y8644483D02*
G01*
X8465949Y8649817D01*
X8481443Y8665311D01*
X8481443Y8556345D01*
X10379953Y10105293D02*
G01*
X10379953Y9996327D01*
X10379953Y9996327D02*
G01*
X10442183Y9996327D01*
X10476473Y10105293D02*
G01*
X10476473Y9996327D01*
X10476473Y10105293D02*
G01*
X10544037Y10105293D01*
X10476473Y10053477D02*
G01*
X10518129Y10053477D01*
X10476473Y9996327D02*
G01*
X10544037Y9996327D01*
X10578327Y10105293D02*
G01*
X10578327Y9996327D01*
X10578327Y10105293D02*
G01*
X10614903Y10105293D01*
X10630397Y10100213D01*
X10640811Y10089799D01*
X10645891Y10079385D01*
X10651225Y10063637D01*
X10651225Y10037729D01*
X10645891Y10022235D01*
X10640811Y10011821D01*
X10630397Y10001407D01*
X10614903Y9996327D01*
X10578327Y9996327D01*
X10690595Y10079385D02*
G01*
X10690595Y10084465D01*
X10695929Y10094879D01*
X10701009Y10100213D01*
X10711423Y10105293D01*
X10732251Y10105293D01*
X10742665Y10100213D01*
X10747745Y10094879D01*
X10753079Y10084465D01*
X10753079Y10074051D01*
X10747745Y10063637D01*
X10737331Y10048143D01*
X10685515Y9996327D01*
X10758159Y9996327D01*
X10369966Y8665311D02*
G01*
X10369966Y8556345D01*
X10369966Y8556345D02*
G01*
X10432196Y8556345D01*
X10466486Y8665311D02*
G01*
X10466486Y8556345D01*
X10466486Y8665311D02*
G01*
X10534050Y8665311D01*
X10466486Y8613495D02*
G01*
X10508142Y8613495D01*
X10466486Y8556345D02*
G01*
X10534050Y8556345D01*
X10568340Y8665311D02*
G01*
X10568340Y8556345D01*
X10568340Y8665311D02*
G01*
X10604916Y8665311D01*
X10620410Y8660231D01*
X10630824Y8649817D01*
X10635904Y8639403D01*
X10641238Y8623655D01*
X10641238Y8597747D01*
X10635904Y8582253D01*
X10630824Y8571839D01*
X10620410Y8561425D01*
X10604916Y8556345D01*
X10568340Y8556345D01*
X10685942Y8665311D02*
G01*
X10743092Y8665311D01*
X10711850Y8623655D01*
X10727344Y8623655D01*
X10737758Y8618575D01*
X10743092Y8613495D01*
X10748172Y8597747D01*
X10748172Y8587333D01*
X10743092Y8571839D01*
X10732678Y8561425D01*
X10716930Y8556345D01*
X10701436Y8556345D01*
X10685942Y8561425D01*
X10680608Y8566505D01*
X10675528Y8576919D01*
X9410095Y11525412D02*
G01*
X9410095Y11447434D01*
X9415175Y11431940D01*
X9425589Y11421526D01*
X9441083Y11416192D01*
X9451497Y11416192D01*
X9467245Y11421526D01*
X9477405Y11431940D01*
X9482739Y11447434D01*
X9482739Y11525412D01*
X9558685Y11525412D02*
G01*
X9517029Y11416192D01*
X9558685Y11525412D02*
G01*
X9600087Y11416192D01*
X9532523Y11452514D02*
G01*
X9584593Y11452514D01*
X9634377Y11525412D02*
G01*
X9634377Y11416192D01*
X9634377Y11525412D02*
G01*
X9681113Y11525412D01*
X9696861Y11520078D01*
X9701941Y11514998D01*
X9707275Y11504584D01*
X9707275Y11494170D01*
X9701941Y11483756D01*
X9696861Y11478676D01*
X9681113Y11473342D01*
X9634377Y11473342D01*
X9670699Y11473342D02*
G01*
X9707275Y11416192D01*
X9777887Y11525412D02*
G01*
X9777887Y11416192D01*
X9741565Y11525412D02*
G01*
X9814209Y11525412D01*
X9409915Y13445340D02*
G01*
X9409915Y13336120D01*
X9409915Y13445340D02*
G01*
X9456651Y13445340D01*
X9472399Y13440006D01*
X9477479Y13434926D01*
X9482813Y13424512D01*
X9482813Y13409018D01*
X9477479Y13398604D01*
X9472399Y13393270D01*
X9456651Y13388190D01*
X9409915Y13388190D01*
X9517103Y13445340D02*
G01*
X9543011Y13336120D01*
X9568919Y13445340D02*
G01*
X9543011Y13336120D01*
X9568919Y13445340D02*
G01*
X9594827Y13336120D01*
X9620989Y13445340D02*
G01*
X9594827Y13336120D01*
X9655279Y13445340D02*
G01*
X9655279Y13336120D01*
X9655279Y13445340D02*
G01*
X9702015Y13445340D01*
X9717509Y13440006D01*
X9722843Y13434926D01*
X9727923Y13424512D01*
X9727923Y13414098D01*
X9722843Y13403684D01*
X9717509Y13398604D01*
X9702015Y13393270D01*
X9655279Y13393270D01*
X9691601Y13393270D02*
G01*
X9727923Y13336120D01*
X9762213Y13299798D02*
G01*
X9855685Y13299798D01*
X9952459Y13445340D02*
G01*
X9900389Y13445340D01*
X9895309Y13398604D01*
X9900389Y13403684D01*
X9916137Y13409018D01*
X9931631Y13409018D01*
X9947125Y13403684D01*
X9957539Y13393270D01*
X9962873Y13377776D01*
X9962873Y13367362D01*
X9957539Y13351868D01*
X9947125Y13341454D01*
X9931631Y13336120D01*
X9916137Y13336120D01*
X9900389Y13341454D01*
X9895309Y13346534D01*
X9889975Y13356948D01*
X9997163Y13445340D02*
G01*
X10038565Y13336120D01*
X10080221Y13445340D02*
G01*
X10038565Y13336120D01*
X8454664Y12269983D02*
G01*
X8563630Y12269983D01*
X8454664Y12269983D02*
G01*
X8454664Y12306305D01*
X8459744Y12322053D01*
X8470158Y12332213D01*
X8480572Y12337547D01*
X8496320Y12342627D01*
X8522228Y12342627D01*
X8537722Y12337547D01*
X8548136Y12332213D01*
X8558550Y12322053D01*
X8563630Y12306305D01*
X8563630Y12269983D01*
X8454664Y12376917D02*
G01*
X8563630Y12376917D01*
X8454664Y12376917D02*
G01*
X8454664Y12444481D01*
X8506480Y12376917D02*
G01*
X8506480Y12418573D01*
X8563630Y12376917D02*
G01*
X8563630Y12444481D01*
X8454664Y12478771D02*
G01*
X8563630Y12520427D01*
X8454664Y12562083D02*
G01*
X8563630Y12520427D01*
X8454664Y12596373D02*
G01*
X8563630Y12596373D01*
X8480572Y12708387D02*
G01*
X8470158Y12703307D01*
X8459744Y12692893D01*
X8454664Y12682479D01*
X8454664Y12661651D01*
X8459744Y12651237D01*
X8470158Y12640823D01*
X8480572Y12635743D01*
X8496320Y12630663D01*
X8522228Y12630663D01*
X8537722Y12635743D01*
X8548136Y12640823D01*
X8558550Y12651237D01*
X8563630Y12661651D01*
X8563630Y12682479D01*
X8558550Y12692893D01*
X8548136Y12703307D01*
X8537722Y12708387D01*
X8454664Y12742677D02*
G01*
X8563630Y12742677D01*
X8454664Y12742677D02*
G01*
X8454664Y12810241D01*
X8506480Y12742677D02*
G01*
X8506480Y12784333D01*
X8563630Y12742677D02*
G01*
X8563630Y12810241D01*
X8600206Y12844531D02*
G01*
X8600206Y12938003D01*
X8454664Y12972293D02*
G01*
X8563630Y12972293D01*
X8454664Y13006583D02*
G01*
X8563630Y13006583D01*
X8454664Y13006583D02*
G01*
X8454664Y13043159D01*
X8459744Y13058653D01*
X8470158Y13069067D01*
X8480572Y13074147D01*
X8496320Y13079481D01*
X8522228Y13079481D01*
X8537722Y13074147D01*
X8548136Y13069067D01*
X8558550Y13058653D01*
X8563630Y13043159D01*
X8563630Y13006583D01*
D11*
X9184749Y12788404D02*
G01*
X9182463Y12793230D01*
X9177891Y12797802D01*
X9173319Y12800088D01*
X9166207Y12802374D01*
X9154777Y12802374D01*
X9147919Y12800088D01*
X9143093Y12797802D01*
X9138521Y12793230D01*
X9136235Y12788404D01*
X9136235Y12779260D01*
X9138521Y12774688D01*
X9143093Y12770116D01*
X9147919Y12767830D01*
X9154777Y12765544D01*
X9166207Y12765544D01*
X9173319Y12767830D01*
X9177891Y12770116D01*
X9182463Y12774688D01*
X9184749Y12779260D01*
X9184749Y12788404D01*
X9184749Y12750304D02*
G01*
X9136235Y12750304D01*
X9184749Y12750304D02*
G01*
X9136235Y12717792D01*
X9184749Y12717792D02*
G01*
X9136235Y12717792D01*
X9057759Y12788397D02*
G01*
X9055481Y12793223D01*
X9050903Y12797795D01*
X9046324Y12800083D01*
X9039217Y12802367D01*
X9027782Y12802367D01*
X9020924Y12800083D01*
X9016105Y12797795D01*
X9011526Y12793223D01*
X9009250Y12788397D01*
X9009250Y12779255D01*
X9011526Y12774683D01*
X9016105Y12770111D01*
X9020924Y12767823D01*
X9027782Y12765539D01*
X9039217Y12765539D01*
X9046324Y12767823D01*
X9050903Y12770111D01*
X9055481Y12774683D01*
X9057759Y12779255D01*
X9057759Y12788397D01*
X9057759Y12750297D02*
G01*
X9009250Y12750297D01*
X9057759Y12750297D02*
G01*
X9009250Y12717787D01*
X9057759Y12717787D02*
G01*
X9009250Y12717787D01*
X8930759Y12788402D02*
G01*
X8928481Y12793228D01*
X8923903Y12797800D01*
X8919336Y12800083D01*
X8912227Y12802367D01*
X8900792Y12802367D01*
X8893936Y12800083D01*
X8889105Y12797800D01*
X8884538Y12793228D01*
X8882250Y12788402D01*
X8882250Y12779250D01*
X8884538Y12774683D01*
X8889105Y12770116D01*
X8893936Y12767828D01*
X8900792Y12765544D01*
X8912227Y12765544D01*
X8919336Y12767828D01*
X8923903Y12770116D01*
X8928481Y12774683D01*
X8930759Y12779250D01*
X8930759Y12788402D01*
X8930759Y12750302D02*
G01*
X8882250Y12750302D01*
X8930759Y12750302D02*
G01*
X8882250Y12717792D01*
X8930759Y12717792D02*
G01*
X8882250Y12717792D01*
X8803749Y12788404D02*
G01*
X8801470Y12793230D01*
X8796891Y12797802D01*
X8792324Y12800088D01*
X8785219Y12802374D01*
X8773782Y12802374D01*
X8766924Y12800088D01*
X8762093Y12797802D01*
X8757526Y12793230D01*
X8755237Y12788404D01*
X8755237Y12779260D01*
X8757526Y12774688D01*
X8762093Y12770116D01*
X8766924Y12767830D01*
X8773782Y12765544D01*
X8785219Y12765544D01*
X8792324Y12767830D01*
X8796891Y12770116D01*
X8801470Y12774688D01*
X8803749Y12779260D01*
X8803749Y12788404D01*
X8803749Y12750304D02*
G01*
X8755237Y12750304D01*
X8803749Y12750304D02*
G01*
X8755237Y12717792D01*
X8803749Y12717792D02*
G01*
X8755237Y12717792D01*
D10*
X10455320Y12599987D02*
G01*
X10346354Y12599987D01*
X10455320Y12599987D02*
G01*
X10455320Y12553251D01*
X10450240Y12537503D01*
X10445160Y12532423D01*
X10434746Y12527089D01*
X10424332Y12527089D01*
X10413918Y12532423D01*
X10408584Y12537503D01*
X10403504Y12553251D01*
X10403504Y12599987D01*
X10403504Y12563665D02*
G01*
X10346354Y12527089D01*
X10455320Y12492799D02*
G01*
X10346354Y12492799D01*
X10455320Y12492799D02*
G01*
X10455320Y12425235D01*
X10403504Y12492799D02*
G01*
X10403504Y12451397D01*
X10346354Y12492799D02*
G01*
X10346354Y12425235D01*
X10439826Y12318301D02*
G01*
X10450240Y12328715D01*
X10455320Y12344209D01*
X10455320Y12365037D01*
X10450240Y12380785D01*
X10439826Y12390945D01*
X10429412Y12390945D01*
X10418998Y12385865D01*
X10413918Y12380785D01*
X10408584Y12370371D01*
X10398170Y12339129D01*
X10393090Y12328715D01*
X10388010Y12323635D01*
X10377596Y12318301D01*
X10361848Y12318301D01*
X10351434Y12328715D01*
X10346354Y12344209D01*
X10346354Y12365037D01*
X10351434Y12380785D01*
X10361848Y12390945D01*
X10455320Y12284011D02*
G01*
X10346354Y12284011D01*
X10455320Y12284011D02*
G01*
X10455320Y12216447D01*
X10403504Y12284011D02*
G01*
X10403504Y12242355D01*
X10346354Y12284011D02*
G01*
X10346354Y12216447D01*
X10455320Y12145835D02*
G01*
X10346354Y12145835D01*
X10455320Y12182157D02*
G01*
X10455320Y12109513D01*
D12*
X9385980Y11592976D02*
G01*
X9385980Y11846976D01*
X9893980Y11846976D01*
X9893980Y11592976D01*
X9703480Y11592976D01*
D13*
X9385980Y11592976D02*
G01*
X9703480Y11592976D01*
D14*
X9422282Y9384080D02*
G01*
X9422282Y9358680D01*
X9295282Y9358680D01*
X8177682Y9942880D02*
G01*
X8177682Y9498380D01*
X8330082Y9358680D02*
G01*
X8177682Y9358680D01*
X8177682Y9384080D01*
X9079382Y9358680D02*
G01*
X8545982Y9358680D01*
X8177682Y9942880D02*
G01*
X9422282Y9942880D01*
X9422282Y9498380D01*
X9422282Y8734082D02*
G01*
X9422282Y8708682D01*
X9295282Y8708682D01*
X8177682Y9292882D02*
G01*
X8177682Y8848382D01*
X8330082Y8708682D02*
G01*
X8177682Y8708682D01*
X8177682Y8734082D01*
X9079382Y8708682D02*
G01*
X8545982Y8708682D01*
X8177682Y9292882D02*
G01*
X9422282Y9292882D01*
X9422282Y8848382D01*
X10722279Y9384080D02*
G01*
X10722279Y9358680D01*
X10595279Y9358680D01*
X9477679Y9942880D02*
G01*
X9477679Y9498380D01*
X9630079Y9358680D02*
G01*
X9477679Y9358680D01*
X9477679Y9384080D01*
X10379379Y9358680D02*
G01*
X9845979Y9358680D01*
X9477679Y9942880D02*
G01*
X10722279Y9942880D01*
X10722279Y9498380D01*
X10722279Y8734082D02*
G01*
X10722279Y8708682D01*
X10595279Y8708682D01*
X9477679Y9292882D02*
G01*
X9477679Y8848382D01*
X9630079Y8708682D02*
G01*
X9477679Y8708682D01*
X9477679Y8734082D01*
X10379379Y8708682D02*
G01*
X9845979Y8708682D01*
X9477679Y9292882D02*
G01*
X10722279Y9292882D01*
X10722279Y8848382D01*
D10*
X8686043Y13332594D02*
G01*
X8686043Y13428482D01*
X8553922Y13428482D01*
X8553922Y13332594D01*
X8686043Y13247352D02*
G01*
X8686043Y13151464D01*
X8553922Y13151464D01*
X8553922Y13247352D01*
X8886042Y13332594D02*
G01*
X8886042Y13428482D01*
X8753922Y13428482D01*
X8753922Y13332594D01*
X8886042Y13247352D02*
G01*
X8886042Y13151464D01*
X8753922Y13151464D01*
X8753922Y13247352D01*
X9086047Y13332594D02*
G01*
X9086047Y13428482D01*
X8953926Y13428482D01*
X8953926Y13332594D01*
X9086047Y13247352D02*
G01*
X9086047Y13151464D01*
X8953926Y13151464D01*
X8953926Y13247352D01*
X9286041Y13332594D02*
G01*
X9286041Y13428482D01*
X9153921Y13428482D01*
X9153921Y13332594D01*
X9286041Y13247352D02*
G01*
X9286041Y13151464D01*
X9153921Y13151464D01*
X9153921Y13247352D01*
D14*
X9089936Y11007564D02*
G01*
X8764562Y11007564D01*
X8764562Y10012392D01*
X9132862Y10012392D01*
X9132862Y11007564D01*
X9089936Y11007564D01*
X10069934Y11007564D02*
G01*
X9744560Y11007564D01*
X9744560Y10012392D01*
X10112860Y10012392D01*
X10112860Y11007564D01*
X10069934Y11007564D01*
D12*
X8828481Y11376977D02*
G01*
X8637981Y11376977D01*
X8637981Y11122977D01*
X10161981Y11122977D01*
X10161981Y11376977D01*
D13*
X10161981Y11376977D02*
G01*
X8828481Y11376977D01*
D14*
X10118280Y12908673D02*
G01*
X10118280Y12934073D01*
X9381680Y12908673D02*
G01*
X9381680Y12934073D01*
X10118280Y12908673D02*
G01*
X10003980Y12908673D01*
X9622980Y12908673D02*
G01*
X9876980Y12908673D01*
X9381680Y12908673D02*
G01*
X9483280Y12908673D01*
X9381680Y13048373D02*
G01*
X9381680Y13492873D01*
X9381680Y13492873D02*
G01*
X10118280Y13492873D01*
X10118280Y13048373D01*
X9223992Y12903974D02*
G01*
X9223992Y12395974D01*
X9096992Y12903974D02*
G01*
X9096992Y12395974D01*
X8842992Y12903974D02*
G01*
X8842992Y12395974D01*
X8842992Y12903974D01*
X8842992Y12395974D01*
X8842992Y12903974D01*
X8969992Y12395974D02*
G01*
X8969992Y12903974D01*
X8969992Y12395974D01*
X8969992Y12903974D01*
X8715992Y12903974D02*
G01*
X8715992Y12395974D01*
X9096992Y12395974D02*
G01*
X9096992Y12903974D01*
X9304992Y12919974D02*
G01*
X8634994Y12919974D01*
X8634994Y12379975D01*
X9304992Y12379975D01*
X9304992Y12919974D01*
X8969992Y12586474D02*
G01*
X9096992Y12586474D01*
X9223992Y12459474D01*
X9096992Y12459474D01*
X8969992Y12459474D01*
X8842992Y12586474D01*
X8969992Y12586474D01*
X9096992Y12459474D01*
X8842992Y12586474D02*
G01*
X8715992Y12586474D01*
X8842992Y12459474D01*
X8969992Y12459474D01*
X8779492Y12586474D02*
G01*
X8842992Y12522974D01*
X8906492Y12459474D01*
X8906492Y12586474D02*
G01*
X8969992Y12522974D01*
X9033492Y12459474D01*
X9033492Y12586474D02*
G01*
X9096992Y12522974D01*
X9160492Y12459474D01*
X9096992Y12586474D02*
G01*
X9223992Y12586474D01*
X9160492Y12586474D02*
G01*
X9223992Y12522974D01*
X8715992Y12522974D02*
G01*
X8779492Y12459474D01*
X8715992Y12459474D02*
G01*
X8842992Y12459474D01*
X10199979Y12669974D02*
G01*
X10199979Y12633088D01*
X10199979Y12066861D02*
G01*
X10199979Y12029975D01*
X9579983Y12029975D02*
G01*
X10199979Y12029975D01*
X9579983Y12669974D02*
G01*
X10199979Y12669974D01*
X9579983Y12669974D02*
G01*
X9579983Y12633088D01*
X9579983Y12466861D02*
G01*
X9579983Y12233089D01*
X9579983Y12066861D02*
G01*
X9579983Y12029975D01*
X10199979Y12466861D02*
G01*
X10199979Y12233089D01*
D10*
X10533918Y10267358D02*
G01*
X10533918Y10171470D01*
X10666039Y10171470D01*
X10666039Y10267358D01*
X10533918Y10352600D02*
G01*
X10533918Y10448488D01*
X10666039Y10448488D01*
X10666039Y10352600D01*
X10253919Y11187356D02*
G01*
X10253919Y11091468D01*
X10386039Y11091468D01*
X10386039Y11187356D01*
X10253919Y11272598D02*
G01*
X10253919Y11368486D01*
X10386039Y11368486D01*
X10386039Y11272598D01*
D15*
X10233652Y11741312D02*
G01*
X10185054Y11741312D01*
X10180693Y11745676D01*
X10204991Y11769973D02*
G01*
X10159987Y11729976D01*
X10159987Y11729976D02*
G01*
X10244988Y11729976D01*
X10244145Y11730819D02*
G01*
X10204991Y11769973D01*
X10220566Y11754396D02*
G01*
X10189753Y11754396D01*
X10189585Y11754563D01*
X10204991Y11739971D02*
G01*
X10204991Y11769973D01*
X10276179Y11789686D02*
G01*
X10274983Y11869844D01*
X10123779Y11782071D02*
G01*
X10124975Y11869844D01*
X10124975Y11737256D02*
G01*
X10124975Y11612252D01*
X10164980Y11899839D02*
G01*
X10154978Y11899839D01*
X10124975Y11869844D01*
X10234973Y11899839D02*
G01*
X10244988Y11899839D01*
X10274983Y11869844D01*
X10234973Y11899839D02*
G01*
X10164980Y11899839D01*
X10274970Y11612252D02*
G01*
X10126979Y11612252D01*
X10274983Y11737256D02*
G01*
X10274983Y11612252D01*
D10*
X10096040Y11792597D02*
G01*
X10096040Y11888485D01*
X9963919Y11888485D01*
X9963919Y11792597D01*
X10096040Y11707355D02*
G01*
X10096040Y11611467D01*
X9963919Y11611467D01*
X9963919Y11707355D01*
X10399240Y13008853D02*
G01*
X10399240Y13157352D01*
X10180718Y13157352D02*
G01*
X10180718Y13008853D01*
X10195958Y12993613D02*
G01*
X10384000Y12993613D01*
X10399240Y13491093D02*
G01*
X10399240Y13342594D01*
X10180718Y13342594D02*
G01*
X10180718Y13491093D01*
X10195958Y13506333D02*
G01*
X10384000Y13506333D01*
D14*
X10300002Y12938975D02*
G01*
X10380004Y12938975D01*
X10269016Y12828000D02*
G01*
X10269016Y12907998D01*
X10410982Y12828000D02*
G01*
X10410982Y12907998D01*
X10268435Y12770411D02*
G01*
X10268435Y12690411D01*
X10299418Y12659428D02*
G01*
X10379415Y12659428D01*
X10410395Y12770411D02*
G01*
X10410395Y12690411D01*
X9798982Y12819951D02*
G01*
X9798982Y12739949D01*
X9688007Y12850936D02*
G01*
X9768004Y12850936D01*
X9688007Y12708971D02*
G01*
X9768004Y12708971D01*
X9630417Y12851518D02*
G01*
X9550417Y12851518D01*
X9519434Y12820535D02*
G01*
X9519434Y12740538D01*
X9630417Y12709558D02*
G01*
X9550417Y12709558D01*
X10138981Y12819951D02*
G01*
X10138981Y12739949D01*
X10028006Y12850936D02*
G01*
X10108003Y12850936D01*
X10028006Y12708971D02*
G01*
X10108003Y12708971D01*
X9970416Y12851518D02*
G01*
X9890417Y12851518D01*
X9859434Y12820535D02*
G01*
X9859434Y12740538D01*
X9970416Y12709558D02*
G01*
X9890417Y12709558D01*
X8599982Y12073575D02*
G01*
X8599982Y12159975D01*
X8599982Y12159975D02*
G01*
X8699985Y12159975D01*
X8739982Y11978579D02*
G01*
X8739982Y12041372D01*
X8599982Y11859976D02*
G01*
X8599982Y11946376D01*
X8599982Y11859976D02*
G01*
X8699985Y11859976D01*
X8609982Y11683575D02*
G01*
X8609982Y11769976D01*
X8609982Y11769976D02*
G01*
X8709985Y11769976D01*
X8749982Y11588579D02*
G01*
X8749982Y11651373D01*
X8609982Y11469977D02*
G01*
X8609982Y11556377D01*
X8609982Y11469977D02*
G01*
X8709985Y11469977D01*
D10*
X9386041Y12112597D02*
G01*
X9386041Y12208484D01*
X9253921Y12208484D01*
X9253921Y12112597D01*
X9386041Y12027354D02*
G01*
X9386041Y11931467D01*
X9253921Y11931467D01*
X9253921Y12027354D01*
X9183921Y11527355D02*
G01*
X9183921Y11431468D01*
X9316041Y11431468D01*
X9316041Y11527355D01*
X9183921Y11612598D02*
G01*
X9183921Y11708485D01*
X9316041Y11708485D01*
X9316041Y11612598D01*
X9136042Y11612598D02*
G01*
X9136042Y11708485D01*
X9003921Y11708485D01*
X9003921Y11612598D01*
X9136042Y11527355D02*
G01*
X9136042Y11431468D01*
X9003921Y11431468D01*
X9003921Y11527355D01*
X9136042Y12042597D02*
G01*
X9136042Y12138484D01*
X9003921Y12138484D01*
X9003921Y12042597D01*
X9136042Y11957354D02*
G01*
X9136042Y11861467D01*
X9003921Y11861467D01*
X9003921Y11957354D01*
D16*
G75*
G01*
X8721382Y11040839D02*
G03*
X8721382Y11040585I-19999J-127D01*
G75*
G01*
X9701380Y11040839D02*
G03*
X9701380Y11040585I-19999J-127D01*
D10*
G75*
G01*
X10180719Y13008854D02*
G03*
X10195959Y12993614I15240J0D01*
G75*
G01*
X10384000Y12993614D02*
G03*
X10399240Y13008854I0J15240D01*
G75*
G01*
X10180719Y13491093D02*
G02*
X10195959Y13506333I15240J0D01*
G75*
G01*
X10384000Y13506333D02*
G02*
X10399240Y13491093I0J-15240D01*
D14*
G75*
G01*
X10299418Y12659424D02*
G02*
X10268435Y12690406I0J30982D01*
G75*
G01*
X10410401Y12690406D02*
G02*
X10379415Y12659424I-30983J0D01*
G75*
G01*
X10269017Y12907993D02*
G02*
X10300002Y12938976I30983J0D01*
G75*
G01*
X10380000Y12938976D02*
G02*
X10410982Y12907993I0J-30983D01*
G75*
G01*
X9519430Y12820536D02*
G02*
X9550413Y12851519I30983J0D01*
G75*
G01*
X9550413Y12709553D02*
G02*
X9519430Y12740538I0J30983D01*
G75*
G01*
X9767999Y12850937D02*
G02*
X9798982Y12819951I0J-30983D01*
G75*
G01*
X9798982Y12739954D02*
G02*
X9767999Y12708971I-30983J0D01*
G75*
G01*
X9859429Y12820536D02*
G02*
X9890412Y12851519I30983J0D01*
G75*
G01*
X9890412Y12709553D02*
G02*
X9859429Y12740538I0J30983D01*
G75*
G01*
X10107999Y12850937D02*
G02*
X10138981Y12819951I0J-30983D01*
G75*
G01*
X10138981Y12739954D02*
G02*
X10107999Y12708971I-30982J0D01*
G75*
G01
X10083825Y12349963D02*
G03X10083825Y12349963I-193853J0D01*
G75*
G01
X10038080Y12349963D02*
G03X10038080Y12349963I-148107J0D01*
M02*
