G04 Layer: TopSolderMaskLayer*
G04 EasyEDA v6.5.29, 2023-07-08 22:53:17*
G04 f4c6c8685b5442dcac5e84d632293f1e,52c161dc85b4440087471843f8ea1cfe,10*
G04 Gerber Generator version 0.2*
G04 Scale: 100 percent, Rotated: No, Reflected: No *
G04 Dimensions in millimeters *
G04 leading zeros omitted , absolute positions ,4 integer and 5 decimal *
%FSLAX45Y45*%
%MOMM*%

%AMMACRO1*1,1,$1,$2,$3*1,1,$1,$4,$5*1,1,$1,0-$2,0-$3*1,1,$1,0-$4,0-$5*20,1,$1,$2,$3,$4,$5,0*20,1,$1,$4,$5,0-$2,0-$3,0*20,1,$1,0-$2,0-$3,0-$4,0-$5,0*20,1,$1,0-$4,0-$5,$2,$3,0*4,1,4,$2,$3,$4,$5,0-$2,0-$3,0-$4,0-$5,$2,$3,0*%
%ADD10MACRO1,0.1016X0.8X-0.8X0.8X0.8*%
%ADD11C,1.7016*%
%ADD12MACRO1,0.1016X1X-1X-1X-1*%
%ADD13C,2.1016*%
%ADD14MACRO1,0.1016X-0.85X0.85X0.85X0.85*%
%ADD15C,1.8016*%
%ADD16MACRO1,0.1016X0.432X-0.4032X-0.432X-0.4032*%
%ADD17MACRO1,0.1016X0.432X0.4032X-0.432X0.4032*%
%ADD18R,0.9656X0.9081*%
%ADD19O,1.9015963999999999X0.7015988*%
%ADD20C,1.9016*%
%ADD21MACRO1,0.1016X-0.9X0.9X0.9X0.9*%
%ADD22MACRO1,0.1016X-0.381X0.762X0.381X0.762*%
%ADD23MACRO1,0.1016X-1.05X0.6X1.05X0.6*%
%ADD24MACRO1,0.1016X-0.432X0.4032X0.432X0.4032*%
%ADD25MACRO1,0.1016X-0.432X-0.4032X0.432X-0.4032*%
%ADD26MACRO1,0.1016X-0.45X-0.4X-0.45X0.4*%
%ADD27MACRO1,0.1016X-0.864X0.7425X0.864X0.7425*%
%ADD28MACRO1,0.1016X-0.864X-0.7425X0.864X-0.7425*%
%ADD29MACRO1,0.1016X-0.4X0.45X0.4X0.45*%
%ADD30MACRO1,0.1016X0.5X-0.4X-0.5X-0.4*%

%LPD*%
D10*
G01*
X10599978Y10745975D03*
D11*
G01*
X10599978Y10999978D03*
G01*
X10599978Y11253978D03*
G01*
X10599978Y11507978D03*
G01*
X10599978Y11761978D03*
G01*
X10599978Y12015978D03*
G01*
X10599978Y12269978D03*
G01*
X10599978Y12523978D03*
G01*
X10599978Y12777978D03*
G01*
X10599978Y13031978D03*
G01*
X10599978Y13285978D03*
G01*
X10599978Y13539978D03*
G01*
X10599978Y13793978D03*
D10*
G01*
X8299983Y10745975D03*
D11*
G01*
X8299983Y10999978D03*
G01*
X8299983Y11253978D03*
G01*
X8299983Y11507978D03*
G01*
X8299983Y11761978D03*
G01*
X8299983Y12015978D03*
G01*
X8299983Y12269978D03*
G01*
X8299983Y12523978D03*
G01*
X8299983Y12777978D03*
G01*
X8299983Y13031978D03*
G01*
X8299983Y13285978D03*
G01*
X8299983Y13539978D03*
G01*
X8299983Y13793978D03*
D12*
G01*
X9766980Y11719976D03*
D13*
G01*
X9512985Y11719966D03*
D14*
G01*
X8418983Y9599979D03*
D15*
G01*
X8672982Y9599980D03*
G01*
X8926982Y9599980D03*
G01*
X9180982Y9599980D03*
D14*
G01*
X8418983Y8949980D03*
D15*
G01*
X8672982Y8949969D03*
G01*
X8926982Y8949969D03*
G01*
X9180982Y8949969D03*
G01*
X9718979Y9599980D03*
G01*
X9972979Y9599980D03*
G01*
X10226979Y9599980D03*
G01*
X10480979Y9599980D03*
D14*
G01*
X9718981Y8949980D03*
D15*
G01*
X9972979Y8949969D03*
G01*
X10226979Y8949969D03*
G01*
X10480979Y8949969D03*
D16*
G01*
X8619982Y13365298D03*
D17*
G01*
X8619982Y13214648D03*
D16*
G01*
X8819982Y13365298D03*
D17*
G01*
X8819982Y13214648D03*
D16*
G01*
X9019987Y13365298D03*
D17*
G01*
X9019987Y13214648D03*
D18*
G01*
X9219971Y13365302D03*
G01*
X9219971Y13214654D03*
D19*
G01*
X9247174Y10065486D03*
G01*
X9247174Y10192486D03*
G01*
X9247174Y10319486D03*
G01*
X9247174Y10446486D03*
G01*
X9247174Y10573486D03*
G01*
X9247174Y10700486D03*
G01*
X9247174Y10827486D03*
G01*
X9247174Y10954486D03*
G01*
X8652814Y10065486D03*
G01*
X8652814Y10192486D03*
G01*
X8652814Y10319486D03*
G01*
X8652814Y10446486D03*
G01*
X8652814Y10573486D03*
G01*
X8652814Y10700486D03*
G01*
X8652814Y10827486D03*
G01*
X8652814Y10954486D03*
G01*
X10227183Y10065486D03*
G01*
X10227183Y10192486D03*
G01*
X10227183Y10319486D03*
G01*
X10227183Y10446486D03*
G01*
X10227183Y10573486D03*
G01*
X10227183Y10700486D03*
G01*
X10227183Y10827486D03*
G01*
X10227183Y10954486D03*
G01*
X9632822Y10065486D03*
G01*
X9632822Y10192486D03*
G01*
X9632822Y10319486D03*
G01*
X9632822Y10446486D03*
G01*
X9632822Y10573486D03*
G01*
X9632822Y10700486D03*
G01*
X9632822Y10827486D03*
G01*
X9632822Y10954486D03*
D20*
G01*
X10034981Y11249964D03*
G01*
X9780981Y11249964D03*
G01*
X9526981Y11249964D03*
G01*
X9272981Y11249964D03*
G01*
X9018981Y11249964D03*
D21*
G01*
X8764981Y11249977D03*
D15*
G01*
X9876993Y13149961D03*
G01*
X9622993Y13149961D03*
D22*
G01*
X9033492Y13030974D03*
G01*
X9033492Y12268974D03*
G01*
X8906492Y12268974D03*
G01*
X8906492Y13030974D03*
G01*
X8779492Y13030974D03*
G01*
X8779492Y12268974D03*
G01*
X9160492Y12268974D03*
G01*
X9160492Y13030974D03*
D23*
G01*
X10189980Y12149975D03*
G01*
X9589980Y12149975D03*
G01*
X10189980Y12549974D03*
G01*
X9589980Y12549974D03*
D24*
G01*
X10599978Y10234654D03*
D25*
G01*
X10599978Y10385304D03*
D24*
G01*
X10319979Y11154652D03*
D25*
G01*
X10319979Y11305302D03*
D26*
G01*
X10199979Y11677980D03*
G01*
X10199979Y11821972D03*
D18*
G01*
X10029977Y11825300D03*
G01*
X10029977Y11674652D03*
D27*
G01*
X10289979Y13090723D03*
D28*
G01*
X10289979Y13409223D03*
D26*
G01*
X10339979Y12869974D03*
G01*
X10339979Y12729974D03*
D29*
G01*
X9729980Y12779974D03*
G01*
X9589980Y12779974D03*
G01*
X10069979Y12779974D03*
G01*
X9929980Y12779974D03*
D30*
G01*
X8784983Y12104977D03*
G01*
X8554981Y12009981D03*
G01*
X8784981Y11914974D03*
G01*
X8794983Y11714977D03*
G01*
X8564981Y11619981D03*
G01*
X8794981Y11524975D03*
D16*
G01*
X9319981Y12145300D03*
D17*
G01*
X9319981Y11994650D03*
D24*
G01*
X9249981Y11494651D03*
D25*
G01*
X9249981Y11645301D03*
D16*
G01*
X9069981Y11645301D03*
D17*
G01*
X9069981Y11494651D03*
D16*
G01*
X9069981Y12075300D03*
D17*
G01*
X9069981Y11924651D03*
M02*
